%TF.GenerationSoftware,KiCad,Pcbnew,9.0.7*%
%TF.CreationDate,2026-05-10T18:01:09+02:00*%
%TF.ProjectId,projetled,70726f6a-6574-46c6-9564-2e6b69636164,rev?*%
%TF.SameCoordinates,Original*%
%TF.FileFunction,Copper,L2,Bot*%
%TF.FilePolarity,Positive*%
%FSLAX46Y46*%
G04 Gerber Fmt 4.6, Leading zero omitted, Abs format (unit mm)*
G04 Created by KiCad (PCBNEW 9.0.7) date 2026-05-10 18:01:09*
%MOMM*%
%LPD*%
G01*
G04 APERTURE LIST*
%TA.AperFunction,ComponentPad*%
%ADD10R,1.800000X1.800000*%
%TD*%
%TA.AperFunction,ComponentPad*%
%ADD11C,1.800000*%
%TD*%
%TA.AperFunction,ComponentPad*%
%ADD12C,2.000000*%
%TD*%
%TA.AperFunction,ComponentPad*%
%ADD13R,1.700000X1.700000*%
%TD*%
%TA.AperFunction,ComponentPad*%
%ADD14C,1.700000*%
%TD*%
%TA.AperFunction,ViaPad*%
%ADD15C,0.600000*%
%TD*%
%TA.AperFunction,Conductor*%
%ADD16C,0.200000*%
%TD*%
G04 APERTURE END LIST*
D10*
%TO.P,IR_LED1,1,K*%
%TO.N,Net-(IR_LED1-K)*%
X265590000Y-69670000D03*
D11*
%TO.P,IR_LED1,2,A*%
%TO.N,Net-(IR_LED1-A)*%
X265590000Y-67130000D03*
%TD*%
D12*
%TO.P,SW1,1,1*%
%TO.N,Net-(J5-Pin_6)*%
X252000000Y-75000000D03*
X252000000Y-68500000D03*
%TO.P,SW1,2,2*%
%TO.N,BUTTON1*%
X256500000Y-75000000D03*
X256500000Y-68500000D03*
%TD*%
%TO.P,SW4,1,1*%
%TO.N,Net-(J5-Pin_6)*%
X222000000Y-75000000D03*
X222000000Y-68500000D03*
%TO.P,SW4,2,2*%
%TO.N,BUTTON4*%
X226500000Y-75000000D03*
X226500000Y-68500000D03*
%TD*%
%TO.P,SW2,1,1*%
%TO.N,Net-(J5-Pin_6)*%
X242000000Y-75000000D03*
X242000000Y-68500000D03*
%TO.P,SW2,2,2*%
%TO.N,BUTTON2*%
X246500000Y-75000000D03*
X246500000Y-68500000D03*
%TD*%
%TO.P,SW3,1,1*%
%TO.N,Net-(J5-Pin_6)*%
X232000000Y-75000000D03*
X232000000Y-68500000D03*
%TO.P,SW3,2,2*%
%TO.N,BUTTON3*%
X236500000Y-75000000D03*
X236500000Y-68500000D03*
%TD*%
D13*
%TO.P,J2,1*%
%TO.N,unconnected-(J2-Pin_1-Pad1)*%
X252060000Y-92725000D03*
D14*
%TO.P,J2,2*%
%TO.N,unconnected-(J2-Pin_2-Pad2)*%
X254600000Y-92725000D03*
%TO.P,J2,3*%
%TO.N,unconnected-(J2-Pin_3-Pad3)*%
X257140000Y-92725000D03*
%TO.P,J2,4*%
%TO.N,unconnected-(J2-Pin_4-Pad4)*%
X259680000Y-92725000D03*
%TO.P,J2,5*%
%TO.N,unconnected-(J2-Pin_5-Pad5)*%
X262220000Y-92725000D03*
%TO.P,J2,6*%
%TO.N,unconnected-(J2-Pin_6-Pad6)*%
X264760000Y-92725000D03*
%TD*%
D13*
%TO.P,J5,1*%
%TO.N,unconnected-(J5-Pin_1-Pad1)*%
X230220000Y-92725000D03*
D14*
%TO.P,J5,2*%
%TO.N,unconnected-(J5-Pin_2-Pad2)*%
X232760000Y-92725000D03*
%TO.P,J5,3*%
%TO.N,unconnected-(J5-Pin_3-Pad3)*%
X235300000Y-92725000D03*
%TO.P,J5,4*%
%TO.N,Net-(J5-Pin_4)*%
X237840000Y-92725000D03*
%TO.P,J5,5*%
%TO.N,Net-(J5-Pin_5)*%
X240380000Y-92725000D03*
%TO.P,J5,6*%
%TO.N,Net-(J5-Pin_6)*%
X242920000Y-92725000D03*
%TO.P,J5,7*%
%TO.N,unconnected-(J5-Pin_7-Pad7)*%
X245460000Y-92725000D03*
%TO.P,J5,8*%
%TO.N,unconnected-(J5-Pin_8-Pad8)*%
X248000000Y-92725000D03*
%TD*%
D13*
%TO.P,J3,1*%
%TO.N,unconnected-(J3-Pin_1-Pad1)*%
X242924000Y-44476000D03*
D14*
%TO.P,J3,2*%
%TO.N,unconnected-(J3-Pin_2-Pad2)*%
X240384000Y-44476000D03*
%TO.P,J3,3*%
%TO.N,unconnected-(J3-Pin_3-Pad3)*%
X237844000Y-44476000D03*
%TO.P,J3,4*%
%TO.N,unconnected-(J3-Pin_4-Pad4)*%
X235304000Y-44476000D03*
%TO.P,J3,5*%
%TO.N,unconnected-(J3-Pin_5-Pad5)*%
X232764000Y-44476000D03*
%TO.P,J3,6*%
%TO.N,unconnected-(J3-Pin_6-Pad6)*%
X230224000Y-44476000D03*
%TO.P,J3,7*%
%TO.N,unconnected-(J3-Pin_7-Pad7)*%
X227684000Y-44476000D03*
%TO.P,J3,8*%
%TO.N,unconnected-(J3-Pin_8-Pad8)*%
X225144000Y-44476000D03*
%TO.P,J3,9*%
%TO.N,unconnected-(J3-Pin_9-Pad9)*%
X222604000Y-44476000D03*
%TO.P,J3,10*%
%TO.N,unconnected-(J3-Pin_10-Pad10)*%
X220064000Y-44476000D03*
%TD*%
D13*
%TO.P,J4,1*%
%TO.N,BUTTON1*%
X264749000Y-44476000D03*
D14*
%TO.P,J4,2*%
%TO.N,BUTTON2*%
X262209000Y-44476000D03*
%TO.P,J4,3*%
%TO.N,BUTTON3*%
X259669000Y-44476000D03*
%TO.P,J4,4*%
%TO.N,BUTTON4*%
X257129000Y-44476000D03*
%TO.P,J4,5*%
%TO.N,TX*%
X254589000Y-44476000D03*
%TO.P,J4,6*%
%TO.N,unconnected-(J4-Pin_6-Pad6)*%
X252049000Y-44476000D03*
%TO.P,J4,7*%
%TO.N,unconnected-(J4-Pin_7-Pad7)*%
X249509000Y-44476000D03*
%TO.P,J4,8*%
%TO.N,unconnected-(J4-Pin_8-Pad8)*%
X246969000Y-44476000D03*
%TD*%
D15*
%TO.N,BUTTON3*%
X233900000Y-65800000D03*
X227600000Y-59500000D03*
X227600000Y-56100000D03*
X239300000Y-48800000D03*
%TO.N,BUTTON4*%
X221300000Y-53800000D03*
%TO.N,BUTTON2*%
X239400000Y-59700000D03*
X248000000Y-47900000D03*
X239400000Y-56900000D03*
%TO.N,Net-(J5-Pin_6)*%
X246600000Y-59300000D03*
X259800000Y-65300000D03*
X244300000Y-53300000D03*
%TD*%
D16*
%TO.N,BUTTON1*%
X256500000Y-68500000D02*
X256500000Y-75000000D01*
%TO.N,BUTTON3*%
X230699000Y-67961108D02*
X230699000Y-75538892D01*
X232860108Y-65800000D02*
X230699000Y-67961108D01*
X227600000Y-59500000D02*
X227600000Y-56100000D01*
X230699000Y-75538892D02*
X231461108Y-76301000D01*
X236500000Y-68500000D02*
X236500000Y-75000000D01*
X233900000Y-65800000D02*
X232860108Y-65800000D01*
X231461108Y-76301000D02*
X235199000Y-76301000D01*
X255345000Y-48800000D02*
X259669000Y-44476000D01*
X235199000Y-76301000D02*
X236500000Y-75000000D01*
X239300000Y-48800000D02*
X255345000Y-48800000D01*
%TO.N,BUTTON4*%
X257129000Y-44476000D02*
X254306000Y-47299000D01*
X239201000Y-47299000D02*
X232700000Y-53800000D01*
X254306000Y-47299000D02*
X239201000Y-47299000D01*
X232700000Y-53800000D02*
X221300000Y-53800000D01*
X226500000Y-68500000D02*
X226500000Y-75000000D01*
%TO.N,BUTTON2*%
X239400000Y-59700000D02*
X239400000Y-56900000D01*
X258518000Y-43999240D02*
X258518000Y-44714760D01*
X259192240Y-43325000D02*
X258518000Y-43999240D01*
X246500000Y-68500000D02*
X246500000Y-75000000D01*
X258518000Y-44714760D02*
X255332760Y-47900000D01*
X262209000Y-44476000D02*
X261058000Y-43325000D01*
X261058000Y-43325000D02*
X259192240Y-43325000D01*
X255332760Y-47900000D02*
X248000000Y-47900000D01*
%TO.N,Net-(J5-Pin_6)*%
X222000000Y-68500000D02*
X222000000Y-75000000D01*
X252000000Y-68500000D02*
X252000000Y-75000000D01*
X246600000Y-59300000D02*
X246600000Y-55600000D01*
X246600000Y-55600000D02*
X244300000Y-53300000D01*
X250699000Y-67199000D02*
X252598000Y-65300000D01*
X242000000Y-68500000D02*
X240699000Y-67199000D01*
X242000000Y-91805000D02*
X242000000Y-75000000D01*
X259300000Y-65300000D02*
X259800000Y-65300000D01*
X252000000Y-68500000D02*
X250699000Y-67199000D01*
X250699000Y-67199000D02*
X243301000Y-67199000D01*
X242000000Y-68500000D02*
X242000000Y-75000000D01*
X243301000Y-67199000D02*
X242000000Y-68500000D01*
X242920000Y-92725000D02*
X242000000Y-91805000D01*
X240699000Y-67199000D02*
X233301000Y-67199000D01*
X252598000Y-65300000D02*
X259300000Y-65300000D01*
X233301000Y-67199000D02*
X232000000Y-68500000D01*
X232000000Y-68500000D02*
X232000000Y-75000000D01*
%TD*%
M02*
