%TF.GenerationSoftware,KiCad,Pcbnew,9.0.7*%
%TF.CreationDate,2026-05-10T18:01:10+02:00*%
%TF.ProjectId,projetled,70726f6a-6574-46c6-9564-2e6b69636164,rev?*%
%TF.SameCoordinates,Original*%
%TF.FileFunction,Legend,Bot*%
%TF.FilePolarity,Positive*%
%FSLAX46Y46*%
G04 Gerber Fmt 4.6, Leading zero omitted, Abs format (unit mm)*
G04 Created by KiCad (PCBNEW 9.0.7) date 2026-05-10 18:01:10*
%MOMM*%
%LPD*%
G01*
G04 APERTURE LIST*
%ADD10C,0.150000*%
%ADD11C,0.120000*%
G04 APERTURE END LIST*
D10*
X268333333Y-91854819D02*
X268333333Y-92569104D01*
X268333333Y-92569104D02*
X268380952Y-92711961D01*
X268380952Y-92711961D02*
X268476190Y-92807200D01*
X268476190Y-92807200D02*
X268619047Y-92854819D01*
X268619047Y-92854819D02*
X268714285Y-92854819D01*
X267904761Y-91950057D02*
X267857142Y-91902438D01*
X267857142Y-91902438D02*
X267761904Y-91854819D01*
X267761904Y-91854819D02*
X267523809Y-91854819D01*
X267523809Y-91854819D02*
X267428571Y-91902438D01*
X267428571Y-91902438D02*
X267380952Y-91950057D01*
X267380952Y-91950057D02*
X267333333Y-92045295D01*
X267333333Y-92045295D02*
X267333333Y-92140533D01*
X267333333Y-92140533D02*
X267380952Y-92283390D01*
X267380952Y-92283390D02*
X267952380Y-92854819D01*
X267952380Y-92854819D02*
X267333333Y-92854819D01*
X227233333Y-92154819D02*
X227233333Y-92869104D01*
X227233333Y-92869104D02*
X227280952Y-93011961D01*
X227280952Y-93011961D02*
X227376190Y-93107200D01*
X227376190Y-93107200D02*
X227519047Y-93154819D01*
X227519047Y-93154819D02*
X227614285Y-93154819D01*
X226280952Y-92154819D02*
X226757142Y-92154819D01*
X226757142Y-92154819D02*
X226804761Y-92631009D01*
X226804761Y-92631009D02*
X226757142Y-92583390D01*
X226757142Y-92583390D02*
X226661904Y-92535771D01*
X226661904Y-92535771D02*
X226423809Y-92535771D01*
X226423809Y-92535771D02*
X226328571Y-92583390D01*
X226328571Y-92583390D02*
X226280952Y-92631009D01*
X226280952Y-92631009D02*
X226233333Y-92726247D01*
X226233333Y-92726247D02*
X226233333Y-92964342D01*
X226233333Y-92964342D02*
X226280952Y-93059580D01*
X226280952Y-93059580D02*
X226328571Y-93107200D01*
X226328571Y-93107200D02*
X226423809Y-93154819D01*
X226423809Y-93154819D02*
X226661904Y-93154819D01*
X226661904Y-93154819D02*
X226757142Y-93107200D01*
X226757142Y-93107200D02*
X226804761Y-93059580D01*
X217732333Y-44180819D02*
X217732333Y-44895104D01*
X217732333Y-44895104D02*
X217779952Y-45037961D01*
X217779952Y-45037961D02*
X217875190Y-45133200D01*
X217875190Y-45133200D02*
X218018047Y-45180819D01*
X218018047Y-45180819D02*
X218113285Y-45180819D01*
X217351380Y-44180819D02*
X216732333Y-44180819D01*
X216732333Y-44180819D02*
X217065666Y-44561771D01*
X217065666Y-44561771D02*
X216922809Y-44561771D01*
X216922809Y-44561771D02*
X216827571Y-44609390D01*
X216827571Y-44609390D02*
X216779952Y-44657009D01*
X216779952Y-44657009D02*
X216732333Y-44752247D01*
X216732333Y-44752247D02*
X216732333Y-44990342D01*
X216732333Y-44990342D02*
X216779952Y-45085580D01*
X216779952Y-45085580D02*
X216827571Y-45133200D01*
X216827571Y-45133200D02*
X216922809Y-45180819D01*
X216922809Y-45180819D02*
X217208523Y-45180819D01*
X217208523Y-45180819D02*
X217303761Y-45133200D01*
X217303761Y-45133200D02*
X217351380Y-45085580D01*
X268542333Y-44195819D02*
X268542333Y-44910104D01*
X268542333Y-44910104D02*
X268589952Y-45052961D01*
X268589952Y-45052961D02*
X268685190Y-45148200D01*
X268685190Y-45148200D02*
X268828047Y-45195819D01*
X268828047Y-45195819D02*
X268923285Y-45195819D01*
X267637571Y-44529152D02*
X267637571Y-45195819D01*
X267875666Y-44148200D02*
X268113761Y-44862485D01*
X268113761Y-44862485D02*
X267494714Y-44862485D01*
D11*
%TO.C,J2*%
X250680000Y-91345000D02*
X250680000Y-92725000D01*
X252060000Y-91345000D02*
X250680000Y-91345000D01*
X253330000Y-91345000D02*
X253330000Y-94105000D01*
X253330000Y-91345000D02*
X266140000Y-91345000D01*
X253330000Y-94105000D02*
X266140000Y-94105000D01*
X266140000Y-91345000D02*
X266140000Y-94105000D01*
%TO.C,J5*%
X228840000Y-91345000D02*
X228840000Y-92725000D01*
X230220000Y-91345000D02*
X228840000Y-91345000D01*
X231490000Y-91345000D02*
X231490000Y-94105000D01*
X231490000Y-91345000D02*
X249380000Y-91345000D01*
X231490000Y-94105000D02*
X249380000Y-94105000D01*
X249380000Y-91345000D02*
X249380000Y-94105000D01*
%TO.C,J3*%
X218684000Y-45856000D02*
X218684000Y-43096000D01*
X241654000Y-43096000D02*
X218684000Y-43096000D01*
X241654000Y-45856000D02*
X218684000Y-45856000D01*
X241654000Y-45856000D02*
X241654000Y-43096000D01*
X242924000Y-45856000D02*
X244304000Y-45856000D01*
X244304000Y-45856000D02*
X244304000Y-44476000D01*
%TO.C,J4*%
X245589000Y-45856000D02*
X245589000Y-43096000D01*
X263479000Y-43096000D02*
X245589000Y-43096000D01*
X263479000Y-45856000D02*
X245589000Y-45856000D01*
X263479000Y-45856000D02*
X263479000Y-43096000D01*
X264749000Y-45856000D02*
X266129000Y-45856000D01*
X266129000Y-45856000D02*
X266129000Y-44476000D01*
%TD*%
M02*
