%TF.GenerationSoftware,KiCad,Pcbnew,9.0.7*%
%TF.CreationDate,2026-05-10T18:03:11+02:00*%
%TF.ProjectId,KICAD RECEPTEUR FINAL,4b494341-4420-4524-9543-455054455552,rev?*%
%TF.SameCoordinates,Original*%
%TF.FileFunction,Copper,L2,Bot*%
%TF.FilePolarity,Positive*%
%FSLAX46Y46*%
G04 Gerber Fmt 4.6, Leading zero omitted, Abs format (unit mm)*
G04 Created by KiCad (PCBNEW 9.0.7) date 2026-05-10 18:03:11*
%MOMM*%
%LPD*%
G01*
G04 APERTURE LIST*
G04 Aperture macros list*
%AMRoundRect*
0 Rectangle with rounded corners*
0 $1 Rounding radius*
0 $2 $3 $4 $5 $6 $7 $8 $9 X,Y pos of 4 corners*
0 Add a 4 corners polygon primitive as box body*
4,1,4,$2,$3,$4,$5,$6,$7,$8,$9,$2,$3,0*
0 Add four circle primitives for the rounded corners*
1,1,$1+$1,$2,$3*
1,1,$1+$1,$4,$5*
1,1,$1+$1,$6,$7*
1,1,$1+$1,$8,$9*
0 Add four rect primitives between the rounded corners*
20,1,$1+$1,$2,$3,$4,$5,0*
20,1,$1+$1,$4,$5,$6,$7,0*
20,1,$1+$1,$6,$7,$8,$9,0*
20,1,$1+$1,$8,$9,$2,$3,0*%
G04 Aperture macros list end*
%TA.AperFunction,ComponentPad*%
%ADD10RoundRect,0.250000X-0.550000X-0.550000X0.550000X-0.550000X0.550000X0.550000X-0.550000X0.550000X0*%
%TD*%
%TA.AperFunction,ComponentPad*%
%ADD11C,1.600000*%
%TD*%
%TA.AperFunction,ComponentPad*%
%ADD12R,1.700000X1.700000*%
%TD*%
%TA.AperFunction,ComponentPad*%
%ADD13C,1.700000*%
%TD*%
%TA.AperFunction,ViaPad*%
%ADD14C,0.600000*%
%TD*%
%TA.AperFunction,Conductor*%
%ADD15C,0.200000*%
%TD*%
G04 APERTURE END LIST*
D10*
%TO.P,U1,1*%
%TO.N,GND*%
X84079000Y-67818000D03*
D11*
%TO.P,U1,2*%
%TO.N,Net-(J3-Pin_5)*%
X84079000Y-70358000D03*
%TO.P,U1,3*%
%TO.N,Net-(R1-Pad2)*%
X84079000Y-72898000D03*
%TO.P,U1,4*%
%TO.N,N/C*%
X84079000Y-75438000D03*
%TO.P,U1,5*%
X84079000Y-77978000D03*
%TO.P,U1,6*%
X84079000Y-80518000D03*
%TO.P,U1,7,GND*%
%TO.N,GND*%
X84079000Y-83058000D03*
%TO.P,U1,8*%
%TO.N,N/C*%
X91699000Y-83058000D03*
%TO.P,U1,9*%
X91699000Y-80518000D03*
%TO.P,U1,10*%
X91699000Y-77978000D03*
%TO.P,U1,11*%
X91699000Y-75438000D03*
%TO.P,U1,12*%
X91699000Y-72898000D03*
%TO.P,U1,13*%
X91699000Y-70358000D03*
%TO.P,U1,14,VCC*%
%TO.N,+5V*%
X91699000Y-67818000D03*
%TD*%
D12*
%TO.P,Capteur_IR1,1,Pin_1*%
%TO.N,GND*%
X71525000Y-138825000D03*
D13*
%TO.P,Capteur_IR1,2,Pin_2*%
%TO.N,+5V*%
X68985000Y-138825000D03*
%TO.P,Capteur_IR1,3,Pin_3*%
%TO.N,Net-(Capteur_IR1-Pin_3)*%
X66445000Y-138825000D03*
%TD*%
D12*
%TO.P,J4,1,Pin_1*%
%TO.N,unconnected-(J4-Pin_1-Pad1)*%
X93091000Y-121412000D03*
D13*
%TO.P,J4,2,Pin_2*%
%TO.N,Net-(J3-Pin_5)*%
X93091000Y-123952000D03*
%TO.P,J4,3,Pin_3*%
%TO.N,unconnected-(J4-Pin_3-Pad3)*%
X93091000Y-126492000D03*
%TO.P,J4,4,Pin_4*%
%TO.N,unconnected-(J4-Pin_4-Pad4)*%
X93091000Y-129032000D03*
%TO.P,J4,5,Pin_5*%
%TO.N,unconnected-(J4-Pin_5-Pad5)*%
X93091000Y-131572000D03*
%TO.P,J4,6,Pin_6*%
%TO.N,Net-(Capteur_IR1-Pin_3)*%
X93091000Y-134112000D03*
%TO.P,J4,7,Pin_7*%
%TO.N,unconnected-(J4-Pin_7-Pad7)*%
X93091000Y-136652000D03*
%TO.P,J4,8,Pin_8*%
%TO.N,unconnected-(J4-Pin_8-Pad8)*%
X93091000Y-139192000D03*
%TD*%
D12*
%TO.P,J2,1,Pin_1*%
%TO.N,unconnected-(J2-Pin_1-Pad1)*%
X44831000Y-126492000D03*
D13*
%TO.P,J2,2,Pin_2*%
%TO.N,unconnected-(J2-Pin_2-Pad2)*%
X44831000Y-129032000D03*
%TO.P,J2,3,Pin_3*%
%TO.N,unconnected-(J2-Pin_3-Pad3)*%
X44831000Y-131572000D03*
%TO.P,J2,4,Pin_4*%
%TO.N,unconnected-(J2-Pin_4-Pad4)*%
X44831000Y-134112000D03*
%TO.P,J2,5,Pin_5*%
%TO.N,unconnected-(J2-Pin_5-Pad5)*%
X44831000Y-136652000D03*
%TO.P,J2,6,Pin_6*%
%TO.N,unconnected-(J2-Pin_6-Pad6)*%
X44831000Y-139192000D03*
%TD*%
D12*
%TO.P,J3,1,Pin_1*%
%TO.N,unconnected-(J3-Pin_1-Pad1)*%
X93091000Y-94465000D03*
D13*
%TO.P,J3,2,Pin_2*%
%TO.N,unconnected-(J3-Pin_2-Pad2)*%
X93091000Y-97005000D03*
%TO.P,J3,3,Pin_3*%
%TO.N,unconnected-(J3-Pin_3-Pad3)*%
X93091000Y-99545000D03*
%TO.P,J3,4,Pin_4*%
%TO.N,unconnected-(J3-Pin_4-Pad4)*%
X93091000Y-102085000D03*
%TO.P,J3,5,Pin_5*%
%TO.N,Net-(J3-Pin_5)*%
X93091000Y-104625000D03*
%TO.P,J3,6,Pin_6*%
%TO.N,unconnected-(J3-Pin_6-Pad6)*%
X93091000Y-107165000D03*
%TO.P,J3,7,Pin_7*%
%TO.N,unconnected-(J3-Pin_7-Pad7)*%
X93091000Y-109705000D03*
%TO.P,J3,8,Pin_8*%
%TO.N,unconnected-(J3-Pin_8-Pad8)*%
X93091000Y-112245000D03*
%TO.P,J3,9,Pin_9*%
%TO.N,unconnected-(J3-Pin_9-Pad9)*%
X93091000Y-114785000D03*
%TO.P,J3,10,Pin_10*%
%TO.N,unconnected-(J3-Pin_10-Pad10)*%
X93091000Y-117325000D03*
%TD*%
D12*
%TO.P,J5,1,Pin_1*%
%TO.N,N/C*%
X44831000Y-104620000D03*
D13*
%TO.P,J5,2,Pin_2*%
X44831000Y-107160000D03*
%TO.P,J5,3,Pin_3*%
X44831000Y-109700000D03*
%TO.P,J5,4,Pin_4*%
X44831000Y-112240000D03*
%TO.P,J5,5,Pin_5*%
X44831000Y-114780000D03*
%TO.P,J5,6,Pin_6*%
X44831000Y-117320000D03*
%TO.P,J5,7,Pin_7*%
X44831000Y-119860000D03*
%TO.P,J5,8,Pin_8*%
X44831000Y-122400000D03*
%TD*%
D14*
%TO.N,GND*%
X58000000Y-115400000D03*
X65800000Y-125200000D03*
X62000000Y-112800000D03*
X74200000Y-79600000D03*
X60800000Y-114000000D03*
X74200000Y-99800000D03*
X64400000Y-100600000D03*
X69000000Y-125200000D03*
X74200000Y-81235000D03*
X65400000Y-112800000D03*
X78000000Y-84800000D03*
%TD*%
D15*
%TO.N,GND*%
X64200000Y-100600000D02*
X64400000Y-100600000D01*
X58000000Y-115400000D02*
X59400000Y-115400000D01*
X65400000Y-112800000D02*
X62200000Y-112800000D01*
X69000000Y-125200000D02*
X66600000Y-125200000D01*
X74200000Y-81235000D02*
X74200000Y-79600000D01*
X73400000Y-100600000D02*
X64200000Y-100600000D01*
X79742000Y-83058000D02*
X84079000Y-83058000D01*
X59400000Y-115400000D02*
X60800000Y-114000000D01*
X66600000Y-125200000D02*
X65800000Y-125200000D01*
X74200000Y-99800000D02*
X73400000Y-100600000D01*
X78000000Y-84800000D02*
X79742000Y-83058000D01*
X62200000Y-112800000D02*
X62000000Y-112800000D01*
%TO.N,Net-(J3-Pin_5)*%
X91940000Y-122801000D02*
X91940000Y-105776000D01*
X90598000Y-76877000D02*
X90598000Y-102132000D01*
X93091000Y-123952000D02*
X91940000Y-122801000D01*
X84079000Y-70358000D02*
X90598000Y-76877000D01*
X91940000Y-105776000D02*
X93091000Y-104625000D01*
X90598000Y-102132000D02*
X93091000Y-104625000D01*
%TD*%
%TA.AperFunction,Conductor*%
%TO.N,GND*%
G36*
X97359539Y-62703685D02*
G01*
X97405294Y-62756489D01*
X97416500Y-62808000D01*
X97416500Y-143266500D01*
X97396815Y-143333539D01*
X97344011Y-143379294D01*
X97292500Y-143390500D01*
X40502500Y-143390500D01*
X40435461Y-143370815D01*
X40389706Y-143318011D01*
X40378500Y-143266500D01*
X40378500Y-125594135D01*
X43480500Y-125594135D01*
X43480500Y-127389870D01*
X43480501Y-127389876D01*
X43486908Y-127449483D01*
X43537202Y-127584328D01*
X43537206Y-127584335D01*
X43623452Y-127699544D01*
X43623455Y-127699547D01*
X43738664Y-127785793D01*
X43738671Y-127785797D01*
X43870082Y-127834810D01*
X43926016Y-127876681D01*
X43950433Y-127942145D01*
X43935582Y-128010418D01*
X43914431Y-128038673D01*
X43800889Y-128152215D01*
X43675951Y-128324179D01*
X43579444Y-128513585D01*
X43513753Y-128715760D01*
X43480500Y-128925713D01*
X43480500Y-129138286D01*
X43513753Y-129348239D01*
X43579444Y-129550414D01*
X43675951Y-129739820D01*
X43800890Y-129911786D01*
X43951213Y-130062109D01*
X44123182Y-130187050D01*
X44131946Y-130191516D01*
X44182742Y-130239491D01*
X44199536Y-130307312D01*
X44176998Y-130373447D01*
X44131946Y-130412484D01*
X44123182Y-130416949D01*
X43951213Y-130541890D01*
X43800890Y-130692213D01*
X43675951Y-130864179D01*
X43579444Y-131053585D01*
X43513753Y-131255760D01*
X43480500Y-131465713D01*
X43480500Y-131678286D01*
X43513753Y-131888239D01*
X43579444Y-132090414D01*
X43675951Y-132279820D01*
X43800890Y-132451786D01*
X43951213Y-132602109D01*
X44123182Y-132727050D01*
X44131946Y-132731516D01*
X44182742Y-132779491D01*
X44199536Y-132847312D01*
X44176998Y-132913447D01*
X44131946Y-132952484D01*
X44123182Y-132956949D01*
X43951213Y-133081890D01*
X43800890Y-133232213D01*
X43675951Y-133404179D01*
X43579444Y-133593585D01*
X43513753Y-133795760D01*
X43480500Y-134005713D01*
X43480500Y-134218286D01*
X43513753Y-134428239D01*
X43579444Y-134630414D01*
X43675951Y-134819820D01*
X43800890Y-134991786D01*
X43951213Y-135142109D01*
X44123182Y-135267050D01*
X44131946Y-135271516D01*
X44182742Y-135319491D01*
X44199536Y-135387312D01*
X44176998Y-135453447D01*
X44131946Y-135492484D01*
X44123182Y-135496949D01*
X43951213Y-135621890D01*
X43800890Y-135772213D01*
X43675951Y-135944179D01*
X43579444Y-136133585D01*
X43513753Y-136335760D01*
X43480500Y-136545713D01*
X43480500Y-136758286D01*
X43513753Y-136968239D01*
X43579444Y-137170414D01*
X43675951Y-137359820D01*
X43800890Y-137531786D01*
X43951213Y-137682109D01*
X44123182Y-137807050D01*
X44131946Y-137811516D01*
X44182742Y-137859491D01*
X44199536Y-137927312D01*
X44176998Y-137993447D01*
X44131946Y-138032484D01*
X44123182Y-138036949D01*
X43951213Y-138161890D01*
X43800890Y-138312213D01*
X43675951Y-138484179D01*
X43579444Y-138673585D01*
X43513753Y-138875760D01*
X43491226Y-139017993D01*
X43480500Y-139085713D01*
X43480500Y-139298287D01*
X43513754Y-139508243D01*
X43521738Y-139532816D01*
X43579444Y-139710414D01*
X43675951Y-139899820D01*
X43800890Y-140071786D01*
X43951213Y-140222109D01*
X44123179Y-140347048D01*
X44123181Y-140347049D01*
X44123184Y-140347051D01*
X44312588Y-140443557D01*
X44514757Y-140509246D01*
X44724713Y-140542500D01*
X44724714Y-140542500D01*
X44937286Y-140542500D01*
X44937287Y-140542500D01*
X45147243Y-140509246D01*
X45349412Y-140443557D01*
X45538816Y-140347051D01*
X45560789Y-140331086D01*
X45710786Y-140222109D01*
X45710788Y-140222106D01*
X45710792Y-140222104D01*
X45861104Y-140071792D01*
X45861106Y-140071788D01*
X45861109Y-140071786D01*
X45986048Y-139899820D01*
X45986047Y-139899820D01*
X45986051Y-139899816D01*
X46082557Y-139710412D01*
X46148246Y-139508243D01*
X46181500Y-139298287D01*
X46181500Y-139085713D01*
X46148246Y-138875757D01*
X46097219Y-138718713D01*
X65094500Y-138718713D01*
X65094500Y-138931286D01*
X65127753Y-139141239D01*
X65193444Y-139343414D01*
X65289951Y-139532820D01*
X65414890Y-139704786D01*
X65565213Y-139855109D01*
X65737179Y-139980048D01*
X65737181Y-139980049D01*
X65737184Y-139980051D01*
X65926588Y-140076557D01*
X66128757Y-140142246D01*
X66338713Y-140175500D01*
X66338714Y-140175500D01*
X66551286Y-140175500D01*
X66551287Y-140175500D01*
X66761243Y-140142246D01*
X66963412Y-140076557D01*
X67152816Y-139980051D01*
X67239478Y-139917088D01*
X67324786Y-139855109D01*
X67324788Y-139855106D01*
X67324792Y-139855104D01*
X67475104Y-139704792D01*
X67475106Y-139704788D01*
X67475109Y-139704786D01*
X67600048Y-139532820D01*
X67600047Y-139532820D01*
X67600051Y-139532816D01*
X67604514Y-139524054D01*
X67652488Y-139473259D01*
X67720308Y-139456463D01*
X67786444Y-139478999D01*
X67825486Y-139524056D01*
X67829951Y-139532820D01*
X67954890Y-139704786D01*
X68105213Y-139855109D01*
X68277179Y-139980048D01*
X68277181Y-139980049D01*
X68277184Y-139980051D01*
X68466588Y-140076557D01*
X68668757Y-140142246D01*
X68878713Y-140175500D01*
X68878714Y-140175500D01*
X69091286Y-140175500D01*
X69091287Y-140175500D01*
X69301243Y-140142246D01*
X69503412Y-140076557D01*
X69692816Y-139980051D01*
X69779478Y-139917088D01*
X69864784Y-139855110D01*
X69864784Y-139855109D01*
X69864792Y-139855104D01*
X69978717Y-139741178D01*
X70040036Y-139707696D01*
X70109728Y-139712680D01*
X70165662Y-139754551D01*
X70182577Y-139785528D01*
X70231646Y-139917088D01*
X70231649Y-139917093D01*
X70317809Y-140032187D01*
X70317812Y-140032190D01*
X70432906Y-140118350D01*
X70432913Y-140118354D01*
X70567620Y-140168596D01*
X70567627Y-140168598D01*
X70627155Y-140174999D01*
X70627172Y-140175000D01*
X71275000Y-140175000D01*
X71275000Y-139258012D01*
X71332007Y-139290925D01*
X71459174Y-139325000D01*
X71590826Y-139325000D01*
X71717993Y-139290925D01*
X71775000Y-139258012D01*
X71775000Y-140175000D01*
X72422828Y-140175000D01*
X72422844Y-140174999D01*
X72482372Y-140168598D01*
X72482379Y-140168596D01*
X72617086Y-140118354D01*
X72617093Y-140118350D01*
X72732187Y-140032190D01*
X72732190Y-140032187D01*
X72818350Y-139917093D01*
X72818354Y-139917086D01*
X72868596Y-139782379D01*
X72868598Y-139782372D01*
X72874999Y-139722844D01*
X72875000Y-139722827D01*
X72875000Y-139075000D01*
X71958012Y-139075000D01*
X71990925Y-139017993D01*
X72025000Y-138890826D01*
X72025000Y-138759174D01*
X71990925Y-138632007D01*
X71958012Y-138575000D01*
X72875000Y-138575000D01*
X72875000Y-137927172D01*
X72874999Y-137927155D01*
X72868598Y-137867627D01*
X72868596Y-137867620D01*
X72818354Y-137732913D01*
X72818350Y-137732906D01*
X72732190Y-137617812D01*
X72732187Y-137617809D01*
X72617093Y-137531649D01*
X72617086Y-137531645D01*
X72482379Y-137481403D01*
X72482372Y-137481401D01*
X72422844Y-137475000D01*
X71775000Y-137475000D01*
X71775000Y-138391988D01*
X71717993Y-138359075D01*
X71590826Y-138325000D01*
X71459174Y-138325000D01*
X71332007Y-138359075D01*
X71275000Y-138391988D01*
X71275000Y-137475000D01*
X70627155Y-137475000D01*
X70567627Y-137481401D01*
X70567620Y-137481403D01*
X70432913Y-137531645D01*
X70432906Y-137531649D01*
X70317812Y-137617809D01*
X70317809Y-137617812D01*
X70231649Y-137732906D01*
X70231646Y-137732912D01*
X70182577Y-137864471D01*
X70140705Y-137920404D01*
X70075241Y-137944821D01*
X70006968Y-137929969D01*
X69978714Y-137908818D01*
X69864786Y-137794890D01*
X69692820Y-137669951D01*
X69503414Y-137573444D01*
X69503413Y-137573443D01*
X69503412Y-137573443D01*
X69301243Y-137507754D01*
X69301241Y-137507753D01*
X69301240Y-137507753D01*
X69139957Y-137482208D01*
X69091287Y-137474500D01*
X68878713Y-137474500D01*
X68830042Y-137482208D01*
X68668760Y-137507753D01*
X68466585Y-137573444D01*
X68277179Y-137669951D01*
X68105213Y-137794890D01*
X67954890Y-137945213D01*
X67829949Y-138117182D01*
X67825484Y-138125946D01*
X67777509Y-138176742D01*
X67709688Y-138193536D01*
X67643553Y-138170998D01*
X67604516Y-138125946D01*
X67600050Y-138117182D01*
X67475109Y-137945213D01*
X67324786Y-137794890D01*
X67152820Y-137669951D01*
X66963414Y-137573444D01*
X66963413Y-137573443D01*
X66963412Y-137573443D01*
X66761243Y-137507754D01*
X66761241Y-137507753D01*
X66761240Y-137507753D01*
X66599957Y-137482208D01*
X66551287Y-137474500D01*
X66338713Y-137474500D01*
X66290042Y-137482208D01*
X66128760Y-137507753D01*
X65926585Y-137573444D01*
X65737179Y-137669951D01*
X65565213Y-137794890D01*
X65414890Y-137945213D01*
X65289951Y-138117179D01*
X65193444Y-138306585D01*
X65127753Y-138508760D01*
X65094500Y-138718713D01*
X46097219Y-138718713D01*
X46082557Y-138673588D01*
X45986051Y-138484184D01*
X45986049Y-138484181D01*
X45986048Y-138484179D01*
X45861109Y-138312213D01*
X45710786Y-138161890D01*
X45538820Y-138036951D01*
X45538115Y-138036591D01*
X45530054Y-138032485D01*
X45479259Y-137984512D01*
X45462463Y-137916692D01*
X45484999Y-137850556D01*
X45530054Y-137811515D01*
X45538816Y-137807051D01*
X45640859Y-137732913D01*
X45710786Y-137682109D01*
X45710788Y-137682106D01*
X45710792Y-137682104D01*
X45861104Y-137531792D01*
X45861106Y-137531788D01*
X45861109Y-137531786D01*
X45986048Y-137359820D01*
X45986047Y-137359820D01*
X45986051Y-137359816D01*
X46082557Y-137170412D01*
X46148246Y-136968243D01*
X46181500Y-136758287D01*
X46181500Y-136545713D01*
X46148246Y-136335757D01*
X46082557Y-136133588D01*
X45986051Y-135944184D01*
X45986049Y-135944181D01*
X45986048Y-135944179D01*
X45861109Y-135772213D01*
X45710786Y-135621890D01*
X45538820Y-135496951D01*
X45538115Y-135496591D01*
X45530054Y-135492485D01*
X45479259Y-135444512D01*
X45462463Y-135376692D01*
X45484999Y-135310556D01*
X45530054Y-135271515D01*
X45538816Y-135267051D01*
X45560789Y-135251086D01*
X45710786Y-135142109D01*
X45710788Y-135142106D01*
X45710792Y-135142104D01*
X45861104Y-134991792D01*
X45861106Y-134991788D01*
X45861109Y-134991786D01*
X45986048Y-134819820D01*
X45986047Y-134819820D01*
X45986051Y-134819816D01*
X46082557Y-134630412D01*
X46148246Y-134428243D01*
X46181500Y-134218287D01*
X46181500Y-134005713D01*
X46148246Y-133795757D01*
X46082557Y-133593588D01*
X45986051Y-133404184D01*
X45986049Y-133404181D01*
X45986048Y-133404179D01*
X45861109Y-133232213D01*
X45710786Y-133081890D01*
X45538820Y-132956951D01*
X45538115Y-132956591D01*
X45530054Y-132952485D01*
X45479259Y-132904512D01*
X45462463Y-132836692D01*
X45484999Y-132770556D01*
X45530054Y-132731515D01*
X45538816Y-132727051D01*
X45560789Y-132711086D01*
X45710786Y-132602109D01*
X45710788Y-132602106D01*
X45710792Y-132602104D01*
X45861104Y-132451792D01*
X45861106Y-132451788D01*
X45861109Y-132451786D01*
X45986048Y-132279820D01*
X45986047Y-132279820D01*
X45986051Y-132279816D01*
X46082557Y-132090412D01*
X46148246Y-131888243D01*
X46181500Y-131678287D01*
X46181500Y-131465713D01*
X46148246Y-131255757D01*
X46082557Y-131053588D01*
X45986051Y-130864184D01*
X45986049Y-130864181D01*
X45986048Y-130864179D01*
X45861109Y-130692213D01*
X45710786Y-130541890D01*
X45538820Y-130416951D01*
X45538115Y-130416591D01*
X45530054Y-130412485D01*
X45479259Y-130364512D01*
X45462463Y-130296692D01*
X45484999Y-130230556D01*
X45530054Y-130191515D01*
X45538816Y-130187051D01*
X45560789Y-130171086D01*
X45710786Y-130062109D01*
X45710788Y-130062106D01*
X45710792Y-130062104D01*
X45861104Y-129911792D01*
X45861106Y-129911788D01*
X45861109Y-129911786D01*
X45986048Y-129739820D01*
X45986047Y-129739820D01*
X45986051Y-129739816D01*
X46082557Y-129550412D01*
X46148246Y-129348243D01*
X46181500Y-129138287D01*
X46181500Y-128925713D01*
X46148246Y-128715757D01*
X46082557Y-128513588D01*
X45986051Y-128324184D01*
X45986049Y-128324181D01*
X45986048Y-128324179D01*
X45861109Y-128152213D01*
X45747569Y-128038673D01*
X45714084Y-127977350D01*
X45719068Y-127907658D01*
X45760940Y-127851725D01*
X45791915Y-127834810D01*
X45923331Y-127785796D01*
X46038546Y-127699546D01*
X46124796Y-127584331D01*
X46175091Y-127449483D01*
X46181500Y-127389873D01*
X46181499Y-125594128D01*
X46175091Y-125534517D01*
X46124796Y-125399669D01*
X46124795Y-125399668D01*
X46124793Y-125399664D01*
X46038547Y-125284455D01*
X46038544Y-125284452D01*
X45923335Y-125198206D01*
X45923328Y-125198202D01*
X45788482Y-125147908D01*
X45788483Y-125147908D01*
X45728883Y-125141501D01*
X45728881Y-125141500D01*
X45728873Y-125141500D01*
X45728864Y-125141500D01*
X43933129Y-125141500D01*
X43933123Y-125141501D01*
X43873516Y-125147908D01*
X43738671Y-125198202D01*
X43738664Y-125198206D01*
X43623455Y-125284452D01*
X43623452Y-125284455D01*
X43537206Y-125399664D01*
X43537202Y-125399671D01*
X43486908Y-125534517D01*
X43480501Y-125594116D01*
X43480501Y-125594123D01*
X43480500Y-125594135D01*
X40378500Y-125594135D01*
X40378500Y-103722135D01*
X43480500Y-103722135D01*
X43480500Y-105517870D01*
X43480501Y-105517876D01*
X43486908Y-105577483D01*
X43537202Y-105712328D01*
X43537206Y-105712335D01*
X43623452Y-105827544D01*
X43623455Y-105827547D01*
X43738664Y-105913793D01*
X43738671Y-105913797D01*
X43870082Y-105962810D01*
X43926016Y-106004681D01*
X43950433Y-106070145D01*
X43935582Y-106138418D01*
X43914431Y-106166673D01*
X43800889Y-106280215D01*
X43675951Y-106452179D01*
X43579444Y-106641585D01*
X43513753Y-106843760D01*
X43480500Y-107053713D01*
X43480500Y-107266287D01*
X43513754Y-107476243D01*
X43515377Y-107481239D01*
X43579444Y-107678414D01*
X43675951Y-107867820D01*
X43800890Y-108039786D01*
X43951213Y-108190109D01*
X44123182Y-108315050D01*
X44131946Y-108319516D01*
X44182742Y-108367491D01*
X44199536Y-108435312D01*
X44176998Y-108501447D01*
X44131946Y-108540484D01*
X44123182Y-108544949D01*
X43951213Y-108669890D01*
X43800890Y-108820213D01*
X43675951Y-108992179D01*
X43579444Y-109181585D01*
X43513753Y-109383760D01*
X43480500Y-109593713D01*
X43480500Y-109806287D01*
X43513754Y-110016243D01*
X43515377Y-110021239D01*
X43579444Y-110218414D01*
X43675951Y-110407820D01*
X43800890Y-110579786D01*
X43951213Y-110730109D01*
X44123182Y-110855050D01*
X44131946Y-110859516D01*
X44182742Y-110907491D01*
X44199536Y-110975312D01*
X44176998Y-111041447D01*
X44131946Y-111080484D01*
X44123182Y-111084949D01*
X43951213Y-111209890D01*
X43800890Y-111360213D01*
X43675951Y-111532179D01*
X43579444Y-111721585D01*
X43513753Y-111923760D01*
X43480500Y-112133713D01*
X43480500Y-112346287D01*
X43513754Y-112556243D01*
X43515377Y-112561239D01*
X43579444Y-112758414D01*
X43675951Y-112947820D01*
X43800890Y-113119786D01*
X43951213Y-113270109D01*
X44123182Y-113395050D01*
X44131946Y-113399516D01*
X44182742Y-113447491D01*
X44199536Y-113515312D01*
X44176998Y-113581447D01*
X44131946Y-113620484D01*
X44123182Y-113624949D01*
X43951213Y-113749890D01*
X43800890Y-113900213D01*
X43675951Y-114072179D01*
X43579444Y-114261585D01*
X43513753Y-114463760D01*
X43480500Y-114673713D01*
X43480500Y-114886287D01*
X43513754Y-115096243D01*
X43515377Y-115101239D01*
X43579444Y-115298414D01*
X43675951Y-115487820D01*
X43800890Y-115659786D01*
X43951213Y-115810109D01*
X44123182Y-115935050D01*
X44131946Y-115939516D01*
X44182742Y-115987491D01*
X44199536Y-116055312D01*
X44176998Y-116121447D01*
X44131946Y-116160484D01*
X44123182Y-116164949D01*
X43951213Y-116289890D01*
X43800890Y-116440213D01*
X43675951Y-116612179D01*
X43579444Y-116801585D01*
X43513753Y-117003760D01*
X43480500Y-117213713D01*
X43480500Y-117426287D01*
X43513754Y-117636243D01*
X43515377Y-117641239D01*
X43579444Y-117838414D01*
X43675951Y-118027820D01*
X43800890Y-118199786D01*
X43951213Y-118350109D01*
X44123182Y-118475050D01*
X44131946Y-118479516D01*
X44182742Y-118527491D01*
X44199536Y-118595312D01*
X44176998Y-118661447D01*
X44131946Y-118700484D01*
X44123182Y-118704949D01*
X43951213Y-118829890D01*
X43800890Y-118980213D01*
X43675951Y-119152179D01*
X43579444Y-119341585D01*
X43513753Y-119543760D01*
X43480500Y-119753713D01*
X43480500Y-119966286D01*
X43495580Y-120061501D01*
X43513754Y-120176243D01*
X43522920Y-120204454D01*
X43579444Y-120378414D01*
X43675951Y-120567820D01*
X43800890Y-120739786D01*
X43951213Y-120890109D01*
X44123182Y-121015050D01*
X44131946Y-121019516D01*
X44182742Y-121067491D01*
X44199536Y-121135312D01*
X44176998Y-121201447D01*
X44131946Y-121240484D01*
X44123182Y-121244949D01*
X43951213Y-121369890D01*
X43800890Y-121520213D01*
X43675951Y-121692179D01*
X43579444Y-121881585D01*
X43513753Y-122083760D01*
X43480500Y-122293713D01*
X43480500Y-122506286D01*
X43513453Y-122714348D01*
X43513754Y-122716243D01*
X43531781Y-122771725D01*
X43579444Y-122918414D01*
X43675951Y-123107820D01*
X43800890Y-123279786D01*
X43951213Y-123430109D01*
X44123179Y-123555048D01*
X44123181Y-123555049D01*
X44123184Y-123555051D01*
X44312588Y-123651557D01*
X44514757Y-123717246D01*
X44724713Y-123750500D01*
X44724714Y-123750500D01*
X44937286Y-123750500D01*
X44937287Y-123750500D01*
X45147243Y-123717246D01*
X45349412Y-123651557D01*
X45538816Y-123555051D01*
X45585397Y-123521208D01*
X45710786Y-123430109D01*
X45710788Y-123430106D01*
X45710792Y-123430104D01*
X45861104Y-123279792D01*
X45861106Y-123279788D01*
X45861109Y-123279786D01*
X45986048Y-123107820D01*
X45986047Y-123107820D01*
X45986051Y-123107816D01*
X46082557Y-122918412D01*
X46148246Y-122716243D01*
X46181500Y-122506287D01*
X46181500Y-122293713D01*
X46148246Y-122083757D01*
X46082557Y-121881588D01*
X45986051Y-121692184D01*
X45986049Y-121692181D01*
X45986048Y-121692179D01*
X45861109Y-121520213D01*
X45710786Y-121369890D01*
X45538820Y-121244951D01*
X45538115Y-121244591D01*
X45530054Y-121240485D01*
X45479259Y-121192512D01*
X45462463Y-121124692D01*
X45484999Y-121058556D01*
X45530054Y-121019515D01*
X45538816Y-121015051D01*
X45560789Y-120999086D01*
X45710786Y-120890109D01*
X45710788Y-120890106D01*
X45710792Y-120890104D01*
X45861104Y-120739792D01*
X45861106Y-120739788D01*
X45861109Y-120739786D01*
X45986048Y-120567820D01*
X45986047Y-120567820D01*
X45986051Y-120567816D01*
X46082557Y-120378412D01*
X46148246Y-120176243D01*
X46181500Y-119966287D01*
X46181500Y-119753713D01*
X46148246Y-119543757D01*
X46082557Y-119341588D01*
X45986051Y-119152184D01*
X45986049Y-119152181D01*
X45986048Y-119152179D01*
X45861109Y-118980213D01*
X45710786Y-118829890D01*
X45538820Y-118704951D01*
X45538115Y-118704591D01*
X45530054Y-118700485D01*
X45479259Y-118652512D01*
X45462463Y-118584692D01*
X45484999Y-118518556D01*
X45530054Y-118479515D01*
X45538816Y-118475051D01*
X45560789Y-118459086D01*
X45710786Y-118350109D01*
X45710788Y-118350106D01*
X45710792Y-118350104D01*
X45861104Y-118199792D01*
X45861106Y-118199788D01*
X45861109Y-118199786D01*
X45986048Y-118027820D01*
X45986047Y-118027820D01*
X45986051Y-118027816D01*
X46082557Y-117838412D01*
X46148246Y-117636243D01*
X46181500Y-117426287D01*
X46181500Y-117213713D01*
X46148246Y-117003757D01*
X46082557Y-116801588D01*
X45986051Y-116612184D01*
X45986049Y-116612181D01*
X45986048Y-116612179D01*
X45861109Y-116440213D01*
X45710786Y-116289890D01*
X45538820Y-116164951D01*
X45538115Y-116164591D01*
X45530054Y-116160485D01*
X45479259Y-116112512D01*
X45462463Y-116044692D01*
X45484999Y-115978556D01*
X45530054Y-115939515D01*
X45538816Y-115935051D01*
X45560789Y-115919086D01*
X45710786Y-115810109D01*
X45710788Y-115810106D01*
X45710792Y-115810104D01*
X45861104Y-115659792D01*
X45861106Y-115659788D01*
X45861109Y-115659786D01*
X45986048Y-115487820D01*
X45986047Y-115487820D01*
X45986051Y-115487816D01*
X46082557Y-115298412D01*
X46148246Y-115096243D01*
X46181500Y-114886287D01*
X46181500Y-114673713D01*
X46148246Y-114463757D01*
X46082557Y-114261588D01*
X45986051Y-114072184D01*
X45986049Y-114072181D01*
X45986048Y-114072179D01*
X45861109Y-113900213D01*
X45710786Y-113749890D01*
X45538820Y-113624951D01*
X45538115Y-113624591D01*
X45530054Y-113620485D01*
X45479259Y-113572512D01*
X45462463Y-113504692D01*
X45484999Y-113438556D01*
X45530054Y-113399515D01*
X45538816Y-113395051D01*
X45560789Y-113379086D01*
X45710786Y-113270109D01*
X45710788Y-113270106D01*
X45710792Y-113270104D01*
X45861104Y-113119792D01*
X45861106Y-113119788D01*
X45861109Y-113119786D01*
X45986048Y-112947820D01*
X45986047Y-112947820D01*
X45986051Y-112947816D01*
X46082557Y-112758412D01*
X46148246Y-112556243D01*
X46181500Y-112346287D01*
X46181500Y-112133713D01*
X46148246Y-111923757D01*
X46082557Y-111721588D01*
X45986051Y-111532184D01*
X45986049Y-111532181D01*
X45986048Y-111532179D01*
X45861109Y-111360213D01*
X45710786Y-111209890D01*
X45538820Y-111084951D01*
X45538115Y-111084591D01*
X45530054Y-111080485D01*
X45479259Y-111032512D01*
X45462463Y-110964692D01*
X45484999Y-110898556D01*
X45530054Y-110859515D01*
X45538816Y-110855051D01*
X45560789Y-110839086D01*
X45710786Y-110730109D01*
X45710788Y-110730106D01*
X45710792Y-110730104D01*
X45861104Y-110579792D01*
X45861106Y-110579788D01*
X45861109Y-110579786D01*
X45986048Y-110407820D01*
X45986047Y-110407820D01*
X45986051Y-110407816D01*
X46082557Y-110218412D01*
X46148246Y-110016243D01*
X46181500Y-109806287D01*
X46181500Y-109593713D01*
X46148246Y-109383757D01*
X46082557Y-109181588D01*
X45986051Y-108992184D01*
X45986049Y-108992181D01*
X45986048Y-108992179D01*
X45861109Y-108820213D01*
X45710786Y-108669890D01*
X45538820Y-108544951D01*
X45538115Y-108544591D01*
X45530054Y-108540485D01*
X45479259Y-108492512D01*
X45462463Y-108424692D01*
X45484999Y-108358556D01*
X45530054Y-108319515D01*
X45538816Y-108315051D01*
X45560789Y-108299086D01*
X45710786Y-108190109D01*
X45710788Y-108190106D01*
X45710792Y-108190104D01*
X45861104Y-108039792D01*
X45861106Y-108039788D01*
X45861109Y-108039786D01*
X45986048Y-107867820D01*
X45986047Y-107867820D01*
X45986051Y-107867816D01*
X46082557Y-107678412D01*
X46148246Y-107476243D01*
X46181500Y-107266287D01*
X46181500Y-107053713D01*
X46148246Y-106843757D01*
X46082557Y-106641588D01*
X45986051Y-106452184D01*
X45986049Y-106452181D01*
X45986048Y-106452179D01*
X45861109Y-106280213D01*
X45747569Y-106166673D01*
X45714084Y-106105350D01*
X45719068Y-106035658D01*
X45760940Y-105979725D01*
X45791915Y-105962810D01*
X45923331Y-105913796D01*
X46038546Y-105827546D01*
X46124796Y-105712331D01*
X46175091Y-105577483D01*
X46181500Y-105517873D01*
X46181499Y-103722128D01*
X46175091Y-103662517D01*
X46124796Y-103527669D01*
X46124795Y-103527668D01*
X46124793Y-103527664D01*
X46038547Y-103412455D01*
X46038544Y-103412452D01*
X45923335Y-103326206D01*
X45923328Y-103326202D01*
X45788482Y-103275908D01*
X45788483Y-103275908D01*
X45728883Y-103269501D01*
X45728881Y-103269500D01*
X45728873Y-103269500D01*
X45728864Y-103269500D01*
X43933129Y-103269500D01*
X43933123Y-103269501D01*
X43873516Y-103275908D01*
X43738671Y-103326202D01*
X43738664Y-103326206D01*
X43623455Y-103412452D01*
X43623452Y-103412455D01*
X43537206Y-103527664D01*
X43537202Y-103527671D01*
X43486908Y-103662517D01*
X43480501Y-103722116D01*
X43480501Y-103722123D01*
X43480500Y-103722135D01*
X40378500Y-103722135D01*
X40378500Y-70255648D01*
X82778500Y-70255648D01*
X82778500Y-70460351D01*
X82810522Y-70662534D01*
X82873781Y-70857223D01*
X82966715Y-71039613D01*
X83087028Y-71205213D01*
X83231786Y-71349971D01*
X83386749Y-71462556D01*
X83397390Y-71470287D01*
X83488840Y-71516883D01*
X83490080Y-71517515D01*
X83540876Y-71565490D01*
X83557671Y-71633311D01*
X83535134Y-71699446D01*
X83490080Y-71738485D01*
X83397386Y-71785715D01*
X83231786Y-71906028D01*
X83087028Y-72050786D01*
X82966715Y-72216386D01*
X82873781Y-72398776D01*
X82810522Y-72593465D01*
X82778500Y-72795648D01*
X82778500Y-73000351D01*
X82810522Y-73202534D01*
X82873781Y-73397223D01*
X82966715Y-73579613D01*
X83087028Y-73745213D01*
X83231786Y-73889971D01*
X83386749Y-74002556D01*
X83397390Y-74010287D01*
X83488840Y-74056883D01*
X83490080Y-74057515D01*
X83540876Y-74105490D01*
X83557671Y-74173311D01*
X83535134Y-74239446D01*
X83490080Y-74278485D01*
X83397386Y-74325715D01*
X83231786Y-74446028D01*
X83087028Y-74590786D01*
X82966715Y-74756386D01*
X82873781Y-74938776D01*
X82810522Y-75133465D01*
X82778500Y-75335648D01*
X82778500Y-75540351D01*
X82810522Y-75742534D01*
X82873781Y-75937223D01*
X82966715Y-76119613D01*
X83087028Y-76285213D01*
X83231786Y-76429971D01*
X83386749Y-76542556D01*
X83397390Y-76550287D01*
X83488840Y-76596883D01*
X83490080Y-76597515D01*
X83540876Y-76645490D01*
X83557671Y-76713311D01*
X83535134Y-76779446D01*
X83490080Y-76818485D01*
X83397386Y-76865715D01*
X83231786Y-76986028D01*
X83087028Y-77130786D01*
X82966715Y-77296386D01*
X82873781Y-77478776D01*
X82810522Y-77673465D01*
X82778500Y-77875648D01*
X82778500Y-78080351D01*
X82810522Y-78282534D01*
X82873781Y-78477223D01*
X82966715Y-78659613D01*
X83087028Y-78825213D01*
X83231786Y-78969971D01*
X83386749Y-79082556D01*
X83397390Y-79090287D01*
X83488840Y-79136883D01*
X83490080Y-79137515D01*
X83540876Y-79185490D01*
X83557671Y-79253311D01*
X83535134Y-79319446D01*
X83490080Y-79358485D01*
X83397386Y-79405715D01*
X83231786Y-79526028D01*
X83087028Y-79670786D01*
X82966715Y-79836386D01*
X82873781Y-80018776D01*
X82810522Y-80213465D01*
X82778500Y-80415648D01*
X82778500Y-80620351D01*
X82810522Y-80822534D01*
X82873781Y-81017223D01*
X82966715Y-81199613D01*
X83087028Y-81365213D01*
X83231786Y-81509971D01*
X83397385Y-81630284D01*
X83397387Y-81630285D01*
X83397390Y-81630287D01*
X83490080Y-81677515D01*
X83490630Y-81677795D01*
X83541426Y-81725770D01*
X83558221Y-81793591D01*
X83535684Y-81859725D01*
X83490630Y-81898765D01*
X83397644Y-81946143D01*
X83353077Y-81978523D01*
X83353077Y-81978524D01*
X84032554Y-82658000D01*
X84026339Y-82658000D01*
X83924606Y-82685259D01*
X83833394Y-82737920D01*
X83758920Y-82812394D01*
X83706259Y-82903606D01*
X83679000Y-83005339D01*
X83679000Y-83011553D01*
X82999524Y-82332077D01*
X82999523Y-82332077D01*
X82967143Y-82376644D01*
X82874244Y-82558968D01*
X82811009Y-82753582D01*
X82779000Y-82955682D01*
X82779000Y-83160317D01*
X82811009Y-83362417D01*
X82874244Y-83557031D01*
X82967141Y-83739350D01*
X82967147Y-83739359D01*
X82999523Y-83783921D01*
X82999524Y-83783922D01*
X83679000Y-83104446D01*
X83679000Y-83110661D01*
X83706259Y-83212394D01*
X83758920Y-83303606D01*
X83833394Y-83378080D01*
X83924606Y-83430741D01*
X84026339Y-83458000D01*
X84032553Y-83458000D01*
X83353076Y-84137474D01*
X83397650Y-84169859D01*
X83579968Y-84262755D01*
X83774582Y-84325990D01*
X83976683Y-84358000D01*
X84181317Y-84358000D01*
X84383417Y-84325990D01*
X84578031Y-84262755D01*
X84760349Y-84169859D01*
X84804921Y-84137474D01*
X84125447Y-83458000D01*
X84131661Y-83458000D01*
X84233394Y-83430741D01*
X84324606Y-83378080D01*
X84399080Y-83303606D01*
X84451741Y-83212394D01*
X84479000Y-83110661D01*
X84479000Y-83104447D01*
X85158474Y-83783921D01*
X85190859Y-83739349D01*
X85283755Y-83557031D01*
X85346990Y-83362417D01*
X85379000Y-83160317D01*
X85379000Y-82955682D01*
X85346990Y-82753582D01*
X85283755Y-82558968D01*
X85190859Y-82376650D01*
X85158474Y-82332077D01*
X85158474Y-82332076D01*
X84479000Y-83011551D01*
X84479000Y-83005339D01*
X84451741Y-82903606D01*
X84399080Y-82812394D01*
X84324606Y-82737920D01*
X84233394Y-82685259D01*
X84131661Y-82658000D01*
X84125446Y-82658000D01*
X84804922Y-81978524D01*
X84804921Y-81978523D01*
X84760359Y-81946147D01*
X84760350Y-81946141D01*
X84667369Y-81898765D01*
X84616573Y-81850790D01*
X84599778Y-81782969D01*
X84622315Y-81716835D01*
X84667370Y-81677795D01*
X84667920Y-81677515D01*
X84760610Y-81630287D01*
X84810144Y-81594298D01*
X84926213Y-81509971D01*
X84926215Y-81509968D01*
X84926219Y-81509966D01*
X85070966Y-81365219D01*
X85070968Y-81365215D01*
X85070971Y-81365213D01*
X85123732Y-81292590D01*
X85191287Y-81199610D01*
X85284220Y-81017219D01*
X85347477Y-80822534D01*
X85379500Y-80620352D01*
X85379500Y-80415648D01*
X85347477Y-80213466D01*
X85284220Y-80018781D01*
X85284218Y-80018778D01*
X85284218Y-80018776D01*
X85250503Y-79952607D01*
X85191287Y-79836390D01*
X85183556Y-79825749D01*
X85070971Y-79670786D01*
X84926213Y-79526028D01*
X84760614Y-79405715D01*
X84754006Y-79402348D01*
X84667917Y-79358483D01*
X84617123Y-79310511D01*
X84600328Y-79242690D01*
X84622865Y-79176555D01*
X84667917Y-79137516D01*
X84760610Y-79090287D01*
X84781770Y-79074913D01*
X84926213Y-78969971D01*
X84926215Y-78969968D01*
X84926219Y-78969966D01*
X85070966Y-78825219D01*
X85070968Y-78825215D01*
X85070971Y-78825213D01*
X85123732Y-78752590D01*
X85191287Y-78659610D01*
X85284220Y-78477219D01*
X85347477Y-78282534D01*
X85379500Y-78080352D01*
X85379500Y-77875648D01*
X85347477Y-77673466D01*
X85284220Y-77478781D01*
X85284218Y-77478778D01*
X85284218Y-77478776D01*
X85250503Y-77412607D01*
X85191287Y-77296390D01*
X85183556Y-77285749D01*
X85070971Y-77130786D01*
X84926213Y-76986028D01*
X84760614Y-76865715D01*
X84754006Y-76862348D01*
X84667917Y-76818483D01*
X84617123Y-76770511D01*
X84600328Y-76702690D01*
X84622865Y-76636555D01*
X84667917Y-76597516D01*
X84760610Y-76550287D01*
X84781770Y-76534913D01*
X84926213Y-76429971D01*
X84926215Y-76429968D01*
X84926219Y-76429966D01*
X85070966Y-76285219D01*
X85070968Y-76285215D01*
X85070971Y-76285213D01*
X85123732Y-76212590D01*
X85191287Y-76119610D01*
X85284220Y-75937219D01*
X85347477Y-75742534D01*
X85379500Y-75540352D01*
X85379500Y-75335648D01*
X85347477Y-75133466D01*
X85284220Y-74938781D01*
X85284218Y-74938778D01*
X85284218Y-74938776D01*
X85250503Y-74872607D01*
X85191287Y-74756390D01*
X85183556Y-74745749D01*
X85070971Y-74590786D01*
X84926213Y-74446028D01*
X84760614Y-74325715D01*
X84754006Y-74322348D01*
X84667917Y-74278483D01*
X84617123Y-74230511D01*
X84600328Y-74162690D01*
X84622865Y-74096555D01*
X84667917Y-74057516D01*
X84760610Y-74010287D01*
X84781770Y-73994913D01*
X84926213Y-73889971D01*
X84926215Y-73889968D01*
X84926219Y-73889966D01*
X85070966Y-73745219D01*
X85070968Y-73745215D01*
X85070971Y-73745213D01*
X85123732Y-73672590D01*
X85191287Y-73579610D01*
X85284220Y-73397219D01*
X85347477Y-73202534D01*
X85379500Y-73000352D01*
X85379500Y-72807097D01*
X85399185Y-72740058D01*
X85451989Y-72694303D01*
X85521147Y-72684359D01*
X85584703Y-72713384D01*
X85591181Y-72719416D01*
X89961181Y-77089416D01*
X89994666Y-77150739D01*
X89997500Y-77177097D01*
X89997500Y-102045330D01*
X89997499Y-102045348D01*
X89997499Y-102211054D01*
X89997498Y-102211054D01*
X89997499Y-102211057D01*
X90038423Y-102363785D01*
X90038425Y-102363788D01*
X90045960Y-102376839D01*
X90117477Y-102500712D01*
X90117481Y-102500717D01*
X90236349Y-102619585D01*
X90236355Y-102619590D01*
X91757241Y-104140476D01*
X91790726Y-104201799D01*
X91787492Y-104266473D01*
X91773753Y-104308757D01*
X91740500Y-104518713D01*
X91740500Y-104731286D01*
X91773754Y-104941244D01*
X91773754Y-104941247D01*
X91787491Y-104983523D01*
X91789486Y-105053364D01*
X91757241Y-105109522D01*
X91571286Y-105295478D01*
X91459481Y-105407282D01*
X91459479Y-105407285D01*
X91409361Y-105494094D01*
X91409359Y-105494096D01*
X91380425Y-105544209D01*
X91380424Y-105544210D01*
X91380423Y-105544215D01*
X91339499Y-105696943D01*
X91339499Y-105696945D01*
X91339499Y-105865046D01*
X91339500Y-105865059D01*
X91339500Y-122714330D01*
X91339499Y-122714348D01*
X91339499Y-122880054D01*
X91339498Y-122880054D01*
X91380423Y-123032787D01*
X91399234Y-123065366D01*
X91399235Y-123065369D01*
X91459475Y-123169709D01*
X91459481Y-123169717D01*
X91578349Y-123288585D01*
X91578355Y-123288590D01*
X91757241Y-123467476D01*
X91790726Y-123528799D01*
X91787492Y-123593473D01*
X91773753Y-123635757D01*
X91740500Y-123845713D01*
X91740500Y-124058286D01*
X91773753Y-124268239D01*
X91839444Y-124470414D01*
X91935951Y-124659820D01*
X92060890Y-124831786D01*
X92211213Y-124982109D01*
X92383182Y-125107050D01*
X92391946Y-125111516D01*
X92442742Y-125159491D01*
X92459536Y-125227312D01*
X92436998Y-125293447D01*
X92391946Y-125332484D01*
X92383182Y-125336949D01*
X92211213Y-125461890D01*
X92060890Y-125612213D01*
X91935951Y-125784179D01*
X91839444Y-125973585D01*
X91773753Y-126175760D01*
X91740500Y-126385713D01*
X91740500Y-126598286D01*
X91773753Y-126808239D01*
X91839444Y-127010414D01*
X91935951Y-127199820D01*
X92060890Y-127371786D01*
X92211213Y-127522109D01*
X92383182Y-127647050D01*
X92391946Y-127651516D01*
X92442742Y-127699491D01*
X92459536Y-127767312D01*
X92436998Y-127833447D01*
X92391946Y-127872484D01*
X92383182Y-127876949D01*
X92211213Y-128001890D01*
X92060890Y-128152213D01*
X91935951Y-128324179D01*
X91839444Y-128513585D01*
X91773753Y-128715760D01*
X91740500Y-128925713D01*
X91740500Y-129138286D01*
X91773753Y-129348239D01*
X91839444Y-129550414D01*
X91935951Y-129739820D01*
X92060890Y-129911786D01*
X92211213Y-130062109D01*
X92383182Y-130187050D01*
X92391946Y-130191516D01*
X92442742Y-130239491D01*
X92459536Y-130307312D01*
X92436998Y-130373447D01*
X92391946Y-130412484D01*
X92383182Y-130416949D01*
X92211213Y-130541890D01*
X92060890Y-130692213D01*
X91935951Y-130864179D01*
X91839444Y-131053585D01*
X91773753Y-131255760D01*
X91740500Y-131465713D01*
X91740500Y-131678286D01*
X91773753Y-131888239D01*
X91839444Y-132090414D01*
X91935951Y-132279820D01*
X92060890Y-132451786D01*
X92211213Y-132602109D01*
X92383182Y-132727050D01*
X92391946Y-132731516D01*
X92442742Y-132779491D01*
X92459536Y-132847312D01*
X92436998Y-132913447D01*
X92391946Y-132952484D01*
X92383182Y-132956949D01*
X92211213Y-133081890D01*
X92060890Y-133232213D01*
X91935951Y-133404179D01*
X91839444Y-133593585D01*
X91773753Y-133795760D01*
X91740500Y-134005713D01*
X91740500Y-134218286D01*
X91773753Y-134428239D01*
X91839444Y-134630414D01*
X91935951Y-134819820D01*
X92060890Y-134991786D01*
X92211213Y-135142109D01*
X92383182Y-135267050D01*
X92391946Y-135271516D01*
X92442742Y-135319491D01*
X92459536Y-135387312D01*
X92436998Y-135453447D01*
X92391946Y-135492484D01*
X92383182Y-135496949D01*
X92211213Y-135621890D01*
X92060890Y-135772213D01*
X91935951Y-135944179D01*
X91839444Y-136133585D01*
X91773753Y-136335760D01*
X91740500Y-136545713D01*
X91740500Y-136758286D01*
X91773753Y-136968239D01*
X91839444Y-137170414D01*
X91935951Y-137359820D01*
X92060890Y-137531786D01*
X92211213Y-137682109D01*
X92383182Y-137807050D01*
X92391946Y-137811516D01*
X92442742Y-137859491D01*
X92459536Y-137927312D01*
X92436998Y-137993447D01*
X92391946Y-138032484D01*
X92383182Y-138036949D01*
X92211213Y-138161890D01*
X92060890Y-138312213D01*
X91935951Y-138484179D01*
X91839444Y-138673585D01*
X91773753Y-138875760D01*
X91751226Y-139017993D01*
X91740500Y-139085713D01*
X91740500Y-139298287D01*
X91773754Y-139508243D01*
X91781738Y-139532816D01*
X91839444Y-139710414D01*
X91935951Y-139899820D01*
X92060890Y-140071786D01*
X92211213Y-140222109D01*
X92383179Y-140347048D01*
X92383181Y-140347049D01*
X92383184Y-140347051D01*
X92572588Y-140443557D01*
X92774757Y-140509246D01*
X92984713Y-140542500D01*
X92984714Y-140542500D01*
X93197286Y-140542500D01*
X93197287Y-140542500D01*
X93407243Y-140509246D01*
X93609412Y-140443557D01*
X93798816Y-140347051D01*
X93820789Y-140331086D01*
X93970786Y-140222109D01*
X93970788Y-140222106D01*
X93970792Y-140222104D01*
X94121104Y-140071792D01*
X94121106Y-140071788D01*
X94121109Y-140071786D01*
X94246048Y-139899820D01*
X94246047Y-139899820D01*
X94246051Y-139899816D01*
X94342557Y-139710412D01*
X94408246Y-139508243D01*
X94441500Y-139298287D01*
X94441500Y-139085713D01*
X94408246Y-138875757D01*
X94342557Y-138673588D01*
X94246051Y-138484184D01*
X94246049Y-138484181D01*
X94246048Y-138484179D01*
X94121109Y-138312213D01*
X93970786Y-138161890D01*
X93798820Y-138036951D01*
X93798115Y-138036591D01*
X93790054Y-138032485D01*
X93739259Y-137984512D01*
X93722463Y-137916692D01*
X93744999Y-137850556D01*
X93790054Y-137811515D01*
X93798816Y-137807051D01*
X93900859Y-137732913D01*
X93970786Y-137682109D01*
X93970788Y-137682106D01*
X93970792Y-137682104D01*
X94121104Y-137531792D01*
X94121106Y-137531788D01*
X94121109Y-137531786D01*
X94246048Y-137359820D01*
X94246047Y-137359820D01*
X94246051Y-137359816D01*
X94342557Y-137170412D01*
X94408246Y-136968243D01*
X94441500Y-136758287D01*
X94441500Y-136545713D01*
X94408246Y-136335757D01*
X94342557Y-136133588D01*
X94246051Y-135944184D01*
X94246049Y-135944181D01*
X94246048Y-135944179D01*
X94121109Y-135772213D01*
X93970786Y-135621890D01*
X93798820Y-135496951D01*
X93798115Y-135496591D01*
X93790054Y-135492485D01*
X93739259Y-135444512D01*
X93722463Y-135376692D01*
X93744999Y-135310556D01*
X93790054Y-135271515D01*
X93798816Y-135267051D01*
X93820789Y-135251086D01*
X93970786Y-135142109D01*
X93970788Y-135142106D01*
X93970792Y-135142104D01*
X94121104Y-134991792D01*
X94121106Y-134991788D01*
X94121109Y-134991786D01*
X94246048Y-134819820D01*
X94246047Y-134819820D01*
X94246051Y-134819816D01*
X94342557Y-134630412D01*
X94408246Y-134428243D01*
X94441500Y-134218287D01*
X94441500Y-134005713D01*
X94408246Y-133795757D01*
X94342557Y-133593588D01*
X94246051Y-133404184D01*
X94246049Y-133404181D01*
X94246048Y-133404179D01*
X94121109Y-133232213D01*
X93970786Y-133081890D01*
X93798820Y-132956951D01*
X93798115Y-132956591D01*
X93790054Y-132952485D01*
X93739259Y-132904512D01*
X93722463Y-132836692D01*
X93744999Y-132770556D01*
X93790054Y-132731515D01*
X93798816Y-132727051D01*
X93820789Y-132711086D01*
X93970786Y-132602109D01*
X93970788Y-132602106D01*
X93970792Y-132602104D01*
X94121104Y-132451792D01*
X94121106Y-132451788D01*
X94121109Y-132451786D01*
X94246048Y-132279820D01*
X94246047Y-132279820D01*
X94246051Y-132279816D01*
X94342557Y-132090412D01*
X94408246Y-131888243D01*
X94441500Y-131678287D01*
X94441500Y-131465713D01*
X94408246Y-131255757D01*
X94342557Y-131053588D01*
X94246051Y-130864184D01*
X94246049Y-130864181D01*
X94246048Y-130864179D01*
X94121109Y-130692213D01*
X93970786Y-130541890D01*
X93798820Y-130416951D01*
X93798115Y-130416591D01*
X93790054Y-130412485D01*
X93739259Y-130364512D01*
X93722463Y-130296692D01*
X93744999Y-130230556D01*
X93790054Y-130191515D01*
X93798816Y-130187051D01*
X93820789Y-130171086D01*
X93970786Y-130062109D01*
X93970788Y-130062106D01*
X93970792Y-130062104D01*
X94121104Y-129911792D01*
X94121106Y-129911788D01*
X94121109Y-129911786D01*
X94246048Y-129739820D01*
X94246047Y-129739820D01*
X94246051Y-129739816D01*
X94342557Y-129550412D01*
X94408246Y-129348243D01*
X94441500Y-129138287D01*
X94441500Y-128925713D01*
X94408246Y-128715757D01*
X94342557Y-128513588D01*
X94246051Y-128324184D01*
X94246049Y-128324181D01*
X94246048Y-128324179D01*
X94121109Y-128152213D01*
X93970786Y-128001890D01*
X93798820Y-127876951D01*
X93798115Y-127876591D01*
X93790054Y-127872485D01*
X93739259Y-127824512D01*
X93722463Y-127756692D01*
X93744999Y-127690556D01*
X93790054Y-127651515D01*
X93798816Y-127647051D01*
X93885138Y-127584335D01*
X93970786Y-127522109D01*
X93970788Y-127522106D01*
X93970792Y-127522104D01*
X94121104Y-127371792D01*
X94121106Y-127371788D01*
X94121109Y-127371786D01*
X94246048Y-127199820D01*
X94246047Y-127199820D01*
X94246051Y-127199816D01*
X94342557Y-127010412D01*
X94408246Y-126808243D01*
X94441500Y-126598287D01*
X94441500Y-126385713D01*
X94408246Y-126175757D01*
X94342557Y-125973588D01*
X94246051Y-125784184D01*
X94246049Y-125784181D01*
X94246048Y-125784179D01*
X94121109Y-125612213D01*
X93970786Y-125461890D01*
X93798820Y-125336951D01*
X93798115Y-125336591D01*
X93790054Y-125332485D01*
X93739259Y-125284512D01*
X93722463Y-125216692D01*
X93744999Y-125150556D01*
X93790054Y-125111515D01*
X93798816Y-125107051D01*
X93820789Y-125091086D01*
X93970786Y-124982109D01*
X93970788Y-124982106D01*
X93970792Y-124982104D01*
X94121104Y-124831792D01*
X94121106Y-124831788D01*
X94121109Y-124831786D01*
X94246048Y-124659820D01*
X94246047Y-124659820D01*
X94246051Y-124659816D01*
X94342557Y-124470412D01*
X94408246Y-124268243D01*
X94441500Y-124058287D01*
X94441500Y-123845713D01*
X94408246Y-123635757D01*
X94342557Y-123433588D01*
X94246051Y-123244184D01*
X94246049Y-123244181D01*
X94246048Y-123244179D01*
X94121109Y-123072213D01*
X94007569Y-122958673D01*
X93974084Y-122897350D01*
X93979068Y-122827658D01*
X94020940Y-122771725D01*
X94051915Y-122754810D01*
X94183331Y-122705796D01*
X94298546Y-122619546D01*
X94384796Y-122504331D01*
X94435091Y-122369483D01*
X94441500Y-122309873D01*
X94441499Y-120514128D01*
X94435091Y-120454517D01*
X94406706Y-120378414D01*
X94384797Y-120319671D01*
X94384793Y-120319664D01*
X94298547Y-120204455D01*
X94298544Y-120204452D01*
X94183335Y-120118206D01*
X94183328Y-120118202D01*
X94048482Y-120067908D01*
X94048483Y-120067908D01*
X93988883Y-120061501D01*
X93988881Y-120061500D01*
X93988873Y-120061500D01*
X93988865Y-120061500D01*
X92664500Y-120061500D01*
X92597461Y-120041815D01*
X92551706Y-119989011D01*
X92540500Y-119937500D01*
X92540500Y-118736802D01*
X92560185Y-118669763D01*
X92612989Y-118624008D01*
X92682147Y-118614064D01*
X92702812Y-118618869D01*
X92774757Y-118642246D01*
X92984713Y-118675500D01*
X92984714Y-118675500D01*
X93197286Y-118675500D01*
X93197287Y-118675500D01*
X93407243Y-118642246D01*
X93609412Y-118576557D01*
X93798816Y-118480051D01*
X93820789Y-118464086D01*
X93970786Y-118355109D01*
X93970788Y-118355106D01*
X93970792Y-118355104D01*
X94121104Y-118204792D01*
X94121106Y-118204788D01*
X94121109Y-118204786D01*
X94246048Y-118032820D01*
X94246047Y-118032820D01*
X94246051Y-118032816D01*
X94342557Y-117843412D01*
X94408246Y-117641243D01*
X94441500Y-117431287D01*
X94441500Y-117218713D01*
X94408246Y-117008757D01*
X94342557Y-116806588D01*
X94246051Y-116617184D01*
X94246049Y-116617181D01*
X94246048Y-116617179D01*
X94121109Y-116445213D01*
X93970786Y-116294890D01*
X93798820Y-116169951D01*
X93798115Y-116169591D01*
X93790054Y-116165485D01*
X93739259Y-116117512D01*
X93722463Y-116049692D01*
X93744999Y-115983556D01*
X93790054Y-115944515D01*
X93798816Y-115940051D01*
X93820789Y-115924086D01*
X93970786Y-115815109D01*
X93970788Y-115815106D01*
X93970792Y-115815104D01*
X94121104Y-115664792D01*
X94121106Y-115664788D01*
X94121109Y-115664786D01*
X94246048Y-115492820D01*
X94246047Y-115492820D01*
X94246051Y-115492816D01*
X94342557Y-115303412D01*
X94408246Y-115101243D01*
X94441500Y-114891287D01*
X94441500Y-114678713D01*
X94408246Y-114468757D01*
X94342557Y-114266588D01*
X94246051Y-114077184D01*
X94246049Y-114077181D01*
X94246048Y-114077179D01*
X94121109Y-113905213D01*
X93970786Y-113754890D01*
X93798820Y-113629951D01*
X93798115Y-113629591D01*
X93790054Y-113625485D01*
X93739259Y-113577512D01*
X93722463Y-113509692D01*
X93744999Y-113443556D01*
X93790054Y-113404515D01*
X93798816Y-113400051D01*
X93820789Y-113384086D01*
X93970786Y-113275109D01*
X93970788Y-113275106D01*
X93970792Y-113275104D01*
X94121104Y-113124792D01*
X94121106Y-113124788D01*
X94121109Y-113124786D01*
X94246048Y-112952820D01*
X94246047Y-112952820D01*
X94246051Y-112952816D01*
X94342557Y-112763412D01*
X94408246Y-112561243D01*
X94441500Y-112351287D01*
X94441500Y-112138713D01*
X94408246Y-111928757D01*
X94342557Y-111726588D01*
X94246051Y-111537184D01*
X94246049Y-111537181D01*
X94246048Y-111537179D01*
X94121109Y-111365213D01*
X93970786Y-111214890D01*
X93798820Y-111089951D01*
X93798115Y-111089591D01*
X93790054Y-111085485D01*
X93739259Y-111037512D01*
X93722463Y-110969692D01*
X93744999Y-110903556D01*
X93790054Y-110864515D01*
X93798816Y-110860051D01*
X93820789Y-110844086D01*
X93970786Y-110735109D01*
X93970788Y-110735106D01*
X93970792Y-110735104D01*
X94121104Y-110584792D01*
X94121106Y-110584788D01*
X94121109Y-110584786D01*
X94246048Y-110412820D01*
X94246047Y-110412820D01*
X94246051Y-110412816D01*
X94342557Y-110223412D01*
X94408246Y-110021243D01*
X94441500Y-109811287D01*
X94441500Y-109598713D01*
X94408246Y-109388757D01*
X94342557Y-109186588D01*
X94246051Y-108997184D01*
X94246049Y-108997181D01*
X94246048Y-108997179D01*
X94121109Y-108825213D01*
X93970786Y-108674890D01*
X93798820Y-108549951D01*
X93798115Y-108549591D01*
X93790054Y-108545485D01*
X93739259Y-108497512D01*
X93722463Y-108429692D01*
X93744999Y-108363556D01*
X93790054Y-108324515D01*
X93798816Y-108320051D01*
X93820789Y-108304086D01*
X93970786Y-108195109D01*
X93970788Y-108195106D01*
X93970792Y-108195104D01*
X94121104Y-108044792D01*
X94121106Y-108044788D01*
X94121109Y-108044786D01*
X94246048Y-107872820D01*
X94246047Y-107872820D01*
X94246051Y-107872816D01*
X94342557Y-107683412D01*
X94408246Y-107481243D01*
X94441500Y-107271287D01*
X94441500Y-107058713D01*
X94408246Y-106848757D01*
X94342557Y-106646588D01*
X94246051Y-106457184D01*
X94246049Y-106457181D01*
X94246048Y-106457179D01*
X94121109Y-106285213D01*
X93970786Y-106134890D01*
X93798820Y-106009951D01*
X93798115Y-106009591D01*
X93790054Y-106005485D01*
X93739259Y-105957512D01*
X93722463Y-105889692D01*
X93744999Y-105823556D01*
X93790054Y-105784515D01*
X93798816Y-105780051D01*
X93892020Y-105712335D01*
X93970786Y-105655109D01*
X93970788Y-105655106D01*
X93970792Y-105655104D01*
X94121104Y-105504792D01*
X94121106Y-105504788D01*
X94121109Y-105504786D01*
X94246048Y-105332820D01*
X94246047Y-105332820D01*
X94246051Y-105332816D01*
X94342557Y-105143412D01*
X94408246Y-104941243D01*
X94441500Y-104731287D01*
X94441500Y-104518713D01*
X94408246Y-104308757D01*
X94342557Y-104106588D01*
X94246051Y-103917184D01*
X94246049Y-103917181D01*
X94246048Y-103917179D01*
X94121109Y-103745213D01*
X93970786Y-103594890D01*
X93798820Y-103469951D01*
X93798115Y-103469591D01*
X93790054Y-103465485D01*
X93739259Y-103417512D01*
X93722463Y-103349692D01*
X93744999Y-103283556D01*
X93790054Y-103244515D01*
X93798816Y-103240051D01*
X93820789Y-103224086D01*
X93970786Y-103115109D01*
X93970788Y-103115106D01*
X93970792Y-103115104D01*
X94121104Y-102964792D01*
X94121106Y-102964788D01*
X94121109Y-102964786D01*
X94246048Y-102792820D01*
X94246047Y-102792820D01*
X94246051Y-102792816D01*
X94342557Y-102603412D01*
X94408246Y-102401243D01*
X94441500Y-102191287D01*
X94441500Y-101978713D01*
X94408246Y-101768757D01*
X94342557Y-101566588D01*
X94246051Y-101377184D01*
X94246049Y-101377181D01*
X94246048Y-101377179D01*
X94121109Y-101205213D01*
X93970786Y-101054890D01*
X93798820Y-100929951D01*
X93798115Y-100929591D01*
X93790054Y-100925485D01*
X93739259Y-100877512D01*
X93722463Y-100809692D01*
X93744999Y-100743556D01*
X93790054Y-100704515D01*
X93798816Y-100700051D01*
X93820789Y-100684086D01*
X93970786Y-100575109D01*
X93970788Y-100575106D01*
X93970792Y-100575104D01*
X94121104Y-100424792D01*
X94121106Y-100424788D01*
X94121109Y-100424786D01*
X94246048Y-100252820D01*
X94246047Y-100252820D01*
X94246051Y-100252816D01*
X94342557Y-100063412D01*
X94408246Y-99861243D01*
X94441500Y-99651287D01*
X94441500Y-99438713D01*
X94408246Y-99228757D01*
X94342557Y-99026588D01*
X94246051Y-98837184D01*
X94246049Y-98837181D01*
X94246048Y-98837179D01*
X94121109Y-98665213D01*
X93970786Y-98514890D01*
X93798820Y-98389951D01*
X93798115Y-98389591D01*
X93790054Y-98385485D01*
X93739259Y-98337512D01*
X93722463Y-98269692D01*
X93744999Y-98203556D01*
X93790054Y-98164515D01*
X93798816Y-98160051D01*
X93820789Y-98144086D01*
X93970786Y-98035109D01*
X93970788Y-98035106D01*
X93970792Y-98035104D01*
X94121104Y-97884792D01*
X94121106Y-97884788D01*
X94121109Y-97884786D01*
X94246048Y-97712820D01*
X94246047Y-97712820D01*
X94246051Y-97712816D01*
X94342557Y-97523412D01*
X94408246Y-97321243D01*
X94441500Y-97111287D01*
X94441500Y-96898713D01*
X94408246Y-96688757D01*
X94342557Y-96486588D01*
X94246051Y-96297184D01*
X94246049Y-96297181D01*
X94246048Y-96297179D01*
X94121109Y-96125213D01*
X94007569Y-96011673D01*
X93974084Y-95950350D01*
X93979068Y-95880658D01*
X94020940Y-95824725D01*
X94051915Y-95807810D01*
X94183331Y-95758796D01*
X94298546Y-95672546D01*
X94384796Y-95557331D01*
X94435091Y-95422483D01*
X94441500Y-95362873D01*
X94441499Y-93567128D01*
X94435091Y-93507517D01*
X94384796Y-93372669D01*
X94384795Y-93372668D01*
X94384793Y-93372664D01*
X94298547Y-93257455D01*
X94298544Y-93257452D01*
X94183335Y-93171206D01*
X94183328Y-93171202D01*
X94048482Y-93120908D01*
X94048483Y-93120908D01*
X93988883Y-93114501D01*
X93988881Y-93114500D01*
X93988873Y-93114500D01*
X93988864Y-93114500D01*
X92193129Y-93114500D01*
X92193123Y-93114501D01*
X92133516Y-93120908D01*
X91998671Y-93171202D01*
X91998664Y-93171206D01*
X91883455Y-93257452D01*
X91883452Y-93257455D01*
X91797206Y-93372664D01*
X91797202Y-93372671D01*
X91746908Y-93507517D01*
X91740501Y-93567116D01*
X91740501Y-93567123D01*
X91740500Y-93567135D01*
X91740500Y-95362870D01*
X91740501Y-95362876D01*
X91746908Y-95422483D01*
X91797202Y-95557328D01*
X91797206Y-95557335D01*
X91883452Y-95672544D01*
X91883455Y-95672547D01*
X91998664Y-95758793D01*
X91998671Y-95758797D01*
X92130082Y-95807810D01*
X92186016Y-95849681D01*
X92210433Y-95915145D01*
X92195582Y-95983418D01*
X92174431Y-96011673D01*
X92060889Y-96125215D01*
X91935951Y-96297179D01*
X91839444Y-96486585D01*
X91773753Y-96688760D01*
X91740500Y-96898713D01*
X91740500Y-97111286D01*
X91773753Y-97321239D01*
X91839444Y-97523414D01*
X91935951Y-97712820D01*
X92060890Y-97884786D01*
X92211213Y-98035109D01*
X92383182Y-98160050D01*
X92391946Y-98164516D01*
X92442742Y-98212491D01*
X92459536Y-98280312D01*
X92436998Y-98346447D01*
X92391946Y-98385484D01*
X92383182Y-98389949D01*
X92211213Y-98514890D01*
X92060890Y-98665213D01*
X91935951Y-98837179D01*
X91839444Y-99026585D01*
X91773753Y-99228760D01*
X91740500Y-99438713D01*
X91740500Y-99651286D01*
X91773753Y-99861239D01*
X91839444Y-100063414D01*
X91935951Y-100252820D01*
X92060890Y-100424786D01*
X92211213Y-100575109D01*
X92383182Y-100700050D01*
X92391946Y-100704516D01*
X92442742Y-100752491D01*
X92459536Y-100820312D01*
X92436998Y-100886447D01*
X92391946Y-100925484D01*
X92383182Y-100929949D01*
X92211213Y-101054890D01*
X92060890Y-101205213D01*
X91935951Y-101377179D01*
X91839444Y-101566585D01*
X91773753Y-101768760D01*
X91740500Y-101978713D01*
X91740500Y-102125903D01*
X91720815Y-102192942D01*
X91668011Y-102238697D01*
X91598853Y-102248641D01*
X91535297Y-102219616D01*
X91528819Y-102213584D01*
X91234819Y-101919584D01*
X91201334Y-101858261D01*
X91198500Y-101831903D01*
X91198500Y-84433475D01*
X91218185Y-84366436D01*
X91270989Y-84320681D01*
X91340147Y-84310737D01*
X91360820Y-84315545D01*
X91394458Y-84326475D01*
X91394461Y-84326475D01*
X91394466Y-84326477D01*
X91596648Y-84358500D01*
X91596649Y-84358500D01*
X91801351Y-84358500D01*
X91801352Y-84358500D01*
X92003534Y-84326477D01*
X92198219Y-84263220D01*
X92380610Y-84170287D01*
X92473590Y-84102732D01*
X92546213Y-84049971D01*
X92546215Y-84049968D01*
X92546219Y-84049966D01*
X92690966Y-83905219D01*
X92690968Y-83905215D01*
X92690971Y-83905213D01*
X92743732Y-83832590D01*
X92811287Y-83739610D01*
X92904220Y-83557219D01*
X92967477Y-83362534D01*
X92999500Y-83160352D01*
X92999500Y-82955648D01*
X92991257Y-82903606D01*
X92967477Y-82753465D01*
X92936458Y-82658000D01*
X92904220Y-82558781D01*
X92904218Y-82558778D01*
X92904218Y-82558776D01*
X92811419Y-82376650D01*
X92811287Y-82376390D01*
X92779092Y-82332077D01*
X92690971Y-82210786D01*
X92546213Y-82066028D01*
X92380614Y-81945715D01*
X92374006Y-81942348D01*
X92287917Y-81898483D01*
X92237123Y-81850511D01*
X92220328Y-81782690D01*
X92242865Y-81716555D01*
X92287917Y-81677516D01*
X92380610Y-81630287D01*
X92401770Y-81614913D01*
X92546213Y-81509971D01*
X92546215Y-81509968D01*
X92546219Y-81509966D01*
X92690966Y-81365219D01*
X92690968Y-81365215D01*
X92690971Y-81365213D01*
X92743732Y-81292590D01*
X92811287Y-81199610D01*
X92904220Y-81017219D01*
X92967477Y-80822534D01*
X92999500Y-80620352D01*
X92999500Y-80415648D01*
X92967477Y-80213466D01*
X92904220Y-80018781D01*
X92904218Y-80018778D01*
X92904218Y-80018776D01*
X92870503Y-79952607D01*
X92811287Y-79836390D01*
X92803556Y-79825749D01*
X92690971Y-79670786D01*
X92546213Y-79526028D01*
X92380614Y-79405715D01*
X92374006Y-79402348D01*
X92287917Y-79358483D01*
X92237123Y-79310511D01*
X92220328Y-79242690D01*
X92242865Y-79176555D01*
X92287917Y-79137516D01*
X92380610Y-79090287D01*
X92401770Y-79074913D01*
X92546213Y-78969971D01*
X92546215Y-78969968D01*
X92546219Y-78969966D01*
X92690966Y-78825219D01*
X92690968Y-78825215D01*
X92690971Y-78825213D01*
X92743732Y-78752590D01*
X92811287Y-78659610D01*
X92904220Y-78477219D01*
X92967477Y-78282534D01*
X92999500Y-78080352D01*
X92999500Y-77875648D01*
X92967477Y-77673466D01*
X92904220Y-77478781D01*
X92904218Y-77478778D01*
X92904218Y-77478776D01*
X92870503Y-77412607D01*
X92811287Y-77296390D01*
X92803556Y-77285749D01*
X92690971Y-77130786D01*
X92546213Y-76986028D01*
X92380614Y-76865715D01*
X92374006Y-76862348D01*
X92287917Y-76818483D01*
X92237123Y-76770511D01*
X92220328Y-76702690D01*
X92242865Y-76636555D01*
X92287917Y-76597516D01*
X92380610Y-76550287D01*
X92401770Y-76534913D01*
X92546213Y-76429971D01*
X92546215Y-76429968D01*
X92546219Y-76429966D01*
X92690966Y-76285219D01*
X92690968Y-76285215D01*
X92690971Y-76285213D01*
X92743732Y-76212590D01*
X92811287Y-76119610D01*
X92904220Y-75937219D01*
X92967477Y-75742534D01*
X92999500Y-75540352D01*
X92999500Y-75335648D01*
X92967477Y-75133466D01*
X92904220Y-74938781D01*
X92904218Y-74938778D01*
X92904218Y-74938776D01*
X92870503Y-74872607D01*
X92811287Y-74756390D01*
X92803556Y-74745749D01*
X92690971Y-74590786D01*
X92546213Y-74446028D01*
X92380614Y-74325715D01*
X92374006Y-74322348D01*
X92287917Y-74278483D01*
X92237123Y-74230511D01*
X92220328Y-74162690D01*
X92242865Y-74096555D01*
X92287917Y-74057516D01*
X92380610Y-74010287D01*
X92401770Y-73994913D01*
X92546213Y-73889971D01*
X92546215Y-73889968D01*
X92546219Y-73889966D01*
X92690966Y-73745219D01*
X92690968Y-73745215D01*
X92690971Y-73745213D01*
X92743732Y-73672590D01*
X92811287Y-73579610D01*
X92904220Y-73397219D01*
X92967477Y-73202534D01*
X92999500Y-73000352D01*
X92999500Y-72795648D01*
X92987426Y-72719416D01*
X92967477Y-72593465D01*
X92904218Y-72398776D01*
X92870503Y-72332607D01*
X92811287Y-72216390D01*
X92803556Y-72205749D01*
X92690971Y-72050786D01*
X92546213Y-71906028D01*
X92380614Y-71785715D01*
X92374006Y-71782348D01*
X92287917Y-71738483D01*
X92237123Y-71690511D01*
X92220328Y-71622690D01*
X92242865Y-71556555D01*
X92287917Y-71517516D01*
X92380610Y-71470287D01*
X92401770Y-71454913D01*
X92546213Y-71349971D01*
X92546215Y-71349968D01*
X92546219Y-71349966D01*
X92690966Y-71205219D01*
X92690968Y-71205215D01*
X92690971Y-71205213D01*
X92743732Y-71132590D01*
X92811287Y-71039610D01*
X92904220Y-70857219D01*
X92967477Y-70662534D01*
X92999500Y-70460352D01*
X92999500Y-70255648D01*
X92967477Y-70053466D01*
X92904220Y-69858781D01*
X92904218Y-69858778D01*
X92904218Y-69858776D01*
X92870503Y-69792607D01*
X92811287Y-69676390D01*
X92803556Y-69665749D01*
X92690971Y-69510786D01*
X92546213Y-69366028D01*
X92380614Y-69245715D01*
X92373884Y-69242286D01*
X92287917Y-69198483D01*
X92237123Y-69150511D01*
X92220328Y-69082690D01*
X92242865Y-69016555D01*
X92287917Y-68977516D01*
X92380610Y-68930287D01*
X92401770Y-68914913D01*
X92546213Y-68809971D01*
X92546215Y-68809968D01*
X92546219Y-68809966D01*
X92690966Y-68665219D01*
X92690968Y-68665215D01*
X92690971Y-68665213D01*
X92743732Y-68592590D01*
X92811287Y-68499610D01*
X92904220Y-68317219D01*
X92967477Y-68122534D01*
X92999500Y-67920352D01*
X92999500Y-67715648D01*
X92991257Y-67663606D01*
X92967477Y-67513465D01*
X92904218Y-67318776D01*
X92870503Y-67252607D01*
X92811287Y-67136390D01*
X92795966Y-67115302D01*
X92690971Y-66970786D01*
X92546213Y-66826028D01*
X92380613Y-66705715D01*
X92380612Y-66705714D01*
X92380610Y-66705713D01*
X92321675Y-66675684D01*
X92198223Y-66612781D01*
X92003534Y-66549522D01*
X91828995Y-66521878D01*
X91801352Y-66517500D01*
X91596648Y-66517500D01*
X91572329Y-66521351D01*
X91394465Y-66549522D01*
X91199776Y-66612781D01*
X91017386Y-66705715D01*
X90851786Y-66826028D01*
X90707028Y-66970786D01*
X90586715Y-67136386D01*
X90493781Y-67318776D01*
X90430522Y-67513465D01*
X90398500Y-67715648D01*
X90398500Y-67920351D01*
X90430522Y-68122534D01*
X90493781Y-68317223D01*
X90586715Y-68499613D01*
X90707028Y-68665213D01*
X90851786Y-68809971D01*
X91006749Y-68922556D01*
X91017390Y-68930287D01*
X91108840Y-68976883D01*
X91110080Y-68977515D01*
X91160876Y-69025490D01*
X91177671Y-69093311D01*
X91155134Y-69159446D01*
X91110080Y-69198485D01*
X91017386Y-69245715D01*
X90851786Y-69366028D01*
X90707028Y-69510786D01*
X90586715Y-69676386D01*
X90493781Y-69858776D01*
X90430522Y-70053465D01*
X90398500Y-70255648D01*
X90398500Y-70460351D01*
X90430522Y-70662534D01*
X90493781Y-70857223D01*
X90586715Y-71039613D01*
X90707028Y-71205213D01*
X90851786Y-71349971D01*
X91006749Y-71462556D01*
X91017390Y-71470287D01*
X91108840Y-71516883D01*
X91110080Y-71517515D01*
X91160876Y-71565490D01*
X91177671Y-71633311D01*
X91155134Y-71699446D01*
X91110080Y-71738485D01*
X91017386Y-71785715D01*
X90851786Y-71906028D01*
X90707028Y-72050786D01*
X90586715Y-72216386D01*
X90493781Y-72398776D01*
X90430522Y-72593465D01*
X90398500Y-72795648D01*
X90398500Y-73000351D01*
X90430522Y-73202534D01*
X90493781Y-73397223D01*
X90586715Y-73579613D01*
X90707028Y-73745213D01*
X90851786Y-73889971D01*
X91006749Y-74002556D01*
X91017390Y-74010287D01*
X91108840Y-74056883D01*
X91110080Y-74057515D01*
X91160876Y-74105490D01*
X91177671Y-74173311D01*
X91155134Y-74239446D01*
X91110080Y-74278485D01*
X91017386Y-74325715D01*
X90851786Y-74446028D01*
X90707028Y-74590786D01*
X90586715Y-74756386D01*
X90493781Y-74938776D01*
X90430522Y-75133465D01*
X90398500Y-75335648D01*
X90398500Y-75528903D01*
X90378815Y-75595942D01*
X90326011Y-75641697D01*
X90256853Y-75651641D01*
X90193297Y-75622616D01*
X90186819Y-75616584D01*
X85373077Y-70802842D01*
X85339592Y-70741519D01*
X85342828Y-70676841D01*
X85347477Y-70662534D01*
X85379500Y-70460352D01*
X85379500Y-70255648D01*
X85347477Y-70053466D01*
X85284220Y-69858781D01*
X85284218Y-69858778D01*
X85284218Y-69858776D01*
X85250503Y-69792607D01*
X85191287Y-69676390D01*
X85183556Y-69665749D01*
X85070971Y-69510786D01*
X84926217Y-69366032D01*
X84926212Y-69366028D01*
X84832051Y-69297616D01*
X84789385Y-69242286D01*
X84783406Y-69172673D01*
X84816012Y-69110878D01*
X84865933Y-69079592D01*
X84948117Y-69052359D01*
X84948124Y-69052356D01*
X85097345Y-68960315D01*
X85221315Y-68836345D01*
X85313356Y-68687124D01*
X85313358Y-68687119D01*
X85368505Y-68520697D01*
X85368506Y-68520690D01*
X85378999Y-68417986D01*
X85379000Y-68417973D01*
X85379000Y-68068000D01*
X84394686Y-68068000D01*
X84399080Y-68063606D01*
X84451741Y-67972394D01*
X84479000Y-67870661D01*
X84479000Y-67765339D01*
X84451741Y-67663606D01*
X84399080Y-67572394D01*
X84394686Y-67568000D01*
X85378999Y-67568000D01*
X85378999Y-67218028D01*
X85378998Y-67218013D01*
X85368505Y-67115302D01*
X85313358Y-66948880D01*
X85313356Y-66948875D01*
X85221315Y-66799654D01*
X85097345Y-66675684D01*
X84948124Y-66583643D01*
X84948119Y-66583641D01*
X84781697Y-66528494D01*
X84781690Y-66528493D01*
X84678986Y-66518000D01*
X84329000Y-66518000D01*
X84329000Y-67502314D01*
X84324606Y-67497920D01*
X84233394Y-67445259D01*
X84131661Y-67418000D01*
X84026339Y-67418000D01*
X83924606Y-67445259D01*
X83833394Y-67497920D01*
X83829000Y-67502314D01*
X83829000Y-66518000D01*
X83479028Y-66518000D01*
X83479012Y-66518001D01*
X83376302Y-66528494D01*
X83209880Y-66583641D01*
X83209875Y-66583643D01*
X83060654Y-66675684D01*
X82936684Y-66799654D01*
X82844643Y-66948875D01*
X82844641Y-66948880D01*
X82789494Y-67115302D01*
X82789493Y-67115309D01*
X82779000Y-67218013D01*
X82779000Y-67568000D01*
X83763314Y-67568000D01*
X83758920Y-67572394D01*
X83706259Y-67663606D01*
X83679000Y-67765339D01*
X83679000Y-67870661D01*
X83706259Y-67972394D01*
X83758920Y-68063606D01*
X83763314Y-68068000D01*
X82779001Y-68068000D01*
X82779001Y-68417986D01*
X82789494Y-68520697D01*
X82844641Y-68687119D01*
X82844643Y-68687124D01*
X82936684Y-68836345D01*
X83060654Y-68960315D01*
X83209875Y-69052356D01*
X83209882Y-69052359D01*
X83292067Y-69079592D01*
X83349512Y-69119364D01*
X83376336Y-69183880D01*
X83364021Y-69252656D01*
X83325949Y-69297616D01*
X83231787Y-69366028D01*
X83231782Y-69366032D01*
X83087028Y-69510786D01*
X82966715Y-69676386D01*
X82873781Y-69858776D01*
X82810522Y-70053465D01*
X82778500Y-70255648D01*
X40378500Y-70255648D01*
X40378500Y-62808000D01*
X40398185Y-62740961D01*
X40450989Y-62695206D01*
X40502500Y-62684000D01*
X97292500Y-62684000D01*
X97359539Y-62703685D01*
G37*
%TD.AperFunction*%
%TD*%
M02*
