M48
; DRILL file {KiCad 9.0.7} date 2026-05-10T18:03:23+0200
; FORMAT={-:-/ absolute / metric / decimal}
; #@! TF.CreationDate,2026-05-10T18:03:23+02:00
; #@! TF.GenerationSoftware,Kicad,Pcbnew,9.0.7
; #@! TF.FileFunction,Plated,1,2,PTH
FMAT,2
METRIC
; #@! TA.AperFunction,Plated,PTH,ViaDrill
T1C0.300
; #@! TA.AperFunction,Plated,PTH,ComponentDrill
T2C0.800
; #@! TA.AperFunction,Plated,PTH,ComponentDrill
T3C1.000
%
G90
G05
T1
X58.0Y-115.4
X60.8Y-114.0
X62.0Y-112.8
X64.4Y-100.6
X65.4Y-112.8
X65.8Y-125.2
X69.0Y-125.2
X74.2Y-79.6
X74.2Y-81.235
X74.2Y-99.8
X78.0Y-84.8
T2
X84.079Y-67.818
X84.079Y-70.358
X84.079Y-72.898
X84.079Y-75.438
X84.079Y-77.978
X84.079Y-80.518
X84.079Y-83.058
X91.699Y-67.818
X91.699Y-70.358
X91.699Y-72.898
X91.699Y-75.438
X91.699Y-77.978
X91.699Y-80.518
X91.699Y-83.058
T3
X44.831Y-104.62
X44.831Y-107.16
X44.831Y-109.7
X44.831Y-112.24
X44.831Y-114.78
X44.831Y-117.32
X44.831Y-119.86
X44.831Y-122.4
X44.831Y-126.492
X44.831Y-129.032
X44.831Y-131.572
X44.831Y-134.112
X44.831Y-136.652
X44.831Y-139.192
X66.445Y-138.825
X68.985Y-138.825
X71.525Y-138.825
X93.091Y-94.465
X93.091Y-97.005
X93.091Y-99.545
X93.091Y-102.085
X93.091Y-104.625
X93.091Y-107.165
X93.091Y-109.705
X93.091Y-112.245
X93.091Y-114.785
X93.091Y-117.325
X93.091Y-121.412
X93.091Y-123.952
X93.091Y-126.492
X93.091Y-129.032
X93.091Y-131.572
X93.091Y-134.112
X93.091Y-136.652
X93.091Y-139.192
M30
