%TF.GenerationSoftware,KiCad,Pcbnew,9.0.7*%
%TF.CreationDate,2026-05-10T18:03:11+02:00*%
%TF.ProjectId,KICAD RECEPTEUR FINAL,4b494341-4420-4524-9543-455054455552,rev?*%
%TF.SameCoordinates,Original*%
%TF.FileFunction,Copper,L1,Top*%
%TF.FilePolarity,Positive*%
%FSLAX46Y46*%
G04 Gerber Fmt 4.6, Leading zero omitted, Abs format (unit mm)*
G04 Created by KiCad (PCBNEW 9.0.7) date 2026-05-10 18:03:11*
%MOMM*%
%LPD*%
G01*
G04 APERTURE LIST*
G04 Aperture macros list*
%AMRoundRect*
0 Rectangle with rounded corners*
0 $1 Rounding radius*
0 $2 $3 $4 $5 $6 $7 $8 $9 X,Y pos of 4 corners*
0 Add a 4 corners polygon primitive as box body*
4,1,4,$2,$3,$4,$5,$6,$7,$8,$9,$2,$3,0*
0 Add four circle primitives for the rounded corners*
1,1,$1+$1,$2,$3*
1,1,$1+$1,$4,$5*
1,1,$1+$1,$6,$7*
1,1,$1+$1,$8,$9*
0 Add four rect primitives between the rounded corners*
20,1,$1+$1,$2,$3,$4,$5,0*
20,1,$1+$1,$4,$5,$6,$7,0*
20,1,$1+$1,$6,$7,$8,$9,0*
20,1,$1+$1,$8,$9,$2,$3,0*%
G04 Aperture macros list end*
%ADD10C,0.300000*%
%TA.AperFunction,SMDPad,CuDef*%
%ADD11RoundRect,0.250000X0.475000X-0.250000X0.475000X0.250000X-0.475000X0.250000X-0.475000X-0.250000X0*%
%TD*%
%TA.AperFunction,ComponentPad*%
%ADD12RoundRect,0.250000X-0.550000X-0.550000X0.550000X-0.550000X0.550000X0.550000X-0.550000X0.550000X0*%
%TD*%
%TA.AperFunction,ComponentPad*%
%ADD13C,1.600000*%
%TD*%
%TA.AperFunction,ComponentPad*%
%ADD14R,1.700000X1.700000*%
%TD*%
%TA.AperFunction,ComponentPad*%
%ADD15C,1.700000*%
%TD*%
%TA.AperFunction,SMDPad,CuDef*%
%ADD16RoundRect,0.250000X-0.262500X-0.450000X0.262500X-0.450000X0.262500X0.450000X-0.262500X0.450000X0*%
%TD*%
%TA.AperFunction,SMDPad,CuDef*%
%ADD17RoundRect,0.090000X-0.660000X-0.360000X0.660000X-0.360000X0.660000X0.360000X-0.660000X0.360000X0*%
%TD*%
%TA.AperFunction,SMDPad,CuDef*%
%ADD18RoundRect,0.250000X-0.475000X0.250000X-0.475000X-0.250000X0.475000X-0.250000X0.475000X0.250000X0*%
%TD*%
%TA.AperFunction,SMDPad,CuDef*%
%ADD19RoundRect,0.250000X-0.250000X-0.475000X0.250000X-0.475000X0.250000X0.475000X-0.250000X0.475000X0*%
%TD*%
%TA.AperFunction,SMDPad,CuDef*%
%ADD20RoundRect,0.250000X-0.450000X0.262500X-0.450000X-0.262500X0.450000X-0.262500X0.450000X0.262500X0*%
%TD*%
%TA.AperFunction,ViaPad*%
%ADD21C,0.600000*%
%TD*%
%TA.AperFunction,Conductor*%
%ADD22C,0.200000*%
%TD*%
G04 APERTURE END LIST*
D10*
G36*
X42975435Y-77193256D02*
G01*
X43041875Y-77208985D01*
X43107962Y-77235659D01*
X43169178Y-77271829D01*
X43220624Y-77315103D01*
X43263300Y-77365810D01*
X43296210Y-77423256D01*
X43320220Y-77490475D01*
X43334741Y-77569234D01*
X43340577Y-77671019D01*
X43345000Y-77935048D01*
X43345000Y-78446310D01*
X41838510Y-78446310D01*
X41838510Y-77968754D01*
X42090568Y-77968754D01*
X42090568Y-78142960D01*
X42436416Y-78142960D01*
X42436416Y-77944207D01*
X42435342Y-77898046D01*
X42688475Y-77898046D01*
X42688475Y-78142960D01*
X43092941Y-78142960D01*
X43092941Y-77862233D01*
X43089859Y-77712923D01*
X43083690Y-77654230D01*
X43062102Y-77592419D01*
X43023332Y-77544138D01*
X42989055Y-77521127D01*
X42946928Y-77506706D01*
X42894829Y-77501548D01*
X42830724Y-77510092D01*
X42779333Y-77534337D01*
X42738840Y-77573665D01*
X42710182Y-77629134D01*
X42695553Y-77708994D01*
X42688475Y-77898046D01*
X42435342Y-77898046D01*
X42431287Y-77723839D01*
X42412568Y-77652590D01*
X42377798Y-77601474D01*
X42345728Y-77577060D01*
X42307374Y-77562127D01*
X42260928Y-77556869D01*
X42196797Y-77566936D01*
X42148271Y-77595337D01*
X42124054Y-77623640D01*
X42106346Y-77660931D01*
X42095697Y-77709551D01*
X42090568Y-77968754D01*
X41838510Y-77968754D01*
X41838510Y-77845839D01*
X41842914Y-77678902D01*
X41853439Y-77579950D01*
X41876609Y-77496352D01*
X41915538Y-77423146D01*
X41969909Y-77360363D01*
X42041292Y-77307924D01*
X42095243Y-77282459D01*
X42153573Y-77267035D01*
X42217330Y-77261762D01*
X42286189Y-77268135D01*
X42350494Y-77286997D01*
X42411412Y-77318640D01*
X42465372Y-77361060D01*
X42509285Y-77412141D01*
X42543852Y-77472880D01*
X42578116Y-77386010D01*
X42623727Y-77316581D01*
X42680689Y-77261854D01*
X42748304Y-77221107D01*
X42823368Y-77196497D01*
X42907927Y-77188032D01*
X42975435Y-77193256D01*
G37*
G36*
X43345000Y-76273128D02*
G01*
X43261102Y-76300789D01*
X43227763Y-76311047D01*
X43292724Y-76388586D01*
X43337672Y-76468859D01*
X43365061Y-76555254D01*
X43374309Y-76648194D01*
X43367942Y-76731827D01*
X43349986Y-76802424D01*
X43321502Y-76862256D01*
X43282626Y-76913075D01*
X43233716Y-76955459D01*
X43179578Y-76985370D01*
X43119128Y-77003592D01*
X43050809Y-77009887D01*
X42990263Y-77004823D01*
X42935518Y-76990077D01*
X42885487Y-76965832D01*
X42840989Y-76932658D01*
X42804099Y-76891799D01*
X42774296Y-76842367D01*
X42740506Y-76753469D01*
X42706793Y-76613389D01*
X42666102Y-76427600D01*
X42635718Y-76333670D01*
X42823297Y-76333670D01*
X42867535Y-76508884D01*
X42896263Y-76617776D01*
X42918002Y-76665688D01*
X42948063Y-76697701D01*
X42981518Y-76715901D01*
X43019851Y-76722016D01*
X43058532Y-76717015D01*
X43093162Y-76702235D01*
X43124906Y-76676953D01*
X43149260Y-76644576D01*
X43164005Y-76606843D01*
X43169145Y-76562190D01*
X43163605Y-76511880D01*
X43146794Y-76462691D01*
X43117670Y-76413629D01*
X43073567Y-76369863D01*
X43021958Y-76344936D01*
X42976566Y-76337222D01*
X42880908Y-76333670D01*
X42823297Y-76333670D01*
X42635718Y-76333670D01*
X42606226Y-76333670D01*
X42550830Y-76339050D01*
X42511677Y-76353249D01*
X42484501Y-76374703D01*
X42466406Y-76404725D01*
X42453359Y-76453653D01*
X42448140Y-76529400D01*
X42456718Y-76600664D01*
X42479372Y-76649293D01*
X42519132Y-76686115D01*
X42588824Y-76718902D01*
X42541929Y-76980211D01*
X42439739Y-76941854D01*
X42361518Y-76891212D01*
X42302968Y-76828628D01*
X42271576Y-76774012D01*
X42247275Y-76704735D01*
X42231252Y-76617604D01*
X42225390Y-76508884D01*
X42231670Y-76379832D01*
X42247998Y-76286948D01*
X42271277Y-76222021D01*
X42306402Y-76162874D01*
X42345199Y-76119525D01*
X42387781Y-76089305D01*
X42437464Y-76070545D01*
X42519598Y-76056507D01*
X42647076Y-76050837D01*
X42985230Y-76053859D01*
X43120019Y-76049750D01*
X43198087Y-76040029D01*
X43267040Y-76020904D01*
X43345000Y-75988280D01*
X43345000Y-76273128D01*
G37*
G36*
X43345000Y-74777721D02*
G01*
X43345000Y-75065683D01*
X42786935Y-75065683D01*
X42625208Y-75071741D01*
X42557866Y-75084185D01*
X42511189Y-75108696D01*
X42476991Y-75144085D01*
X42455619Y-75188899D01*
X42448140Y-75244011D01*
X42458528Y-75315199D01*
X42489356Y-75378192D01*
X42537268Y-75428351D01*
X42598441Y-75459708D01*
X42680745Y-75474815D01*
X42849675Y-75481690D01*
X43345000Y-75481690D01*
X43345000Y-75769652D01*
X42254699Y-75769652D01*
X42254699Y-75502206D01*
X42414526Y-75502206D01*
X42344230Y-75439977D01*
X42291773Y-75373850D01*
X42255046Y-75303217D01*
X42232933Y-75226959D01*
X42225390Y-75143536D01*
X42234239Y-75051298D01*
X42259920Y-74969421D01*
X42300637Y-74898205D01*
X42348122Y-74849986D01*
X42405027Y-74815799D01*
X42469755Y-74793658D01*
X42545133Y-74782337D01*
X42664569Y-74777721D01*
X43345000Y-74777721D01*
G37*
G36*
X43345000Y-73754740D02*
G01*
X43185173Y-73754740D01*
X43243353Y-73802811D01*
X43290063Y-73855122D01*
X43326407Y-73912002D01*
X43362645Y-74004266D01*
X43374309Y-74094910D01*
X43364841Y-74184948D01*
X43336927Y-74267285D01*
X43289962Y-74343911D01*
X43221626Y-74416120D01*
X43142254Y-74472123D01*
X43047028Y-74513767D01*
X42932820Y-74540341D01*
X42795728Y-74549842D01*
X42654691Y-74540368D01*
X42539812Y-74514155D01*
X42446444Y-74473589D01*
X42370837Y-74419692D01*
X42306787Y-74349765D01*
X42261925Y-74272780D01*
X42234750Y-74187211D01*
X42225390Y-74090788D01*
X42233477Y-74014951D01*
X42448140Y-74014951D01*
X42457333Y-74079449D01*
X42484452Y-74135900D01*
X42531213Y-74186592D01*
X42590613Y-74222824D01*
X42671216Y-74246792D01*
X42779425Y-74255744D01*
X42898241Y-74249051D01*
X42980965Y-74231860D01*
X43036612Y-74207567D01*
X43088275Y-74167923D01*
X43123396Y-74123081D01*
X43144342Y-74072078D01*
X43151559Y-74012936D01*
X43142200Y-73950622D01*
X43114262Y-73894990D01*
X43065372Y-73843859D01*
X43003858Y-73807409D01*
X42920197Y-73783211D01*
X42807726Y-73774158D01*
X42681156Y-73783369D01*
X42592604Y-73807246D01*
X42532312Y-73841844D01*
X42485117Y-73891740D01*
X42457559Y-73948601D01*
X42448140Y-74014951D01*
X42233477Y-74014951D01*
X42234715Y-74003343D01*
X42262311Y-73922750D01*
X42308942Y-73847104D01*
X42377065Y-73775165D01*
X41838510Y-73775165D01*
X41838510Y-73487295D01*
X43345000Y-73487295D01*
X43345000Y-73754740D01*
G37*
G36*
X42881915Y-72991970D02*
G01*
X42964499Y-72981978D01*
X43029459Y-72958324D01*
X43080576Y-72922269D01*
X43120095Y-72874098D01*
X43143516Y-72819494D01*
X43151559Y-72756306D01*
X43142201Y-72692975D01*
X43115472Y-72642550D01*
X43071026Y-72603675D01*
X42999152Y-72572849D01*
X43046046Y-72285986D01*
X43147122Y-72331481D01*
X43227554Y-72389668D01*
X43290411Y-72460742D01*
X43335840Y-72544056D01*
X43364255Y-72642448D01*
X43374309Y-72759420D01*
X43365867Y-72873249D01*
X43342059Y-72969509D01*
X43304329Y-73051204D01*
X43252950Y-73120677D01*
X43187005Y-73179457D01*
X43109961Y-73225135D01*
X43022376Y-73258682D01*
X42922469Y-73279704D01*
X42808093Y-73287076D01*
X42671570Y-73277139D01*
X42557149Y-73249237D01*
X42461017Y-73205251D01*
X42380179Y-73145660D01*
X42312171Y-73069882D01*
X42264396Y-72986269D01*
X42235392Y-72893152D01*
X42225390Y-72788088D01*
X42226985Y-72770594D01*
X42448140Y-72770594D01*
X42456005Y-72830374D01*
X42478881Y-72881586D01*
X42517566Y-72926391D01*
X42567135Y-72959372D01*
X42628844Y-72979913D01*
X42706060Y-72986841D01*
X42706060Y-72556454D01*
X42623996Y-72566010D01*
X42561392Y-72588075D01*
X42513902Y-72621026D01*
X42477077Y-72665427D01*
X42455485Y-72714678D01*
X42448140Y-72770594D01*
X42226985Y-72770594D01*
X42236238Y-72669100D01*
X42267139Y-72567650D01*
X42317068Y-72480354D01*
X42386957Y-72404871D01*
X42452072Y-72358256D01*
X42531323Y-72320541D01*
X42627257Y-72292355D01*
X42742949Y-72275044D01*
X42881915Y-72270599D01*
X42881915Y-72991970D01*
G37*
G36*
X43345000Y-71443073D02*
G01*
X41856095Y-71443073D01*
X41856095Y-71139724D01*
X43092941Y-71139724D01*
X43092941Y-70385563D01*
X43345000Y-70385563D01*
X43345000Y-71443073D01*
G37*
G36*
X43345000Y-70168950D02*
G01*
X41838510Y-70168950D01*
X41838510Y-69055111D01*
X42090568Y-69055111D01*
X42090568Y-69865692D01*
X42424692Y-69865692D01*
X42424692Y-69111531D01*
X42676751Y-69111531D01*
X42676751Y-69865692D01*
X43092941Y-69865692D01*
X43092941Y-69026443D01*
X43345000Y-69026443D01*
X43345000Y-70168950D01*
G37*
G36*
X42729772Y-67516777D02*
G01*
X42835894Y-67532573D01*
X42926795Y-67557231D01*
X43032424Y-67601709D01*
X43120342Y-67655441D01*
X43192867Y-67718156D01*
X43238759Y-67774323D01*
X43278992Y-67844559D01*
X43313126Y-67931289D01*
X43336014Y-68040351D01*
X43345000Y-68199742D01*
X43345000Y-68770446D01*
X41838510Y-68770446D01*
X41838510Y-68330901D01*
X42090568Y-68330901D01*
X42090568Y-68467188D01*
X43092941Y-68467188D01*
X43092941Y-68240683D01*
X43088576Y-68122470D01*
X43078469Y-68057318D01*
X43052869Y-67988683D01*
X43015546Y-67934861D01*
X42982966Y-67906706D01*
X42935620Y-67880056D01*
X42869459Y-67855451D01*
X42758433Y-67833423D01*
X42592304Y-67824677D01*
X42427149Y-67833575D01*
X42322843Y-67855451D01*
X42236816Y-67893743D01*
X42176297Y-67941547D01*
X42132732Y-68003148D01*
X42105040Y-68081864D01*
X42095167Y-68160538D01*
X42090568Y-68330901D01*
X41838510Y-68330901D01*
X41838510Y-68216137D01*
X41846874Y-68039832D01*
X41867269Y-67930281D01*
X41900159Y-67846070D01*
X41946191Y-67770953D01*
X42006030Y-67703777D01*
X42076235Y-67646787D01*
X42157151Y-67598963D01*
X42250120Y-67560345D01*
X42347588Y-67534270D01*
X42465137Y-67517285D01*
X42606134Y-67511161D01*
X42729772Y-67516777D01*
G37*
G36*
X43345000Y-66680155D02*
G01*
X41838510Y-66680155D01*
X41838510Y-66376805D01*
X43345000Y-66376805D01*
X43345000Y-66680155D01*
G37*
G36*
X43345000Y-65098835D02*
G01*
X43017653Y-65318104D01*
X42859726Y-65427624D01*
X42797102Y-65477930D01*
X42757946Y-65523442D01*
X42734728Y-65569155D01*
X42722845Y-65624431D01*
X42717784Y-65721837D01*
X42717784Y-65783295D01*
X43345000Y-65783295D01*
X43345000Y-66086645D01*
X41838510Y-66086645D01*
X41838510Y-65546624D01*
X42090568Y-65546624D01*
X42090568Y-65783295D01*
X42477449Y-65783295D01*
X42477449Y-65558897D01*
X42471138Y-65360581D01*
X42458764Y-65286322D01*
X42433082Y-65237687D01*
X42394284Y-65201325D01*
X42344368Y-65178677D01*
X42279887Y-65170551D01*
X42230000Y-65175428D01*
X42189202Y-65189121D01*
X42155598Y-65211034D01*
X42117674Y-65258497D01*
X42095789Y-65325248D01*
X42090568Y-65546624D01*
X41838510Y-65546624D01*
X41838510Y-65448255D01*
X41844252Y-65285885D01*
X41858914Y-65173211D01*
X41879176Y-65098377D01*
X41913116Y-65030764D01*
X41960852Y-64972878D01*
X42023890Y-64923621D01*
X42095664Y-64887519D01*
X42174399Y-64865580D01*
X42261752Y-64858042D01*
X42345616Y-64864685D01*
X42419239Y-64883760D01*
X42484381Y-64914625D01*
X42542387Y-64957510D01*
X42590350Y-65010291D01*
X42629869Y-65075803D01*
X42660715Y-65156291D01*
X42681880Y-65254631D01*
X42743680Y-65162853D01*
X42808001Y-65092240D01*
X42891655Y-65025304D01*
X43051908Y-64919500D01*
X43345000Y-64736134D01*
X43345000Y-65098835D01*
G37*
D11*
%TO.P,C5,1*%
%TO.N,+5V*%
X61595000Y-108011000D03*
%TO.P,C5,2*%
%TO.N,GND*%
X61595000Y-106111000D03*
%TD*%
D12*
%TO.P,U1,1*%
%TO.N,GND*%
X84079000Y-67818000D03*
D13*
%TO.P,U1,2*%
%TO.N,Net-(J3-Pin_5)*%
X84079000Y-70358000D03*
%TO.P,U1,3*%
%TO.N,Net-(R1-Pad2)*%
X84079000Y-72898000D03*
%TO.P,U1,4*%
%TO.N,N/C*%
X84079000Y-75438000D03*
%TO.P,U1,5*%
X84079000Y-77978000D03*
%TO.P,U1,6*%
X84079000Y-80518000D03*
%TO.P,U1,7,GND*%
%TO.N,GND*%
X84079000Y-83058000D03*
%TO.P,U1,8*%
%TO.N,N/C*%
X91699000Y-83058000D03*
%TO.P,U1,9*%
X91699000Y-80518000D03*
%TO.P,U1,10*%
X91699000Y-77978000D03*
%TO.P,U1,11*%
X91699000Y-75438000D03*
%TO.P,U1,12*%
X91699000Y-72898000D03*
%TO.P,U1,13*%
X91699000Y-70358000D03*
%TO.P,U1,14,VCC*%
%TO.N,+5V*%
X91699000Y-67818000D03*
%TD*%
D14*
%TO.P,Capteur_IR1,1,Pin_1*%
%TO.N,GND*%
X71525000Y-138825000D03*
D15*
%TO.P,Capteur_IR1,2,Pin_2*%
%TO.N,+5V*%
X68985000Y-138825000D03*
%TO.P,Capteur_IR1,3,Pin_3*%
%TO.N,Net-(Capteur_IR1-Pin_3)*%
X66445000Y-138825000D03*
%TD*%
D16*
%TO.P,R3,1*%
%TO.N,GND*%
X82677000Y-126013000D03*
%TO.P,R3,2*%
%TO.N,Net-(J1-CC1)*%
X84502000Y-126013000D03*
%TD*%
D17*
%TO.P,D1,1,VDD*%
%TO.N,+5V*%
X67183000Y-67692000D03*
%TO.P,D1,2,DOUT*%
%TO.N,Net-(D1-DOUT)*%
X67183000Y-70992000D03*
%TO.P,D1,3,VSS*%
%TO.N,GND*%
X72083000Y-70992000D03*
%TO.P,D1,4,DIN*%
%TO.N,Net-(D1-DIN)*%
X72083000Y-67692000D03*
%TD*%
D18*
%TO.P,C2,1*%
%TO.N,+5V*%
X61595000Y-119065000D03*
%TO.P,C2,2*%
%TO.N,GND*%
X61595000Y-120965000D03*
%TD*%
D11*
%TO.P,C9,1*%
%TO.N,+5V*%
X77724000Y-70419000D03*
%TO.P,C9,2*%
%TO.N,GND*%
X77724000Y-68519000D03*
%TD*%
D18*
%TO.P,C8,1*%
%TO.N,+5V*%
X61595000Y-80584000D03*
%TO.P,C8,2*%
%TO.N,GND*%
X61595000Y-82484000D03*
%TD*%
%TO.P,C6,1*%
%TO.N,+5V*%
X77724000Y-80457000D03*
%TO.P,C6,2*%
%TO.N,GND*%
X77724000Y-82357000D03*
%TD*%
%TO.P,C3,1*%
%TO.N,+5V*%
X61595000Y-68646000D03*
%TO.P,C3,2*%
%TO.N,GND*%
X61595000Y-70546000D03*
%TD*%
D19*
%TO.P,C1,1*%
%TO.N,+5V*%
X82616000Y-118110000D03*
%TO.P,C1,2*%
%TO.N,GND*%
X84516000Y-118110000D03*
%TD*%
D17*
%TO.P,D2,1,VDD*%
%TO.N,+5V*%
X67183000Y-79884000D03*
%TO.P,D2,2,DOUT*%
%TO.N,unconnected-(D2-DOUT-Pad2)*%
X67183000Y-83184000D03*
%TO.P,D2,3,VSS*%
%TO.N,GND*%
X72083000Y-83184000D03*
%TO.P,D2,4,DIN*%
%TO.N,Net-(D1-DOUT)*%
X72083000Y-79884000D03*
%TD*%
%TO.P,D6,1,VDD*%
%TO.N,+5V*%
X67056000Y-105284000D03*
%TO.P,D6,2,DOUT*%
%TO.N,Net-(D6-DOUT)*%
X67056000Y-108584000D03*
%TO.P,D6,3,VSS*%
%TO.N,GND*%
X71956000Y-108584000D03*
%TO.P,D6,4,DIN*%
%TO.N,Net-(D5-DOUT)*%
X71956000Y-105284000D03*
%TD*%
D20*
%TO.P,R1,1*%
%TO.N,Net-(D5-DIN)*%
X77597000Y-93194500D03*
%TO.P,R1,2*%
%TO.N,Net-(R1-Pad2)*%
X77597000Y-95019500D03*
%TD*%
D18*
%TO.P,C4,1*%
%TO.N,+5V*%
X61595000Y-93538000D03*
%TO.P,C4,2*%
%TO.N,GND*%
X61595000Y-95438000D03*
%TD*%
D17*
%TO.P,D5,1,VDD*%
%TO.N,+5V*%
X67146000Y-92711000D03*
%TO.P,D5,2,DOUT*%
%TO.N,Net-(D5-DOUT)*%
X67146000Y-96011000D03*
%TO.P,D5,3,VSS*%
%TO.N,GND*%
X72046000Y-96011000D03*
%TO.P,D5,4,DIN*%
%TO.N,Net-(D5-DIN)*%
X72046000Y-92711000D03*
%TD*%
D16*
%TO.P,R2,1*%
%TO.N,GND*%
X82677000Y-123063000D03*
%TO.P,R2,2*%
%TO.N,Net-(J1-CC2)*%
X84502000Y-123063000D03*
%TD*%
D17*
%TO.P,D7,1,VDD*%
%TO.N,+5V*%
X66929000Y-118111000D03*
%TO.P,D7,2,DOUT*%
%TO.N,Net-(D1-DIN)*%
X66929000Y-121411000D03*
%TO.P,D7,3,VSS*%
%TO.N,GND*%
X71829000Y-121411000D03*
%TO.P,D7,4,DIN*%
%TO.N,Net-(D6-DOUT)*%
X71829000Y-118111000D03*
%TD*%
D14*
%TO.P,J4,1,Pin_1*%
%TO.N,unconnected-(J4-Pin_1-Pad1)*%
X93091000Y-121412000D03*
D15*
%TO.P,J4,2,Pin_2*%
%TO.N,Net-(J3-Pin_5)*%
X93091000Y-123952000D03*
%TO.P,J4,3,Pin_3*%
%TO.N,unconnected-(J4-Pin_3-Pad3)*%
X93091000Y-126492000D03*
%TO.P,J4,4,Pin_4*%
%TO.N,unconnected-(J4-Pin_4-Pad4)*%
X93091000Y-129032000D03*
%TO.P,J4,5,Pin_5*%
%TO.N,unconnected-(J4-Pin_5-Pad5)*%
X93091000Y-131572000D03*
%TO.P,J4,6,Pin_6*%
%TO.N,Net-(Capteur_IR1-Pin_3)*%
X93091000Y-134112000D03*
%TO.P,J4,7,Pin_7*%
%TO.N,unconnected-(J4-Pin_7-Pad7)*%
X93091000Y-136652000D03*
%TO.P,J4,8,Pin_8*%
%TO.N,unconnected-(J4-Pin_8-Pad8)*%
X93091000Y-139192000D03*
%TD*%
D14*
%TO.P,J2,1,Pin_1*%
%TO.N,unconnected-(J2-Pin_1-Pad1)*%
X44831000Y-126492000D03*
D15*
%TO.P,J2,2,Pin_2*%
%TO.N,unconnected-(J2-Pin_2-Pad2)*%
X44831000Y-129032000D03*
%TO.P,J2,3,Pin_3*%
%TO.N,unconnected-(J2-Pin_3-Pad3)*%
X44831000Y-131572000D03*
%TO.P,J2,4,Pin_4*%
%TO.N,unconnected-(J2-Pin_4-Pad4)*%
X44831000Y-134112000D03*
%TO.P,J2,5,Pin_5*%
%TO.N,unconnected-(J2-Pin_5-Pad5)*%
X44831000Y-136652000D03*
%TO.P,J2,6,Pin_6*%
%TO.N,unconnected-(J2-Pin_6-Pad6)*%
X44831000Y-139192000D03*
%TD*%
D14*
%TO.P,J3,1,Pin_1*%
%TO.N,unconnected-(J3-Pin_1-Pad1)*%
X93091000Y-94465000D03*
D15*
%TO.P,J3,2,Pin_2*%
%TO.N,unconnected-(J3-Pin_2-Pad2)*%
X93091000Y-97005000D03*
%TO.P,J3,3,Pin_3*%
%TO.N,unconnected-(J3-Pin_3-Pad3)*%
X93091000Y-99545000D03*
%TO.P,J3,4,Pin_4*%
%TO.N,unconnected-(J3-Pin_4-Pad4)*%
X93091000Y-102085000D03*
%TO.P,J3,5,Pin_5*%
%TO.N,Net-(J3-Pin_5)*%
X93091000Y-104625000D03*
%TO.P,J3,6,Pin_6*%
%TO.N,unconnected-(J3-Pin_6-Pad6)*%
X93091000Y-107165000D03*
%TO.P,J3,7,Pin_7*%
%TO.N,unconnected-(J3-Pin_7-Pad7)*%
X93091000Y-109705000D03*
%TO.P,J3,8,Pin_8*%
%TO.N,unconnected-(J3-Pin_8-Pad8)*%
X93091000Y-112245000D03*
%TO.P,J3,9,Pin_9*%
%TO.N,unconnected-(J3-Pin_9-Pad9)*%
X93091000Y-114785000D03*
%TO.P,J3,10,Pin_10*%
%TO.N,unconnected-(J3-Pin_10-Pad10)*%
X93091000Y-117325000D03*
%TD*%
D14*
%TO.P,J5,1,Pin_1*%
%TO.N,N/C*%
X44831000Y-104620000D03*
D15*
%TO.P,J5,2,Pin_2*%
X44831000Y-107160000D03*
%TO.P,J5,3,Pin_3*%
X44831000Y-109700000D03*
%TO.P,J5,4,Pin_4*%
X44831000Y-112240000D03*
%TO.P,J5,5,Pin_5*%
X44831000Y-114780000D03*
%TO.P,J5,6,Pin_6*%
X44831000Y-117320000D03*
%TO.P,J5,7,Pin_7*%
X44831000Y-119860000D03*
%TO.P,J5,8,Pin_8*%
X44831000Y-122400000D03*
%TD*%
D21*
%TO.N,GND*%
X58000000Y-115400000D03*
X65800000Y-125200000D03*
X62000000Y-112800000D03*
X74200000Y-79600000D03*
X60800000Y-114000000D03*
X74200000Y-99800000D03*
X64400000Y-100600000D03*
X69000000Y-125200000D03*
X74200000Y-81235000D03*
X65400000Y-112800000D03*
X78000000Y-84800000D03*
%TD*%
D22*
%TO.N,GND*%
X61595000Y-82484000D02*
X60569000Y-83510000D01*
X66231548Y-107833000D02*
X65400000Y-108664548D01*
X60569000Y-96464000D02*
X61595000Y-95438000D01*
X74200000Y-71792000D02*
X74200000Y-79600000D01*
X72000000Y-97600000D02*
X74200000Y-99800000D01*
X72910000Y-82357000D02*
X72083000Y-83184000D01*
X61595000Y-120965000D02*
X58000000Y-117370000D01*
X82600000Y-128000000D02*
X71775000Y-138825000D01*
X84516000Y-118110000D02*
X84516000Y-121224000D01*
X78349000Y-84451000D02*
X78000000Y-84800000D01*
X84516000Y-121224000D02*
X82677000Y-123063000D01*
X64400000Y-98243000D02*
X61595000Y-95438000D01*
X82600000Y-128000000D02*
X82600000Y-127800000D01*
X75000000Y-70992000D02*
X75251000Y-70992000D01*
X62094938Y-70046062D02*
X71137062Y-70046062D01*
X71829000Y-121411000D02*
X69000000Y-124240000D01*
X83378000Y-68519000D02*
X84079000Y-67818000D01*
X77724000Y-82357000D02*
X74200000Y-82357000D01*
X74200000Y-82357000D02*
X72910000Y-82357000D01*
X65800000Y-125170000D02*
X61595000Y-120965000D01*
X82677000Y-123063000D02*
X73481000Y-123063000D01*
X82600000Y-127800000D02*
X82677000Y-127723000D01*
X77724000Y-68519000D02*
X83378000Y-68519000D01*
X69000000Y-124240000D02*
X69000000Y-125200000D01*
X61595000Y-70546000D02*
X62094938Y-70046062D01*
X71956000Y-108584000D02*
X71205000Y-107833000D01*
X61595000Y-95438000D02*
X61595000Y-106111000D01*
X75251000Y-70992000D02*
X77724000Y-68519000D01*
X71205000Y-107833000D02*
X66231548Y-107833000D01*
X60569000Y-111369000D02*
X60569000Y-96464000D01*
X58000000Y-117370000D02*
X58000000Y-115400000D01*
X62000000Y-112800000D02*
X60569000Y-111369000D01*
X77724000Y-82357000D02*
X78349000Y-82982000D01*
X64400000Y-100600000D02*
X64400000Y-98243000D01*
X74200000Y-82357000D02*
X74200000Y-81235000D01*
X65400000Y-108664548D02*
X65400000Y-112800000D01*
X65800000Y-125200000D02*
X65800000Y-125170000D01*
X71137062Y-70046062D02*
X72083000Y-70992000D01*
X72046000Y-96011000D02*
X72000000Y-96057000D01*
X72000000Y-96057000D02*
X72000000Y-97600000D01*
X60569000Y-83510000D02*
X60569000Y-94412000D01*
X82677000Y-123063000D02*
X82677000Y-126013000D01*
X75000000Y-70992000D02*
X74200000Y-71792000D01*
X73481000Y-123063000D02*
X71829000Y-121411000D01*
X71775000Y-138825000D02*
X71525000Y-138825000D01*
X60569000Y-94412000D02*
X61595000Y-95438000D01*
X78349000Y-82982000D02*
X78349000Y-84451000D01*
X70995000Y-94960000D02*
X70995000Y-84272000D01*
X60800000Y-114000000D02*
X62000000Y-112800000D01*
X82677000Y-127723000D02*
X82677000Y-126013000D01*
X70995000Y-84272000D02*
X72083000Y-83184000D01*
X72046000Y-96011000D02*
X70995000Y-94960000D01*
X72083000Y-70992000D02*
X75000000Y-70992000D01*
%TO.N,+5V*%
X90260000Y-69257000D02*
X91699000Y-67818000D01*
X64329000Y-108011000D02*
X67056000Y-105284000D01*
X66319000Y-93538000D02*
X67146000Y-92711000D01*
X67183000Y-79884000D02*
X62295000Y-79884000D01*
X67183000Y-79884000D02*
X67934000Y-80635000D01*
X67146000Y-92711000D02*
X67146000Y-86135000D01*
X61595000Y-108011000D02*
X64329000Y-108011000D01*
X66229000Y-68646000D02*
X67183000Y-67692000D01*
X62295000Y-79884000D02*
X61595000Y-80584000D01*
X60569000Y-79558000D02*
X60569000Y-69672000D01*
X61595000Y-80584000D02*
X60569000Y-79558000D01*
X64692000Y-122162000D02*
X69502548Y-122162000D01*
X67980000Y-119162000D02*
X66929000Y-118111000D01*
X77724000Y-80457000D02*
X77724000Y-70419000D01*
X67056000Y-105284000D02*
X67056000Y-98999000D01*
X61595000Y-93538000D02*
X66319000Y-93538000D01*
X68985000Y-138825000D02*
X67980000Y-137820000D01*
X67934000Y-80635000D02*
X77546000Y-80635000D01*
X77724000Y-70419000D02*
X78886000Y-69257000D01*
X66929000Y-118111000D02*
X64329000Y-115511000D01*
X64329000Y-115511000D02*
X64329000Y-108011000D01*
X77546000Y-80635000D02*
X77724000Y-80457000D01*
X69502548Y-122162000D02*
X73554548Y-118110000D01*
X61595000Y-68646000D02*
X66229000Y-68646000D01*
X64692000Y-122162000D02*
X67753452Y-122162000D01*
X67753452Y-122162000D02*
X67980000Y-121935452D01*
X78886000Y-69257000D02*
X90260000Y-69257000D01*
X67980000Y-121935452D02*
X67980000Y-119162000D01*
X60569000Y-69672000D02*
X61595000Y-68646000D01*
X67056000Y-98999000D02*
X61595000Y-93538000D01*
X73554548Y-118110000D02*
X82616000Y-118110000D01*
X67980000Y-137820000D02*
X67980000Y-121935452D01*
X81564000Y-119162000D02*
X67980000Y-119162000D01*
X67146000Y-86135000D02*
X61595000Y-80584000D01*
X82616000Y-118110000D02*
X81564000Y-119162000D01*
X61595000Y-119065000D02*
X64692000Y-122162000D01*
%TO.N,Net-(D1-DOUT)*%
X72083000Y-75892000D02*
X72083000Y-79884000D01*
X67183000Y-70992000D02*
X72083000Y-75892000D01*
%TO.N,Net-(D1-DIN)*%
X66929000Y-121411000D02*
X57600000Y-112082000D01*
X71332000Y-66941000D02*
X72083000Y-67692000D01*
X57600000Y-71129840D02*
X61788840Y-66941000D01*
X57600000Y-112082000D02*
X57600000Y-71129840D01*
X61788840Y-66941000D02*
X71332000Y-66941000D01*
%TO.N,Net-(D5-DIN)*%
X72046000Y-92711000D02*
X77113500Y-92711000D01*
X77113500Y-92711000D02*
X77597000Y-93194500D01*
%TO.N,Net-(D5-DOUT)*%
X71956000Y-100821000D02*
X71956000Y-105284000D01*
X67146000Y-96011000D02*
X71956000Y-100821000D01*
%TO.N,Net-(D6-DOUT)*%
X67056000Y-108584000D02*
X71829000Y-113357000D01*
X71829000Y-113357000D02*
X71829000Y-118111000D01*
%TO.N,Net-(R1-Pad2)*%
X78750000Y-78227000D02*
X78750000Y-93866500D01*
X78750000Y-93866500D02*
X77597000Y-95019500D01*
X84079000Y-72898000D02*
X78750000Y-78227000D01*
%TO.N,Net-(Capteur_IR1-Pin_3)*%
X70220000Y-142600000D02*
X66445000Y-138825000D01*
X93091000Y-134112000D02*
X84603000Y-142600000D01*
X84603000Y-142600000D02*
X70220000Y-142600000D01*
%TD*%
%TA.AperFunction,Conductor*%
%TO.N,GND*%
G36*
X97359539Y-62703685D02*
G01*
X97405294Y-62756489D01*
X97416500Y-62808000D01*
X97416500Y-143266500D01*
X97396815Y-143333539D01*
X97344011Y-143379294D01*
X97292500Y-143390500D01*
X84897589Y-143390500D01*
X84894660Y-143389640D01*
X84891693Y-143390360D01*
X84861342Y-143379856D01*
X84830550Y-143370815D01*
X84828551Y-143368509D01*
X84825665Y-143367510D01*
X84805808Y-143342261D01*
X84784795Y-143318011D01*
X84784360Y-143314990D01*
X84782473Y-143312590D01*
X84779419Y-143280628D01*
X84774851Y-143248853D01*
X84776119Y-143246075D01*
X84775829Y-143243037D01*
X84790538Y-143214501D01*
X84803876Y-143185297D01*
X84806866Y-143182828D01*
X84807843Y-143180933D01*
X84835586Y-143159115D01*
X84884899Y-143130642D01*
X84884904Y-143130639D01*
X84971716Y-143080520D01*
X85083520Y-142968716D01*
X85083520Y-142968714D01*
X85093728Y-142958507D01*
X85093729Y-142958504D01*
X91528821Y-136523413D01*
X91590142Y-136489930D01*
X91659834Y-136494914D01*
X91715767Y-136536786D01*
X91740184Y-136602250D01*
X91740500Y-136611096D01*
X91740500Y-136758286D01*
X91773753Y-136968239D01*
X91839444Y-137170414D01*
X91935951Y-137359820D01*
X92060890Y-137531786D01*
X92211213Y-137682109D01*
X92383182Y-137807050D01*
X92391946Y-137811516D01*
X92442742Y-137859491D01*
X92459536Y-137927312D01*
X92436998Y-137993447D01*
X92391946Y-138032484D01*
X92383182Y-138036949D01*
X92211213Y-138161890D01*
X92060890Y-138312213D01*
X91935951Y-138484179D01*
X91839444Y-138673585D01*
X91773753Y-138875760D01*
X91751226Y-139017993D01*
X91740500Y-139085713D01*
X91740500Y-139298287D01*
X91773754Y-139508243D01*
X91781738Y-139532816D01*
X91839444Y-139710414D01*
X91935951Y-139899820D01*
X92060890Y-140071786D01*
X92211213Y-140222109D01*
X92383179Y-140347048D01*
X92383181Y-140347049D01*
X92383184Y-140347051D01*
X92572588Y-140443557D01*
X92774757Y-140509246D01*
X92984713Y-140542500D01*
X92984714Y-140542500D01*
X93197286Y-140542500D01*
X93197287Y-140542500D01*
X93407243Y-140509246D01*
X93609412Y-140443557D01*
X93798816Y-140347051D01*
X93827986Y-140325858D01*
X93970786Y-140222109D01*
X93970788Y-140222106D01*
X93970792Y-140222104D01*
X94121104Y-140071792D01*
X94121106Y-140071788D01*
X94121109Y-140071786D01*
X94246048Y-139899820D01*
X94246047Y-139899820D01*
X94246051Y-139899816D01*
X94342557Y-139710412D01*
X94408246Y-139508243D01*
X94441500Y-139298287D01*
X94441500Y-139085713D01*
X94408246Y-138875757D01*
X94342557Y-138673588D01*
X94246051Y-138484184D01*
X94246049Y-138484181D01*
X94246048Y-138484179D01*
X94121109Y-138312213D01*
X93970786Y-138161890D01*
X93798820Y-138036951D01*
X93798115Y-138036591D01*
X93790054Y-138032485D01*
X93739259Y-137984512D01*
X93722463Y-137916692D01*
X93744999Y-137850556D01*
X93790054Y-137811515D01*
X93798816Y-137807051D01*
X93820789Y-137791086D01*
X93970786Y-137682109D01*
X93970788Y-137682106D01*
X93970792Y-137682104D01*
X94121104Y-137531792D01*
X94121106Y-137531788D01*
X94121109Y-137531786D01*
X94246048Y-137359820D01*
X94246047Y-137359820D01*
X94246051Y-137359816D01*
X94342557Y-137170412D01*
X94408246Y-136968243D01*
X94441500Y-136758287D01*
X94441500Y-136545713D01*
X94408246Y-136335757D01*
X94342557Y-136133588D01*
X94246051Y-135944184D01*
X94246049Y-135944181D01*
X94246048Y-135944179D01*
X94121109Y-135772213D01*
X93970786Y-135621890D01*
X93798820Y-135496951D01*
X93798115Y-135496591D01*
X93790054Y-135492485D01*
X93739259Y-135444512D01*
X93722463Y-135376692D01*
X93744999Y-135310556D01*
X93790054Y-135271515D01*
X93798816Y-135267051D01*
X93820789Y-135251086D01*
X93970786Y-135142109D01*
X93970788Y-135142106D01*
X93970792Y-135142104D01*
X94121104Y-134991792D01*
X94121106Y-134991788D01*
X94121109Y-134991786D01*
X94246048Y-134819820D01*
X94246047Y-134819820D01*
X94246051Y-134819816D01*
X94342557Y-134630412D01*
X94408246Y-134428243D01*
X94441500Y-134218287D01*
X94441500Y-134005713D01*
X94408246Y-133795757D01*
X94342557Y-133593588D01*
X94246051Y-133404184D01*
X94246049Y-133404181D01*
X94246048Y-133404179D01*
X94121109Y-133232213D01*
X93970786Y-133081890D01*
X93798820Y-132956951D01*
X93798115Y-132956591D01*
X93790054Y-132952485D01*
X93739259Y-132904512D01*
X93722463Y-132836692D01*
X93744999Y-132770556D01*
X93790054Y-132731515D01*
X93798816Y-132727051D01*
X93820789Y-132711086D01*
X93970786Y-132602109D01*
X93970788Y-132602106D01*
X93970792Y-132602104D01*
X94121104Y-132451792D01*
X94121106Y-132451788D01*
X94121109Y-132451786D01*
X94246048Y-132279820D01*
X94246047Y-132279820D01*
X94246051Y-132279816D01*
X94342557Y-132090412D01*
X94408246Y-131888243D01*
X94441500Y-131678287D01*
X94441500Y-131465713D01*
X94408246Y-131255757D01*
X94342557Y-131053588D01*
X94246051Y-130864184D01*
X94246049Y-130864181D01*
X94246048Y-130864179D01*
X94121109Y-130692213D01*
X93970786Y-130541890D01*
X93798820Y-130416951D01*
X93798115Y-130416591D01*
X93790054Y-130412485D01*
X93739259Y-130364512D01*
X93722463Y-130296692D01*
X93744999Y-130230556D01*
X93790054Y-130191515D01*
X93798816Y-130187051D01*
X93820789Y-130171086D01*
X93970786Y-130062109D01*
X93970788Y-130062106D01*
X93970792Y-130062104D01*
X94121104Y-129911792D01*
X94121106Y-129911788D01*
X94121109Y-129911786D01*
X94246048Y-129739820D01*
X94246047Y-129739820D01*
X94246051Y-129739816D01*
X94342557Y-129550412D01*
X94408246Y-129348243D01*
X94441500Y-129138287D01*
X94441500Y-128925713D01*
X94408246Y-128715757D01*
X94342557Y-128513588D01*
X94246051Y-128324184D01*
X94246049Y-128324181D01*
X94246048Y-128324179D01*
X94121109Y-128152213D01*
X93970786Y-128001890D01*
X93798820Y-127876951D01*
X93798115Y-127876591D01*
X93790054Y-127872485D01*
X93739259Y-127824512D01*
X93722463Y-127756692D01*
X93744999Y-127690556D01*
X93790054Y-127651515D01*
X93798816Y-127647051D01*
X93885138Y-127584335D01*
X93970786Y-127522109D01*
X93970788Y-127522106D01*
X93970792Y-127522104D01*
X94121104Y-127371792D01*
X94121106Y-127371788D01*
X94121109Y-127371786D01*
X94236110Y-127213499D01*
X94246051Y-127199816D01*
X94342557Y-127010412D01*
X94408246Y-126808243D01*
X94441500Y-126598287D01*
X94441500Y-126385713D01*
X94408246Y-126175757D01*
X94342557Y-125973588D01*
X94246051Y-125784184D01*
X94246049Y-125784181D01*
X94246048Y-125784179D01*
X94121109Y-125612213D01*
X93970786Y-125461890D01*
X93798820Y-125336951D01*
X93798115Y-125336591D01*
X93790054Y-125332485D01*
X93739259Y-125284512D01*
X93722463Y-125216692D01*
X93744999Y-125150556D01*
X93790054Y-125111515D01*
X93798816Y-125107051D01*
X93857653Y-125064304D01*
X93970786Y-124982109D01*
X93970788Y-124982106D01*
X93970792Y-124982104D01*
X94121104Y-124831792D01*
X94121106Y-124831788D01*
X94121109Y-124831786D01*
X94246048Y-124659820D01*
X94246047Y-124659820D01*
X94246051Y-124659816D01*
X94342557Y-124470412D01*
X94408246Y-124268243D01*
X94441500Y-124058287D01*
X94441500Y-123845713D01*
X94408246Y-123635757D01*
X94342557Y-123433588D01*
X94246051Y-123244184D01*
X94246049Y-123244181D01*
X94246048Y-123244179D01*
X94121109Y-123072213D01*
X94007569Y-122958673D01*
X93974084Y-122897350D01*
X93979068Y-122827658D01*
X94020940Y-122771725D01*
X94051915Y-122754810D01*
X94183331Y-122705796D01*
X94298546Y-122619546D01*
X94384796Y-122504331D01*
X94435091Y-122369483D01*
X94441500Y-122309873D01*
X94441499Y-120514128D01*
X94435091Y-120454517D01*
X94429980Y-120440815D01*
X94384797Y-120319671D01*
X94384793Y-120319664D01*
X94298547Y-120204455D01*
X94298544Y-120204452D01*
X94183335Y-120118206D01*
X94183328Y-120118202D01*
X94048482Y-120067908D01*
X94048483Y-120067908D01*
X93988883Y-120061501D01*
X93988881Y-120061500D01*
X93988873Y-120061500D01*
X93988864Y-120061500D01*
X92193129Y-120061500D01*
X92193123Y-120061501D01*
X92133516Y-120067908D01*
X91998671Y-120118202D01*
X91998664Y-120118206D01*
X91883455Y-120204452D01*
X91883452Y-120204455D01*
X91797206Y-120319664D01*
X91797202Y-120319671D01*
X91746908Y-120454517D01*
X91740501Y-120514116D01*
X91740501Y-120514123D01*
X91740500Y-120514135D01*
X91740500Y-122309870D01*
X91740501Y-122309876D01*
X91746908Y-122369483D01*
X91797202Y-122504328D01*
X91797206Y-122504335D01*
X91883452Y-122619544D01*
X91883455Y-122619547D01*
X91998664Y-122705793D01*
X91998671Y-122705797D01*
X92130082Y-122754810D01*
X92186016Y-122796681D01*
X92210433Y-122862145D01*
X92195582Y-122930418D01*
X92174431Y-122958673D01*
X92060889Y-123072215D01*
X91935951Y-123244179D01*
X91839444Y-123433585D01*
X91773753Y-123635760D01*
X91740500Y-123845713D01*
X91740500Y-124058286D01*
X91773753Y-124268239D01*
X91839444Y-124470414D01*
X91935951Y-124659820D01*
X92060890Y-124831786D01*
X92211213Y-124982109D01*
X92383182Y-125107050D01*
X92391946Y-125111516D01*
X92442742Y-125159491D01*
X92459536Y-125227312D01*
X92436998Y-125293447D01*
X92391946Y-125332484D01*
X92383182Y-125336949D01*
X92211213Y-125461890D01*
X92060890Y-125612213D01*
X91935951Y-125784179D01*
X91839444Y-125973585D01*
X91773753Y-126175760D01*
X91759936Y-126263000D01*
X91740500Y-126385713D01*
X91740500Y-126598287D01*
X91743273Y-126615795D01*
X91769650Y-126782336D01*
X91773754Y-126808243D01*
X91814353Y-126933194D01*
X91839444Y-127010414D01*
X91935951Y-127199820D01*
X92060890Y-127371786D01*
X92211213Y-127522109D01*
X92383182Y-127647050D01*
X92391946Y-127651516D01*
X92442742Y-127699491D01*
X92459536Y-127767312D01*
X92436998Y-127833447D01*
X92391946Y-127872484D01*
X92383182Y-127876949D01*
X92211213Y-128001890D01*
X92060890Y-128152213D01*
X91935951Y-128324179D01*
X91839444Y-128513585D01*
X91773753Y-128715760D01*
X91740500Y-128925713D01*
X91740500Y-129138286D01*
X91773753Y-129348239D01*
X91839444Y-129550414D01*
X91935951Y-129739820D01*
X92060890Y-129911786D01*
X92211213Y-130062109D01*
X92383182Y-130187050D01*
X92391946Y-130191516D01*
X92442742Y-130239491D01*
X92459536Y-130307312D01*
X92436998Y-130373447D01*
X92391946Y-130412484D01*
X92383182Y-130416949D01*
X92211213Y-130541890D01*
X92060890Y-130692213D01*
X91935951Y-130864179D01*
X91839444Y-131053585D01*
X91773753Y-131255760D01*
X91740500Y-131465713D01*
X91740500Y-131678286D01*
X91773753Y-131888239D01*
X91839444Y-132090414D01*
X91935951Y-132279820D01*
X92060890Y-132451786D01*
X92211213Y-132602109D01*
X92383182Y-132727050D01*
X92391946Y-132731516D01*
X92442742Y-132779491D01*
X92459536Y-132847312D01*
X92436998Y-132913447D01*
X92391946Y-132952484D01*
X92383182Y-132956949D01*
X92211213Y-133081890D01*
X92060890Y-133232213D01*
X91935951Y-133404179D01*
X91839444Y-133593585D01*
X91773753Y-133795760D01*
X91740500Y-134005713D01*
X91740500Y-134218286D01*
X91773754Y-134428244D01*
X91773754Y-134428247D01*
X91787491Y-134470523D01*
X91789486Y-134540364D01*
X91757241Y-134596522D01*
X84390584Y-141963181D01*
X84329261Y-141996666D01*
X84302903Y-141999500D01*
X70520097Y-141999500D01*
X70453058Y-141979815D01*
X70432416Y-141963181D01*
X68856416Y-140387181D01*
X68822931Y-140325858D01*
X68827915Y-140256166D01*
X68869787Y-140200233D01*
X68935251Y-140175816D01*
X68944097Y-140175500D01*
X69091286Y-140175500D01*
X69091287Y-140175500D01*
X69301243Y-140142246D01*
X69503412Y-140076557D01*
X69692816Y-139980051D01*
X69779478Y-139917088D01*
X69864784Y-139855110D01*
X69864784Y-139855109D01*
X69864792Y-139855104D01*
X69978717Y-139741178D01*
X70040036Y-139707696D01*
X70109728Y-139712680D01*
X70165662Y-139754551D01*
X70182577Y-139785528D01*
X70231646Y-139917088D01*
X70231649Y-139917093D01*
X70317809Y-140032187D01*
X70317812Y-140032190D01*
X70432906Y-140118350D01*
X70432913Y-140118354D01*
X70567620Y-140168596D01*
X70567627Y-140168598D01*
X70627155Y-140174999D01*
X70627172Y-140175000D01*
X71275000Y-140175000D01*
X71275000Y-139258012D01*
X71332007Y-139290925D01*
X71459174Y-139325000D01*
X71590826Y-139325000D01*
X71717993Y-139290925D01*
X71775000Y-139258012D01*
X71775000Y-140175000D01*
X72422828Y-140175000D01*
X72422844Y-140174999D01*
X72482372Y-140168598D01*
X72482379Y-140168596D01*
X72617086Y-140118354D01*
X72617093Y-140118350D01*
X72732187Y-140032190D01*
X72732190Y-140032187D01*
X72818350Y-139917093D01*
X72818354Y-139917086D01*
X72868596Y-139782379D01*
X72868598Y-139782372D01*
X72874999Y-139722844D01*
X72875000Y-139722827D01*
X72875000Y-139075000D01*
X71958012Y-139075000D01*
X71990925Y-139017993D01*
X72025000Y-138890826D01*
X72025000Y-138759174D01*
X71990925Y-138632007D01*
X71958012Y-138575000D01*
X72875000Y-138575000D01*
X72875000Y-137927172D01*
X72874999Y-137927155D01*
X72868598Y-137867627D01*
X72868596Y-137867620D01*
X72818354Y-137732913D01*
X72818350Y-137732906D01*
X72732190Y-137617812D01*
X72732187Y-137617809D01*
X72617093Y-137531649D01*
X72617086Y-137531645D01*
X72482379Y-137481403D01*
X72482372Y-137481401D01*
X72422844Y-137475000D01*
X71775000Y-137475000D01*
X71775000Y-138391988D01*
X71717993Y-138359075D01*
X71590826Y-138325000D01*
X71459174Y-138325000D01*
X71332007Y-138359075D01*
X71275000Y-138391988D01*
X71275000Y-137475000D01*
X70627155Y-137475000D01*
X70567627Y-137481401D01*
X70567620Y-137481403D01*
X70432913Y-137531645D01*
X70432906Y-137531649D01*
X70317812Y-137617809D01*
X70317809Y-137617812D01*
X70231649Y-137732906D01*
X70231646Y-137732912D01*
X70182577Y-137864471D01*
X70140705Y-137920404D01*
X70075241Y-137944821D01*
X70006968Y-137929969D01*
X69978714Y-137908818D01*
X69864786Y-137794890D01*
X69692820Y-137669951D01*
X69503414Y-137573444D01*
X69503413Y-137573443D01*
X69503412Y-137573443D01*
X69301243Y-137507754D01*
X69301241Y-137507753D01*
X69301240Y-137507753D01*
X69139957Y-137482208D01*
X69091287Y-137474500D01*
X68878713Y-137474500D01*
X68839155Y-137480765D01*
X68723898Y-137499020D01*
X68654604Y-137490065D01*
X68601152Y-137445069D01*
X68580513Y-137378317D01*
X68580500Y-137376547D01*
X68580500Y-126512986D01*
X81664501Y-126512986D01*
X81674994Y-126615697D01*
X81730141Y-126782119D01*
X81730143Y-126782124D01*
X81822184Y-126931345D01*
X81946154Y-127055315D01*
X82095375Y-127147356D01*
X82095380Y-127147358D01*
X82261802Y-127202505D01*
X82261809Y-127202506D01*
X82364519Y-127212999D01*
X82426999Y-127212998D01*
X82427000Y-127212998D01*
X82427000Y-126263000D01*
X81664501Y-126263000D01*
X81664501Y-126512986D01*
X68580500Y-126512986D01*
X68580500Y-125513013D01*
X81664500Y-125513013D01*
X81664500Y-125763000D01*
X82427000Y-125763000D01*
X82427000Y-124813000D01*
X82927000Y-124813000D01*
X82927000Y-127212999D01*
X82989472Y-127212999D01*
X82989486Y-127212998D01*
X83092197Y-127202505D01*
X83258619Y-127147358D01*
X83258624Y-127147356D01*
X83407842Y-127055317D01*
X83501464Y-126961695D01*
X83562787Y-126928210D01*
X83632479Y-126933194D01*
X83676827Y-126961695D01*
X83770844Y-127055712D01*
X83920166Y-127147814D01*
X84086703Y-127202999D01*
X84189491Y-127213500D01*
X84814508Y-127213499D01*
X84814516Y-127213498D01*
X84814519Y-127213498D01*
X84870802Y-127207748D01*
X84917297Y-127202999D01*
X85083834Y-127147814D01*
X85233156Y-127055712D01*
X85357212Y-126931656D01*
X85449314Y-126782334D01*
X85504499Y-126615797D01*
X85515000Y-126513009D01*
X85514999Y-125512992D01*
X85509779Y-125461896D01*
X85504499Y-125410203D01*
X85504498Y-125410200D01*
X85501007Y-125399664D01*
X85449314Y-125243666D01*
X85357212Y-125094344D01*
X85233156Y-124970288D01*
X85083834Y-124878186D01*
X84917297Y-124823001D01*
X84917295Y-124823000D01*
X84814510Y-124812500D01*
X84189498Y-124812500D01*
X84189480Y-124812501D01*
X84086703Y-124823000D01*
X84086700Y-124823001D01*
X83920168Y-124878185D01*
X83920163Y-124878187D01*
X83770845Y-124970287D01*
X83676827Y-125064305D01*
X83615503Y-125097789D01*
X83545812Y-125092805D01*
X83501465Y-125064304D01*
X83407845Y-124970684D01*
X83258624Y-124878643D01*
X83258619Y-124878641D01*
X83092197Y-124823494D01*
X83092190Y-124823493D01*
X82989486Y-124813000D01*
X82927000Y-124813000D01*
X82427000Y-124813000D01*
X82426999Y-124812999D01*
X82364528Y-124813000D01*
X82364511Y-124813001D01*
X82261802Y-124823494D01*
X82095380Y-124878641D01*
X82095375Y-124878643D01*
X81946154Y-124970684D01*
X81822184Y-125094654D01*
X81730143Y-125243875D01*
X81730141Y-125243880D01*
X81674994Y-125410302D01*
X81674993Y-125410309D01*
X81664500Y-125513013D01*
X68580500Y-125513013D01*
X68580500Y-123562986D01*
X81664501Y-123562986D01*
X81674994Y-123665697D01*
X81730141Y-123832119D01*
X81730143Y-123832124D01*
X81822184Y-123981345D01*
X81946154Y-124105315D01*
X82095375Y-124197356D01*
X82095380Y-124197358D01*
X82261802Y-124252505D01*
X82261809Y-124252506D01*
X82364519Y-124262999D01*
X82426999Y-124262998D01*
X82427000Y-124262998D01*
X82427000Y-123313000D01*
X81664501Y-123313000D01*
X81664501Y-123562986D01*
X68580500Y-123562986D01*
X68580500Y-122886500D01*
X68600185Y-122819461D01*
X68652989Y-122773706D01*
X68704500Y-122762500D01*
X69415879Y-122762500D01*
X69415895Y-122762501D01*
X69423491Y-122762501D01*
X69581602Y-122762501D01*
X69581605Y-122762501D01*
X69734333Y-122721577D01*
X69785847Y-122691835D01*
X69871264Y-122642520D01*
X69950771Y-122563013D01*
X81664500Y-122563013D01*
X81664500Y-122813000D01*
X82427000Y-122813000D01*
X82427000Y-121863000D01*
X82927000Y-121863000D01*
X82927000Y-124262999D01*
X82989472Y-124262999D01*
X82989486Y-124262998D01*
X83092197Y-124252505D01*
X83258619Y-124197358D01*
X83258624Y-124197356D01*
X83407842Y-124105317D01*
X83501464Y-124011695D01*
X83562787Y-123978210D01*
X83632479Y-123983194D01*
X83676827Y-124011695D01*
X83770844Y-124105712D01*
X83920166Y-124197814D01*
X84086703Y-124252999D01*
X84189491Y-124263500D01*
X84814508Y-124263499D01*
X84814516Y-124263498D01*
X84814519Y-124263498D01*
X84870802Y-124257748D01*
X84917297Y-124252999D01*
X85083834Y-124197814D01*
X85233156Y-124105712D01*
X85357212Y-123981656D01*
X85449314Y-123832334D01*
X85504499Y-123665797D01*
X85515000Y-123563009D01*
X85514999Y-122562992D01*
X85511258Y-122526374D01*
X85504499Y-122460203D01*
X85504498Y-122460200D01*
X85466594Y-122345814D01*
X85449314Y-122293666D01*
X85357212Y-122144344D01*
X85233156Y-122020288D01*
X85083834Y-121928186D01*
X84917297Y-121873001D01*
X84917295Y-121873000D01*
X84814510Y-121862500D01*
X84189498Y-121862500D01*
X84189480Y-121862501D01*
X84086703Y-121873000D01*
X84086700Y-121873001D01*
X83920168Y-121928185D01*
X83920163Y-121928187D01*
X83770845Y-122020287D01*
X83676827Y-122114305D01*
X83615503Y-122147789D01*
X83545812Y-122142805D01*
X83501465Y-122114304D01*
X83407845Y-122020684D01*
X83258624Y-121928643D01*
X83258619Y-121928641D01*
X83092197Y-121873494D01*
X83092190Y-121873493D01*
X82989486Y-121863000D01*
X82927000Y-121863000D01*
X82427000Y-121863000D01*
X82426999Y-121862999D01*
X82364528Y-121863000D01*
X82364511Y-121863001D01*
X82261802Y-121873494D01*
X82095380Y-121928641D01*
X82095375Y-121928643D01*
X81946154Y-122020684D01*
X81822184Y-122144654D01*
X81730143Y-122293875D01*
X81730141Y-122293880D01*
X81674994Y-122460302D01*
X81674993Y-122460309D01*
X81664500Y-122563013D01*
X69950771Y-122563013D01*
X69983068Y-122530716D01*
X69983068Y-122530714D01*
X69993271Y-122520512D01*
X69993275Y-122520506D01*
X70463176Y-122050605D01*
X70524495Y-122017123D01*
X70594186Y-122022107D01*
X70649229Y-122062802D01*
X70748207Y-122191792D01*
X70871458Y-122286366D01*
X71014975Y-122345812D01*
X71014980Y-122345814D01*
X71130329Y-122361000D01*
X71579000Y-122361000D01*
X72079000Y-122361000D01*
X72527671Y-122361000D01*
X72643019Y-122345814D01*
X72643024Y-122345812D01*
X72786541Y-122286366D01*
X72786542Y-122286366D01*
X72909792Y-122191792D01*
X73004366Y-122068542D01*
X73004366Y-122068541D01*
X73063812Y-121925024D01*
X73063814Y-121925019D01*
X73079000Y-121809670D01*
X73079000Y-121661000D01*
X72079000Y-121661000D01*
X72079000Y-122361000D01*
X71579000Y-122361000D01*
X71579000Y-121535000D01*
X71598685Y-121467961D01*
X71651489Y-121422206D01*
X71703000Y-121411000D01*
X71829000Y-121411000D01*
X71829000Y-121285000D01*
X71848685Y-121217961D01*
X71901489Y-121172206D01*
X71953000Y-121161000D01*
X73079000Y-121161000D01*
X73079000Y-121012329D01*
X73063814Y-120896980D01*
X73063812Y-120896975D01*
X73004366Y-120753458D01*
X73004366Y-120753457D01*
X72909792Y-120630207D01*
X72786541Y-120535633D01*
X72643024Y-120476187D01*
X72643019Y-120476185D01*
X72527671Y-120461000D01*
X72352145Y-120461000D01*
X72285106Y-120441315D01*
X72239351Y-120388511D01*
X72229407Y-120319353D01*
X72258432Y-120255797D01*
X72264464Y-120249319D01*
X72714964Y-119798819D01*
X72776287Y-119765334D01*
X72802645Y-119762500D01*
X81477331Y-119762500D01*
X81477347Y-119762501D01*
X81484943Y-119762501D01*
X81643054Y-119762501D01*
X81643057Y-119762501D01*
X81795785Y-119721577D01*
X81845904Y-119692639D01*
X81932716Y-119642520D01*
X82044520Y-119530716D01*
X82044520Y-119530714D01*
X82054728Y-119520507D01*
X82054730Y-119520504D01*
X82205138Y-119370095D01*
X82266459Y-119336612D01*
X82305421Y-119334420D01*
X82315991Y-119335500D01*
X82916008Y-119335499D01*
X82916016Y-119335498D01*
X82916019Y-119335498D01*
X82972302Y-119329748D01*
X83018797Y-119324999D01*
X83185334Y-119269814D01*
X83334656Y-119177712D01*
X83458712Y-119053656D01*
X83460752Y-119050347D01*
X83462745Y-119048555D01*
X83463193Y-119047989D01*
X83463289Y-119048065D01*
X83512694Y-119003623D01*
X83581656Y-118992395D01*
X83645740Y-119020234D01*
X83671829Y-119050339D01*
X83673681Y-119053341D01*
X83673683Y-119053344D01*
X83797654Y-119177315D01*
X83946875Y-119269356D01*
X83946880Y-119269358D01*
X84113302Y-119324505D01*
X84113309Y-119324506D01*
X84216019Y-119334999D01*
X84766000Y-119334999D01*
X84815972Y-119334999D01*
X84815986Y-119334998D01*
X84918697Y-119324505D01*
X85085119Y-119269358D01*
X85085124Y-119269356D01*
X85234345Y-119177315D01*
X85358315Y-119053345D01*
X85450356Y-118904124D01*
X85450358Y-118904119D01*
X85505505Y-118737697D01*
X85505506Y-118737690D01*
X85515999Y-118634986D01*
X85516000Y-118634973D01*
X85516000Y-118360000D01*
X84766000Y-118360000D01*
X84766000Y-119334999D01*
X84216019Y-119334999D01*
X84265999Y-119334998D01*
X84266000Y-119334998D01*
X84266000Y-117860000D01*
X84766000Y-117860000D01*
X85515999Y-117860000D01*
X85515999Y-117585028D01*
X85515998Y-117585013D01*
X85505505Y-117482302D01*
X85450358Y-117315880D01*
X85450356Y-117315875D01*
X85358315Y-117166654D01*
X85234345Y-117042684D01*
X85085124Y-116950643D01*
X85085119Y-116950641D01*
X84918697Y-116895494D01*
X84918690Y-116895493D01*
X84815986Y-116885000D01*
X84766000Y-116885000D01*
X84766000Y-117860000D01*
X84266000Y-117860000D01*
X84266000Y-116885000D01*
X84265999Y-116884999D01*
X84216029Y-116885000D01*
X84216011Y-116885001D01*
X84113302Y-116895494D01*
X83946880Y-116950641D01*
X83946875Y-116950643D01*
X83797654Y-117042684D01*
X83673683Y-117166655D01*
X83673679Y-117166660D01*
X83671826Y-117169665D01*
X83670018Y-117171290D01*
X83669202Y-117172323D01*
X83669025Y-117172183D01*
X83619874Y-117216385D01*
X83550911Y-117227601D01*
X83486831Y-117199752D01*
X83460753Y-117169653D01*
X83460737Y-117169628D01*
X83458712Y-117166344D01*
X83334656Y-117042288D01*
X83185334Y-116950186D01*
X83018797Y-116895001D01*
X83018795Y-116895000D01*
X82916010Y-116884500D01*
X82315998Y-116884500D01*
X82315980Y-116884501D01*
X82213203Y-116895000D01*
X82213200Y-116895001D01*
X82046668Y-116950185D01*
X82046663Y-116950187D01*
X81897342Y-117042289D01*
X81773289Y-117166342D01*
X81681187Y-117315663D01*
X81681185Y-117315668D01*
X81645121Y-117424504D01*
X81605348Y-117481949D01*
X81540833Y-117508772D01*
X81527415Y-117509500D01*
X73475488Y-117509500D01*
X73434567Y-117520464D01*
X73434567Y-117520465D01*
X73378665Y-117535444D01*
X73322763Y-117550423D01*
X73221113Y-117609110D01*
X73153212Y-117625581D01*
X73087186Y-117602729D01*
X73044553Y-117549174D01*
X73004802Y-117453206D01*
X73004802Y-117453205D01*
X72984147Y-117426287D01*
X72910149Y-117329851D01*
X72786798Y-117235200D01*
X72786794Y-117235198D01*
X72721713Y-117208240D01*
X72643151Y-117175699D01*
X72622771Y-117173016D01*
X72537314Y-117161765D01*
X72473418Y-117133498D01*
X72434947Y-117075174D01*
X72429500Y-117038826D01*
X72429500Y-113277944D01*
X72429499Y-113277941D01*
X72428739Y-113275104D01*
X72428736Y-113275093D01*
X72418534Y-113237019D01*
X72388576Y-113125214D01*
X72388573Y-113125209D01*
X72309524Y-112988290D01*
X72309521Y-112988286D01*
X72309520Y-112988284D01*
X72197716Y-112876480D01*
X72197715Y-112876479D01*
X72193385Y-112872149D01*
X72193374Y-112872139D01*
X68342818Y-109021583D01*
X68328114Y-108994655D01*
X68320412Y-108982670D01*
X70706000Y-108982670D01*
X70721185Y-109098019D01*
X70721187Y-109098024D01*
X70780633Y-109241541D01*
X70780633Y-109241542D01*
X70875207Y-109364792D01*
X70998458Y-109459366D01*
X71141975Y-109518812D01*
X71141980Y-109518814D01*
X71257329Y-109534000D01*
X71706000Y-109534000D01*
X72206000Y-109534000D01*
X72654671Y-109534000D01*
X72770019Y-109518814D01*
X72770024Y-109518812D01*
X72913541Y-109459366D01*
X72913542Y-109459366D01*
X73036792Y-109364792D01*
X73131366Y-109241542D01*
X73131366Y-109241541D01*
X73190812Y-109098024D01*
X73190814Y-109098019D01*
X73206000Y-108982670D01*
X73206000Y-108834000D01*
X72206000Y-108834000D01*
X72206000Y-109534000D01*
X71706000Y-109534000D01*
X71706000Y-108834000D01*
X70706000Y-108834000D01*
X70706000Y-108982670D01*
X68320412Y-108982670D01*
X68311522Y-108968837D01*
X68310630Y-108962636D01*
X68309333Y-108960260D01*
X68306499Y-108933910D01*
X68306499Y-108185329D01*
X70706000Y-108185329D01*
X70706000Y-108334000D01*
X71706000Y-108334000D01*
X72206000Y-108334000D01*
X73206000Y-108334000D01*
X73206000Y-108185329D01*
X73190814Y-108069980D01*
X73190812Y-108069975D01*
X73131366Y-107926458D01*
X73131366Y-107926457D01*
X73036792Y-107803207D01*
X72913541Y-107708633D01*
X72770024Y-107649187D01*
X72770019Y-107649185D01*
X72654671Y-107634000D01*
X72206000Y-107634000D01*
X72206000Y-108334000D01*
X71706000Y-108334000D01*
X71706000Y-107634000D01*
X71257329Y-107634000D01*
X71141980Y-107649185D01*
X71141975Y-107649187D01*
X70998458Y-107708633D01*
X70998457Y-107708633D01*
X70875207Y-107803207D01*
X70780633Y-107926457D01*
X70780633Y-107926458D01*
X70721187Y-108069975D01*
X70721185Y-108069980D01*
X70706000Y-108185329D01*
X68306499Y-108185329D01*
X68306499Y-108185300D01*
X68306499Y-108185298D01*
X68306499Y-108185296D01*
X68291303Y-108069857D01*
X68291301Y-108069850D01*
X68291301Y-108069849D01*
X68231800Y-107926202D01*
X68137149Y-107802851D01*
X68013798Y-107708200D01*
X68013794Y-107708198D01*
X67870151Y-107648699D01*
X67870149Y-107648698D01*
X67754701Y-107633500D01*
X66357296Y-107633500D01*
X66241857Y-107648696D01*
X66241848Y-107648699D01*
X66098205Y-107708198D01*
X66098202Y-107708199D01*
X66098202Y-107708200D01*
X65974851Y-107802851D01*
X65925002Y-107867816D01*
X65880198Y-107926205D01*
X65820699Y-108069848D01*
X65820698Y-108069850D01*
X65805500Y-108185298D01*
X65805500Y-108982703D01*
X65820696Y-109098142D01*
X65820699Y-109098151D01*
X65880093Y-109241541D01*
X65880200Y-109241798D01*
X65974851Y-109365149D01*
X66098202Y-109459800D01*
X66241849Y-109519301D01*
X66357299Y-109534500D01*
X67105902Y-109534499D01*
X67172941Y-109554183D01*
X67193583Y-109570818D01*
X71192181Y-113569416D01*
X71225666Y-113630739D01*
X71228500Y-113657097D01*
X71228500Y-117038827D01*
X71208815Y-117105866D01*
X71156011Y-117151621D01*
X71120684Y-117161766D01*
X71014857Y-117175697D01*
X71014848Y-117175699D01*
X70871205Y-117235198D01*
X70871202Y-117235199D01*
X70871202Y-117235200D01*
X70747851Y-117329851D01*
X70673854Y-117426286D01*
X70653198Y-117453205D01*
X70593699Y-117596848D01*
X70593698Y-117596850D01*
X70583619Y-117673416D01*
X70578500Y-117712299D01*
X70578500Y-118075001D01*
X70578501Y-118437500D01*
X70558817Y-118504539D01*
X70506013Y-118550294D01*
X70454501Y-118561500D01*
X68303500Y-118561500D01*
X68236461Y-118541815D01*
X68190706Y-118489011D01*
X68179500Y-118437500D01*
X68179499Y-117712296D01*
X68164303Y-117596857D01*
X68164301Y-117596850D01*
X68164301Y-117596849D01*
X68104800Y-117453202D01*
X68010149Y-117329851D01*
X67886798Y-117235200D01*
X67886794Y-117235198D01*
X67743151Y-117175699D01*
X67743149Y-117175698D01*
X67627702Y-117160500D01*
X67627701Y-117160500D01*
X66879097Y-117160500D01*
X66812058Y-117140815D01*
X66791416Y-117124181D01*
X64965819Y-115298584D01*
X64932334Y-115237261D01*
X64929500Y-115210903D01*
X64929500Y-108311096D01*
X64949185Y-108244057D01*
X64965814Y-108223420D01*
X66918416Y-106270817D01*
X66979739Y-106237333D01*
X67006097Y-106234499D01*
X67754703Y-106234499D01*
X67870142Y-106219303D01*
X67870146Y-106219301D01*
X67870151Y-106219301D01*
X68013798Y-106159800D01*
X68137149Y-106065149D01*
X68231800Y-105941798D01*
X68291301Y-105798151D01*
X68306500Y-105682701D01*
X68306499Y-104885300D01*
X68306499Y-104885298D01*
X68306499Y-104885296D01*
X68291303Y-104769857D01*
X68291301Y-104769850D01*
X68291301Y-104769849D01*
X68231800Y-104626202D01*
X68137149Y-104502851D01*
X68013798Y-104408200D01*
X68013794Y-104408198D01*
X67948713Y-104381240D01*
X67870151Y-104348699D01*
X67849771Y-104346016D01*
X67764314Y-104334765D01*
X67700418Y-104306498D01*
X67661947Y-104248174D01*
X67656500Y-104211826D01*
X67656500Y-98919941D01*
X67653092Y-98907221D01*
X67615576Y-98767213D01*
X67608279Y-98754575D01*
X67556683Y-98665208D01*
X67536520Y-98630284D01*
X67424716Y-98518480D01*
X67424713Y-98518478D01*
X64518533Y-95612298D01*
X65895500Y-95612298D01*
X65895500Y-96409703D01*
X65910696Y-96525142D01*
X65910699Y-96525151D01*
X65970093Y-96668541D01*
X65970200Y-96668798D01*
X66064851Y-96792149D01*
X66188202Y-96886800D01*
X66331849Y-96946301D01*
X66447299Y-96961500D01*
X67195902Y-96961499D01*
X67262941Y-96981183D01*
X67283583Y-96997818D01*
X71319181Y-101033416D01*
X71352666Y-101094739D01*
X71355500Y-101121097D01*
X71355500Y-104211827D01*
X71335815Y-104278866D01*
X71283011Y-104324621D01*
X71247684Y-104334766D01*
X71141857Y-104348697D01*
X71141848Y-104348699D01*
X70998205Y-104408198D01*
X70874851Y-104502851D01*
X70780198Y-104626205D01*
X70720699Y-104769848D01*
X70720698Y-104769850D01*
X70705500Y-104885298D01*
X70705500Y-105682703D01*
X70720696Y-105798142D01*
X70720699Y-105798151D01*
X70768601Y-105913797D01*
X70780200Y-105941798D01*
X70874851Y-106065149D01*
X70998202Y-106159800D01*
X71141849Y-106219301D01*
X71257299Y-106234500D01*
X72654700Y-106234499D01*
X72654703Y-106234499D01*
X72770142Y-106219303D01*
X72770146Y-106219301D01*
X72770151Y-106219301D01*
X72913798Y-106159800D01*
X73037149Y-106065149D01*
X73131800Y-105941798D01*
X73191301Y-105798151D01*
X73206500Y-105682701D01*
X73206499Y-104885300D01*
X73206499Y-104885298D01*
X73206499Y-104885296D01*
X73191303Y-104769857D01*
X73191301Y-104769850D01*
X73191301Y-104769849D01*
X73131800Y-104626202D01*
X73037149Y-104502851D01*
X72913798Y-104408200D01*
X72913794Y-104408198D01*
X72848713Y-104381240D01*
X72770151Y-104348699D01*
X72749771Y-104346016D01*
X72664314Y-104334765D01*
X72600418Y-104306498D01*
X72561947Y-104248174D01*
X72556500Y-104211826D01*
X72556500Y-100741945D01*
X72556500Y-100741943D01*
X72515577Y-100589216D01*
X72515577Y-100589215D01*
X72495527Y-100554488D01*
X72468139Y-100507050D01*
X72468138Y-100507049D01*
X72436521Y-100452286D01*
X72436520Y-100452284D01*
X72324716Y-100340480D01*
X72324715Y-100340479D01*
X72320385Y-100336149D01*
X72320374Y-100336139D01*
X68432818Y-96448583D01*
X68418114Y-96421655D01*
X68410412Y-96409670D01*
X70796000Y-96409670D01*
X70811185Y-96525019D01*
X70811187Y-96525024D01*
X70870633Y-96668541D01*
X70870633Y-96668542D01*
X70965207Y-96791792D01*
X71088458Y-96886366D01*
X71231975Y-96945812D01*
X71231980Y-96945814D01*
X71347329Y-96961000D01*
X71796000Y-96961000D01*
X72296000Y-96961000D01*
X72744671Y-96961000D01*
X72860019Y-96945814D01*
X72860024Y-96945812D01*
X73003541Y-96886366D01*
X73003542Y-96886366D01*
X73126792Y-96791792D01*
X73221366Y-96668542D01*
X73221366Y-96668541D01*
X73280812Y-96525024D01*
X73280814Y-96525019D01*
X73296000Y-96409670D01*
X73296000Y-96261000D01*
X72296000Y-96261000D01*
X72296000Y-96961000D01*
X71796000Y-96961000D01*
X71796000Y-96261000D01*
X70796000Y-96261000D01*
X70796000Y-96409670D01*
X68410412Y-96409670D01*
X68401522Y-96395837D01*
X68400630Y-96389636D01*
X68399333Y-96387260D01*
X68396499Y-96360910D01*
X68396499Y-95612329D01*
X70796000Y-95612329D01*
X70796000Y-95761000D01*
X71796000Y-95761000D01*
X72296000Y-95761000D01*
X73296000Y-95761000D01*
X73296000Y-95612329D01*
X73280814Y-95496980D01*
X73280812Y-95496975D01*
X73221366Y-95353458D01*
X73221366Y-95353457D01*
X73126792Y-95230207D01*
X73003541Y-95135633D01*
X72860024Y-95076187D01*
X72860019Y-95076185D01*
X72744671Y-95061000D01*
X72296000Y-95061000D01*
X72296000Y-95761000D01*
X71796000Y-95761000D01*
X71796000Y-95061000D01*
X71347329Y-95061000D01*
X71231980Y-95076185D01*
X71231975Y-95076187D01*
X71088458Y-95135633D01*
X71088457Y-95135633D01*
X70965207Y-95230207D01*
X70870633Y-95353457D01*
X70870633Y-95353458D01*
X70811187Y-95496975D01*
X70811185Y-95496980D01*
X70796000Y-95612329D01*
X68396499Y-95612329D01*
X68396499Y-95612300D01*
X68396499Y-95612298D01*
X68396499Y-95612296D01*
X68381303Y-95496857D01*
X68381301Y-95496850D01*
X68381301Y-95496849D01*
X68321800Y-95353202D01*
X68227149Y-95229851D01*
X68103798Y-95135200D01*
X68103794Y-95135198D01*
X67960151Y-95075699D01*
X67960149Y-95075698D01*
X67844701Y-95060500D01*
X66447296Y-95060500D01*
X66331857Y-95075696D01*
X66331848Y-95075699D01*
X66188205Y-95135198D01*
X66188202Y-95135199D01*
X66188202Y-95135200D01*
X66064851Y-95229851D01*
X65986455Y-95332019D01*
X65970198Y-95353205D01*
X65910699Y-95496848D01*
X65910698Y-95496850D01*
X65895500Y-95612298D01*
X64518533Y-95612298D01*
X63256416Y-94350181D01*
X63222931Y-94288858D01*
X63227915Y-94219166D01*
X63269787Y-94163233D01*
X63335251Y-94138816D01*
X63344097Y-94138500D01*
X66232331Y-94138500D01*
X66232347Y-94138501D01*
X66239943Y-94138501D01*
X66398054Y-94138501D01*
X66398057Y-94138501D01*
X66550785Y-94097577D01*
X66633689Y-94049712D01*
X66687716Y-94018520D01*
X66799520Y-93906716D01*
X66799520Y-93906714D01*
X66809724Y-93896511D01*
X66809728Y-93896506D01*
X67008416Y-93697818D01*
X67069739Y-93664333D01*
X67096097Y-93661499D01*
X67844703Y-93661499D01*
X67960142Y-93646303D01*
X67960146Y-93646301D01*
X67960151Y-93646301D01*
X68103798Y-93586800D01*
X68227149Y-93492149D01*
X68321800Y-93368798D01*
X68381301Y-93225151D01*
X68396500Y-93109701D01*
X68396499Y-92312300D01*
X68396499Y-92312298D01*
X68396499Y-92312296D01*
X68381303Y-92196857D01*
X68381301Y-92196850D01*
X68381301Y-92196849D01*
X68321800Y-92053202D01*
X68227149Y-91929851D01*
X68103798Y-91835200D01*
X68103794Y-91835198D01*
X68038713Y-91808240D01*
X67960151Y-91775699D01*
X67939771Y-91773016D01*
X67854314Y-91761765D01*
X67790418Y-91733498D01*
X67751947Y-91675174D01*
X67746500Y-91638826D01*
X67746500Y-86055945D01*
X67746500Y-86055943D01*
X67705577Y-85903216D01*
X67705573Y-85903209D01*
X67626524Y-85766290D01*
X67626521Y-85766286D01*
X67626520Y-85766284D01*
X67514716Y-85654480D01*
X67514715Y-85654479D01*
X67510385Y-85650149D01*
X67510374Y-85650139D01*
X66145052Y-84284817D01*
X66111567Y-84223494D01*
X66116551Y-84153802D01*
X66158423Y-84097869D01*
X66223887Y-84073452D01*
X66280184Y-84082574D01*
X66368849Y-84119301D01*
X66484299Y-84134500D01*
X67881700Y-84134499D01*
X67881703Y-84134499D01*
X67997142Y-84119303D01*
X67997146Y-84119301D01*
X67997151Y-84119301D01*
X68140798Y-84059800D01*
X68264149Y-83965149D01*
X68358800Y-83841798D01*
X68418301Y-83698151D01*
X68433500Y-83582701D01*
X68433500Y-83582670D01*
X70833000Y-83582670D01*
X70848185Y-83698019D01*
X70848187Y-83698024D01*
X70907633Y-83841541D01*
X70907633Y-83841542D01*
X71002207Y-83964792D01*
X71125458Y-84059366D01*
X71268975Y-84118812D01*
X71268980Y-84118814D01*
X71384329Y-84134000D01*
X71833000Y-84134000D01*
X72333000Y-84134000D01*
X72781671Y-84134000D01*
X72897019Y-84118814D01*
X72897024Y-84118812D01*
X73040541Y-84059366D01*
X73040542Y-84059366D01*
X73163792Y-83964792D01*
X73258366Y-83841542D01*
X73258366Y-83841541D01*
X73317812Y-83698024D01*
X73317814Y-83698019D01*
X73333000Y-83582670D01*
X73333000Y-83434000D01*
X72333000Y-83434000D01*
X72333000Y-84134000D01*
X71833000Y-84134000D01*
X71833000Y-83434000D01*
X70833000Y-83434000D01*
X70833000Y-83582670D01*
X68433500Y-83582670D01*
X68433499Y-83160352D01*
X68433499Y-82785329D01*
X70833000Y-82785329D01*
X70833000Y-82934000D01*
X71833000Y-82934000D01*
X72333000Y-82934000D01*
X73333000Y-82934000D01*
X73333000Y-82785329D01*
X73317814Y-82669980D01*
X73317812Y-82669975D01*
X73312432Y-82656986D01*
X76499001Y-82656986D01*
X76509494Y-82759697D01*
X76564641Y-82926119D01*
X76564643Y-82926124D01*
X76656684Y-83075345D01*
X76780654Y-83199315D01*
X76929875Y-83291356D01*
X76929880Y-83291358D01*
X77096302Y-83346505D01*
X77096309Y-83346506D01*
X77199019Y-83356999D01*
X77473999Y-83356999D01*
X77474000Y-83356998D01*
X77474000Y-82607000D01*
X76499001Y-82607000D01*
X76499001Y-82656986D01*
X73312432Y-82656986D01*
X73290108Y-82603090D01*
X73258366Y-82526458D01*
X73258366Y-82526457D01*
X73163792Y-82403207D01*
X73040541Y-82308633D01*
X72897024Y-82249187D01*
X72897019Y-82249185D01*
X72781671Y-82234000D01*
X72333000Y-82234000D01*
X72333000Y-82934000D01*
X71833000Y-82934000D01*
X71833000Y-82234000D01*
X71384329Y-82234000D01*
X71268980Y-82249185D01*
X71268975Y-82249187D01*
X71125458Y-82308633D01*
X71125457Y-82308633D01*
X71002207Y-82403207D01*
X70907633Y-82526457D01*
X70907633Y-82526458D01*
X70848187Y-82669975D01*
X70848185Y-82669980D01*
X70833000Y-82785329D01*
X68433499Y-82785329D01*
X68433499Y-82785296D01*
X68418303Y-82669857D01*
X68418301Y-82669850D01*
X68418301Y-82669849D01*
X68358800Y-82526202D01*
X68264149Y-82402851D01*
X68140798Y-82308200D01*
X68140794Y-82308198D01*
X67997151Y-82248699D01*
X67997149Y-82248698D01*
X67881701Y-82233500D01*
X66484296Y-82233500D01*
X66368857Y-82248696D01*
X66368848Y-82248699D01*
X66225205Y-82308198D01*
X66225202Y-82308199D01*
X66225202Y-82308200D01*
X66135997Y-82376650D01*
X66101851Y-82402851D01*
X66007198Y-82526205D01*
X65947699Y-82669848D01*
X65947698Y-82669850D01*
X65932500Y-82785298D01*
X65932500Y-83582703D01*
X65947696Y-83698142D01*
X65947700Y-83698154D01*
X65984424Y-83786814D01*
X65991893Y-83856283D01*
X65960618Y-83918762D01*
X65900529Y-83954414D01*
X65830704Y-83951920D01*
X65782182Y-83921947D01*
X62855097Y-80994862D01*
X62821612Y-80933539D01*
X62819420Y-80894577D01*
X62820500Y-80884009D01*
X62820499Y-80608498D01*
X62840183Y-80541461D01*
X62892987Y-80495706D01*
X62944499Y-80484500D01*
X65902528Y-80484500D01*
X65969567Y-80504185D01*
X66000536Y-80536667D01*
X66002253Y-80535350D01*
X66007199Y-80541795D01*
X66007200Y-80541798D01*
X66101851Y-80665149D01*
X66225202Y-80759800D01*
X66368849Y-80819301D01*
X66484299Y-80834500D01*
X67232902Y-80834499D01*
X67262348Y-80843145D01*
X67292329Y-80849667D01*
X67297342Y-80853419D01*
X67299941Y-80854183D01*
X67320583Y-80870818D01*
X67449139Y-80999374D01*
X67449149Y-80999385D01*
X67453479Y-81003715D01*
X67453480Y-81003716D01*
X67565284Y-81115520D01*
X67565286Y-81115521D01*
X67565290Y-81115524D01*
X67702209Y-81194573D01*
X67702216Y-81194577D01*
X67787632Y-81217464D01*
X67854942Y-81235500D01*
X67854943Y-81235500D01*
X76664770Y-81235500D01*
X76690835Y-81243153D01*
X76717681Y-81247355D01*
X76726661Y-81253673D01*
X76731809Y-81255185D01*
X76747132Y-81266805D01*
X76749868Y-81269236D01*
X76780344Y-81299712D01*
X76792846Y-81307423D01*
X76800921Y-81314598D01*
X76813946Y-81335430D01*
X76830379Y-81353699D01*
X76832142Y-81364533D01*
X76837962Y-81373841D01*
X76837656Y-81398410D01*
X76841603Y-81422661D01*
X76837228Y-81432729D01*
X76837092Y-81443705D01*
X76823552Y-81464207D01*
X76813761Y-81486744D01*
X76801857Y-81497060D01*
X76798589Y-81502009D01*
X76793607Y-81504209D01*
X76783665Y-81512826D01*
X76780660Y-81514679D01*
X76780655Y-81514683D01*
X76656684Y-81638654D01*
X76564643Y-81787875D01*
X76564641Y-81787880D01*
X76509494Y-81954302D01*
X76509493Y-81954309D01*
X76499000Y-82057013D01*
X76499000Y-82107000D01*
X77600000Y-82107000D01*
X77667039Y-82126685D01*
X77712794Y-82179489D01*
X77724000Y-82231000D01*
X77724000Y-82357000D01*
X77850000Y-82357000D01*
X77917039Y-82376685D01*
X77962794Y-82429489D01*
X77974000Y-82481000D01*
X77974000Y-83356999D01*
X78025500Y-83356999D01*
X78092539Y-83376684D01*
X78138294Y-83429488D01*
X78149500Y-83480999D01*
X78149500Y-92057500D01*
X78129815Y-92124539D01*
X78077011Y-92170294D01*
X78025500Y-92181500D01*
X77430604Y-92181500D01*
X77368604Y-92164886D01*
X77345285Y-92151423D01*
X77345284Y-92151422D01*
X77345283Y-92151422D01*
X77289381Y-92136443D01*
X77192557Y-92110499D01*
X77034443Y-92110499D01*
X77026847Y-92110499D01*
X77026831Y-92110500D01*
X73326472Y-92110500D01*
X73259433Y-92090815D01*
X73228463Y-92058332D01*
X73226747Y-92059650D01*
X73221800Y-92053204D01*
X73221800Y-92053202D01*
X73127149Y-91929851D01*
X73003798Y-91835200D01*
X73003794Y-91835198D01*
X72860151Y-91775699D01*
X72860149Y-91775698D01*
X72744701Y-91760500D01*
X71347296Y-91760500D01*
X71231857Y-91775696D01*
X71231848Y-91775699D01*
X71088205Y-91835198D01*
X70964851Y-91929851D01*
X70870198Y-92053205D01*
X70810699Y-92196848D01*
X70810698Y-92196850D01*
X70795500Y-92312298D01*
X70795500Y-93109703D01*
X70810696Y-93225142D01*
X70810699Y-93225151D01*
X70868239Y-93364065D01*
X70870200Y-93368798D01*
X70964851Y-93492149D01*
X71088202Y-93586800D01*
X71231849Y-93646301D01*
X71347299Y-93661500D01*
X72744700Y-93661499D01*
X72744703Y-93661499D01*
X72860142Y-93646303D01*
X72860146Y-93646301D01*
X72860151Y-93646301D01*
X73003798Y-93586800D01*
X73127149Y-93492149D01*
X73221800Y-93368798D01*
X73221802Y-93368794D01*
X73226747Y-93362350D01*
X73228982Y-93364065D01*
X73269642Y-93325289D01*
X73326472Y-93311500D01*
X76272501Y-93311500D01*
X76339540Y-93331185D01*
X76385295Y-93383989D01*
X76396501Y-93435500D01*
X76396501Y-93507018D01*
X76407000Y-93609796D01*
X76407001Y-93609799D01*
X76425072Y-93664333D01*
X76462186Y-93776334D01*
X76536311Y-93896511D01*
X76554289Y-93925657D01*
X76647951Y-94019319D01*
X76681436Y-94080642D01*
X76676452Y-94150334D01*
X76647951Y-94194681D01*
X76554289Y-94288342D01*
X76462187Y-94437663D01*
X76462186Y-94437666D01*
X76407001Y-94604203D01*
X76407001Y-94604204D01*
X76407000Y-94604204D01*
X76396500Y-94706983D01*
X76396500Y-95332001D01*
X76396501Y-95332019D01*
X76407000Y-95434796D01*
X76407001Y-95434799D01*
X76462185Y-95601331D01*
X76462187Y-95601336D01*
X76468949Y-95612299D01*
X76554288Y-95750656D01*
X76678344Y-95874712D01*
X76827666Y-95966814D01*
X76994203Y-96021999D01*
X77096991Y-96032500D01*
X78097008Y-96032499D01*
X78097016Y-96032498D01*
X78097019Y-96032498D01*
X78153302Y-96026748D01*
X78199797Y-96021999D01*
X78366334Y-95966814D01*
X78515656Y-95874712D01*
X78639712Y-95750656D01*
X78731814Y-95601334D01*
X78786999Y-95434797D01*
X78797500Y-95332009D01*
X78797499Y-94719595D01*
X78817183Y-94652557D01*
X78833813Y-94631920D01*
X79108506Y-94357228D01*
X79108511Y-94357224D01*
X79118714Y-94347020D01*
X79118716Y-94347020D01*
X79230520Y-94235216D01*
X79286358Y-94138501D01*
X79309577Y-94098285D01*
X79350500Y-93945558D01*
X79350500Y-93787443D01*
X79350500Y-93567135D01*
X91740500Y-93567135D01*
X91740500Y-95362870D01*
X91740501Y-95362876D01*
X91746908Y-95422483D01*
X91797202Y-95557328D01*
X91797206Y-95557335D01*
X91883452Y-95672544D01*
X91883455Y-95672547D01*
X91998664Y-95758793D01*
X91998671Y-95758797D01*
X92130082Y-95807810D01*
X92186016Y-95849681D01*
X92210433Y-95915145D01*
X92195582Y-95983418D01*
X92174431Y-96011673D01*
X92060889Y-96125215D01*
X91935951Y-96297179D01*
X91839444Y-96486585D01*
X91773753Y-96688760D01*
X91740500Y-96898713D01*
X91740500Y-97111286D01*
X91773753Y-97321239D01*
X91839444Y-97523414D01*
X91935951Y-97712820D01*
X92060890Y-97884786D01*
X92211213Y-98035109D01*
X92383182Y-98160050D01*
X92391946Y-98164516D01*
X92442742Y-98212491D01*
X92459536Y-98280312D01*
X92436998Y-98346447D01*
X92391946Y-98385484D01*
X92383182Y-98389949D01*
X92211213Y-98514890D01*
X92211209Y-98514894D01*
X92060897Y-98665207D01*
X92060890Y-98665213D01*
X91935951Y-98837179D01*
X91839444Y-99026585D01*
X91773753Y-99228760D01*
X91740500Y-99438713D01*
X91740500Y-99651286D01*
X91773753Y-99861239D01*
X91839444Y-100063414D01*
X91935951Y-100252820D01*
X92060890Y-100424786D01*
X92211213Y-100575109D01*
X92383182Y-100700050D01*
X92391946Y-100704516D01*
X92442742Y-100752491D01*
X92459536Y-100820312D01*
X92436998Y-100886447D01*
X92391946Y-100925484D01*
X92383182Y-100929949D01*
X92211213Y-101054890D01*
X92060890Y-101205213D01*
X91935951Y-101377179D01*
X91839444Y-101566585D01*
X91773753Y-101768760D01*
X91740500Y-101978713D01*
X91740500Y-102191286D01*
X91773753Y-102401239D01*
X91839444Y-102603414D01*
X91935951Y-102792820D01*
X92060890Y-102964786D01*
X92211213Y-103115109D01*
X92383182Y-103240050D01*
X92391946Y-103244516D01*
X92442742Y-103292491D01*
X92459536Y-103360312D01*
X92436998Y-103426447D01*
X92391946Y-103465484D01*
X92383182Y-103469949D01*
X92211213Y-103594890D01*
X92060890Y-103745213D01*
X91935951Y-103917179D01*
X91839444Y-104106585D01*
X91773753Y-104308760D01*
X91743012Y-104502851D01*
X91740500Y-104518713D01*
X91740500Y-104731287D01*
X91773754Y-104941243D01*
X91832321Y-105121494D01*
X91839444Y-105143414D01*
X91935951Y-105332820D01*
X92060890Y-105504786D01*
X92211213Y-105655109D01*
X92383182Y-105780050D01*
X92391946Y-105784516D01*
X92442742Y-105832491D01*
X92459536Y-105900312D01*
X92436998Y-105966447D01*
X92391946Y-106005484D01*
X92383182Y-106009949D01*
X92211213Y-106134890D01*
X92060890Y-106285213D01*
X91935951Y-106457179D01*
X91839444Y-106646585D01*
X91773753Y-106848760D01*
X91740500Y-107058713D01*
X91740500Y-107271286D01*
X91767485Y-107441666D01*
X91773754Y-107481243D01*
X91837818Y-107678412D01*
X91839444Y-107683414D01*
X91935951Y-107872820D01*
X92060890Y-108044786D01*
X92211213Y-108195109D01*
X92383182Y-108320050D01*
X92391946Y-108324516D01*
X92442742Y-108372491D01*
X92459536Y-108440312D01*
X92436998Y-108506447D01*
X92391946Y-108545484D01*
X92383182Y-108549949D01*
X92211213Y-108674890D01*
X92060890Y-108825213D01*
X91935951Y-108997179D01*
X91839444Y-109186585D01*
X91773753Y-109388760D01*
X91750670Y-109534500D01*
X91740500Y-109598713D01*
X91740500Y-109811287D01*
X91773754Y-110021243D01*
X91837818Y-110218412D01*
X91839444Y-110223414D01*
X91935951Y-110412820D01*
X92060890Y-110584786D01*
X92211213Y-110735109D01*
X92383182Y-110860050D01*
X92391946Y-110864516D01*
X92442742Y-110912491D01*
X92459536Y-110980312D01*
X92436998Y-111046447D01*
X92391946Y-111085484D01*
X92383182Y-111089949D01*
X92211213Y-111214890D01*
X92060890Y-111365213D01*
X91935951Y-111537179D01*
X91839444Y-111726585D01*
X91773753Y-111928760D01*
X91762004Y-112002943D01*
X91740500Y-112138713D01*
X91740500Y-112351287D01*
X91773754Y-112561243D01*
X91837818Y-112758412D01*
X91839444Y-112763414D01*
X91935951Y-112952820D01*
X92060890Y-113124786D01*
X92211213Y-113275109D01*
X92383182Y-113400050D01*
X92391946Y-113404516D01*
X92442742Y-113452491D01*
X92459536Y-113520312D01*
X92436998Y-113586447D01*
X92391946Y-113625484D01*
X92383182Y-113629949D01*
X92211213Y-113754890D01*
X92060890Y-113905213D01*
X91935951Y-114077179D01*
X91839444Y-114266585D01*
X91773753Y-114468760D01*
X91741292Y-114673713D01*
X91740500Y-114678713D01*
X91740500Y-114891287D01*
X91773754Y-115101243D01*
X91837874Y-115298584D01*
X91839444Y-115303414D01*
X91935951Y-115492820D01*
X92060890Y-115664786D01*
X92211213Y-115815109D01*
X92383182Y-115940050D01*
X92391946Y-115944516D01*
X92442742Y-115992491D01*
X92459536Y-116060312D01*
X92436998Y-116126447D01*
X92391946Y-116165484D01*
X92383182Y-116169949D01*
X92211213Y-116294890D01*
X92060890Y-116445213D01*
X91935951Y-116617179D01*
X91839444Y-116806585D01*
X91773753Y-117008760D01*
X91747313Y-117175697D01*
X91740500Y-117218713D01*
X91740500Y-117431287D01*
X91743972Y-117453206D01*
X91768664Y-117609110D01*
X91773754Y-117641243D01*
X91837818Y-117838412D01*
X91839444Y-117843414D01*
X91935951Y-118032820D01*
X92060890Y-118204786D01*
X92211213Y-118355109D01*
X92383179Y-118480048D01*
X92383181Y-118480049D01*
X92383184Y-118480051D01*
X92572588Y-118576557D01*
X92774757Y-118642246D01*
X92984713Y-118675500D01*
X92984714Y-118675500D01*
X93197286Y-118675500D01*
X93197287Y-118675500D01*
X93407243Y-118642246D01*
X93609412Y-118576557D01*
X93798816Y-118480051D01*
X93857383Y-118437500D01*
X93970786Y-118355109D01*
X93970788Y-118355106D01*
X93970792Y-118355104D01*
X94121104Y-118204792D01*
X94121106Y-118204788D01*
X94121109Y-118204786D01*
X94246048Y-118032820D01*
X94246047Y-118032820D01*
X94246051Y-118032816D01*
X94342557Y-117843412D01*
X94408246Y-117641243D01*
X94441500Y-117431287D01*
X94441500Y-117218713D01*
X94408246Y-117008757D01*
X94342557Y-116806588D01*
X94246051Y-116617184D01*
X94246049Y-116617181D01*
X94246048Y-116617179D01*
X94121109Y-116445213D01*
X93970786Y-116294890D01*
X93798820Y-116169951D01*
X93798115Y-116169591D01*
X93790054Y-116165485D01*
X93739259Y-116117512D01*
X93722463Y-116049692D01*
X93744999Y-115983556D01*
X93790054Y-115944515D01*
X93798816Y-115940051D01*
X93820789Y-115924086D01*
X93970786Y-115815109D01*
X93970788Y-115815106D01*
X93970792Y-115815104D01*
X94121104Y-115664792D01*
X94121106Y-115664788D01*
X94121109Y-115664786D01*
X94246048Y-115492820D01*
X94246047Y-115492820D01*
X94246051Y-115492816D01*
X94342557Y-115303412D01*
X94408246Y-115101243D01*
X94441500Y-114891287D01*
X94441500Y-114678713D01*
X94408246Y-114468757D01*
X94342557Y-114266588D01*
X94246051Y-114077184D01*
X94246049Y-114077181D01*
X94246048Y-114077179D01*
X94121109Y-113905213D01*
X93970786Y-113754890D01*
X93798820Y-113629951D01*
X93798115Y-113629591D01*
X93790054Y-113625485D01*
X93739259Y-113577512D01*
X93722463Y-113509692D01*
X93744999Y-113443556D01*
X93790054Y-113404515D01*
X93798816Y-113400051D01*
X93820789Y-113384086D01*
X93970786Y-113275109D01*
X93970792Y-113275104D01*
X94008877Y-113237019D01*
X94121104Y-113124792D01*
X94121106Y-113124788D01*
X94121109Y-113124786D01*
X94246048Y-112952820D01*
X94246047Y-112952820D01*
X94246051Y-112952816D01*
X94342557Y-112763412D01*
X94408246Y-112561243D01*
X94441500Y-112351287D01*
X94441500Y-112138713D01*
X94408246Y-111928757D01*
X94342557Y-111726588D01*
X94246051Y-111537184D01*
X94246049Y-111537181D01*
X94246048Y-111537179D01*
X94121109Y-111365213D01*
X93970786Y-111214890D01*
X93798820Y-111089951D01*
X93798115Y-111089591D01*
X93790054Y-111085485D01*
X93739259Y-111037512D01*
X93722463Y-110969692D01*
X93744999Y-110903556D01*
X93790054Y-110864515D01*
X93798816Y-110860051D01*
X93820789Y-110844086D01*
X93970786Y-110735109D01*
X93970788Y-110735106D01*
X93970792Y-110735104D01*
X94121104Y-110584792D01*
X94121106Y-110584788D01*
X94121109Y-110584786D01*
X94246048Y-110412820D01*
X94246047Y-110412820D01*
X94246051Y-110412816D01*
X94342557Y-110223412D01*
X94408246Y-110021243D01*
X94441500Y-109811287D01*
X94441500Y-109598713D01*
X94408246Y-109388757D01*
X94342557Y-109186588D01*
X94246051Y-108997184D01*
X94246049Y-108997181D01*
X94246048Y-108997179D01*
X94121109Y-108825213D01*
X93970786Y-108674890D01*
X93798820Y-108549951D01*
X93798115Y-108549591D01*
X93790054Y-108545485D01*
X93739259Y-108497512D01*
X93722463Y-108429692D01*
X93744999Y-108363556D01*
X93790054Y-108324515D01*
X93798816Y-108320051D01*
X93820789Y-108304086D01*
X93970786Y-108195109D01*
X93970788Y-108195106D01*
X93970792Y-108195104D01*
X94121104Y-108044792D01*
X94121106Y-108044788D01*
X94121109Y-108044786D01*
X94246048Y-107872820D01*
X94246047Y-107872820D01*
X94246051Y-107872816D01*
X94342557Y-107683412D01*
X94408246Y-107481243D01*
X94441500Y-107271287D01*
X94441500Y-107058713D01*
X94408246Y-106848757D01*
X94342557Y-106646588D01*
X94246051Y-106457184D01*
X94246049Y-106457181D01*
X94246048Y-106457179D01*
X94121109Y-106285213D01*
X93970786Y-106134890D01*
X93798820Y-106009951D01*
X93798115Y-106009591D01*
X93790054Y-106005485D01*
X93739259Y-105957512D01*
X93722463Y-105889692D01*
X93744999Y-105823556D01*
X93790054Y-105784515D01*
X93798816Y-105780051D01*
X93820789Y-105764086D01*
X93970786Y-105655109D01*
X93970788Y-105655106D01*
X93970792Y-105655104D01*
X94121104Y-105504792D01*
X94121106Y-105504788D01*
X94121109Y-105504786D01*
X94246048Y-105332820D01*
X94246047Y-105332820D01*
X94246051Y-105332816D01*
X94342557Y-105143412D01*
X94408246Y-104941243D01*
X94441500Y-104731287D01*
X94441500Y-104518713D01*
X94408246Y-104308757D01*
X94342557Y-104106588D01*
X94246051Y-103917184D01*
X94246049Y-103917181D01*
X94246048Y-103917179D01*
X94121109Y-103745213D01*
X93970786Y-103594890D01*
X93798820Y-103469951D01*
X93798115Y-103469591D01*
X93790054Y-103465485D01*
X93739259Y-103417512D01*
X93722463Y-103349692D01*
X93744999Y-103283556D01*
X93790054Y-103244515D01*
X93798816Y-103240051D01*
X93820789Y-103224086D01*
X93970786Y-103115109D01*
X93970788Y-103115106D01*
X93970792Y-103115104D01*
X94121104Y-102964792D01*
X94121106Y-102964788D01*
X94121109Y-102964786D01*
X94246048Y-102792820D01*
X94246047Y-102792820D01*
X94246051Y-102792816D01*
X94342557Y-102603412D01*
X94408246Y-102401243D01*
X94441500Y-102191287D01*
X94441500Y-101978713D01*
X94408246Y-101768757D01*
X94342557Y-101566588D01*
X94246051Y-101377184D01*
X94246049Y-101377181D01*
X94246048Y-101377179D01*
X94121109Y-101205213D01*
X93970786Y-101054890D01*
X93798820Y-100929951D01*
X93798115Y-100929591D01*
X93790054Y-100925485D01*
X93739259Y-100877512D01*
X93722463Y-100809692D01*
X93744999Y-100743556D01*
X93790054Y-100704515D01*
X93798816Y-100700051D01*
X93820789Y-100684086D01*
X93970786Y-100575109D01*
X93970788Y-100575106D01*
X93970792Y-100575104D01*
X94121104Y-100424792D01*
X94121106Y-100424788D01*
X94121109Y-100424786D01*
X94246048Y-100252820D01*
X94246047Y-100252820D01*
X94246051Y-100252816D01*
X94342557Y-100063412D01*
X94408246Y-99861243D01*
X94441500Y-99651287D01*
X94441500Y-99438713D01*
X94408246Y-99228757D01*
X94342557Y-99026588D01*
X94246051Y-98837184D01*
X94246049Y-98837181D01*
X94246048Y-98837179D01*
X94121109Y-98665213D01*
X93970786Y-98514890D01*
X93798820Y-98389951D01*
X93798115Y-98389591D01*
X93790054Y-98385485D01*
X93739259Y-98337512D01*
X93722463Y-98269692D01*
X93744999Y-98203556D01*
X93790054Y-98164515D01*
X93798816Y-98160051D01*
X93820789Y-98144086D01*
X93970786Y-98035109D01*
X93970788Y-98035106D01*
X93970792Y-98035104D01*
X94121104Y-97884792D01*
X94121106Y-97884788D01*
X94121109Y-97884786D01*
X94246048Y-97712820D01*
X94246047Y-97712820D01*
X94246051Y-97712816D01*
X94342557Y-97523412D01*
X94408246Y-97321243D01*
X94441500Y-97111287D01*
X94441500Y-96898713D01*
X94408246Y-96688757D01*
X94342557Y-96486588D01*
X94246051Y-96297184D01*
X94246049Y-96297181D01*
X94246048Y-96297179D01*
X94121109Y-96125213D01*
X94007569Y-96011673D01*
X93974084Y-95950350D01*
X93979068Y-95880658D01*
X94020940Y-95824725D01*
X94051915Y-95807810D01*
X94183331Y-95758796D01*
X94298546Y-95672546D01*
X94384796Y-95557331D01*
X94435091Y-95422483D01*
X94441500Y-95362873D01*
X94441499Y-93567128D01*
X94435091Y-93507517D01*
X94434901Y-93507008D01*
X94384797Y-93372671D01*
X94384793Y-93372664D01*
X94298547Y-93257455D01*
X94298544Y-93257452D01*
X94183335Y-93171206D01*
X94183328Y-93171202D01*
X94048482Y-93120908D01*
X94048483Y-93120908D01*
X93988883Y-93114501D01*
X93988881Y-93114500D01*
X93988873Y-93114500D01*
X93988864Y-93114500D01*
X92193129Y-93114500D01*
X92193123Y-93114501D01*
X92133516Y-93120908D01*
X91998671Y-93171202D01*
X91998664Y-93171206D01*
X91883455Y-93257452D01*
X91883452Y-93257455D01*
X91797206Y-93372664D01*
X91797202Y-93372671D01*
X91746908Y-93507517D01*
X91740501Y-93567116D01*
X91740501Y-93567123D01*
X91740500Y-93567135D01*
X79350500Y-93567135D01*
X79350500Y-78527096D01*
X79370185Y-78460057D01*
X79386814Y-78439420D01*
X82566819Y-75259414D01*
X82628142Y-75225930D01*
X82697834Y-75230914D01*
X82753767Y-75272786D01*
X82778184Y-75338250D01*
X82778500Y-75347096D01*
X82778500Y-75540351D01*
X82810522Y-75742534D01*
X82873781Y-75937223D01*
X82937691Y-76062653D01*
X82958971Y-76104416D01*
X82966715Y-76119613D01*
X83087028Y-76285213D01*
X83231786Y-76429971D01*
X83386749Y-76542556D01*
X83397390Y-76550287D01*
X83488840Y-76596883D01*
X83490080Y-76597515D01*
X83540876Y-76645490D01*
X83557671Y-76713311D01*
X83535134Y-76779446D01*
X83490080Y-76818485D01*
X83397386Y-76865715D01*
X83231786Y-76986028D01*
X83087028Y-77130786D01*
X82966715Y-77296386D01*
X82873781Y-77478776D01*
X82810522Y-77673465D01*
X82778500Y-77875648D01*
X82778500Y-78080351D01*
X82810522Y-78282534D01*
X82873781Y-78477223D01*
X82966715Y-78659613D01*
X83087028Y-78825213D01*
X83231786Y-78969971D01*
X83386749Y-79082556D01*
X83397390Y-79090287D01*
X83488840Y-79136883D01*
X83490080Y-79137515D01*
X83540876Y-79185490D01*
X83557671Y-79253311D01*
X83535134Y-79319446D01*
X83490080Y-79358485D01*
X83397386Y-79405715D01*
X83231786Y-79526028D01*
X83087028Y-79670786D01*
X82966715Y-79836386D01*
X82873781Y-80018776D01*
X82810522Y-80213465D01*
X82778500Y-80415648D01*
X82778500Y-80620351D01*
X82810522Y-80822534D01*
X82873781Y-81017223D01*
X82966715Y-81199613D01*
X83087028Y-81365213D01*
X83231786Y-81509971D01*
X83397385Y-81630284D01*
X83397387Y-81630285D01*
X83397390Y-81630287D01*
X83490080Y-81677515D01*
X83490630Y-81677795D01*
X83541426Y-81725770D01*
X83558221Y-81793591D01*
X83535684Y-81859725D01*
X83490630Y-81898765D01*
X83397644Y-81946143D01*
X83353077Y-81978523D01*
X83353077Y-81978524D01*
X84032554Y-82658000D01*
X84026339Y-82658000D01*
X83924606Y-82685259D01*
X83833394Y-82737920D01*
X83758920Y-82812394D01*
X83706259Y-82903606D01*
X83679000Y-83005339D01*
X83679000Y-83011553D01*
X82999524Y-82332077D01*
X82999523Y-82332077D01*
X82967143Y-82376644D01*
X82874244Y-82558968D01*
X82811009Y-82753582D01*
X82779000Y-82955682D01*
X82779000Y-83160317D01*
X82811009Y-83362417D01*
X82874244Y-83557031D01*
X82967141Y-83739350D01*
X82967147Y-83739359D01*
X82999523Y-83783921D01*
X82999524Y-83783922D01*
X83679000Y-83104446D01*
X83679000Y-83110661D01*
X83706259Y-83212394D01*
X83758920Y-83303606D01*
X83833394Y-83378080D01*
X83924606Y-83430741D01*
X84026339Y-83458000D01*
X84032553Y-83458000D01*
X83353076Y-84137474D01*
X83397650Y-84169859D01*
X83579968Y-84262755D01*
X83774582Y-84325990D01*
X83976683Y-84358000D01*
X84181317Y-84358000D01*
X84383417Y-84325990D01*
X84578031Y-84262755D01*
X84760349Y-84169859D01*
X84804921Y-84137474D01*
X84125447Y-83458000D01*
X84131661Y-83458000D01*
X84233394Y-83430741D01*
X84324606Y-83378080D01*
X84399080Y-83303606D01*
X84451741Y-83212394D01*
X84479000Y-83110661D01*
X84479000Y-83104447D01*
X85158474Y-83783921D01*
X85190859Y-83739349D01*
X85283755Y-83557031D01*
X85346990Y-83362417D01*
X85379000Y-83160317D01*
X85379000Y-82955682D01*
X85346990Y-82753582D01*
X85283755Y-82558968D01*
X85190859Y-82376650D01*
X85158474Y-82332077D01*
X85158474Y-82332076D01*
X84479000Y-83011551D01*
X84479000Y-83005339D01*
X84451741Y-82903606D01*
X84399080Y-82812394D01*
X84324606Y-82737920D01*
X84233394Y-82685259D01*
X84131661Y-82658000D01*
X84125446Y-82658000D01*
X84804922Y-81978524D01*
X84804921Y-81978523D01*
X84760359Y-81946147D01*
X84760350Y-81946141D01*
X84667369Y-81898765D01*
X84616573Y-81850790D01*
X84599778Y-81782969D01*
X84622315Y-81716835D01*
X84667370Y-81677795D01*
X84667920Y-81677515D01*
X84760610Y-81630287D01*
X84823632Y-81584499D01*
X84926213Y-81509971D01*
X84926215Y-81509968D01*
X84926219Y-81509966D01*
X85070966Y-81365219D01*
X85070968Y-81365215D01*
X85070971Y-81365213D01*
X85142467Y-81266805D01*
X85191287Y-81199610D01*
X85284220Y-81017219D01*
X85347477Y-80822534D01*
X85379500Y-80620352D01*
X85379500Y-80415648D01*
X85358647Y-80283991D01*
X85347477Y-80213465D01*
X85318127Y-80123137D01*
X85284220Y-80018781D01*
X85284218Y-80018778D01*
X85284218Y-80018776D01*
X85217413Y-79887666D01*
X85191287Y-79836390D01*
X85168442Y-79804946D01*
X85070971Y-79670786D01*
X84926213Y-79526028D01*
X84760614Y-79405715D01*
X84754006Y-79402348D01*
X84667917Y-79358483D01*
X84617123Y-79310511D01*
X84600328Y-79242690D01*
X84622865Y-79176555D01*
X84667917Y-79137516D01*
X84760610Y-79090287D01*
X84781770Y-79074913D01*
X84926213Y-78969971D01*
X84926215Y-78969968D01*
X84926219Y-78969966D01*
X85070966Y-78825219D01*
X85070968Y-78825215D01*
X85070971Y-78825213D01*
X85123732Y-78752590D01*
X85191287Y-78659610D01*
X85284220Y-78477219D01*
X85347477Y-78282534D01*
X85379500Y-78080352D01*
X85379500Y-77875648D01*
X85368035Y-77803264D01*
X85347477Y-77673465D01*
X85316527Y-77578212D01*
X85284220Y-77478781D01*
X85284218Y-77478778D01*
X85284218Y-77478776D01*
X85250503Y-77412607D01*
X85191287Y-77296390D01*
X85183556Y-77285749D01*
X85070971Y-77130786D01*
X84926213Y-76986028D01*
X84760614Y-76865715D01*
X84754006Y-76862348D01*
X84667917Y-76818483D01*
X84617123Y-76770511D01*
X84600328Y-76702690D01*
X84622865Y-76636555D01*
X84667917Y-76597516D01*
X84760610Y-76550287D01*
X84781770Y-76534913D01*
X84926213Y-76429971D01*
X84926215Y-76429968D01*
X84926219Y-76429966D01*
X85070966Y-76285219D01*
X85070968Y-76285215D01*
X85070971Y-76285213D01*
X85123732Y-76212590D01*
X85191287Y-76119610D01*
X85284220Y-75937219D01*
X85347477Y-75742534D01*
X85379500Y-75540352D01*
X85379500Y-75335648D01*
X85347477Y-75133465D01*
X85284218Y-74938776D01*
X85250503Y-74872607D01*
X85191287Y-74756390D01*
X85183556Y-74745749D01*
X85070971Y-74590786D01*
X84926213Y-74446028D01*
X84760614Y-74325715D01*
X84754006Y-74322348D01*
X84667917Y-74278483D01*
X84617123Y-74230511D01*
X84600328Y-74162690D01*
X84622865Y-74096555D01*
X84667917Y-74057516D01*
X84760610Y-74010287D01*
X84781770Y-73994913D01*
X84926213Y-73889971D01*
X84926215Y-73889968D01*
X84926219Y-73889966D01*
X85070966Y-73745219D01*
X85070968Y-73745215D01*
X85070971Y-73745213D01*
X85123732Y-73672590D01*
X85191287Y-73579610D01*
X85284220Y-73397219D01*
X85347477Y-73202534D01*
X85379500Y-73000352D01*
X85379500Y-72795648D01*
X85347477Y-72593466D01*
X85284220Y-72398781D01*
X85284218Y-72398778D01*
X85284218Y-72398776D01*
X85250503Y-72332607D01*
X85191287Y-72216390D01*
X85183556Y-72205749D01*
X85070971Y-72050786D01*
X84926213Y-71906028D01*
X84760614Y-71785715D01*
X84735251Y-71772792D01*
X84667917Y-71738483D01*
X84617123Y-71690511D01*
X84600328Y-71622690D01*
X84622865Y-71556555D01*
X84667917Y-71517516D01*
X84760610Y-71470287D01*
X84801545Y-71440546D01*
X84926213Y-71349971D01*
X84926215Y-71349968D01*
X84926219Y-71349966D01*
X85070966Y-71205219D01*
X85070968Y-71205215D01*
X85070971Y-71205213D01*
X85136427Y-71115119D01*
X85191287Y-71039610D01*
X85284220Y-70857219D01*
X85347477Y-70662534D01*
X85379500Y-70460352D01*
X85379500Y-70255648D01*
X85347477Y-70053466D01*
X85347475Y-70053462D01*
X85347475Y-70053457D01*
X85336545Y-70019817D01*
X85334550Y-69949976D01*
X85370631Y-69890144D01*
X85433332Y-69859316D01*
X85454476Y-69857500D01*
X90173332Y-69857500D01*
X90180939Y-69857500D01*
X90180943Y-69857501D01*
X90323525Y-69857501D01*
X90390564Y-69877186D01*
X90436319Y-69929990D01*
X90445012Y-69990454D01*
X90446262Y-69999148D01*
X90441455Y-70019819D01*
X90430523Y-70053461D01*
X90430523Y-70053464D01*
X90416294Y-70143302D01*
X90398500Y-70255648D01*
X90398500Y-70460352D01*
X90401273Y-70477857D01*
X90430522Y-70662534D01*
X90493781Y-70857223D01*
X90586715Y-71039613D01*
X90707028Y-71205213D01*
X90851786Y-71349971D01*
X91006749Y-71462556D01*
X91017390Y-71470287D01*
X91108840Y-71516883D01*
X91110080Y-71517515D01*
X91160876Y-71565490D01*
X91177671Y-71633311D01*
X91155134Y-71699446D01*
X91110080Y-71738485D01*
X91017386Y-71785715D01*
X90851786Y-71906028D01*
X90707028Y-72050786D01*
X90586715Y-72216386D01*
X90493781Y-72398776D01*
X90430522Y-72593465D01*
X90398500Y-72795648D01*
X90398500Y-73000351D01*
X90430522Y-73202534D01*
X90493781Y-73397223D01*
X90586715Y-73579613D01*
X90707028Y-73745213D01*
X90851786Y-73889971D01*
X91006749Y-74002556D01*
X91017390Y-74010287D01*
X91108840Y-74056883D01*
X91110080Y-74057515D01*
X91160876Y-74105490D01*
X91177671Y-74173311D01*
X91155134Y-74239446D01*
X91110080Y-74278485D01*
X91017386Y-74325715D01*
X90851786Y-74446028D01*
X90707028Y-74590786D01*
X90586715Y-74756386D01*
X90493781Y-74938776D01*
X90430522Y-75133465D01*
X90398500Y-75335648D01*
X90398500Y-75540351D01*
X90430522Y-75742534D01*
X90493781Y-75937223D01*
X90557691Y-76062653D01*
X90578971Y-76104416D01*
X90586715Y-76119613D01*
X90707028Y-76285213D01*
X90851786Y-76429971D01*
X91006749Y-76542556D01*
X91017390Y-76550287D01*
X91108840Y-76596883D01*
X91110080Y-76597515D01*
X91160876Y-76645490D01*
X91177671Y-76713311D01*
X91155134Y-76779446D01*
X91110080Y-76818485D01*
X91017386Y-76865715D01*
X90851786Y-76986028D01*
X90707028Y-77130786D01*
X90586715Y-77296386D01*
X90493781Y-77478776D01*
X90430522Y-77673465D01*
X90398500Y-77875648D01*
X90398500Y-78080351D01*
X90430522Y-78282534D01*
X90493781Y-78477223D01*
X90586715Y-78659613D01*
X90707028Y-78825213D01*
X90851786Y-78969971D01*
X91006749Y-79082556D01*
X91017390Y-79090287D01*
X91108840Y-79136883D01*
X91110080Y-79137515D01*
X91160876Y-79185490D01*
X91177671Y-79253311D01*
X91155134Y-79319446D01*
X91110080Y-79358485D01*
X91017386Y-79405715D01*
X90851786Y-79526028D01*
X90707028Y-79670786D01*
X90586715Y-79836386D01*
X90493781Y-80018776D01*
X90430522Y-80213465D01*
X90398500Y-80415648D01*
X90398500Y-80620351D01*
X90430522Y-80822534D01*
X90493781Y-81017223D01*
X90586715Y-81199613D01*
X90707028Y-81365213D01*
X90851786Y-81509971D01*
X90994620Y-81613744D01*
X91017390Y-81630287D01*
X91108840Y-81676883D01*
X91110080Y-81677515D01*
X91160876Y-81725490D01*
X91177671Y-81793311D01*
X91155134Y-81859446D01*
X91110080Y-81898485D01*
X91017386Y-81945715D01*
X90851786Y-82066028D01*
X90707028Y-82210786D01*
X90586715Y-82376386D01*
X90493781Y-82558776D01*
X90430522Y-82753465D01*
X90398500Y-82955648D01*
X90398500Y-83160351D01*
X90430522Y-83362534D01*
X90493781Y-83557223D01*
X90557691Y-83682653D01*
X90586585Y-83739359D01*
X90586715Y-83739613D01*
X90707028Y-83905213D01*
X90851786Y-84049971D01*
X90968133Y-84134500D01*
X91017390Y-84170287D01*
X91133607Y-84229503D01*
X91199776Y-84263218D01*
X91199778Y-84263218D01*
X91199781Y-84263220D01*
X91266250Y-84284817D01*
X91394465Y-84326477D01*
X91495557Y-84342488D01*
X91596648Y-84358500D01*
X91596649Y-84358500D01*
X91801351Y-84358500D01*
X91801352Y-84358500D01*
X92003534Y-84326477D01*
X92198219Y-84263220D01*
X92380610Y-84170287D01*
X92480286Y-84097869D01*
X92546213Y-84049971D01*
X92546215Y-84049968D01*
X92546219Y-84049966D01*
X92690966Y-83905219D01*
X92690968Y-83905215D01*
X92690971Y-83905213D01*
X92743732Y-83832590D01*
X92811287Y-83739610D01*
X92904220Y-83557219D01*
X92967477Y-83362534D01*
X92999500Y-83160352D01*
X92999500Y-82955648D01*
X92988579Y-82886697D01*
X92967477Y-82753465D01*
X92918617Y-82603090D01*
X92904220Y-82558781D01*
X92904218Y-82558778D01*
X92904218Y-82558776D01*
X92866117Y-82484000D01*
X92811287Y-82376390D01*
X92797926Y-82358000D01*
X92690971Y-82210786D01*
X92546213Y-82066028D01*
X92380614Y-81945715D01*
X92374006Y-81942348D01*
X92287917Y-81898483D01*
X92237123Y-81850511D01*
X92220328Y-81782690D01*
X92242865Y-81716555D01*
X92287917Y-81677516D01*
X92380610Y-81630287D01*
X92443631Y-81584500D01*
X92546213Y-81509971D01*
X92546215Y-81509968D01*
X92546219Y-81509966D01*
X92690966Y-81365219D01*
X92690968Y-81365215D01*
X92690971Y-81365213D01*
X92762467Y-81266805D01*
X92811287Y-81199610D01*
X92904220Y-81017219D01*
X92967477Y-80822534D01*
X92999500Y-80620352D01*
X92999500Y-80415648D01*
X92978647Y-80283991D01*
X92967477Y-80213465D01*
X92938127Y-80123137D01*
X92904220Y-80018781D01*
X92904218Y-80018778D01*
X92904218Y-80018776D01*
X92837413Y-79887666D01*
X92811287Y-79836390D01*
X92788442Y-79804946D01*
X92690971Y-79670786D01*
X92546213Y-79526028D01*
X92380614Y-79405715D01*
X92374006Y-79402348D01*
X92287917Y-79358483D01*
X92237123Y-79310511D01*
X92220328Y-79242690D01*
X92242865Y-79176555D01*
X92287917Y-79137516D01*
X92380610Y-79090287D01*
X92401770Y-79074913D01*
X92546213Y-78969971D01*
X92546215Y-78969968D01*
X92546219Y-78969966D01*
X92690966Y-78825219D01*
X92690968Y-78825215D01*
X92690971Y-78825213D01*
X92743732Y-78752590D01*
X92811287Y-78659610D01*
X92904220Y-78477219D01*
X92967477Y-78282534D01*
X92999500Y-78080352D01*
X92999500Y-77875648D01*
X92988035Y-77803264D01*
X92967477Y-77673465D01*
X92936527Y-77578212D01*
X92904220Y-77478781D01*
X92904218Y-77478778D01*
X92904218Y-77478776D01*
X92870503Y-77412607D01*
X92811287Y-77296390D01*
X92803556Y-77285749D01*
X92690971Y-77130786D01*
X92546213Y-76986028D01*
X92380614Y-76865715D01*
X92374006Y-76862348D01*
X92287917Y-76818483D01*
X92237123Y-76770511D01*
X92220328Y-76702690D01*
X92242865Y-76636555D01*
X92287917Y-76597516D01*
X92380610Y-76550287D01*
X92401770Y-76534913D01*
X92546213Y-76429971D01*
X92546215Y-76429968D01*
X92546219Y-76429966D01*
X92690966Y-76285219D01*
X92690968Y-76285215D01*
X92690971Y-76285213D01*
X92743732Y-76212590D01*
X92811287Y-76119610D01*
X92904220Y-75937219D01*
X92967477Y-75742534D01*
X92999500Y-75540352D01*
X92999500Y-75335648D01*
X92967477Y-75133465D01*
X92904218Y-74938776D01*
X92870503Y-74872607D01*
X92811287Y-74756390D01*
X92803556Y-74745749D01*
X92690971Y-74590786D01*
X92546213Y-74446028D01*
X92380614Y-74325715D01*
X92374006Y-74322348D01*
X92287917Y-74278483D01*
X92237123Y-74230511D01*
X92220328Y-74162690D01*
X92242865Y-74096555D01*
X92287917Y-74057516D01*
X92380610Y-74010287D01*
X92401770Y-73994913D01*
X92546213Y-73889971D01*
X92546215Y-73889968D01*
X92546219Y-73889966D01*
X92690966Y-73745219D01*
X92690968Y-73745215D01*
X92690971Y-73745213D01*
X92743732Y-73672590D01*
X92811287Y-73579610D01*
X92904220Y-73397219D01*
X92967477Y-73202534D01*
X92999500Y-73000352D01*
X92999500Y-72795648D01*
X92967477Y-72593466D01*
X92904220Y-72398781D01*
X92904218Y-72398778D01*
X92904218Y-72398776D01*
X92870503Y-72332607D01*
X92811287Y-72216390D01*
X92803556Y-72205749D01*
X92690971Y-72050786D01*
X92546213Y-71906028D01*
X92380614Y-71785715D01*
X92355251Y-71772792D01*
X92287917Y-71738483D01*
X92237123Y-71690511D01*
X92220328Y-71622690D01*
X92242865Y-71556555D01*
X92287917Y-71517516D01*
X92380610Y-71470287D01*
X92421545Y-71440546D01*
X92546213Y-71349971D01*
X92546215Y-71349968D01*
X92546219Y-71349966D01*
X92690966Y-71205219D01*
X92690968Y-71205215D01*
X92690971Y-71205213D01*
X92756427Y-71115119D01*
X92811287Y-71039610D01*
X92904220Y-70857219D01*
X92967477Y-70662534D01*
X92999500Y-70460352D01*
X92999500Y-70255648D01*
X92981706Y-70143302D01*
X92967477Y-70053465D01*
X92923288Y-69917466D01*
X92904220Y-69858781D01*
X92904218Y-69858778D01*
X92904218Y-69858776D01*
X92849333Y-69751060D01*
X92811287Y-69676390D01*
X92789570Y-69646499D01*
X92690971Y-69510786D01*
X92546213Y-69366028D01*
X92380614Y-69245715D01*
X92364187Y-69237345D01*
X92287917Y-69198483D01*
X92237123Y-69150511D01*
X92220328Y-69082690D01*
X92242865Y-69016555D01*
X92287917Y-68977516D01*
X92380610Y-68930287D01*
X92438423Y-68888284D01*
X92546213Y-68809971D01*
X92546215Y-68809968D01*
X92546219Y-68809966D01*
X92690966Y-68665219D01*
X92690968Y-68665215D01*
X92690971Y-68665213D01*
X92796546Y-68519899D01*
X92811287Y-68499610D01*
X92904220Y-68317219D01*
X92967477Y-68122534D01*
X92999500Y-67920352D01*
X92999500Y-67715648D01*
X92990053Y-67656001D01*
X92967477Y-67513465D01*
X92904218Y-67318776D01*
X92859517Y-67231047D01*
X92811287Y-67136390D01*
X92795966Y-67115302D01*
X92690971Y-66970786D01*
X92546213Y-66826028D01*
X92380613Y-66705715D01*
X92380612Y-66705714D01*
X92380610Y-66705713D01*
X92321675Y-66675684D01*
X92198223Y-66612781D01*
X92003534Y-66549522D01*
X91828995Y-66521878D01*
X91801352Y-66517500D01*
X91596648Y-66517500D01*
X91572329Y-66521351D01*
X91394465Y-66549522D01*
X91199776Y-66612781D01*
X91017386Y-66705715D01*
X90851786Y-66826028D01*
X90707028Y-66970786D01*
X90586715Y-67136386D01*
X90493781Y-67318776D01*
X90430522Y-67513465D01*
X90406443Y-67665500D01*
X90398500Y-67715648D01*
X90398500Y-67920352D01*
X90403176Y-67949875D01*
X90430523Y-68122534D01*
X90435172Y-68136843D01*
X90437167Y-68206684D01*
X90404922Y-68262842D01*
X90047584Y-68620181D01*
X89986261Y-68653666D01*
X89959903Y-68656500D01*
X85491946Y-68656500D01*
X85424907Y-68636815D01*
X85379152Y-68584011D01*
X85368588Y-68519898D01*
X85378999Y-68417988D01*
X85379000Y-68417973D01*
X85379000Y-68068000D01*
X84394686Y-68068000D01*
X84399080Y-68063606D01*
X84451741Y-67972394D01*
X84479000Y-67870661D01*
X84479000Y-67765339D01*
X84451741Y-67663606D01*
X84399080Y-67572394D01*
X84394686Y-67568000D01*
X85378999Y-67568000D01*
X85378999Y-67218028D01*
X85378998Y-67218013D01*
X85368505Y-67115302D01*
X85313358Y-66948880D01*
X85313356Y-66948875D01*
X85221315Y-66799654D01*
X85097345Y-66675684D01*
X84948124Y-66583643D01*
X84948119Y-66583641D01*
X84781697Y-66528494D01*
X84781690Y-66528493D01*
X84678986Y-66518000D01*
X84329000Y-66518000D01*
X84329000Y-67502314D01*
X84324606Y-67497920D01*
X84233394Y-67445259D01*
X84131661Y-67418000D01*
X84026339Y-67418000D01*
X83924606Y-67445259D01*
X83833394Y-67497920D01*
X83829000Y-67502314D01*
X83829000Y-66518000D01*
X83479028Y-66518000D01*
X83479012Y-66518001D01*
X83376302Y-66528494D01*
X83209880Y-66583641D01*
X83209875Y-66583643D01*
X83060654Y-66675684D01*
X82936684Y-66799654D01*
X82844643Y-66948875D01*
X82844641Y-66948880D01*
X82789494Y-67115302D01*
X82789493Y-67115309D01*
X82779000Y-67218013D01*
X82779000Y-67568000D01*
X83763314Y-67568000D01*
X83758920Y-67572394D01*
X83706259Y-67663606D01*
X83679000Y-67765339D01*
X83679000Y-67870661D01*
X83706259Y-67972394D01*
X83758920Y-68063606D01*
X83763314Y-68068000D01*
X82779001Y-68068000D01*
X82779001Y-68417989D01*
X82789412Y-68519899D01*
X82776642Y-68588592D01*
X82728761Y-68639476D01*
X82666054Y-68656500D01*
X78806943Y-68656500D01*
X78654213Y-68697423D01*
X78617709Y-68718500D01*
X78559013Y-68752387D01*
X78497015Y-68769000D01*
X76499001Y-68769000D01*
X76499001Y-68818986D01*
X76509494Y-68921697D01*
X76564641Y-69088119D01*
X76564643Y-69088124D01*
X76656684Y-69237345D01*
X76780655Y-69361316D01*
X76780659Y-69361319D01*
X76783656Y-69363168D01*
X76785279Y-69364972D01*
X76786323Y-69365798D01*
X76786181Y-69365976D01*
X76830381Y-69415116D01*
X76841602Y-69484079D01*
X76813759Y-69548161D01*
X76783661Y-69574241D01*
X76780349Y-69576283D01*
X76780343Y-69576288D01*
X76656289Y-69700342D01*
X76564187Y-69849663D01*
X76564185Y-69849668D01*
X76555067Y-69877185D01*
X76509001Y-70016203D01*
X76509001Y-70016204D01*
X76509000Y-70016204D01*
X76498500Y-70118983D01*
X76498500Y-70719001D01*
X76498501Y-70719019D01*
X76509000Y-70821796D01*
X76509001Y-70821798D01*
X76564185Y-70988331D01*
X76564186Y-70988334D01*
X76656288Y-71137656D01*
X76780344Y-71261712D01*
X76929666Y-71353814D01*
X77038505Y-71389879D01*
X77095949Y-71429652D01*
X77122772Y-71494167D01*
X77123500Y-71507585D01*
X77123500Y-79368414D01*
X77103815Y-79435453D01*
X77051011Y-79481208D01*
X77038505Y-79486120D01*
X76929666Y-79522186D01*
X76929663Y-79522187D01*
X76780342Y-79614289D01*
X76656289Y-79738342D01*
X76564187Y-79887663D01*
X76564186Y-79887666D01*
X76551249Y-79926709D01*
X76543695Y-79949505D01*
X76503922Y-80006949D01*
X76439406Y-80033772D01*
X76425989Y-80034500D01*
X73457500Y-80034500D01*
X73390461Y-80014815D01*
X73344706Y-79962011D01*
X73333500Y-79910500D01*
X73333499Y-79485296D01*
X73318303Y-79369857D01*
X73318301Y-79369850D01*
X73318301Y-79369849D01*
X73258800Y-79226202D01*
X73164149Y-79102851D01*
X73040798Y-79008200D01*
X73040794Y-79008198D01*
X72975713Y-78981240D01*
X72897151Y-78948699D01*
X72876771Y-78946016D01*
X72791314Y-78934765D01*
X72727418Y-78906498D01*
X72688947Y-78848174D01*
X72683500Y-78811826D01*
X72683500Y-75812945D01*
X72683500Y-75812943D01*
X72642577Y-75660216D01*
X72642573Y-75660209D01*
X72563524Y-75523290D01*
X72563521Y-75523286D01*
X72563520Y-75523284D01*
X72451716Y-75411480D01*
X72451715Y-75411479D01*
X72447385Y-75407149D01*
X72447374Y-75407139D01*
X68469818Y-71429583D01*
X68455114Y-71402655D01*
X68447412Y-71390670D01*
X70833000Y-71390670D01*
X70848185Y-71506019D01*
X70848187Y-71506024D01*
X70907633Y-71649541D01*
X70907633Y-71649542D01*
X71002207Y-71772792D01*
X71125458Y-71867366D01*
X71268975Y-71926812D01*
X71268980Y-71926814D01*
X71384329Y-71942000D01*
X71833000Y-71942000D01*
X72333000Y-71942000D01*
X72781671Y-71942000D01*
X72897019Y-71926814D01*
X72897024Y-71926812D01*
X73040541Y-71867366D01*
X73040542Y-71867366D01*
X73163792Y-71772792D01*
X73258366Y-71649542D01*
X73258366Y-71649541D01*
X73317812Y-71506024D01*
X73317814Y-71506019D01*
X73333000Y-71390670D01*
X73333000Y-71242000D01*
X72333000Y-71242000D01*
X72333000Y-71942000D01*
X71833000Y-71942000D01*
X71833000Y-71242000D01*
X70833000Y-71242000D01*
X70833000Y-71390670D01*
X68447412Y-71390670D01*
X68438522Y-71376837D01*
X68437630Y-71370636D01*
X68436333Y-71368260D01*
X68433499Y-71341910D01*
X68433499Y-70593329D01*
X70833000Y-70593329D01*
X70833000Y-70742000D01*
X71833000Y-70742000D01*
X72333000Y-70742000D01*
X73333000Y-70742000D01*
X73333000Y-70593329D01*
X73317814Y-70477980D01*
X73317812Y-70477975D01*
X73258366Y-70334458D01*
X73258366Y-70334457D01*
X73163792Y-70211207D01*
X73040541Y-70116633D01*
X72897024Y-70057187D01*
X72897019Y-70057185D01*
X72781671Y-70042000D01*
X72333000Y-70042000D01*
X72333000Y-70742000D01*
X71833000Y-70742000D01*
X71833000Y-70042000D01*
X71384329Y-70042000D01*
X71268980Y-70057185D01*
X71268975Y-70057187D01*
X71125458Y-70116633D01*
X71125457Y-70116633D01*
X71002207Y-70211207D01*
X70907633Y-70334457D01*
X70907633Y-70334458D01*
X70848187Y-70477975D01*
X70848185Y-70477980D01*
X70833000Y-70593329D01*
X68433499Y-70593329D01*
X68433499Y-70593300D01*
X68433499Y-70593298D01*
X68433499Y-70593296D01*
X68418303Y-70477857D01*
X68418301Y-70477850D01*
X68418301Y-70477849D01*
X68358800Y-70334202D01*
X68264149Y-70210851D01*
X68140798Y-70116200D01*
X68140794Y-70116198D01*
X67997151Y-70056699D01*
X67997149Y-70056698D01*
X67881701Y-70041500D01*
X66484296Y-70041500D01*
X66368857Y-70056696D01*
X66368848Y-70056699D01*
X66225205Y-70116198D01*
X66225202Y-70116199D01*
X66225202Y-70116200D01*
X66221556Y-70118998D01*
X66101851Y-70210851D01*
X66007198Y-70334205D01*
X65947699Y-70477848D01*
X65947698Y-70477850D01*
X65932500Y-70593298D01*
X65932500Y-71390703D01*
X65947696Y-71506142D01*
X65947699Y-71506151D01*
X66007093Y-71649541D01*
X66007200Y-71649798D01*
X66101851Y-71773149D01*
X66225202Y-71867800D01*
X66368849Y-71927301D01*
X66484299Y-71942500D01*
X67232902Y-71942499D01*
X67299941Y-71962183D01*
X67320583Y-71978818D01*
X71446181Y-76104416D01*
X71479666Y-76165739D01*
X71482500Y-76192097D01*
X71482500Y-78811827D01*
X71462815Y-78878866D01*
X71410011Y-78924621D01*
X71374684Y-78934766D01*
X71268857Y-78948697D01*
X71268848Y-78948699D01*
X71125205Y-79008198D01*
X71125202Y-79008199D01*
X71125202Y-79008200D01*
X71001851Y-79102851D01*
X70940182Y-79183220D01*
X70907198Y-79226205D01*
X70847699Y-79369848D01*
X70847698Y-79369850D01*
X70832500Y-79485296D01*
X70832500Y-79485299D01*
X70832500Y-79738344D01*
X70832501Y-79910500D01*
X70812817Y-79977539D01*
X70760013Y-80023294D01*
X70708501Y-80034500D01*
X68557500Y-80034500D01*
X68490461Y-80014815D01*
X68444706Y-79962011D01*
X68433500Y-79910500D01*
X68433499Y-79485296D01*
X68418303Y-79369857D01*
X68418301Y-79369850D01*
X68418301Y-79369849D01*
X68358800Y-79226202D01*
X68264149Y-79102851D01*
X68140798Y-79008200D01*
X68140794Y-79008198D01*
X67997151Y-78948699D01*
X67997149Y-78948698D01*
X67881701Y-78933500D01*
X66484296Y-78933500D01*
X66368857Y-78948696D01*
X66368848Y-78948699D01*
X66225205Y-79008198D01*
X66225202Y-79008199D01*
X66225202Y-79008200D01*
X66101851Y-79102851D01*
X66007200Y-79226202D01*
X66007199Y-79226204D01*
X66002253Y-79232650D01*
X66000017Y-79230934D01*
X65959358Y-79269711D01*
X65902528Y-79283500D01*
X62215940Y-79283500D01*
X62175019Y-79294464D01*
X62175019Y-79294465D01*
X62137751Y-79304451D01*
X62063214Y-79324423D01*
X62063209Y-79324426D01*
X61926290Y-79403475D01*
X61926282Y-79403481D01*
X61782583Y-79547181D01*
X61755655Y-79561884D01*
X61729837Y-79578477D01*
X61723636Y-79579368D01*
X61721260Y-79580666D01*
X61694902Y-79583500D01*
X61495097Y-79583500D01*
X61428058Y-79563815D01*
X61407416Y-79547181D01*
X61205819Y-79345584D01*
X61172334Y-79284261D01*
X61169500Y-79257903D01*
X61169500Y-71669999D01*
X61189185Y-71602960D01*
X61241989Y-71557205D01*
X61293500Y-71545999D01*
X61345000Y-71545999D01*
X61845000Y-71545999D01*
X62119972Y-71545999D01*
X62119986Y-71545998D01*
X62222697Y-71535505D01*
X62389119Y-71480358D01*
X62389124Y-71480356D01*
X62538345Y-71388315D01*
X62662315Y-71264345D01*
X62754356Y-71115124D01*
X62754358Y-71115119D01*
X62809505Y-70948697D01*
X62809506Y-70948690D01*
X62819999Y-70845986D01*
X62820000Y-70845973D01*
X62820000Y-70796000D01*
X61845000Y-70796000D01*
X61845000Y-71545999D01*
X61345000Y-71545999D01*
X61345000Y-70670000D01*
X61364685Y-70602961D01*
X61417489Y-70557206D01*
X61469000Y-70546000D01*
X61595000Y-70546000D01*
X61595000Y-70420000D01*
X61614685Y-70352961D01*
X61667489Y-70307206D01*
X61719000Y-70296000D01*
X62819999Y-70296000D01*
X62819999Y-70246028D01*
X62819998Y-70246013D01*
X62809505Y-70143302D01*
X62754358Y-69976880D01*
X62754356Y-69976875D01*
X62662315Y-69827654D01*
X62538344Y-69703683D01*
X62538341Y-69703681D01*
X62535339Y-69701829D01*
X62533713Y-69700021D01*
X62532677Y-69699202D01*
X62532817Y-69699024D01*
X62488617Y-69649880D01*
X62477397Y-69580917D01*
X62505243Y-69516836D01*
X62535344Y-69490754D01*
X62538656Y-69488712D01*
X62662712Y-69364656D01*
X62699259Y-69305402D01*
X62751207Y-69258679D01*
X62804798Y-69246500D01*
X66142331Y-69246500D01*
X66142347Y-69246501D01*
X66149943Y-69246501D01*
X66308054Y-69246501D01*
X66308057Y-69246501D01*
X66460785Y-69205577D01*
X66510904Y-69176639D01*
X66597716Y-69126520D01*
X66709520Y-69014716D01*
X66709520Y-69014714D01*
X66719728Y-69004507D01*
X66719730Y-69004504D01*
X67045416Y-68678818D01*
X67106739Y-68645333D01*
X67133097Y-68642499D01*
X67881703Y-68642499D01*
X67997142Y-68627303D01*
X67997146Y-68627301D01*
X67997151Y-68627301D01*
X68140798Y-68567800D01*
X68264149Y-68473149D01*
X68358800Y-68349798D01*
X68418301Y-68206151D01*
X68433500Y-68090701D01*
X68433499Y-67665499D01*
X68453183Y-67598461D01*
X68505987Y-67552706D01*
X68557499Y-67541500D01*
X70708500Y-67541500D01*
X70775539Y-67561185D01*
X70821294Y-67613989D01*
X70832500Y-67665500D01*
X70832500Y-68090703D01*
X70847696Y-68206142D01*
X70847699Y-68206151D01*
X70907200Y-68349798D01*
X71001851Y-68473149D01*
X71125202Y-68567800D01*
X71268849Y-68627301D01*
X71384299Y-68642500D01*
X72781700Y-68642499D01*
X72781703Y-68642499D01*
X72897142Y-68627303D01*
X72897146Y-68627301D01*
X72897151Y-68627301D01*
X73040798Y-68567800D01*
X73164149Y-68473149D01*
X73258800Y-68349798D01*
X73312973Y-68219013D01*
X76499000Y-68219013D01*
X76499000Y-68269000D01*
X77474000Y-68269000D01*
X77974000Y-68269000D01*
X78948999Y-68269000D01*
X78948999Y-68219028D01*
X78948998Y-68219013D01*
X78938505Y-68116302D01*
X78883358Y-67949880D01*
X78883356Y-67949875D01*
X78791315Y-67800654D01*
X78667345Y-67676684D01*
X78518124Y-67584643D01*
X78518119Y-67584641D01*
X78351697Y-67529494D01*
X78351690Y-67529493D01*
X78248986Y-67519000D01*
X77974000Y-67519000D01*
X77974000Y-68269000D01*
X77474000Y-68269000D01*
X77474000Y-67519000D01*
X77199029Y-67519000D01*
X77199012Y-67519001D01*
X77096302Y-67529494D01*
X76929880Y-67584641D01*
X76929875Y-67584643D01*
X76780654Y-67676684D01*
X76656684Y-67800654D01*
X76564643Y-67949875D01*
X76564641Y-67949880D01*
X76509494Y-68116302D01*
X76509493Y-68116309D01*
X76499000Y-68219013D01*
X73312973Y-68219013D01*
X73318301Y-68206151D01*
X73333500Y-68090701D01*
X73333499Y-67293300D01*
X73333499Y-67293296D01*
X73325305Y-67231047D01*
X73318302Y-67177857D01*
X73318301Y-67177849D01*
X73258800Y-67034202D01*
X73164149Y-66910851D01*
X73040798Y-66816200D01*
X73040794Y-66816198D01*
X72897151Y-66756699D01*
X72897149Y-66756698D01*
X72781702Y-66741500D01*
X72781701Y-66741500D01*
X72033097Y-66741500D01*
X72003656Y-66732855D01*
X71973670Y-66726332D01*
X71968654Y-66722577D01*
X71966058Y-66721815D01*
X71945416Y-66705181D01*
X71819590Y-66579355D01*
X71819588Y-66579352D01*
X71700717Y-66460481D01*
X71700716Y-66460480D01*
X71613904Y-66410360D01*
X71613904Y-66410359D01*
X71613900Y-66410358D01*
X71563785Y-66381423D01*
X71411057Y-66340499D01*
X71252943Y-66340499D01*
X71245347Y-66340499D01*
X71245331Y-66340500D01*
X61709780Y-66340500D01*
X61668859Y-66351464D01*
X61668859Y-66351465D01*
X61631591Y-66361451D01*
X61557054Y-66381423D01*
X61557049Y-66381426D01*
X61420130Y-66460475D01*
X61420122Y-66460481D01*
X57119479Y-70761124D01*
X57094858Y-70803770D01*
X57084451Y-70821797D01*
X57040423Y-70898055D01*
X56999499Y-71050783D01*
X56999499Y-71050785D01*
X56999499Y-71218886D01*
X56999500Y-71218899D01*
X56999500Y-111995330D01*
X56999499Y-111995348D01*
X56999499Y-112161054D01*
X56999498Y-112161054D01*
X57040424Y-112313787D01*
X57054715Y-112338539D01*
X57054716Y-112338541D01*
X57119477Y-112450712D01*
X57119481Y-112450717D01*
X57238349Y-112569585D01*
X57238355Y-112569590D01*
X65642181Y-120973416D01*
X65675666Y-121034739D01*
X65678500Y-121061097D01*
X65678500Y-121285000D01*
X65678501Y-121437500D01*
X65658817Y-121504539D01*
X65606013Y-121550294D01*
X65554501Y-121561500D01*
X64992097Y-121561500D01*
X64925058Y-121541815D01*
X64904416Y-121525181D01*
X62855097Y-119475862D01*
X62821612Y-119414539D01*
X62819420Y-119375577D01*
X62820500Y-119365009D01*
X62820499Y-118764992D01*
X62813909Y-118700484D01*
X62809999Y-118662203D01*
X62809998Y-118662200D01*
X62797718Y-118625142D01*
X62754814Y-118495666D01*
X62662712Y-118346344D01*
X62538656Y-118222288D01*
X62389334Y-118130186D01*
X62222797Y-118075001D01*
X62222795Y-118075000D01*
X62120010Y-118064500D01*
X61069998Y-118064500D01*
X61069980Y-118064501D01*
X60967203Y-118075000D01*
X60967200Y-118075001D01*
X60800668Y-118130185D01*
X60800663Y-118130187D01*
X60651342Y-118222289D01*
X60527289Y-118346342D01*
X60435187Y-118495663D01*
X60435185Y-118495668D01*
X60427601Y-118518556D01*
X60380001Y-118662203D01*
X60380001Y-118662204D01*
X60380000Y-118662204D01*
X60369500Y-118764983D01*
X60369500Y-119365001D01*
X60369501Y-119365019D01*
X60380000Y-119467796D01*
X60380001Y-119467799D01*
X60435185Y-119634331D01*
X60435187Y-119634336D01*
X60440235Y-119642520D01*
X60527288Y-119783656D01*
X60651344Y-119907712D01*
X60654628Y-119909737D01*
X60654653Y-119909753D01*
X60656445Y-119911746D01*
X60657011Y-119912193D01*
X60656934Y-119912289D01*
X60701379Y-119961699D01*
X60712603Y-120030661D01*
X60684761Y-120094744D01*
X60654665Y-120120826D01*
X60651660Y-120122679D01*
X60651655Y-120122683D01*
X60527684Y-120246654D01*
X60435643Y-120395875D01*
X60435641Y-120395880D01*
X60380494Y-120562302D01*
X60380493Y-120562309D01*
X60370000Y-120665013D01*
X60370000Y-120715000D01*
X61471000Y-120715000D01*
X61538039Y-120734685D01*
X61583794Y-120787489D01*
X61595000Y-120839000D01*
X61595000Y-120965000D01*
X61721000Y-120965000D01*
X61788039Y-120984685D01*
X61833794Y-121037489D01*
X61845000Y-121089000D01*
X61845000Y-121964999D01*
X62119972Y-121964999D01*
X62119986Y-121964998D01*
X62222697Y-121954505D01*
X62389119Y-121899358D01*
X62389124Y-121899356D01*
X62538345Y-121807315D01*
X62662315Y-121683345D01*
X62754356Y-121534124D01*
X62754358Y-121534119D01*
X62805745Y-121379044D01*
X62845517Y-121321599D01*
X62910033Y-121294776D01*
X62978809Y-121307091D01*
X63011132Y-121330367D01*
X64207139Y-122526374D01*
X64207149Y-122526385D01*
X64211479Y-122530715D01*
X64211480Y-122530716D01*
X64323284Y-122642520D01*
X64323286Y-122642521D01*
X64323290Y-122642524D01*
X64432877Y-122705793D01*
X64460216Y-122721577D01*
X64572019Y-122751534D01*
X64612942Y-122762500D01*
X64612943Y-122762500D01*
X67255500Y-122762500D01*
X67322539Y-122782185D01*
X67368294Y-122834989D01*
X67379500Y-122886500D01*
X67379500Y-137591280D01*
X67359815Y-137658319D01*
X67307011Y-137704074D01*
X67237853Y-137714018D01*
X67182616Y-137691599D01*
X67152818Y-137669950D01*
X66963414Y-137573444D01*
X66963413Y-137573443D01*
X66963412Y-137573443D01*
X66761243Y-137507754D01*
X66761241Y-137507753D01*
X66761240Y-137507753D01*
X66599957Y-137482208D01*
X66551287Y-137474500D01*
X66338713Y-137474500D01*
X66290042Y-137482208D01*
X66128760Y-137507753D01*
X65926585Y-137573444D01*
X65737179Y-137669951D01*
X65565213Y-137794890D01*
X65414890Y-137945213D01*
X65289951Y-138117179D01*
X65193444Y-138306585D01*
X65127753Y-138508760D01*
X65094500Y-138718713D01*
X65094500Y-138931286D01*
X65127753Y-139141239D01*
X65193444Y-139343414D01*
X65289951Y-139532820D01*
X65414890Y-139704786D01*
X65565213Y-139855109D01*
X65737179Y-139980048D01*
X65737181Y-139980049D01*
X65737184Y-139980051D01*
X65926588Y-140076557D01*
X66128757Y-140142246D01*
X66338713Y-140175500D01*
X66338714Y-140175500D01*
X66551286Y-140175500D01*
X66551287Y-140175500D01*
X66761243Y-140142246D01*
X66803523Y-140128507D01*
X66873362Y-140126511D01*
X66929522Y-140158757D01*
X69735139Y-142964374D01*
X69735149Y-142964385D01*
X69739479Y-142968715D01*
X69739480Y-142968716D01*
X69851284Y-143080520D01*
X69938095Y-143130639D01*
X69938098Y-143130641D01*
X69987413Y-143159114D01*
X70035627Y-143209682D01*
X70048849Y-143278289D01*
X70022880Y-143343153D01*
X69965966Y-143383681D01*
X69925411Y-143390500D01*
X40502500Y-143390500D01*
X40435461Y-143370815D01*
X40389706Y-143318011D01*
X40378500Y-143266500D01*
X40378500Y-125594135D01*
X43480500Y-125594135D01*
X43480500Y-127389870D01*
X43480501Y-127389876D01*
X43486908Y-127449483D01*
X43537202Y-127584328D01*
X43537206Y-127584335D01*
X43623452Y-127699544D01*
X43623455Y-127699547D01*
X43738664Y-127785793D01*
X43738671Y-127785797D01*
X43870082Y-127834810D01*
X43926016Y-127876681D01*
X43950433Y-127942145D01*
X43935582Y-128010418D01*
X43914431Y-128038673D01*
X43800889Y-128152215D01*
X43675951Y-128324179D01*
X43579444Y-128513585D01*
X43513753Y-128715760D01*
X43480500Y-128925713D01*
X43480500Y-129138286D01*
X43513753Y-129348239D01*
X43579444Y-129550414D01*
X43675951Y-129739820D01*
X43800890Y-129911786D01*
X43951213Y-130062109D01*
X44123182Y-130187050D01*
X44131946Y-130191516D01*
X44182742Y-130239491D01*
X44199536Y-130307312D01*
X44176998Y-130373447D01*
X44131946Y-130412484D01*
X44123182Y-130416949D01*
X43951213Y-130541890D01*
X43800890Y-130692213D01*
X43675951Y-130864179D01*
X43579444Y-131053585D01*
X43513753Y-131255760D01*
X43480500Y-131465713D01*
X43480500Y-131678286D01*
X43513753Y-131888239D01*
X43579444Y-132090414D01*
X43675951Y-132279820D01*
X43800890Y-132451786D01*
X43951213Y-132602109D01*
X44123182Y-132727050D01*
X44131946Y-132731516D01*
X44182742Y-132779491D01*
X44199536Y-132847312D01*
X44176998Y-132913447D01*
X44131946Y-132952484D01*
X44123182Y-132956949D01*
X43951213Y-133081890D01*
X43800890Y-133232213D01*
X43675951Y-133404179D01*
X43579444Y-133593585D01*
X43513753Y-133795760D01*
X43480500Y-134005713D01*
X43480500Y-134218287D01*
X43513754Y-134428243D01*
X43568431Y-134596522D01*
X43579444Y-134630414D01*
X43675951Y-134819820D01*
X43800890Y-134991786D01*
X43951213Y-135142109D01*
X44123182Y-135267050D01*
X44131946Y-135271516D01*
X44182742Y-135319491D01*
X44199536Y-135387312D01*
X44176998Y-135453447D01*
X44131946Y-135492484D01*
X44123182Y-135496949D01*
X43951213Y-135621890D01*
X43800890Y-135772213D01*
X43675951Y-135944179D01*
X43579444Y-136133585D01*
X43513753Y-136335760D01*
X43480500Y-136545713D01*
X43480500Y-136758286D01*
X43513753Y-136968239D01*
X43579444Y-137170414D01*
X43675951Y-137359820D01*
X43800890Y-137531786D01*
X43951213Y-137682109D01*
X44123182Y-137807050D01*
X44131946Y-137811516D01*
X44182742Y-137859491D01*
X44199536Y-137927312D01*
X44176998Y-137993447D01*
X44131946Y-138032484D01*
X44123182Y-138036949D01*
X43951213Y-138161890D01*
X43800890Y-138312213D01*
X43675951Y-138484179D01*
X43579444Y-138673585D01*
X43513753Y-138875760D01*
X43491226Y-139017993D01*
X43480500Y-139085713D01*
X43480500Y-139298287D01*
X43513754Y-139508243D01*
X43521738Y-139532816D01*
X43579444Y-139710414D01*
X43675951Y-139899820D01*
X43800890Y-140071786D01*
X43951213Y-140222109D01*
X44123179Y-140347048D01*
X44123181Y-140347049D01*
X44123184Y-140347051D01*
X44312588Y-140443557D01*
X44514757Y-140509246D01*
X44724713Y-140542500D01*
X44724714Y-140542500D01*
X44937286Y-140542500D01*
X44937287Y-140542500D01*
X45147243Y-140509246D01*
X45349412Y-140443557D01*
X45538816Y-140347051D01*
X45567986Y-140325858D01*
X45710786Y-140222109D01*
X45710788Y-140222106D01*
X45710792Y-140222104D01*
X45861104Y-140071792D01*
X45861106Y-140071788D01*
X45861109Y-140071786D01*
X45986048Y-139899820D01*
X45986047Y-139899820D01*
X45986051Y-139899816D01*
X46082557Y-139710412D01*
X46148246Y-139508243D01*
X46181500Y-139298287D01*
X46181500Y-139085713D01*
X46148246Y-138875757D01*
X46082557Y-138673588D01*
X45986051Y-138484184D01*
X45986049Y-138484181D01*
X45986048Y-138484179D01*
X45861109Y-138312213D01*
X45710786Y-138161890D01*
X45538820Y-138036951D01*
X45538115Y-138036591D01*
X45530054Y-138032485D01*
X45479259Y-137984512D01*
X45462463Y-137916692D01*
X45484999Y-137850556D01*
X45530054Y-137811515D01*
X45538816Y-137807051D01*
X45560789Y-137791086D01*
X45710786Y-137682109D01*
X45710788Y-137682106D01*
X45710792Y-137682104D01*
X45861104Y-137531792D01*
X45861106Y-137531788D01*
X45861109Y-137531786D01*
X45986048Y-137359820D01*
X45986047Y-137359820D01*
X45986051Y-137359816D01*
X46082557Y-137170412D01*
X46148246Y-136968243D01*
X46181500Y-136758287D01*
X46181500Y-136545713D01*
X46148246Y-136335757D01*
X46082557Y-136133588D01*
X45986051Y-135944184D01*
X45986049Y-135944181D01*
X45986048Y-135944179D01*
X45861109Y-135772213D01*
X45710786Y-135621890D01*
X45538820Y-135496951D01*
X45538115Y-135496591D01*
X45530054Y-135492485D01*
X45479259Y-135444512D01*
X45462463Y-135376692D01*
X45484999Y-135310556D01*
X45530054Y-135271515D01*
X45538816Y-135267051D01*
X45560789Y-135251086D01*
X45710786Y-135142109D01*
X45710788Y-135142106D01*
X45710792Y-135142104D01*
X45861104Y-134991792D01*
X45861106Y-134991788D01*
X45861109Y-134991786D01*
X45986048Y-134819820D01*
X45986047Y-134819820D01*
X45986051Y-134819816D01*
X46082557Y-134630412D01*
X46148246Y-134428243D01*
X46181500Y-134218287D01*
X46181500Y-134005713D01*
X46148246Y-133795757D01*
X46082557Y-133593588D01*
X45986051Y-133404184D01*
X45986049Y-133404181D01*
X45986048Y-133404179D01*
X45861109Y-133232213D01*
X45710786Y-133081890D01*
X45538820Y-132956951D01*
X45538115Y-132956591D01*
X45530054Y-132952485D01*
X45479259Y-132904512D01*
X45462463Y-132836692D01*
X45484999Y-132770556D01*
X45530054Y-132731515D01*
X45538816Y-132727051D01*
X45560789Y-132711086D01*
X45710786Y-132602109D01*
X45710788Y-132602106D01*
X45710792Y-132602104D01*
X45861104Y-132451792D01*
X45861106Y-132451788D01*
X45861109Y-132451786D01*
X45986048Y-132279820D01*
X45986047Y-132279820D01*
X45986051Y-132279816D01*
X46082557Y-132090412D01*
X46148246Y-131888243D01*
X46181500Y-131678287D01*
X46181500Y-131465713D01*
X46148246Y-131255757D01*
X46082557Y-131053588D01*
X45986051Y-130864184D01*
X45986049Y-130864181D01*
X45986048Y-130864179D01*
X45861109Y-130692213D01*
X45710786Y-130541890D01*
X45538820Y-130416951D01*
X45538115Y-130416591D01*
X45530054Y-130412485D01*
X45479259Y-130364512D01*
X45462463Y-130296692D01*
X45484999Y-130230556D01*
X45530054Y-130191515D01*
X45538816Y-130187051D01*
X45560789Y-130171086D01*
X45710786Y-130062109D01*
X45710788Y-130062106D01*
X45710792Y-130062104D01*
X45861104Y-129911792D01*
X45861106Y-129911788D01*
X45861109Y-129911786D01*
X45986048Y-129739820D01*
X45986047Y-129739820D01*
X45986051Y-129739816D01*
X46082557Y-129550412D01*
X46148246Y-129348243D01*
X46181500Y-129138287D01*
X46181500Y-128925713D01*
X46148246Y-128715757D01*
X46082557Y-128513588D01*
X45986051Y-128324184D01*
X45986049Y-128324181D01*
X45986048Y-128324179D01*
X45861109Y-128152213D01*
X45747569Y-128038673D01*
X45714084Y-127977350D01*
X45719068Y-127907658D01*
X45760940Y-127851725D01*
X45791915Y-127834810D01*
X45923331Y-127785796D01*
X46038546Y-127699546D01*
X46124796Y-127584331D01*
X46175091Y-127449483D01*
X46181500Y-127389873D01*
X46181499Y-125594128D01*
X46175091Y-125534517D01*
X46167062Y-125512991D01*
X46124797Y-125399671D01*
X46124793Y-125399664D01*
X46038547Y-125284455D01*
X46038544Y-125284452D01*
X45923335Y-125198206D01*
X45923328Y-125198202D01*
X45788482Y-125147908D01*
X45788483Y-125147908D01*
X45728883Y-125141501D01*
X45728881Y-125141500D01*
X45728873Y-125141500D01*
X45728864Y-125141500D01*
X43933129Y-125141500D01*
X43933123Y-125141501D01*
X43873516Y-125147908D01*
X43738671Y-125198202D01*
X43738664Y-125198206D01*
X43623455Y-125284452D01*
X43623452Y-125284455D01*
X43537206Y-125399664D01*
X43537202Y-125399671D01*
X43486908Y-125534517D01*
X43480501Y-125594116D01*
X43480501Y-125594123D01*
X43480500Y-125594135D01*
X40378500Y-125594135D01*
X40378500Y-103722135D01*
X43480500Y-103722135D01*
X43480500Y-105517870D01*
X43480501Y-105517876D01*
X43486908Y-105577483D01*
X43537202Y-105712328D01*
X43537206Y-105712335D01*
X43623452Y-105827544D01*
X43623455Y-105827547D01*
X43738664Y-105913793D01*
X43738671Y-105913797D01*
X43870082Y-105962810D01*
X43926016Y-106004681D01*
X43950433Y-106070145D01*
X43935582Y-106138418D01*
X43914431Y-106166673D01*
X43800889Y-106280215D01*
X43675951Y-106452179D01*
X43579444Y-106641585D01*
X43513753Y-106843760D01*
X43480500Y-107053713D01*
X43480500Y-107266286D01*
X43508277Y-107441666D01*
X43513754Y-107476243D01*
X43569947Y-107649187D01*
X43579444Y-107678414D01*
X43675951Y-107867820D01*
X43800890Y-108039786D01*
X43951213Y-108190109D01*
X44123182Y-108315050D01*
X44131946Y-108319516D01*
X44182742Y-108367491D01*
X44199536Y-108435312D01*
X44176998Y-108501447D01*
X44131946Y-108540484D01*
X44123182Y-108544949D01*
X43951213Y-108669890D01*
X43800890Y-108820213D01*
X43675951Y-108992179D01*
X43579444Y-109181585D01*
X43579443Y-109181587D01*
X43579443Y-109181588D01*
X43546598Y-109282672D01*
X43513753Y-109383760D01*
X43489878Y-109534500D01*
X43480500Y-109593713D01*
X43480500Y-109806287D01*
X43513754Y-110016243D01*
X43515377Y-110021239D01*
X43579444Y-110218414D01*
X43675951Y-110407820D01*
X43800890Y-110579786D01*
X43951213Y-110730109D01*
X44123182Y-110855050D01*
X44131946Y-110859516D01*
X44182742Y-110907491D01*
X44199536Y-110975312D01*
X44176998Y-111041447D01*
X44131946Y-111080484D01*
X44123182Y-111084949D01*
X43951213Y-111209890D01*
X43800890Y-111360213D01*
X43675951Y-111532179D01*
X43579444Y-111721585D01*
X43513753Y-111923760D01*
X43501212Y-112002943D01*
X43480500Y-112133713D01*
X43480500Y-112346287D01*
X43513754Y-112556243D01*
X43515377Y-112561239D01*
X43579444Y-112758414D01*
X43675951Y-112947820D01*
X43800890Y-113119786D01*
X43951213Y-113270109D01*
X44123182Y-113395050D01*
X44131946Y-113399516D01*
X44182742Y-113447491D01*
X44199536Y-113515312D01*
X44176998Y-113581447D01*
X44131946Y-113620484D01*
X44123182Y-113624949D01*
X43951213Y-113749890D01*
X43800890Y-113900213D01*
X43675951Y-114072179D01*
X43579444Y-114261585D01*
X43513753Y-114463760D01*
X43480500Y-114673713D01*
X43480500Y-114886287D01*
X43513754Y-115096243D01*
X43551009Y-115210903D01*
X43579444Y-115298414D01*
X43675951Y-115487820D01*
X43800890Y-115659786D01*
X43951213Y-115810109D01*
X44123182Y-115935050D01*
X44131946Y-115939516D01*
X44182742Y-115987491D01*
X44199536Y-116055312D01*
X44176998Y-116121447D01*
X44131946Y-116160484D01*
X44123182Y-116164949D01*
X43951213Y-116289890D01*
X43800890Y-116440213D01*
X43675951Y-116612179D01*
X43579444Y-116801585D01*
X43513753Y-117003760D01*
X43486521Y-117175697D01*
X43480500Y-117213713D01*
X43480500Y-117426287D01*
X43484764Y-117453206D01*
X43512682Y-117629480D01*
X43513754Y-117636243D01*
X43545757Y-117734739D01*
X43579444Y-117838414D01*
X43675951Y-118027820D01*
X43800890Y-118199786D01*
X43951213Y-118350109D01*
X44123182Y-118475050D01*
X44131946Y-118479516D01*
X44182742Y-118527491D01*
X44199536Y-118595312D01*
X44176998Y-118661447D01*
X44131946Y-118700484D01*
X44123182Y-118704949D01*
X43951213Y-118829890D01*
X43800890Y-118980213D01*
X43675951Y-119152179D01*
X43579444Y-119341585D01*
X43579443Y-119341587D01*
X43579443Y-119341588D01*
X43568400Y-119375574D01*
X43513753Y-119543760D01*
X43480500Y-119753713D01*
X43480500Y-119966286D01*
X43495580Y-120061501D01*
X43513754Y-120176243D01*
X43560253Y-120319353D01*
X43579444Y-120378414D01*
X43675951Y-120567820D01*
X43800890Y-120739786D01*
X43951213Y-120890109D01*
X44123182Y-121015050D01*
X44131946Y-121019516D01*
X44182742Y-121067491D01*
X44199536Y-121135312D01*
X44176998Y-121201447D01*
X44131946Y-121240484D01*
X44123182Y-121244949D01*
X43951213Y-121369890D01*
X43800890Y-121520213D01*
X43675951Y-121692179D01*
X43579444Y-121881585D01*
X43513753Y-122083760D01*
X43503612Y-122147789D01*
X43480500Y-122293713D01*
X43480500Y-122506287D01*
X43483683Y-122526385D01*
X43512099Y-122705797D01*
X43513754Y-122716243D01*
X43545192Y-122813000D01*
X43579444Y-122918414D01*
X43675951Y-123107820D01*
X43800890Y-123279786D01*
X43951213Y-123430109D01*
X44123179Y-123555048D01*
X44123181Y-123555049D01*
X44123184Y-123555051D01*
X44312588Y-123651557D01*
X44514757Y-123717246D01*
X44724713Y-123750500D01*
X44724714Y-123750500D01*
X44937286Y-123750500D01*
X44937287Y-123750500D01*
X45147243Y-123717246D01*
X45349412Y-123651557D01*
X45538816Y-123555051D01*
X45560789Y-123539086D01*
X45710786Y-123430109D01*
X45710788Y-123430106D01*
X45710792Y-123430104D01*
X45861104Y-123279792D01*
X45861106Y-123279788D01*
X45861109Y-123279786D01*
X45986048Y-123107820D01*
X45986047Y-123107820D01*
X45986051Y-123107816D01*
X46082557Y-122918412D01*
X46148246Y-122716243D01*
X46181500Y-122506287D01*
X46181500Y-122293713D01*
X46148246Y-122083757D01*
X46082557Y-121881588D01*
X45986051Y-121692184D01*
X45986049Y-121692181D01*
X45986048Y-121692179D01*
X45861109Y-121520213D01*
X45710786Y-121369890D01*
X45567479Y-121265773D01*
X45567468Y-121265766D01*
X45566394Y-121264986D01*
X60370001Y-121264986D01*
X60380494Y-121367697D01*
X60435641Y-121534119D01*
X60435643Y-121534124D01*
X60527684Y-121683345D01*
X60651654Y-121807315D01*
X60800875Y-121899356D01*
X60800880Y-121899358D01*
X60967302Y-121954505D01*
X60967309Y-121954506D01*
X61070019Y-121964999D01*
X61344999Y-121964999D01*
X61345000Y-121964998D01*
X61345000Y-121215000D01*
X60370001Y-121215000D01*
X60370001Y-121264986D01*
X45566394Y-121264986D01*
X45538816Y-121244949D01*
X45524125Y-121237464D01*
X45518553Y-121233825D01*
X45500016Y-121212115D01*
X45479259Y-121192512D01*
X45477617Y-121185883D01*
X45473183Y-121180690D01*
X45469325Y-121152403D01*
X45462463Y-121124692D01*
X45464665Y-121118227D01*
X45463743Y-121111461D01*
X45475790Y-121085580D01*
X45484999Y-121058556D01*
X45490649Y-121053660D01*
X45493229Y-121048118D01*
X45507355Y-121039184D01*
X45530054Y-121019515D01*
X45538816Y-121015051D01*
X45607706Y-120965000D01*
X45710786Y-120890109D01*
X45710788Y-120890106D01*
X45710792Y-120890104D01*
X45861104Y-120739792D01*
X45861106Y-120739788D01*
X45861109Y-120739786D01*
X45986048Y-120567820D01*
X45986047Y-120567820D01*
X45986051Y-120567816D01*
X46082557Y-120378412D01*
X46148246Y-120176243D01*
X46181500Y-119966287D01*
X46181500Y-119753713D01*
X46148246Y-119543757D01*
X46082557Y-119341588D01*
X45986051Y-119152184D01*
X45986049Y-119152181D01*
X45986048Y-119152179D01*
X45861109Y-118980213D01*
X45710786Y-118829890D01*
X45538820Y-118704951D01*
X45538115Y-118704591D01*
X45530054Y-118700485D01*
X45479259Y-118652512D01*
X45462463Y-118584692D01*
X45484999Y-118518556D01*
X45530054Y-118479515D01*
X45538816Y-118475051D01*
X45590501Y-118437500D01*
X45710786Y-118350109D01*
X45710788Y-118350106D01*
X45710792Y-118350104D01*
X45861104Y-118199792D01*
X45861106Y-118199788D01*
X45861109Y-118199786D01*
X45986048Y-118027820D01*
X45986047Y-118027820D01*
X45986051Y-118027816D01*
X46082557Y-117838412D01*
X46148246Y-117636243D01*
X46181500Y-117426287D01*
X46181500Y-117213713D01*
X46148246Y-117003757D01*
X46082557Y-116801588D01*
X45986051Y-116612184D01*
X45986049Y-116612181D01*
X45986048Y-116612179D01*
X45861109Y-116440213D01*
X45710786Y-116289890D01*
X45538820Y-116164951D01*
X45538115Y-116164591D01*
X45530054Y-116160485D01*
X45479259Y-116112512D01*
X45462463Y-116044692D01*
X45484999Y-115978556D01*
X45530054Y-115939515D01*
X45538816Y-115935051D01*
X45560789Y-115919086D01*
X45710786Y-115810109D01*
X45710788Y-115810106D01*
X45710792Y-115810104D01*
X45861104Y-115659792D01*
X45861106Y-115659788D01*
X45861109Y-115659786D01*
X45986048Y-115487820D01*
X45986047Y-115487820D01*
X45986051Y-115487816D01*
X46082557Y-115298412D01*
X46148246Y-115096243D01*
X46181500Y-114886287D01*
X46181500Y-114673713D01*
X46148246Y-114463757D01*
X46082557Y-114261588D01*
X45986051Y-114072184D01*
X45986049Y-114072181D01*
X45986048Y-114072179D01*
X45861109Y-113900213D01*
X45710786Y-113749890D01*
X45538820Y-113624951D01*
X45538115Y-113624591D01*
X45530054Y-113620485D01*
X45479259Y-113572512D01*
X45462463Y-113504692D01*
X45484999Y-113438556D01*
X45530054Y-113399515D01*
X45538816Y-113395051D01*
X45560789Y-113379086D01*
X45710786Y-113270109D01*
X45710788Y-113270106D01*
X45710792Y-113270104D01*
X45861104Y-113119792D01*
X45861106Y-113119788D01*
X45861109Y-113119786D01*
X45986048Y-112947820D01*
X45986047Y-112947820D01*
X45986051Y-112947816D01*
X46082557Y-112758412D01*
X46148246Y-112556243D01*
X46181500Y-112346287D01*
X46181500Y-112133713D01*
X46148246Y-111923757D01*
X46082557Y-111721588D01*
X45986051Y-111532184D01*
X45986049Y-111532181D01*
X45986048Y-111532179D01*
X45861109Y-111360213D01*
X45710786Y-111209890D01*
X45538820Y-111084951D01*
X45538115Y-111084591D01*
X45530054Y-111080485D01*
X45479259Y-111032512D01*
X45462463Y-110964692D01*
X45484999Y-110898556D01*
X45530054Y-110859515D01*
X45538816Y-110855051D01*
X45560789Y-110839086D01*
X45710786Y-110730109D01*
X45710788Y-110730106D01*
X45710792Y-110730104D01*
X45861104Y-110579792D01*
X45861106Y-110579788D01*
X45861109Y-110579786D01*
X45986048Y-110407820D01*
X45986047Y-110407820D01*
X45986051Y-110407816D01*
X46082557Y-110218412D01*
X46148246Y-110016243D01*
X46181500Y-109806287D01*
X46181500Y-109593713D01*
X46148246Y-109383757D01*
X46082557Y-109181588D01*
X45986051Y-108992184D01*
X45986049Y-108992181D01*
X45986048Y-108992179D01*
X45861109Y-108820213D01*
X45710786Y-108669890D01*
X45538820Y-108544951D01*
X45538115Y-108544591D01*
X45530054Y-108540485D01*
X45479259Y-108492512D01*
X45462463Y-108424692D01*
X45484999Y-108358556D01*
X45530054Y-108319515D01*
X45538816Y-108315051D01*
X45560789Y-108299086D01*
X45710786Y-108190109D01*
X45710788Y-108190106D01*
X45710792Y-108190104D01*
X45861104Y-108039792D01*
X45861106Y-108039788D01*
X45861109Y-108039786D01*
X45986048Y-107867820D01*
X45986047Y-107867820D01*
X45986051Y-107867816D01*
X46082557Y-107678412D01*
X46148246Y-107476243D01*
X46181500Y-107266287D01*
X46181500Y-107053713D01*
X46148246Y-106843757D01*
X46082557Y-106641588D01*
X45986051Y-106452184D01*
X45986049Y-106452181D01*
X45986048Y-106452179D01*
X45861109Y-106280213D01*
X45747569Y-106166673D01*
X45714084Y-106105350D01*
X45719068Y-106035658D01*
X45760940Y-105979725D01*
X45791915Y-105962810D01*
X45923331Y-105913796D01*
X46038546Y-105827546D01*
X46124796Y-105712331D01*
X46175091Y-105577483D01*
X46181500Y-105517873D01*
X46181499Y-103722128D01*
X46175091Y-103662517D01*
X46124796Y-103527669D01*
X46124795Y-103527668D01*
X46124793Y-103527664D01*
X46038547Y-103412455D01*
X46038544Y-103412452D01*
X45923335Y-103326206D01*
X45923328Y-103326202D01*
X45788482Y-103275908D01*
X45788483Y-103275908D01*
X45728883Y-103269501D01*
X45728881Y-103269500D01*
X45728873Y-103269500D01*
X45728864Y-103269500D01*
X43933129Y-103269500D01*
X43933123Y-103269501D01*
X43873516Y-103275908D01*
X43738671Y-103326202D01*
X43738664Y-103326206D01*
X43623455Y-103412452D01*
X43623452Y-103412455D01*
X43537206Y-103527664D01*
X43537202Y-103527671D01*
X43486908Y-103662517D01*
X43480501Y-103722116D01*
X43480501Y-103722123D01*
X43480500Y-103722135D01*
X40378500Y-103722135D01*
X40378500Y-78951810D01*
X41333010Y-78951810D01*
X43879795Y-78951810D01*
X43879795Y-64230762D01*
X41333010Y-64230762D01*
X41333010Y-78951810D01*
X40378500Y-78951810D01*
X40378500Y-62808000D01*
X40398185Y-62740961D01*
X40450989Y-62695206D01*
X40502500Y-62684000D01*
X97292500Y-62684000D01*
X97359539Y-62703685D01*
G37*
%TD.AperFunction*%
%TA.AperFunction,Conductor*%
G36*
X59887834Y-69793755D02*
G01*
X59943767Y-69835627D01*
X59968184Y-69901091D01*
X59968500Y-69909937D01*
X59968500Y-79471330D01*
X59968499Y-79471348D01*
X59968499Y-79637054D01*
X59968498Y-79637054D01*
X60009423Y-79789787D01*
X60018175Y-79804944D01*
X60018174Y-79804944D01*
X60018176Y-79804946D01*
X60088475Y-79926709D01*
X60088481Y-79926717D01*
X60207349Y-80045585D01*
X60207355Y-80045590D01*
X60334902Y-80173137D01*
X60368387Y-80234460D01*
X60370580Y-80273414D01*
X60369500Y-80283986D01*
X60369500Y-80884001D01*
X60369501Y-80884019D01*
X60380000Y-80986796D01*
X60380001Y-80986799D01*
X60390083Y-81017223D01*
X60435186Y-81153334D01*
X60527288Y-81302656D01*
X60651344Y-81426712D01*
X60654628Y-81428737D01*
X60654653Y-81428753D01*
X60656445Y-81430746D01*
X60657011Y-81431193D01*
X60656934Y-81431289D01*
X60701379Y-81480699D01*
X60712603Y-81549661D01*
X60684761Y-81613744D01*
X60654665Y-81639826D01*
X60651660Y-81641679D01*
X60651655Y-81641683D01*
X60527684Y-81765654D01*
X60435643Y-81914875D01*
X60435641Y-81914880D01*
X60380494Y-82081302D01*
X60380493Y-82081309D01*
X60370000Y-82184013D01*
X60370000Y-82234000D01*
X61471000Y-82234000D01*
X61538039Y-82253685D01*
X61583794Y-82306489D01*
X61595000Y-82358000D01*
X61595000Y-82484000D01*
X61721000Y-82484000D01*
X61788039Y-82503685D01*
X61833794Y-82556489D01*
X61845000Y-82608000D01*
X61845000Y-83483999D01*
X62119972Y-83483999D01*
X62119986Y-83483998D01*
X62222697Y-83473505D01*
X62389119Y-83418358D01*
X62389124Y-83418356D01*
X62538345Y-83326315D01*
X62662315Y-83202345D01*
X62754356Y-83053124D01*
X62754358Y-83053119D01*
X62805745Y-82898044D01*
X62845517Y-82840599D01*
X62910033Y-82813776D01*
X62978809Y-82826091D01*
X63011132Y-82849367D01*
X66509181Y-86347416D01*
X66542666Y-86408739D01*
X66545500Y-86435097D01*
X66545500Y-91638827D01*
X66525815Y-91705866D01*
X66473011Y-91751621D01*
X66437684Y-91761766D01*
X66331857Y-91775697D01*
X66331848Y-91775699D01*
X66188205Y-91835198D01*
X66064851Y-91929851D01*
X65970198Y-92053205D01*
X65910699Y-92196848D01*
X65910698Y-92196850D01*
X65895500Y-92312296D01*
X65895500Y-92312299D01*
X65895500Y-92603187D01*
X65895501Y-92813500D01*
X65875817Y-92880539D01*
X65823013Y-92926294D01*
X65771501Y-92937500D01*
X62804798Y-92937500D01*
X62737759Y-92917815D01*
X62699259Y-92878597D01*
X62662712Y-92819344D01*
X62538656Y-92695288D01*
X62389334Y-92603186D01*
X62222797Y-92548001D01*
X62222795Y-92548000D01*
X62120010Y-92537500D01*
X61069998Y-92537500D01*
X61069980Y-92537501D01*
X60967203Y-92548000D01*
X60967200Y-92548001D01*
X60800668Y-92603185D01*
X60800663Y-92603187D01*
X60651342Y-92695289D01*
X60527289Y-92819342D01*
X60435187Y-92968663D01*
X60435186Y-92968666D01*
X60380001Y-93135203D01*
X60380001Y-93135204D01*
X60380000Y-93135204D01*
X60369500Y-93237983D01*
X60369500Y-93838001D01*
X60369501Y-93838019D01*
X60380000Y-93940796D01*
X60380001Y-93940799D01*
X60416092Y-94049712D01*
X60435186Y-94107334D01*
X60527288Y-94256656D01*
X60651344Y-94380712D01*
X60654628Y-94382737D01*
X60654653Y-94382753D01*
X60656445Y-94384746D01*
X60657011Y-94385193D01*
X60656934Y-94385289D01*
X60701379Y-94434699D01*
X60712603Y-94503661D01*
X60684761Y-94567744D01*
X60654665Y-94593826D01*
X60651660Y-94595679D01*
X60651655Y-94595683D01*
X60527684Y-94719654D01*
X60435643Y-94868875D01*
X60435641Y-94868880D01*
X60380494Y-95035302D01*
X60380493Y-95035309D01*
X60370000Y-95138013D01*
X60370000Y-95188000D01*
X61471000Y-95188000D01*
X61538039Y-95207685D01*
X61583794Y-95260489D01*
X61595000Y-95312000D01*
X61595000Y-95438000D01*
X61721000Y-95438000D01*
X61788039Y-95457685D01*
X61833794Y-95510489D01*
X61845000Y-95562000D01*
X61845000Y-96437999D01*
X62119972Y-96437999D01*
X62119986Y-96437998D01*
X62222697Y-96427505D01*
X62389119Y-96372358D01*
X62389124Y-96372356D01*
X62538345Y-96280315D01*
X62662315Y-96156345D01*
X62754356Y-96007124D01*
X62754358Y-96007119D01*
X62805745Y-95852044D01*
X62845517Y-95794599D01*
X62910033Y-95767776D01*
X62978809Y-95780091D01*
X63011132Y-95803367D01*
X66419181Y-99211416D01*
X66452666Y-99272739D01*
X66455500Y-99299097D01*
X66455500Y-104211827D01*
X66435815Y-104278866D01*
X66383011Y-104324621D01*
X66347684Y-104334766D01*
X66241857Y-104348697D01*
X66241848Y-104348699D01*
X66098205Y-104408198D01*
X65974851Y-104502851D01*
X65880198Y-104626205D01*
X65820699Y-104769848D01*
X65820698Y-104769850D01*
X65805500Y-104885298D01*
X65805500Y-105633901D01*
X65785815Y-105700940D01*
X65769181Y-105721582D01*
X64116584Y-107374181D01*
X64055261Y-107407666D01*
X64028903Y-107410500D01*
X62804798Y-107410500D01*
X62737759Y-107390815D01*
X62699259Y-107351597D01*
X62662712Y-107292344D01*
X62538656Y-107168288D01*
X62535342Y-107166243D01*
X62533546Y-107164248D01*
X62532989Y-107163807D01*
X62533064Y-107163711D01*
X62488618Y-107114297D01*
X62477397Y-107045334D01*
X62505240Y-106981252D01*
X62535348Y-106955165D01*
X62538342Y-106953318D01*
X62662315Y-106829345D01*
X62754356Y-106680124D01*
X62754358Y-106680119D01*
X62809505Y-106513697D01*
X62809506Y-106513690D01*
X62819999Y-106410986D01*
X62820000Y-106410973D01*
X62820000Y-106361000D01*
X60370001Y-106361000D01*
X60370001Y-106410986D01*
X60380494Y-106513697D01*
X60435641Y-106680119D01*
X60435643Y-106680124D01*
X60527684Y-106829345D01*
X60651655Y-106953316D01*
X60651659Y-106953319D01*
X60654656Y-106955168D01*
X60656279Y-106956972D01*
X60657323Y-106957798D01*
X60657181Y-106957976D01*
X60701381Y-107007116D01*
X60712602Y-107076079D01*
X60684759Y-107140161D01*
X60654661Y-107166241D01*
X60651349Y-107168283D01*
X60651343Y-107168288D01*
X60527289Y-107292342D01*
X60435187Y-107441663D01*
X60435185Y-107441668D01*
X60423728Y-107476243D01*
X60380001Y-107608203D01*
X60380001Y-107608204D01*
X60380000Y-107608204D01*
X60369500Y-107710983D01*
X60369500Y-108311001D01*
X60369501Y-108311019D01*
X60380000Y-108413796D01*
X60380001Y-108413799D01*
X60423461Y-108544951D01*
X60435186Y-108580334D01*
X60527288Y-108729656D01*
X60651344Y-108853712D01*
X60800666Y-108945814D01*
X60967203Y-109000999D01*
X61069991Y-109011500D01*
X62120008Y-109011499D01*
X62120016Y-109011498D01*
X62120019Y-109011498D01*
X62176302Y-109005748D01*
X62222797Y-109000999D01*
X62389334Y-108945814D01*
X62538656Y-108853712D01*
X62662712Y-108729656D01*
X62699259Y-108670402D01*
X62751207Y-108623679D01*
X62804798Y-108611500D01*
X63604500Y-108611500D01*
X63671539Y-108631185D01*
X63717294Y-108683989D01*
X63728500Y-108735500D01*
X63728500Y-115424330D01*
X63728499Y-115424348D01*
X63728499Y-115590054D01*
X63728498Y-115590054D01*
X63769423Y-115742787D01*
X63769424Y-115742788D01*
X63791198Y-115780501D01*
X63848475Y-115879709D01*
X63848481Y-115879717D01*
X63967349Y-115998585D01*
X63967355Y-115998590D01*
X65642181Y-117673416D01*
X65675666Y-117734739D01*
X65678500Y-117761097D01*
X65678500Y-118509703D01*
X65693696Y-118625142D01*
X65693699Y-118625151D01*
X65751619Y-118764983D01*
X65753200Y-118768798D01*
X65847851Y-118892149D01*
X65971202Y-118986800D01*
X66114849Y-119046301D01*
X66230299Y-119061500D01*
X66978902Y-119061499D01*
X67045941Y-119081183D01*
X67066583Y-119097818D01*
X67343181Y-119374416D01*
X67376666Y-119435739D01*
X67379500Y-119462097D01*
X67379500Y-120336500D01*
X67359815Y-120403539D01*
X67307011Y-120449294D01*
X67255500Y-120460500D01*
X66879097Y-120460500D01*
X66812058Y-120440815D01*
X66791416Y-120424181D01*
X58236819Y-111869584D01*
X58203334Y-111808261D01*
X58200500Y-111781903D01*
X58200500Y-105811013D01*
X60370000Y-105811013D01*
X60370000Y-105861000D01*
X61345000Y-105861000D01*
X61845000Y-105861000D01*
X62819999Y-105861000D01*
X62819999Y-105811028D01*
X62819998Y-105811013D01*
X62809505Y-105708302D01*
X62754358Y-105541880D01*
X62754356Y-105541875D01*
X62662315Y-105392654D01*
X62538345Y-105268684D01*
X62389124Y-105176643D01*
X62389119Y-105176641D01*
X62222697Y-105121494D01*
X62222690Y-105121493D01*
X62119986Y-105111000D01*
X61845000Y-105111000D01*
X61845000Y-105861000D01*
X61345000Y-105861000D01*
X61345000Y-105111000D01*
X61070029Y-105111000D01*
X61070012Y-105111001D01*
X60967302Y-105121494D01*
X60800880Y-105176641D01*
X60800875Y-105176643D01*
X60651654Y-105268684D01*
X60527684Y-105392654D01*
X60435643Y-105541875D01*
X60435641Y-105541880D01*
X60380494Y-105708302D01*
X60380493Y-105708309D01*
X60370000Y-105811013D01*
X58200500Y-105811013D01*
X58200500Y-95737986D01*
X60370001Y-95737986D01*
X60380494Y-95840697D01*
X60435641Y-96007119D01*
X60435643Y-96007124D01*
X60527684Y-96156345D01*
X60651654Y-96280315D01*
X60800875Y-96372356D01*
X60800880Y-96372358D01*
X60967302Y-96427505D01*
X60967309Y-96427506D01*
X61070019Y-96437999D01*
X61344999Y-96437999D01*
X61345000Y-96437998D01*
X61345000Y-95688000D01*
X60370001Y-95688000D01*
X60370001Y-95737986D01*
X58200500Y-95737986D01*
X58200500Y-82783986D01*
X60370001Y-82783986D01*
X60380494Y-82886697D01*
X60435641Y-83053119D01*
X60435643Y-83053124D01*
X60527684Y-83202345D01*
X60651654Y-83326315D01*
X60800875Y-83418356D01*
X60800880Y-83418358D01*
X60967302Y-83473505D01*
X60967309Y-83473506D01*
X61070019Y-83483999D01*
X61344999Y-83483999D01*
X61345000Y-83483998D01*
X61345000Y-82734000D01*
X60370001Y-82734000D01*
X60370001Y-82783986D01*
X58200500Y-82783986D01*
X58200500Y-71429937D01*
X58220185Y-71362898D01*
X58236819Y-71342256D01*
X59756819Y-69822256D01*
X59818142Y-69788771D01*
X59887834Y-69793755D01*
G37*
%TD.AperFunction*%
%TD*%
M02*
