%TF.GenerationSoftware,KiCad,Pcbnew,9.0.7*%
%TF.CreationDate,2026-05-10T18:03:11+02:00*%
%TF.ProjectId,KICAD RECEPTEUR FINAL,4b494341-4420-4524-9543-455054455552,rev?*%
%TF.SameCoordinates,Original*%
%TF.FileFunction,Paste,Top*%
%TF.FilePolarity,Positive*%
%FSLAX46Y46*%
G04 Gerber Fmt 4.6, Leading zero omitted, Abs format (unit mm)*
G04 Created by KiCad (PCBNEW 9.0.7) date 2026-05-10 18:03:11*
%MOMM*%
%LPD*%
G01*
G04 APERTURE LIST*
G04 Aperture macros list*
%AMRoundRect*
0 Rectangle with rounded corners*
0 $1 Rounding radius*
0 $2 $3 $4 $5 $6 $7 $8 $9 X,Y pos of 4 corners*
0 Add a 4 corners polygon primitive as box body*
4,1,4,$2,$3,$4,$5,$6,$7,$8,$9,$2,$3,0*
0 Add four circle primitives for the rounded corners*
1,1,$1+$1,$2,$3*
1,1,$1+$1,$4,$5*
1,1,$1+$1,$6,$7*
1,1,$1+$1,$8,$9*
0 Add four rect primitives between the rounded corners*
20,1,$1+$1,$2,$3,$4,$5,0*
20,1,$1+$1,$4,$5,$6,$7,0*
20,1,$1+$1,$6,$7,$8,$9,0*
20,1,$1+$1,$8,$9,$2,$3,0*%
G04 Aperture macros list end*
%ADD10RoundRect,0.250000X0.475000X-0.250000X0.475000X0.250000X-0.475000X0.250000X-0.475000X-0.250000X0*%
%ADD11RoundRect,0.250000X-0.262500X-0.450000X0.262500X-0.450000X0.262500X0.450000X-0.262500X0.450000X0*%
%ADD12RoundRect,0.090000X-0.660000X-0.360000X0.660000X-0.360000X0.660000X0.360000X-0.660000X0.360000X0*%
%ADD13RoundRect,0.250000X-0.475000X0.250000X-0.475000X-0.250000X0.475000X-0.250000X0.475000X0.250000X0*%
%ADD14RoundRect,0.250000X-0.250000X-0.475000X0.250000X-0.475000X0.250000X0.475000X-0.250000X0.475000X0*%
%ADD15RoundRect,0.250000X-0.450000X0.262500X-0.450000X-0.262500X0.450000X-0.262500X0.450000X0.262500X0*%
G04 APERTURE END LIST*
D10*
%TO.C,C5*%
X61595000Y-108011000D03*
X61595000Y-106111000D03*
%TD*%
D11*
%TO.C,R3*%
X82677000Y-126013000D03*
X84502000Y-126013000D03*
%TD*%
D12*
%TO.C,D1*%
X67183000Y-67692000D03*
X67183000Y-70992000D03*
X72083000Y-70992000D03*
X72083000Y-67692000D03*
%TD*%
D13*
%TO.C,C2*%
X61595000Y-119065000D03*
X61595000Y-120965000D03*
%TD*%
D10*
%TO.C,C9*%
X77724000Y-70419000D03*
X77724000Y-68519000D03*
%TD*%
D13*
%TO.C,C8*%
X61595000Y-80584000D03*
X61595000Y-82484000D03*
%TD*%
%TO.C,C6*%
X77724000Y-80457000D03*
X77724000Y-82357000D03*
%TD*%
%TO.C,C3*%
X61595000Y-68646000D03*
X61595000Y-70546000D03*
%TD*%
D14*
%TO.C,C1*%
X82616000Y-118110000D03*
X84516000Y-118110000D03*
%TD*%
D12*
%TO.C,D2*%
X67183000Y-79884000D03*
X67183000Y-83184000D03*
X72083000Y-83184000D03*
X72083000Y-79884000D03*
%TD*%
%TO.C,D6*%
X67056000Y-105284000D03*
X67056000Y-108584000D03*
X71956000Y-108584000D03*
X71956000Y-105284000D03*
%TD*%
D15*
%TO.C,R1*%
X77597000Y-93194500D03*
X77597000Y-95019500D03*
%TD*%
D13*
%TO.C,C4*%
X61595000Y-93538000D03*
X61595000Y-95438000D03*
%TD*%
D12*
%TO.C,D5*%
X67146000Y-92711000D03*
X67146000Y-96011000D03*
X72046000Y-96011000D03*
X72046000Y-92711000D03*
%TD*%
D11*
%TO.C,R2*%
X82677000Y-123063000D03*
X84502000Y-123063000D03*
%TD*%
D12*
%TO.C,D7*%
X66929000Y-118111000D03*
X66929000Y-121411000D03*
X71829000Y-121411000D03*
X71829000Y-118111000D03*
%TD*%
M02*
