%TF.GenerationSoftware,KiCad,Pcbnew,9.0.7*%
%TF.CreationDate,2026-05-10T18:03:11+02:00*%
%TF.ProjectId,KICAD RECEPTEUR FINAL,4b494341-4420-4524-9543-455054455552,rev?*%
%TF.SameCoordinates,Original*%
%TF.FileFunction,Soldermask,Bot*%
%TF.FilePolarity,Negative*%
%FSLAX46Y46*%
G04 Gerber Fmt 4.6, Leading zero omitted, Abs format (unit mm)*
G04 Created by KiCad (PCBNEW 9.0.7) date 2026-05-10 18:03:11*
%MOMM*%
%LPD*%
G01*
G04 APERTURE LIST*
G04 Aperture macros list*
%AMRoundRect*
0 Rectangle with rounded corners*
0 $1 Rounding radius*
0 $2 $3 $4 $5 $6 $7 $8 $9 X,Y pos of 4 corners*
0 Add a 4 corners polygon primitive as box body*
4,1,4,$2,$3,$4,$5,$6,$7,$8,$9,$2,$3,0*
0 Add four circle primitives for the rounded corners*
1,1,$1+$1,$2,$3*
1,1,$1+$1,$4,$5*
1,1,$1+$1,$6,$7*
1,1,$1+$1,$8,$9*
0 Add four rect primitives between the rounded corners*
20,1,$1+$1,$2,$3,$4,$5,0*
20,1,$1+$1,$4,$5,$6,$7,0*
20,1,$1+$1,$6,$7,$8,$9,0*
20,1,$1+$1,$8,$9,$2,$3,0*%
G04 Aperture macros list end*
%ADD10RoundRect,0.250000X-0.550000X-0.550000X0.550000X-0.550000X0.550000X0.550000X-0.550000X0.550000X0*%
%ADD11C,1.600000*%
%ADD12R,1.700000X1.700000*%
%ADD13C,1.700000*%
G04 APERTURE END LIST*
D10*
%TO.C,U1*%
X84079000Y-67818000D03*
D11*
X84079000Y-70358000D03*
X84079000Y-72898000D03*
X84079000Y-75438000D03*
X84079000Y-77978000D03*
X84079000Y-80518000D03*
X84079000Y-83058000D03*
X91699000Y-83058000D03*
X91699000Y-80518000D03*
X91699000Y-77978000D03*
X91699000Y-75438000D03*
X91699000Y-72898000D03*
X91699000Y-70358000D03*
X91699000Y-67818000D03*
%TD*%
D12*
%TO.C,Capteur_IR1*%
X71525000Y-138825000D03*
D13*
X68985000Y-138825000D03*
X66445000Y-138825000D03*
%TD*%
D12*
%TO.C,J4*%
X93091000Y-121412000D03*
D13*
X93091000Y-123952000D03*
X93091000Y-126492000D03*
X93091000Y-129032000D03*
X93091000Y-131572000D03*
X93091000Y-134112000D03*
X93091000Y-136652000D03*
X93091000Y-139192000D03*
%TD*%
D12*
%TO.C,J2*%
X44831000Y-126492000D03*
D13*
X44831000Y-129032000D03*
X44831000Y-131572000D03*
X44831000Y-134112000D03*
X44831000Y-136652000D03*
X44831000Y-139192000D03*
%TD*%
D12*
%TO.C,J3*%
X93091000Y-94465000D03*
D13*
X93091000Y-97005000D03*
X93091000Y-99545000D03*
X93091000Y-102085000D03*
X93091000Y-104625000D03*
X93091000Y-107165000D03*
X93091000Y-109705000D03*
X93091000Y-112245000D03*
X93091000Y-114785000D03*
X93091000Y-117325000D03*
%TD*%
D12*
%TO.C,J5*%
X44831000Y-104620000D03*
D13*
X44831000Y-107160000D03*
X44831000Y-109700000D03*
X44831000Y-112240000D03*
X44831000Y-114780000D03*
X44831000Y-117320000D03*
X44831000Y-119860000D03*
X44831000Y-122400000D03*
%TD*%
M02*
