%TF.GenerationSoftware,KiCad,Pcbnew,9.0.7*%
%TF.CreationDate,2026-05-10T18:03:11+02:00*%
%TF.ProjectId,KICAD RECEPTEUR FINAL,4b494341-4420-4524-9543-455054455552,rev?*%
%TF.SameCoordinates,Original*%
%TF.FileFunction,Legend,Bot*%
%TF.FilePolarity,Positive*%
%FSLAX46Y46*%
G04 Gerber Fmt 4.6, Leading zero omitted, Abs format (unit mm)*
G04 Created by KiCad (PCBNEW 9.0.7) date 2026-05-10 18:03:11*
%MOMM*%
%LPD*%
G01*
G04 APERTURE LIST*
%ADD10C,0.150000*%
%ADD11C,0.120000*%
G04 APERTURE END LIST*
D10*
X96533333Y-120854819D02*
X96533333Y-121569104D01*
X96533333Y-121569104D02*
X96580952Y-121711961D01*
X96580952Y-121711961D02*
X96676190Y-121807200D01*
X96676190Y-121807200D02*
X96819047Y-121854819D01*
X96819047Y-121854819D02*
X96914285Y-121854819D01*
X95628571Y-121188152D02*
X95628571Y-121854819D01*
X95866666Y-120807200D02*
X96104761Y-121521485D01*
X96104761Y-121521485D02*
X95485714Y-121521485D01*
X45233333Y-141604819D02*
X45233333Y-142319104D01*
X45233333Y-142319104D02*
X45280952Y-142461961D01*
X45280952Y-142461961D02*
X45376190Y-142557200D01*
X45376190Y-142557200D02*
X45519047Y-142604819D01*
X45519047Y-142604819D02*
X45614285Y-142604819D01*
X44804761Y-141700057D02*
X44757142Y-141652438D01*
X44757142Y-141652438D02*
X44661904Y-141604819D01*
X44661904Y-141604819D02*
X44423809Y-141604819D01*
X44423809Y-141604819D02*
X44328571Y-141652438D01*
X44328571Y-141652438D02*
X44280952Y-141700057D01*
X44280952Y-141700057D02*
X44233333Y-141795295D01*
X44233333Y-141795295D02*
X44233333Y-141890533D01*
X44233333Y-141890533D02*
X44280952Y-142033390D01*
X44280952Y-142033390D02*
X44852380Y-142604819D01*
X44852380Y-142604819D02*
X44233333Y-142604819D01*
X93424333Y-91539819D02*
X93424333Y-92254104D01*
X93424333Y-92254104D02*
X93471952Y-92396961D01*
X93471952Y-92396961D02*
X93567190Y-92492200D01*
X93567190Y-92492200D02*
X93710047Y-92539819D01*
X93710047Y-92539819D02*
X93805285Y-92539819D01*
X93043380Y-91539819D02*
X92424333Y-91539819D01*
X92424333Y-91539819D02*
X92757666Y-91920771D01*
X92757666Y-91920771D02*
X92614809Y-91920771D01*
X92614809Y-91920771D02*
X92519571Y-91968390D01*
X92519571Y-91968390D02*
X92471952Y-92016009D01*
X92471952Y-92016009D02*
X92424333Y-92111247D01*
X92424333Y-92111247D02*
X92424333Y-92349342D01*
X92424333Y-92349342D02*
X92471952Y-92444580D01*
X92471952Y-92444580D02*
X92519571Y-92492200D01*
X92519571Y-92492200D02*
X92614809Y-92539819D01*
X92614809Y-92539819D02*
X92900523Y-92539819D01*
X92900523Y-92539819D02*
X92995761Y-92492200D01*
X92995761Y-92492200D02*
X93043380Y-92444580D01*
X45133333Y-101404819D02*
X45133333Y-102119104D01*
X45133333Y-102119104D02*
X45180952Y-102261961D01*
X45180952Y-102261961D02*
X45276190Y-102357200D01*
X45276190Y-102357200D02*
X45419047Y-102404819D01*
X45419047Y-102404819D02*
X45514285Y-102404819D01*
X44180952Y-101404819D02*
X44657142Y-101404819D01*
X44657142Y-101404819D02*
X44704761Y-101881009D01*
X44704761Y-101881009D02*
X44657142Y-101833390D01*
X44657142Y-101833390D02*
X44561904Y-101785771D01*
X44561904Y-101785771D02*
X44323809Y-101785771D01*
X44323809Y-101785771D02*
X44228571Y-101833390D01*
X44228571Y-101833390D02*
X44180952Y-101881009D01*
X44180952Y-101881009D02*
X44133333Y-101976247D01*
X44133333Y-101976247D02*
X44133333Y-102214342D01*
X44133333Y-102214342D02*
X44180952Y-102309580D01*
X44180952Y-102309580D02*
X44228571Y-102357200D01*
X44228571Y-102357200D02*
X44323809Y-102404819D01*
X44323809Y-102404819D02*
X44561904Y-102404819D01*
X44561904Y-102404819D02*
X44657142Y-102357200D01*
X44657142Y-102357200D02*
X44704761Y-102309580D01*
D11*
%TO.C,J4*%
X91711000Y-122682000D02*
X91711000Y-140572000D01*
X94471000Y-120032000D02*
X93091000Y-120032000D01*
X94471000Y-121412000D02*
X94471000Y-120032000D01*
X94471000Y-122682000D02*
X91711000Y-122682000D01*
X94471000Y-122682000D02*
X94471000Y-140572000D01*
X94471000Y-140572000D02*
X91711000Y-140572000D01*
%TO.C,J2*%
X43451000Y-127762000D02*
X43451000Y-140572000D01*
X46211000Y-125112000D02*
X44831000Y-125112000D01*
X46211000Y-126492000D02*
X46211000Y-125112000D01*
X46211000Y-127762000D02*
X43451000Y-127762000D01*
X46211000Y-127762000D02*
X46211000Y-140572000D01*
X46211000Y-140572000D02*
X43451000Y-140572000D01*
%TO.C,J3*%
X91711000Y-95735000D02*
X91711000Y-118705000D01*
X94471000Y-93085000D02*
X93091000Y-93085000D01*
X94471000Y-94465000D02*
X94471000Y-93085000D01*
X94471000Y-95735000D02*
X91711000Y-95735000D01*
X94471000Y-95735000D02*
X94471000Y-118705000D01*
X94471000Y-118705000D02*
X91711000Y-118705000D01*
%TO.C,J5*%
X43451000Y-105890000D02*
X43451000Y-123780000D01*
X46211000Y-103240000D02*
X44831000Y-103240000D01*
X46211000Y-104620000D02*
X46211000Y-103240000D01*
X46211000Y-105890000D02*
X43451000Y-105890000D01*
X46211000Y-105890000D02*
X46211000Y-123780000D01*
X46211000Y-123780000D02*
X43451000Y-123780000D01*
%TD*%
M02*
