<?xml version="1.0" standalone="no"?>
 <!DOCTYPE svg PUBLIC "-//W3C//DTD SVG 1.1//EN" 
 "http://www.w3.org/Graphics/SVG/1.1/DTD/svg11.dtd"> 
<svg
  xmlns:svg="http://www.w3.org/2000/svg"
  xmlns="http://www.w3.org/2000/svg"
  xmlns:xlink="http://www.w3.org/1999/xlink"
  version="1.1"
  width="61.0362mm" height="65.0494mm" viewBox="0.0000 0.0000 61.0362 65.0494">
<title>SVG Image created as pcb-preview-back.svg date 2026/05/10 16:43:26 </title>
  <desc>Image generated by PCBNEW </desc>
<g style="fill:#000000; fill-opacity:1.0000;stroke:#000000; stroke-opacity:1.0000;
stroke-linecap:round; stroke-linejoin:round;"
 transform="translate(0 0) scale(1 1)">
</g>
<g style="fill:none; 
stroke:#C872AB; stroke-width:0.1500; stroke-opacity:1; 
stroke-linecap:round; stroke-linejoin:round;">
<path d="M-273.9250 -16.9250
L-165.9250 -16.9250
L-165.9250 15.0750
L-273.9250 15.0750
L-273.9250 -16.9250
" />
</g>
<g style="fill:none; 
stroke:#C872AB; stroke-width:0.1500; stroke-opacity:1; 
stroke-linecap:round; stroke-linejoin:round;">
<path d="M-204.9750 -27.9750
L-163.9250 -27.9750
L-163.9250 17.0750
L-204.9750 17.0750
L-204.9750 -27.9750
" />
</g>
<g style="fill:none; 
stroke:#C872AB; stroke-width:0.1500; stroke-opacity:1; 
stroke-linecap:round; stroke-linejoin:round;">
<path d="M-202.9750 -25.9750
L-165.9250 -25.9750
L-165.9250 15.0750
L-202.9750 15.0750
L-202.9750 -25.9750
" />
</g>
<g style="fill:none; 
stroke:#C872AB; stroke-width:0.1500; stroke-opacity:1; 
stroke-linecap:round; stroke-linejoin:round;">
<path d="M-154.9750 -25.9750
L-154.9750 -27.9750
" />
</g>
<g style="fill:none; 
stroke:#C872AB; stroke-width:0.1500; stroke-opacity:1; 
stroke-linecap:round; stroke-linejoin:round;">
<text x="-179.9750" y="-26.3250"
textLength="1.4281" font-size="1.7333" lengthAdjust="spacingAndGlyphs"
text-anchor="start" opacity="0" stroke-opacity="0">1</text>
<g class="stroked-text"><desc>1</desc>
<path d="M-178.8858 -26.3814
L-179.6287 -26.3814
" />
<path d="M-179.2573 -26.3814
L-179.2573 -27.6814
" />
<path d="M-179.2573 -27.6814
L-179.3811 -27.4957
" />
<path d="M-179.3811 -27.4957
L-179.5049 -27.3719
" />
<path d="M-179.5049 -27.3719
L-179.6287 -27.3100
" />
</g></g>
<g style="fill:none; 
stroke:#C872AB; stroke-width:0.1500; stroke-opacity:1; 
stroke-linecap:round; stroke-linejoin:round;">
<path d="M-154.9750 15.0750
L-154.9750 17.0750
" />
</g>
<g style="fill:none; 
stroke:#C872AB; stroke-width:0.1500; stroke-opacity:1; 
stroke-linecap:round; stroke-linejoin:round;">
<text x="-179.9750" y="16.7250"
textLength="1.4281" font-size="1.7333" lengthAdjust="spacingAndGlyphs"
text-anchor="start" opacity="0" stroke-opacity="0">1</text>
<g class="stroked-text"><desc>1</desc>
<path d="M-178.8858 16.6686
L-179.6287 16.6686
" />
<path d="M-179.2573 16.6686
L-179.2573 15.3686
" />
<path d="M-179.2573 15.3686
L-179.3811 15.5543
" />
<path d="M-179.3811 15.5543
L-179.5049 15.6781
" />
<path d="M-179.5049 15.6781
L-179.6287 15.7400
" />
</g></g>
<g style="fill:none; 
stroke:#C872AB; stroke-width:0.1500; stroke-opacity:1; 
stroke-linecap:round; stroke-linejoin:round;">
<path d="M-204.9750 22.0250
L-202.9750 22.0250
" />
</g>
<g style="fill:none; 
stroke:#C872AB; stroke-width:0.1500; stroke-opacity:1; 
stroke-linecap:round; stroke-linejoin:round;">
<text x="-203.9750" y="-2.3250"
textLength="1.3043" font-size="1.7333" lengthAdjust="spacingAndGlyphs"
text-anchor="middle" opacity="0" stroke-opacity="0">A</text>
<g class="stroked-text"><desc>A</desc>
<path d="M-204.2845 -2.7528
L-203.6655 -2.7528
" />
<path d="M-204.4083 -2.3814
L-203.9750 -3.6814
" />
<path d="M-203.9750 -3.6814
L-203.5417 -2.3814
" />
</g></g>
<g style="fill:none; 
stroke:#C872AB; stroke-width:0.1500; stroke-opacity:1; 
stroke-linecap:round; stroke-linejoin:round;">
<path d="M-163.9250 22.0250
L-165.9250 22.0250
" />
</g>
<g style="fill:none; 
stroke:#C872AB; stroke-width:0.1500; stroke-opacity:1; 
stroke-linecap:round; stroke-linejoin:round;">
<text x="-164.9250" y="-2.3250"
textLength="1.3043" font-size="1.7333" lengthAdjust="spacingAndGlyphs"
text-anchor="middle" opacity="0" stroke-opacity="0">A</text>
<g class="stroked-text"><desc>A</desc>
<path d="M-165.2345 -2.7528
L-164.6155 -2.7528
" />
<path d="M-165.3583 -2.3814
L-164.9250 -3.6814
" />
<path d="M-164.9250 -3.6814
L-164.4917 -2.3814
" />
</g></g>
<g style="fill:none; 
stroke:#C872AB; stroke-width:0.1500; stroke-opacity:1; 
stroke-linecap:round; stroke-linejoin:round;">
<text x="-250.9250" y="10.9250"
textLength="7.0071" font-size="2.0000" lengthAdjust="spacingAndGlyphs"
text-anchor="start" opacity="0" stroke-opacity="0">Date: </text>
<g class="stroked-text"><desc>Date: </desc>
<path d="M-250.4692 10.8611
L-250.4692 9.3611
" />
<path d="M-250.4692 9.3611
L-250.1120 9.3611
" />
<path d="M-250.1120 9.3611
L-249.8977 9.4326
" />
<path d="M-249.8977 9.4326
L-249.7549 9.5754
" />
<path d="M-249.7549 9.5754
L-249.6835 9.7183
" />
<path d="M-249.6835 9.7183
L-249.6120 10.0040
" />
<path d="M-249.6120 10.0040
L-249.6120 10.2183
" />
<path d="M-249.6120 10.2183
L-249.6835 10.5040
" />
<path d="M-249.6835 10.5040
L-249.7549 10.6468
" />
<path d="M-249.7549 10.6468
L-249.8977 10.7897
" />
<path d="M-249.8977 10.7897
L-250.1120 10.8611
" />
<path d="M-250.1120 10.8611
L-250.4692 10.8611
" />
<path d="M-248.3263 10.8611
L-248.3263 10.0754
" />
<path d="M-248.3263 10.0754
L-248.3977 9.9326
" />
<path d="M-248.3977 9.9326
L-248.5406 9.8611
" />
<path d="M-248.5406 9.8611
L-248.8263 9.8611
" />
<path d="M-248.8263 9.8611
L-248.9692 9.9326
" />
<path d="M-248.3263 10.7897
L-248.4692 10.8611
" />
<path d="M-248.4692 10.8611
L-248.8263 10.8611
" />
<path d="M-248.8263 10.8611
L-248.9692 10.7897
" />
<path d="M-248.9692 10.7897
L-249.0406 10.6468
" />
<path d="M-249.0406 10.6468
L-249.0406 10.5040
" />
<path d="M-249.0406 10.5040
L-248.9692 10.3611
" />
<path d="M-248.9692 10.3611
L-248.8263 10.2897
" />
<path d="M-248.8263 10.2897
L-248.4692 10.2897
" />
<path d="M-248.4692 10.2897
L-248.3263 10.2183
" />
<path d="M-247.8263 9.8611
L-247.2549 9.8611
" />
<path d="M-247.6120 9.3611
L-247.6120 10.6468
" />
<path d="M-247.6120 10.6468
L-247.5406 10.7897
" />
<path d="M-247.5406 10.7897
L-247.3977 10.8611
" />
<path d="M-247.3977 10.8611
L-247.2549 10.8611
" />
<path d="M-246.1835 10.7897
L-246.3263 10.8611
" />
<path d="M-246.3263 10.8611
L-246.6120 10.8611
" />
<path d="M-246.6120 10.8611
L-246.7549 10.7897
" />
<path d="M-246.7549 10.7897
L-246.8263 10.6468
" />
<path d="M-246.8263 10.6468
L-246.8263 10.0754
" />
<path d="M-246.8263 10.0754
L-246.7549 9.9326
" />
<path d="M-246.7549 9.9326
L-246.6120 9.8611
" />
<path d="M-246.6120 9.8611
L-246.3263 9.8611
" />
<path d="M-246.3263 9.8611
L-246.1835 9.9326
" />
<path d="M-246.1835 9.9326
L-246.1120 10.0754
" />
<path d="M-246.1120 10.0754
L-246.1120 10.2183
" />
<path d="M-246.1120 10.2183
L-246.8263 10.3611
" />
<path d="M-245.4692 10.7183
L-245.3977 10.7897
" />
<path d="M-245.3977 10.7897
L-245.4692 10.8611
" />
<path d="M-245.4692 10.8611
L-245.5406 10.7897
" />
<path d="M-245.5406 10.7897
L-245.4692 10.7183
" />
<path d="M-245.4692 10.7183
L-245.4692 10.8611
" />
<path d="M-245.4692 9.9326
L-245.3977 10.0040
" />
<path d="M-245.3977 10.0040
L-245.4692 10.0754
" />
<path d="M-245.4692 10.0754
L-245.5406 10.0040
" />
<path d="M-245.5406 10.0040
L-245.4692 9.9326
" />
<path d="M-245.4692 9.9326
L-245.4692 10.0754
" />
</g></g>
<g style="fill:none; 
stroke:#C872AB; stroke-width:0.1500; stroke-opacity:1; 
stroke-linecap:round; stroke-linejoin:round;">
<path d="M-273.9250 11.5750
L-165.9250 11.5750
" />
</g>
<g style="fill:none; 
stroke:#C872AB; stroke-width:0.1500; stroke-opacity:1; 
stroke-linecap:round; stroke-linejoin:round;">
<text x="-272.9250" y="13.7250"
textLength="20.8643" font-size="2.0000" lengthAdjust="spacingAndGlyphs"
text-anchor="start" opacity="0" stroke-opacity="0">KiCad E.D.A. 9.0.7</text>
<g class="stroked-text"><desc>KiCad E.D.A. 9.0.7</desc>
<path d="M-272.4692 13.6611
L-272.4692 12.1611
" />
<path d="M-271.6120 13.6611
L-272.2549 12.8040
" />
<path d="M-271.6120 12.1611
L-272.4692 13.0183
" />
<path d="M-270.9692 13.6611
L-270.9692 12.6611
" />
<path d="M-270.9692 12.1611
L-271.0406 12.2326
" />
<path d="M-271.0406 12.2326
L-270.9692 12.3040
" />
<path d="M-270.9692 12.3040
L-270.8977 12.2326
" />
<path d="M-270.8977 12.2326
L-270.9692 12.1611
" />
<path d="M-270.9692 12.1611
L-270.9692 12.3040
" />
<path d="M-269.3977 13.5183
L-269.4692 13.5897
" />
<path d="M-269.4692 13.5897
L-269.6835 13.6611
" />
<path d="M-269.6835 13.6611
L-269.8263 13.6611
" />
<path d="M-269.8263 13.6611
L-270.0406 13.5897
" />
<path d="M-270.0406 13.5897
L-270.1835 13.4468
" />
<path d="M-270.1835 13.4468
L-270.2549 13.3040
" />
<path d="M-270.2549 13.3040
L-270.3263 13.0183
" />
<path d="M-270.3263 13.0183
L-270.3263 12.8040
" />
<path d="M-270.3263 12.8040
L-270.2549 12.5183
" />
<path d="M-270.2549 12.5183
L-270.1835 12.3754
" />
<path d="M-270.1835 12.3754
L-270.0406 12.2326
" />
<path d="M-270.0406 12.2326
L-269.8263 12.1611
" />
<path d="M-269.8263 12.1611
L-269.6835 12.1611
" />
<path d="M-269.6835 12.1611
L-269.4692 12.2326
" />
<path d="M-269.4692 12.2326
L-269.3977 12.3040
" />
<path d="M-268.1120 13.6611
L-268.1120 12.8754
" />
<path d="M-268.1120 12.8754
L-268.1835 12.7326
" />
<path d="M-268.1835 12.7326
L-268.3263 12.6611
" />
<path d="M-268.3263 12.6611
L-268.6120 12.6611
" />
<path d="M-268.6120 12.6611
L-268.7549 12.7326
" />
<path d="M-268.1120 13.5897
L-268.2549 13.6611
" />
<path d="M-268.2549 13.6611
L-268.6120 13.6611
" />
<path d="M-268.6120 13.6611
L-268.7549 13.5897
" />
<path d="M-268.7549 13.5897
L-268.8263 13.4468
" />
<path d="M-268.8263 13.4468
L-268.8263 13.3040
" />
<path d="M-268.8263 13.3040
L-268.7549 13.1611
" />
<path d="M-268.7549 13.1611
L-268.6120 13.0897
" />
<path d="M-268.6120 13.0897
L-268.2549 13.0897
" />
<path d="M-268.2549 13.0897
L-268.1120 13.0183
" />
<path d="M-266.7549 13.6611
L-266.7549 12.1611
" />
<path d="M-266.7549 13.5897
L-266.8977 13.6611
" />
<path d="M-266.8977 13.6611
L-267.1835 13.6611
" />
<path d="M-267.1835 13.6611
L-267.3263 13.5897
" />
<path d="M-267.3263 13.5897
L-267.3977 13.5183
" />
<path d="M-267.3977 13.5183
L-267.4692 13.3754
" />
<path d="M-267.4692 13.3754
L-267.4692 12.9468
" />
<path d="M-267.4692 12.9468
L-267.3977 12.8040
" />
<path d="M-267.3977 12.8040
L-267.3263 12.7326
" />
<path d="M-267.3263 12.7326
L-267.1835 12.6611
" />
<path d="M-267.1835 12.6611
L-266.8977 12.6611
" />
<path d="M-266.8977 12.6611
L-266.7549 12.7326
" />
<path d="M-264.8977 12.8754
L-264.3977 12.8754
" />
<path d="M-264.1835 13.6611
L-264.8977 13.6611
" />
<path d="M-264.8977 13.6611
L-264.8977 12.1611
" />
<path d="M-264.8977 12.1611
L-264.1835 12.1611
" />
<path d="M-263.5406 13.5183
L-263.4692 13.5897
" />
<path d="M-263.4692 13.5897
L-263.5406 13.6611
" />
<path d="M-263.5406 13.6611
L-263.6120 13.5897
" />
<path d="M-263.6120 13.5897
L-263.5406 13.5183
" />
<path d="M-263.5406 13.5183
L-263.5406 13.6611
" />
<path d="M-262.8263 13.6611
L-262.8263 12.1611
" />
<path d="M-262.8263 12.1611
L-262.4692 12.1611
" />
<path d="M-262.4692 12.1611
L-262.2549 12.2326
" />
<path d="M-262.2549 12.2326
L-262.1120 12.3754
" />
<path d="M-262.1120 12.3754
L-262.0406 12.5183
" />
<path d="M-262.0406 12.5183
L-261.9692 12.8040
" />
<path d="M-261.9692 12.8040
L-261.9692 13.0183
" />
<path d="M-261.9692 13.0183
L-262.0406 13.3040
" />
<path d="M-262.0406 13.3040
L-262.1120 13.4468
" />
<path d="M-262.1120 13.4468
L-262.2549 13.5897
" />
<path d="M-262.2549 13.5897
L-262.4692 13.6611
" />
<path d="M-262.4692 13.6611
L-262.8263 13.6611
" />
<path d="M-261.3263 13.5183
L-261.2549 13.5897
" />
<path d="M-261.2549 13.5897
L-261.3263 13.6611
" />
<path d="M-261.3263 13.6611
L-261.3977 13.5897
" />
<path d="M-261.3977 13.5897
L-261.3263 13.5183
" />
<path d="M-261.3263 13.5183
L-261.3263 13.6611
" />
<path d="M-260.6835 13.2326
L-259.9692 13.2326
" />
<path d="M-260.8263 13.6611
L-260.3263 12.1611
" />
<path d="M-260.3263 12.1611
L-259.8263 13.6611
" />
<path d="M-259.3263 13.5183
L-259.2549 13.5897
" />
<path d="M-259.2549 13.5897
L-259.3263 13.6611
" />
<path d="M-259.3263 13.6611
L-259.3977 13.5897
" />
<path d="M-259.3977 13.5897
L-259.3263 13.5183
" />
<path d="M-259.3263 13.5183
L-259.3263 13.6611
" />
<path d="M-257.3977 13.6611
L-257.1120 13.6611
" />
<path d="M-257.1120 13.6611
L-256.9692 13.5897
" />
<path d="M-256.9692 13.5897
L-256.8977 13.5183
" />
<path d="M-256.8977 13.5183
L-256.7549 13.3040
" />
<path d="M-256.7549 13.3040
L-256.6835 13.0183
" />
<path d="M-256.6835 13.0183
L-256.6835 12.4468
" />
<path d="M-256.6835 12.4468
L-256.7549 12.3040
" />
<path d="M-256.7549 12.3040
L-256.8263 12.2326
" />
<path d="M-256.8263 12.2326
L-256.9692 12.1611
" />
<path d="M-256.9692 12.1611
L-257.2549 12.1611
" />
<path d="M-257.2549 12.1611
L-257.3977 12.2326
" />
<path d="M-257.3977 12.2326
L-257.4692 12.3040
" />
<path d="M-257.4692 12.3040
L-257.5406 12.4468
" />
<path d="M-257.5406 12.4468
L-257.5406 12.8040
" />
<path d="M-257.5406 12.8040
L-257.4692 12.9468
" />
<path d="M-257.4692 12.9468
L-257.3977 13.0183
" />
<path d="M-257.3977 13.0183
L-257.2549 13.0897
" />
<path d="M-257.2549 13.0897
L-256.9692 13.0897
" />
<path d="M-256.9692 13.0897
L-256.8263 13.0183
" />
<path d="M-256.8263 13.0183
L-256.7549 12.9468
" />
<path d="M-256.7549 12.9468
L-256.6835 12.8040
" />
<path d="M-256.0406 13.5183
L-255.9692 13.5897
" />
<path d="M-255.9692 13.5897
L-256.0406 13.6611
" />
<path d="M-256.0406 13.6611
L-256.1120 13.5897
" />
<path d="M-256.1120 13.5897
L-256.0406 13.5183
" />
<path d="M-256.0406 13.5183
L-256.0406 13.6611
" />
<path d="M-255.0406 12.1611
L-254.8977 12.1611
" />
<path d="M-254.8977 12.1611
L-254.7549 12.2326
" />
<path d="M-254.7549 12.2326
L-254.6835 12.3040
" />
<path d="M-254.6835 12.3040
L-254.6120 12.4468
" />
<path d="M-254.6120 12.4468
L-254.5406 12.7326
" />
<path d="M-254.5406 12.7326
L-254.5406 13.0897
" />
<path d="M-254.5406 13.0897
L-254.6120 13.3754
" />
<path d="M-254.6120 13.3754
L-254.6835 13.5183
" />
<path d="M-254.6835 13.5183
L-254.7549 13.5897
" />
<path d="M-254.7549 13.5897
L-254.8977 13.6611
" />
<path d="M-254.8977 13.6611
L-255.0406 13.6611
" />
<path d="M-255.0406 13.6611
L-255.1835 13.5897
" />
<path d="M-255.1835 13.5897
L-255.2549 13.5183
" />
<path d="M-255.2549 13.5183
L-255.3263 13.3754
" />
<path d="M-255.3263 13.3754
L-255.3977 13.0897
" />
<path d="M-255.3977 13.0897
L-255.3977 12.7326
" />
<path d="M-255.3977 12.7326
L-255.3263 12.4468
" />
<path d="M-255.3263 12.4468
L-255.2549 12.3040
" />
<path d="M-255.2549 12.3040
L-255.1835 12.2326
" />
<path d="M-255.1835 12.2326
L-255.0406 12.1611
" />
<path d="M-253.8977 13.5183
L-253.8263 13.5897
" />
<path d="M-253.8263 13.5897
L-253.8977 13.6611
" />
<path d="M-253.8977 13.6611
L-253.9692 13.5897
" />
<path d="M-253.9692 13.5897
L-253.8977 13.5183
" />
<path d="M-253.8977 13.5183
L-253.8977 13.6611
" />
<path d="M-253.3263 12.1611
L-252.3263 12.1611
" />
<path d="M-252.3263 12.1611
L-252.9692 13.6611
" />
</g></g>
<g style="fill:none; 
stroke:#C872AB; stroke-width:0.1500; stroke-opacity:1; 
stroke-linecap:round; stroke-linejoin:round;">
<path d="M-273.9250 8.5750
L-165.9250 8.5750
" />
</g>
<g style="fill:none; 
stroke:#C872AB; stroke-width:0.3000; stroke-opacity:1; 
stroke-linecap:round; stroke-linejoin:round;">
<text x="-187.9250" y="10.9250"
textLength="6.3857" font-size="2.0000" lengthAdjust="spacingAndGlyphs"
text-anchor="start" opacity="0" stroke-opacity="0">Rev: </text>
<g class="stroked-text"><desc>Rev: </desc>
<path d="M-186.5133 10.8533
L-187.0133 10.1390
" />
<path d="M-187.3705 10.8533
L-187.3705 9.3533
" />
<path d="M-187.3705 9.3533
L-186.7991 9.3533
" />
<path d="M-186.7991 9.3533
L-186.6562 9.4248
" />
<path d="M-186.6562 9.4248
L-186.5848 9.4962
" />
<path d="M-186.5848 9.4962
L-186.5133 9.6390
" />
<path d="M-186.5133 9.6390
L-186.5133 9.8533
" />
<path d="M-186.5133 9.8533
L-186.5848 9.9962
" />
<path d="M-186.5848 9.9962
L-186.6562 10.0676
" />
<path d="M-186.6562 10.0676
L-186.7991 10.1390
" />
<path d="M-186.7991 10.1390
L-187.3705 10.1390
" />
<path d="M-185.2991 10.7819
L-185.4419 10.8533
" />
<path d="M-185.4419 10.8533
L-185.7276 10.8533
" />
<path d="M-185.7276 10.8533
L-185.8705 10.7819
" />
<path d="M-185.8705 10.7819
L-185.9419 10.6390
" />
<path d="M-185.9419 10.6390
L-185.9419 10.0676
" />
<path d="M-185.9419 10.0676
L-185.8705 9.9248
" />
<path d="M-185.8705 9.9248
L-185.7276 9.8533
" />
<path d="M-185.7276 9.8533
L-185.4419 9.8533
" />
<path d="M-185.4419 9.8533
L-185.2991 9.9248
" />
<path d="M-185.2991 9.9248
L-185.2276 10.0676
" />
<path d="M-185.2276 10.0676
L-185.2276 10.2105
" />
<path d="M-185.2276 10.2105
L-185.9419 10.3533
" />
<path d="M-184.7276 9.8533
L-184.3705 10.8533
" />
<path d="M-184.3705 10.8533
L-184.0133 9.8533
" />
<path d="M-183.4419 10.7105
L-183.3705 10.7819
" />
<path d="M-183.3705 10.7819
L-183.4419 10.8533
" />
<path d="M-183.4419 10.8533
L-183.5133 10.7819
" />
<path d="M-183.5133 10.7819
L-183.4419 10.7105
" />
<path d="M-183.4419 10.7105
L-183.4419 10.8533
" />
<path d="M-183.4419 9.9248
L-183.3705 9.9962
" />
<path d="M-183.3705 9.9962
L-183.4419 10.0676
" />
<path d="M-183.4419 10.0676
L-183.5133 9.9962
" />
<path d="M-183.5133 9.9962
L-183.4419 9.9248
" />
<path d="M-183.4419 9.9248
L-183.4419 10.0676
" />
</g></g>
<g style="fill:none; 
stroke:#C872AB; stroke-width:0.1500; stroke-opacity:1; 
stroke-linecap:round; stroke-linejoin:round;">
<text x="-272.9250" y="10.9250"
textLength="11.6500" font-size="2.0000" lengthAdjust="spacingAndGlyphs"
text-anchor="start" opacity="0" stroke-opacity="0">Size: User</text>
<g class="stroked-text"><desc>Size: User</desc>
<path d="M-272.5406 10.7897
L-272.3263 10.8611
" />
<path d="M-272.3263 10.8611
L-271.9692 10.8611
" />
<path d="M-271.9692 10.8611
L-271.8263 10.7897
" />
<path d="M-271.8263 10.7897
L-271.7549 10.7183
" />
<path d="M-271.7549 10.7183
L-271.6835 10.5754
" />
<path d="M-271.6835 10.5754
L-271.6835 10.4326
" />
<path d="M-271.6835 10.4326
L-271.7549 10.2897
" />
<path d="M-271.7549 10.2897
L-271.8263 10.2183
" />
<path d="M-271.8263 10.2183
L-271.9692 10.1468
" />
<path d="M-271.9692 10.1468
L-272.2549 10.0754
" />
<path d="M-272.2549 10.0754
L-272.3977 10.0040
" />
<path d="M-272.3977 10.0040
L-272.4692 9.9326
" />
<path d="M-272.4692 9.9326
L-272.5406 9.7897
" />
<path d="M-272.5406 9.7897
L-272.5406 9.6468
" />
<path d="M-272.5406 9.6468
L-272.4692 9.5040
" />
<path d="M-272.4692 9.5040
L-272.3977 9.4326
" />
<path d="M-272.3977 9.4326
L-272.2549 9.3611
" />
<path d="M-272.2549 9.3611
L-271.8977 9.3611
" />
<path d="M-271.8977 9.3611
L-271.6835 9.4326
" />
<path d="M-271.0406 10.8611
L-271.0406 9.8611
" />
<path d="M-271.0406 9.3611
L-271.1120 9.4326
" />
<path d="M-271.1120 9.4326
L-271.0406 9.5040
" />
<path d="M-271.0406 9.5040
L-270.9692 9.4326
" />
<path d="M-270.9692 9.4326
L-271.0406 9.3611
" />
<path d="M-271.0406 9.3611
L-271.0406 9.5040
" />
<path d="M-270.4692 9.8611
L-269.6835 9.8611
" />
<path d="M-269.6835 9.8611
L-270.4692 10.8611
" />
<path d="M-270.4692 10.8611
L-269.6835 10.8611
" />
<path d="M-268.5406 10.7897
L-268.6835 10.8611
" />
<path d="M-268.6835 10.8611
L-268.9692 10.8611
" />
<path d="M-268.9692 10.8611
L-269.1120 10.7897
" />
<path d="M-269.1120 10.7897
L-269.1835 10.6468
" />
<path d="M-269.1835 10.6468
L-269.1835 10.0754
" />
<path d="M-269.1835 10.0754
L-269.1120 9.9326
" />
<path d="M-269.1120 9.9326
L-268.9692 9.8611
" />
<path d="M-268.9692 9.8611
L-268.6835 9.8611
" />
<path d="M-268.6835 9.8611
L-268.5406 9.9326
" />
<path d="M-268.5406 9.9326
L-268.4692 10.0754
" />
<path d="M-268.4692 10.0754
L-268.4692 10.2183
" />
<path d="M-268.4692 10.2183
L-269.1835 10.3611
" />
<path d="M-267.8263 10.7183
L-267.7549 10.7897
" />
<path d="M-267.7549 10.7897
L-267.8263 10.8611
" />
<path d="M-267.8263 10.8611
L-267.8977 10.7897
" />
<path d="M-267.8977 10.7897
L-267.8263 10.7183
" />
<path d="M-267.8263 10.7183
L-267.8263 10.8611
" />
<path d="M-267.8263 9.9326
L-267.7549 10.0040
" />
<path d="M-267.7549 10.0040
L-267.8263 10.0754
" />
<path d="M-267.8263 10.0754
L-267.8977 10.0040
" />
<path d="M-267.8977 10.0040
L-267.8263 9.9326
" />
<path d="M-267.8263 9.9326
L-267.8263 10.0754
" />
<path d="M-265.9692 9.3611
L-265.9692 10.5754
" />
<path d="M-265.9692 10.5754
L-265.8977 10.7183
" />
<path d="M-265.8977 10.7183
L-265.8263 10.7897
" />
<path d="M-265.8263 10.7897
L-265.6835 10.8611
" />
<path d="M-265.6835 10.8611
L-265.3977 10.8611
" />
<path d="M-265.3977 10.8611
L-265.2549 10.7897
" />
<path d="M-265.2549 10.7897
L-265.1835 10.7183
" />
<path d="M-265.1835 10.7183
L-265.1120 10.5754
" />
<path d="M-265.1120 10.5754
L-265.1120 9.3611
" />
<path d="M-264.4692 10.7897
L-264.3263 10.8611
" />
<path d="M-264.3263 10.8611
L-264.0406 10.8611
" />
<path d="M-264.0406 10.8611
L-263.8977 10.7897
" />
<path d="M-263.8977 10.7897
L-263.8263 10.6468
" />
<path d="M-263.8263 10.6468
L-263.8263 10.5754
" />
<path d="M-263.8263 10.5754
L-263.8977 10.4326
" />
<path d="M-263.8977 10.4326
L-264.0406 10.3611
" />
<path d="M-264.0406 10.3611
L-264.2549 10.3611
" />
<path d="M-264.2549 10.3611
L-264.3977 10.2897
" />
<path d="M-264.3977 10.2897
L-264.4692 10.1468
" />
<path d="M-264.4692 10.1468
L-264.4692 10.0754
" />
<path d="M-264.4692 10.0754
L-264.3977 9.9326
" />
<path d="M-264.3977 9.9326
L-264.2549 9.8611
" />
<path d="M-264.2549 9.8611
L-264.0406 9.8611
" />
<path d="M-264.0406 9.8611
L-263.8977 9.9326
" />
<path d="M-262.6120 10.7897
L-262.7549 10.8611
" />
<path d="M-262.7549 10.8611
L-263.0406 10.8611
" />
<path d="M-263.0406 10.8611
L-263.1835 10.7897
" />
<path d="M-263.1835 10.7897
L-263.2549 10.6468
" />
<path d="M-263.2549 10.6468
L-263.2549 10.0754
" />
<path d="M-263.2549 10.0754
L-263.1835 9.9326
" />
<path d="M-263.1835 9.9326
L-263.0406 9.8611
" />
<path d="M-263.0406 9.8611
L-262.7549 9.8611
" />
<path d="M-262.7549 9.8611
L-262.6120 9.9326
" />
<path d="M-262.6120 9.9326
L-262.5406 10.0754
" />
<path d="M-262.5406 10.0754
L-262.5406 10.2183
" />
<path d="M-262.5406 10.2183
L-263.2549 10.3611
" />
<path d="M-261.8977 10.8611
L-261.8977 9.8611
" />
<path d="M-261.8977 10.1468
L-261.8263 10.0040
" />
<path d="M-261.8263 10.0040
L-261.7549 9.9326
" />
<path d="M-261.7549 9.9326
L-261.6120 9.8611
" />
<path d="M-261.6120 9.8611
L-261.4692 9.8611
" />
</g></g>
<g style="fill:none; 
stroke:#C872AB; stroke-width:0.1500; stroke-opacity:1; 
stroke-linecap:round; stroke-linejoin:round;">
<text x="-187.9250" y="13.7250"
textLength="8.5071" font-size="2.0000" lengthAdjust="spacingAndGlyphs"
text-anchor="start" opacity="0" stroke-opacity="0">Id: 1/1</text>
<g class="stroked-text"><desc>Id: 1/1</desc>
<path d="M-187.4692 13.6611
L-187.4692 12.1611
" />
<path d="M-186.1120 13.6611
L-186.1120 12.1611
" />
<path d="M-186.1120 13.5897
L-186.2549 13.6611
" />
<path d="M-186.2549 13.6611
L-186.5406 13.6611
" />
<path d="M-186.5406 13.6611
L-186.6835 13.5897
" />
<path d="M-186.6835 13.5897
L-186.7549 13.5183
" />
<path d="M-186.7549 13.5183
L-186.8263 13.3754
" />
<path d="M-186.8263 13.3754
L-186.8263 12.9468
" />
<path d="M-186.8263 12.9468
L-186.7549 12.8040
" />
<path d="M-186.7549 12.8040
L-186.6835 12.7326
" />
<path d="M-186.6835 12.7326
L-186.5406 12.6611
" />
<path d="M-186.5406 12.6611
L-186.2549 12.6611
" />
<path d="M-186.2549 12.6611
L-186.1120 12.7326
" />
<path d="M-185.3977 13.5183
L-185.3263 13.5897
" />
<path d="M-185.3263 13.5897
L-185.3977 13.6611
" />
<path d="M-185.3977 13.6611
L-185.4692 13.5897
" />
<path d="M-185.4692 13.5897
L-185.3977 13.5183
" />
<path d="M-185.3977 13.5183
L-185.3977 13.6611
" />
<path d="M-185.3977 12.7326
L-185.3263 12.8040
" />
<path d="M-185.3263 12.8040
L-185.3977 12.8754
" />
<path d="M-185.3977 12.8754
L-185.4692 12.8040
" />
<path d="M-185.4692 12.8040
L-185.3977 12.7326
" />
<path d="M-185.3977 12.7326
L-185.3977 12.8754
" />
<path d="M-182.7549 13.6611
L-183.6120 13.6611
" />
<path d="M-183.1835 13.6611
L-183.1835 12.1611
" />
<path d="M-183.1835 12.1611
L-183.3263 12.3754
" />
<path d="M-183.3263 12.3754
L-183.4692 12.5183
" />
<path d="M-183.4692 12.5183
L-183.6120 12.5897
" />
<path d="M-181.0406 12.0897
L-182.3263 14.0183
" />
<path d="M-179.7549 13.6611
L-180.6120 13.6611
" />
<path d="M-180.1835 13.6611
L-180.1835 12.1611
" />
<path d="M-180.1835 12.1611
L-180.3263 12.3754
" />
<path d="M-180.3263 12.3754
L-180.4692 12.5183
" />
<path d="M-180.4692 12.5183
L-180.6120 12.5897
" />
</g></g>
<g style="fill:none; 
stroke:#C872AB; stroke-width:0.1500; stroke-opacity:1; 
stroke-linecap:round; stroke-linejoin:round;">
<path d="M-273.9250 4.5750
L-165.9250 4.5750
" />
</g>
<g style="fill:none; 
stroke:#C872AB; stroke-width:0.4000; stroke-opacity:1; 
stroke-linecap:round; stroke-linejoin:round;">
<text x="-272.9250" y="7.3750"
textLength="43.0857" font-size="2.6667" lengthAdjust="spacingAndGlyphs"
text-anchor="start" opacity="0" stroke-opacity="0">Title: Télécommande LED IR</text>
<g class="stroked-text"><desc>Title: Télécommande LED IR</desc>
<path d="M-272.2333 5.2794
L-271.0904 5.2794
" />
<path d="M-271.9118 7.2794
L-271.6618 5.2794
" />
<path d="M-270.6737 7.2794
L-270.5071 5.9461
" />
<path d="M-270.4237 5.2794
L-270.5309 5.3747
" />
<path d="M-270.5309 5.3747
L-270.4476 5.4699
" />
<path d="M-270.4476 5.4699
L-270.3404 5.3747
" />
<path d="M-270.3404 5.3747
L-270.4237 5.2794
" />
<path d="M-270.4237 5.2794
L-270.4476 5.4699
" />
<path d="M-269.8404 5.9461
L-269.0785 5.9461
" />
<path d="M-269.4714 5.2794
L-269.6857 6.9937
" />
<path d="M-269.6857 6.9937
L-269.6142 7.1842
" />
<path d="M-269.6142 7.1842
L-269.4357 7.2794
" />
<path d="M-269.4357 7.2794
L-269.2452 7.2794
" />
<path d="M-268.2928 7.2794
L-268.4714 7.1842
" />
<path d="M-268.4714 7.1842
L-268.5428 6.9937
" />
<path d="M-268.5428 6.9937
L-268.3285 5.2794
" />
<path d="M-266.7571 7.1842
L-266.9595 7.2794
" />
<path d="M-266.9595 7.2794
L-267.3404 7.2794
" />
<path d="M-267.3404 7.2794
L-267.5190 7.1842
" />
<path d="M-267.5190 7.1842
L-267.5904 6.9937
" />
<path d="M-267.5904 6.9937
L-267.4952 6.2318
" />
<path d="M-267.4952 6.2318
L-267.3761 6.0413
" />
<path d="M-267.3761 6.0413
L-267.1737 5.9461
" />
<path d="M-267.1737 5.9461
L-266.7928 5.9461
" />
<path d="M-266.7928 5.9461
L-266.6142 6.0413
" />
<path d="M-266.6142 6.0413
L-266.5428 6.2318
" />
<path d="M-266.5428 6.2318
L-266.5666 6.4223
" />
<path d="M-266.5666 6.4223
L-267.5428 6.6128
" />
<path d="M-265.7928 7.0890
L-265.7095 7.1842
" />
<path d="M-265.7095 7.1842
L-265.8166 7.2794
" />
<path d="M-265.8166 7.2794
L-265.8999 7.1842
" />
<path d="M-265.8999 7.1842
L-265.7928 7.0890
" />
<path d="M-265.7928 7.0890
L-265.8166 7.2794
" />
<path d="M-265.6618 6.0413
L-265.5785 6.1366
" />
<path d="M-265.5785 6.1366
L-265.6857 6.2318
" />
<path d="M-265.6857 6.2318
L-265.7690 6.1366
" />
<path d="M-265.7690 6.1366
L-265.6618 6.0413
" />
<path d="M-265.6618 6.0413
L-265.6857 6.2318
" />
<path d="M-263.3761 5.2794
L-262.2333 5.2794
" />
<path d="M-263.0547 7.2794
L-262.8047 5.2794
" />
<path d="M-261.0428 7.1842
L-261.2452 7.2794
" />
<path d="M-261.2452 7.2794
L-261.6261 7.2794
" />
<path d="M-261.6261 7.2794
L-261.8047 7.1842
" />
<path d="M-261.8047 7.1842
L-261.8761 6.9937
" />
<path d="M-261.8761 6.9937
L-261.7809 6.2318
" />
<path d="M-261.7809 6.2318
L-261.6618 6.0413
" />
<path d="M-261.6618 6.0413
L-261.4595 5.9461
" />
<path d="M-261.4595 5.9461
L-261.0785 5.9461
" />
<path d="M-261.0785 5.9461
L-260.8999 6.0413
" />
<path d="M-260.8999 6.0413
L-260.8285 6.2318
" />
<path d="M-260.8285 6.2318
L-260.8523 6.4223
" />
<path d="M-260.8523 6.4223
L-261.8285 6.6128
" />
<path d="M-260.9833 5.1842
L-261.3047 5.4699
" />
<path d="M-259.8166 7.2794
L-259.9952 7.1842
" />
<path d="M-259.9952 7.1842
L-260.0666 6.9937
" />
<path d="M-260.0666 6.9937
L-259.8523 5.2794
" />
<path d="M-258.2809 7.1842
L-258.4833 7.2794
" />
<path d="M-258.4833 7.2794
L-258.8642 7.2794
" />
<path d="M-258.8642 7.2794
L-259.0428 7.1842
" />
<path d="M-259.0428 7.1842
L-259.1142 6.9937
" />
<path d="M-259.1142 6.9937
L-259.0190 6.2318
" />
<path d="M-259.0190 6.2318
L-258.8999 6.0413
" />
<path d="M-258.8999 6.0413
L-258.6976 5.9461
" />
<path d="M-258.6976 5.9461
L-258.3166 5.9461
" />
<path d="M-258.3166 5.9461
L-258.1380 6.0413
" />
<path d="M-258.1380 6.0413
L-258.0666 6.2318
" />
<path d="M-258.0666 6.2318
L-258.0904 6.4223
" />
<path d="M-258.0904 6.4223
L-259.0666 6.6128
" />
<path d="M-258.2214 5.1842
L-258.5428 5.4699
" />
<path d="M-256.4714 7.1842
L-256.6737 7.2794
" />
<path d="M-256.6737 7.2794
L-257.0547 7.2794
" />
<path d="M-257.0547 7.2794
L-257.2333 7.1842
" />
<path d="M-257.2333 7.1842
L-257.3166 7.0890
" />
<path d="M-257.3166 7.0890
L-257.3880 6.8985
" />
<path d="M-257.3880 6.8985
L-257.3166 6.3271
" />
<path d="M-257.3166 6.3271
L-257.1976 6.1366
" />
<path d="M-257.1976 6.1366
L-257.0904 6.0413
" />
<path d="M-257.0904 6.0413
L-256.8880 5.9461
" />
<path d="M-256.8880 5.9461
L-256.5071 5.9461
" />
<path d="M-256.5071 5.9461
L-256.3285 6.0413
" />
<path d="M-255.3404 7.2794
L-255.5190 7.1842
" />
<path d="M-255.5190 7.1842
L-255.6023 7.0890
" />
<path d="M-255.6023 7.0890
L-255.6737 6.8985
" />
<path d="M-255.6737 6.8985
L-255.6023 6.3271
" />
<path d="M-255.6023 6.3271
L-255.4833 6.1366
" />
<path d="M-255.4833 6.1366
L-255.3761 6.0413
" />
<path d="M-255.3761 6.0413
L-255.1737 5.9461
" />
<path d="M-255.1737 5.9461
L-254.8880 5.9461
" />
<path d="M-254.8880 5.9461
L-254.7095 6.0413
" />
<path d="M-254.7095 6.0413
L-254.6261 6.1366
" />
<path d="M-254.6261 6.1366
L-254.5547 6.3271
" />
<path d="M-254.5547 6.3271
L-254.6261 6.8985
" />
<path d="M-254.6261 6.8985
L-254.7452 7.0890
" />
<path d="M-254.7452 7.0890
L-254.8523 7.1842
" />
<path d="M-254.8523 7.1842
L-255.0547 7.2794
" />
<path d="M-255.0547 7.2794
L-255.3404 7.2794
" />
<path d="M-253.8166 7.2794
L-253.6499 5.9461
" />
<path d="M-253.6737 6.1366
L-253.5666 6.0413
" />
<path d="M-253.5666 6.0413
L-253.3642 5.9461
" />
<path d="M-253.3642 5.9461
L-253.0785 5.9461
" />
<path d="M-253.0785 5.9461
L-252.8999 6.0413
" />
<path d="M-252.8999 6.0413
L-252.8285 6.2318
" />
<path d="M-252.8285 6.2318
L-252.9595 7.2794
" />
<path d="M-252.8285 6.2318
L-252.7095 6.0413
" />
<path d="M-252.7095 6.0413
L-252.5071 5.9461
" />
<path d="M-252.5071 5.9461
L-252.2214 5.9461
" />
<path d="M-252.2214 5.9461
L-252.0428 6.0413
" />
<path d="M-252.0428 6.0413
L-251.9714 6.2318
" />
<path d="M-251.9714 6.2318
L-252.1023 7.2794
" />
<path d="M-251.1499 7.2794
L-250.9833 5.9461
" />
<path d="M-251.0071 6.1366
L-250.8999 6.0413
" />
<path d="M-250.8999 6.0413
L-250.6976 5.9461
" />
<path d="M-250.6976 5.9461
L-250.4118 5.9461
" />
<path d="M-250.4118 5.9461
L-250.2333 6.0413
" />
<path d="M-250.2333 6.0413
L-250.1618 6.2318
" />
<path d="M-250.1618 6.2318
L-250.2928 7.2794
" />
<path d="M-250.1618 6.2318
L-250.0428 6.0413
" />
<path d="M-250.0428 6.0413
L-249.8404 5.9461
" />
<path d="M-249.8404 5.9461
L-249.5547 5.9461
" />
<path d="M-249.5547 5.9461
L-249.3761 6.0413
" />
<path d="M-249.3761 6.0413
L-249.3047 6.2318
" />
<path d="M-249.3047 6.2318
L-249.4356 7.2794
" />
<path d="M-247.6261 7.2794
L-247.4952 6.2318
" />
<path d="M-247.4952 6.2318
L-247.5666 6.0413
" />
<path d="M-247.5666 6.0413
L-247.7452 5.9461
" />
<path d="M-247.7452 5.9461
L-248.1261 5.9461
" />
<path d="M-248.1261 5.9461
L-248.3285 6.0413
" />
<path d="M-247.6142 7.1842
L-247.8166 7.2794
" />
<path d="M-247.8166 7.2794
L-248.2928 7.2794
" />
<path d="M-248.2928 7.2794
L-248.4714 7.1842
" />
<path d="M-248.4714 7.1842
L-248.5428 6.9937
" />
<path d="M-248.5428 6.9937
L-248.5190 6.8032
" />
<path d="M-248.5190 6.8032
L-248.3999 6.6128
" />
<path d="M-248.3999 6.6128
L-248.1976 6.5175
" />
<path d="M-248.1976 6.5175
L-247.7214 6.5175
" />
<path d="M-247.7214 6.5175
L-247.5190 6.4223
" />
<path d="M-246.5071 5.9461
L-246.6737 7.2794
" />
<path d="M-246.5309 6.1366
L-246.4237 6.0413
" />
<path d="M-246.4237 6.0413
L-246.2214 5.9461
" />
<path d="M-246.2214 5.9461
L-245.9356 5.9461
" />
<path d="M-245.9356 5.9461
L-245.7571 6.0413
" />
<path d="M-245.7571 6.0413
L-245.6856 6.2318
" />
<path d="M-245.6856 6.2318
L-245.8166 7.2794
" />
<path d="M-244.0071 7.2794
L-243.7571 5.2794
" />
<path d="M-243.9952 7.1842
L-244.1976 7.2794
" />
<path d="M-244.1976 7.2794
L-244.5785 7.2794
" />
<path d="M-244.5785 7.2794
L-244.7571 7.1842
" />
<path d="M-244.7571 7.1842
L-244.8404 7.0890
" />
<path d="M-244.8404 7.0890
L-244.9118 6.8985
" />
<path d="M-244.9118 6.8985
L-244.8404 6.3271
" />
<path d="M-244.8404 6.3271
L-244.7214 6.1366
" />
<path d="M-244.7214 6.1366
L-244.6142 6.0413
" />
<path d="M-244.6142 6.0413
L-244.4118 5.9461
" />
<path d="M-244.4118 5.9461
L-244.0309 5.9461
" />
<path d="M-244.0309 5.9461
L-243.8523 6.0413
" />
<path d="M-242.2809 7.1842
L-242.4833 7.2794
" />
<path d="M-242.4833 7.2794
L-242.8642 7.2794
" />
<path d="M-242.8642 7.2794
L-243.0428 7.1842
" />
<path d="M-243.0428 7.1842
L-243.1142 6.9937
" />
<path d="M-243.1142 6.9937
L-243.0190 6.2318
" />
<path d="M-243.0190 6.2318
L-242.8999 6.0413
" />
<path d="M-242.8999 6.0413
L-242.6976 5.9461
" />
<path d="M-242.6976 5.9461
L-242.3166 5.9461
" />
<path d="M-242.3166 5.9461
L-242.1380 6.0413
" />
<path d="M-242.1380 6.0413
L-242.0666 6.2318
" />
<path d="M-242.0666 6.2318
L-242.0904 6.4223
" />
<path d="M-242.0904 6.4223
L-243.0666 6.6128
" />
<path d="M-238.8642 7.2794
L-239.8166 7.2794
" />
<path d="M-239.8166 7.2794
L-239.5666 5.2794
" />
<path d="M-238.0666 6.2318
L-237.3999 6.2318
" />
<path d="M-237.2452 7.2794
L-238.1976 7.2794
" />
<path d="M-238.1976 7.2794
L-237.9476 5.2794
" />
<path d="M-237.9476 5.2794
L-236.9952 5.2794
" />
<path d="M-236.3880 7.2794
L-236.1380 5.2794
" />
<path d="M-236.1380 5.2794
L-235.6618 5.2794
" />
<path d="M-235.6618 5.2794
L-235.3880 5.3747
" />
<path d="M-235.3880 5.3747
L-235.2214 5.5652
" />
<path d="M-235.2214 5.5652
L-235.1499 5.7556
" />
<path d="M-235.1499 5.7556
L-235.1023 6.1366
" />
<path d="M-235.1023 6.1366
L-235.1380 6.4223
" />
<path d="M-235.1380 6.4223
L-235.2809 6.8032
" />
<path d="M-235.2809 6.8032
L-235.3999 6.9937
" />
<path d="M-235.3999 6.9937
L-235.6142 7.1842
" />
<path d="M-235.6142 7.1842
L-235.9118 7.2794
" />
<path d="M-235.9118 7.2794
L-236.3880 7.2794
" />
<path d="M-232.8642 7.2794
L-232.6142 5.2794
" />
<path d="M-230.7690 7.2794
L-231.3166 6.3271
" />
<path d="M-231.9118 7.2794
L-231.6618 5.2794
" />
<path d="M-231.6618 5.2794
L-230.8999 5.2794
" />
<path d="M-230.8999 5.2794
L-230.7214 5.3747
" />
<path d="M-230.7214 5.3747
L-230.6380 5.4699
" />
<path d="M-230.6380 5.4699
L-230.5666 5.6604
" />
<path d="M-230.5666 5.6604
L-230.6023 5.9461
" />
<path d="M-230.6023 5.9461
L-230.7214 6.1366
" />
<path d="M-230.7214 6.1366
L-230.8285 6.2318
" />
<path d="M-230.8285 6.2318
L-231.0309 6.3271
" />
<path d="M-231.0309 6.3271
L-231.7928 6.3271
" />
</g></g>
<g style="fill:none; 
stroke:#C872AB; stroke-width:0.1500; stroke-opacity:1; 
stroke-linecap:round; stroke-linejoin:round;">
<text x="-272.9250" y="3.5250"
textLength="27.7929" font-size="2.0000" lengthAdjust="spacingAndGlyphs"
text-anchor="start" opacity="0" stroke-opacity="0">File: projetled.kicad_pcb</text>
<g class="stroked-text"><desc>File: projetled.kicad_pcb</desc>
<path d="M-271.9692 2.6754
L-272.4692 2.6754
" />
<path d="M-272.4692 3.4611
L-272.4692 1.9611
" />
<path d="M-272.4692 1.9611
L-271.7549 1.9611
" />
<path d="M-271.1835 3.4611
L-271.1835 2.4611
" />
<path d="M-271.1835 1.9611
L-271.2549 2.0326
" />
<path d="M-271.2549 2.0326
L-271.1835 2.1040
" />
<path d="M-271.1835 2.1040
L-271.1120 2.0326
" />
<path d="M-271.1120 2.0326
L-271.1835 1.9611
" />
<path d="M-271.1835 1.9611
L-271.1835 2.1040
" />
<path d="M-270.2549 3.4611
L-270.3977 3.3897
" />
<path d="M-270.3977 3.3897
L-270.4692 3.2468
" />
<path d="M-270.4692 3.2468
L-270.4692 1.9611
" />
<path d="M-269.1120 3.3897
L-269.2549 3.4611
" />
<path d="M-269.2549 3.4611
L-269.5406 3.4611
" />
<path d="M-269.5406 3.4611
L-269.6835 3.3897
" />
<path d="M-269.6835 3.3897
L-269.7549 3.2468
" />
<path d="M-269.7549 3.2468
L-269.7549 2.6754
" />
<path d="M-269.7549 2.6754
L-269.6835 2.5326
" />
<path d="M-269.6835 2.5326
L-269.5406 2.4611
" />
<path d="M-269.5406 2.4611
L-269.2549 2.4611
" />
<path d="M-269.2549 2.4611
L-269.1120 2.5326
" />
<path d="M-269.1120 2.5326
L-269.0406 2.6754
" />
<path d="M-269.0406 2.6754
L-269.0406 2.8183
" />
<path d="M-269.0406 2.8183
L-269.7549 2.9611
" />
<path d="M-268.3977 3.3183
L-268.3263 3.3897
" />
<path d="M-268.3263 3.3897
L-268.3977 3.4611
" />
<path d="M-268.3977 3.4611
L-268.4692 3.3897
" />
<path d="M-268.4692 3.3897
L-268.3977 3.3183
" />
<path d="M-268.3977 3.3183
L-268.3977 3.4611
" />
<path d="M-268.3977 2.5326
L-268.3263 2.6040
" />
<path d="M-268.3263 2.6040
L-268.3977 2.6754
" />
<path d="M-268.3977 2.6754
L-268.4692 2.6040
" />
<path d="M-268.4692 2.6040
L-268.3977 2.5326
" />
<path d="M-268.3977 2.5326
L-268.3977 2.6754
" />
<path d="M-266.5406 2.4611
L-266.5406 3.9611
" />
<path d="M-266.5406 2.5326
L-266.3977 2.4611
" />
<path d="M-266.3977 2.4611
L-266.1120 2.4611
" />
<path d="M-266.1120 2.4611
L-265.9692 2.5326
" />
<path d="M-265.9692 2.5326
L-265.8977 2.6040
" />
<path d="M-265.8977 2.6040
L-265.8263 2.7468
" />
<path d="M-265.8263 2.7468
L-265.8263 3.1754
" />
<path d="M-265.8263 3.1754
L-265.8977 3.3183
" />
<path d="M-265.8977 3.3183
L-265.9692 3.3897
" />
<path d="M-265.9692 3.3897
L-266.1120 3.4611
" />
<path d="M-266.1120 3.4611
L-266.3977 3.4611
" />
<path d="M-266.3977 3.4611
L-266.5406 3.3897
" />
<path d="M-265.1835 3.4611
L-265.1835 2.4611
" />
<path d="M-265.1835 2.7468
L-265.1120 2.6040
" />
<path d="M-265.1120 2.6040
L-265.0406 2.5326
" />
<path d="M-265.0406 2.5326
L-264.8977 2.4611
" />
<path d="M-264.8977 2.4611
L-264.7549 2.4611
" />
<path d="M-264.0406 3.4611
L-264.1835 3.3897
" />
<path d="M-264.1835 3.3897
L-264.2549 3.3183
" />
<path d="M-264.2549 3.3183
L-264.3263 3.1754
" />
<path d="M-264.3263 3.1754
L-264.3263 2.7468
" />
<path d="M-264.3263 2.7468
L-264.2549 2.6040
" />
<path d="M-264.2549 2.6040
L-264.1835 2.5326
" />
<path d="M-264.1835 2.5326
L-264.0406 2.4611
" />
<path d="M-264.0406 2.4611
L-263.8263 2.4611
" />
<path d="M-263.8263 2.4611
L-263.6835 2.5326
" />
<path d="M-263.6835 2.5326
L-263.6120 2.6040
" />
<path d="M-263.6120 2.6040
L-263.5406 2.7468
" />
<path d="M-263.5406 2.7468
L-263.5406 3.1754
" />
<path d="M-263.5406 3.1754
L-263.6120 3.3183
" />
<path d="M-263.6120 3.3183
L-263.6835 3.3897
" />
<path d="M-263.6835 3.3897
L-263.8263 3.4611
" />
<path d="M-263.8263 3.4611
L-264.0406 3.4611
" />
<path d="M-262.8977 2.4611
L-262.8977 3.7468
" />
<path d="M-262.8977 3.7468
L-262.9692 3.8897
" />
<path d="M-262.9692 3.8897
L-263.1120 3.9611
" />
<path d="M-263.1120 3.9611
L-263.1835 3.9611
" />
<path d="M-262.8977 1.9611
L-262.9692 2.0326
" />
<path d="M-262.9692 2.0326
L-262.8977 2.1040
" />
<path d="M-262.8977 2.1040
L-262.8263 2.0326
" />
<path d="M-262.8263 2.0326
L-262.8977 1.9611
" />
<path d="M-262.8977 1.9611
L-262.8977 2.1040
" />
<path d="M-261.6120 3.3897
L-261.7549 3.4611
" />
<path d="M-261.7549 3.4611
L-262.0406 3.4611
" />
<path d="M-262.0406 3.4611
L-262.1835 3.3897
" />
<path d="M-262.1835 3.3897
L-262.2549 3.2468
" />
<path d="M-262.2549 3.2468
L-262.2549 2.6754
" />
<path d="M-262.2549 2.6754
L-262.1835 2.5326
" />
<path d="M-262.1835 2.5326
L-262.0406 2.4611
" />
<path d="M-262.0406 2.4611
L-261.7549 2.4611
" />
<path d="M-261.7549 2.4611
L-261.6120 2.5326
" />
<path d="M-261.6120 2.5326
L-261.5406 2.6754
" />
<path d="M-261.5406 2.6754
L-261.5406 2.8183
" />
<path d="M-261.5406 2.8183
L-262.2549 2.9611
" />
<path d="M-261.1120 2.4611
L-260.5406 2.4611
" />
<path d="M-260.8977 1.9611
L-260.8977 3.2468
" />
<path d="M-260.8977 3.2468
L-260.8263 3.3897
" />
<path d="M-260.8263 3.3897
L-260.6835 3.4611
" />
<path d="M-260.6835 3.4611
L-260.5406 3.4611
" />
<path d="M-259.8263 3.4611
L-259.9692 3.3897
" />
<path d="M-259.9692 3.3897
L-260.0406 3.2468
" />
<path d="M-260.0406 3.2468
L-260.0406 1.9611
" />
<path d="M-258.6835 3.3897
L-258.8263 3.4611
" />
<path d="M-258.8263 3.4611
L-259.1120 3.4611
" />
<path d="M-259.1120 3.4611
L-259.2549 3.3897
" />
<path d="M-259.2549 3.3897
L-259.3263 3.2468
" />
<path d="M-259.3263 3.2468
L-259.3263 2.6754
" />
<path d="M-259.3263 2.6754
L-259.2549 2.5326
" />
<path d="M-259.2549 2.5326
L-259.1120 2.4611
" />
<path d="M-259.1120 2.4611
L-258.8263 2.4611
" />
<path d="M-258.8263 2.4611
L-258.6835 2.5326
" />
<path d="M-258.6835 2.5326
L-258.6120 2.6754
" />
<path d="M-258.6120 2.6754
L-258.6120 2.8183
" />
<path d="M-258.6120 2.8183
L-259.3263 2.9611
" />
<path d="M-257.3263 3.4611
L-257.3263 1.9611
" />
<path d="M-257.3263 3.3897
L-257.4692 3.4611
" />
<path d="M-257.4692 3.4611
L-257.7549 3.4611
" />
<path d="M-257.7549 3.4611
L-257.8977 3.3897
" />
<path d="M-257.8977 3.3897
L-257.9692 3.3183
" />
<path d="M-257.9692 3.3183
L-258.0406 3.1754
" />
<path d="M-258.0406 3.1754
L-258.0406 2.7468
" />
<path d="M-258.0406 2.7468
L-257.9692 2.6040
" />
<path d="M-257.9692 2.6040
L-257.8977 2.5326
" />
<path d="M-257.8977 2.5326
L-257.7549 2.4611
" />
<path d="M-257.7549 2.4611
L-257.4692 2.4611
" />
<path d="M-257.4692 2.4611
L-257.3263 2.5326
" />
<path d="M-256.6120 3.3183
L-256.5406 3.3897
" />
<path d="M-256.5406 3.3897
L-256.6120 3.4611
" />
<path d="M-256.6120 3.4611
L-256.6835 3.3897
" />
<path d="M-256.6835 3.3897
L-256.6120 3.3183
" />
<path d="M-256.6120 3.3183
L-256.6120 3.4611
" />
<path d="M-255.8977 3.4611
L-255.8977 1.9611
" />
<path d="M-255.7549 2.8897
L-255.3263 3.4611
" />
<path d="M-255.3263 2.4611
L-255.8977 3.0326
" />
<path d="M-254.6835 3.4611
L-254.6835 2.4611
" />
<path d="M-254.6835 1.9611
L-254.7549 2.0326
" />
<path d="M-254.7549 2.0326
L-254.6835 2.1040
" />
<path d="M-254.6835 2.1040
L-254.6120 2.0326
" />
<path d="M-254.6120 2.0326
L-254.6835 1.9611
" />
<path d="M-254.6835 1.9611
L-254.6835 2.1040
" />
<path d="M-253.3263 3.3897
L-253.4692 3.4611
" />
<path d="M-253.4692 3.4611
L-253.7549 3.4611
" />
<path d="M-253.7549 3.4611
L-253.8977 3.3897
" />
<path d="M-253.8977 3.3897
L-253.9692 3.3183
" />
<path d="M-253.9692 3.3183
L-254.0406 3.1754
" />
<path d="M-254.0406 3.1754
L-254.0406 2.7468
" />
<path d="M-254.0406 2.7468
L-253.9692 2.6040
" />
<path d="M-253.9692 2.6040
L-253.8977 2.5326
" />
<path d="M-253.8977 2.5326
L-253.7549 2.4611
" />
<path d="M-253.7549 2.4611
L-253.4692 2.4611
" />
<path d="M-253.4692 2.4611
L-253.3263 2.5326
" />
<path d="M-252.0406 3.4611
L-252.0406 2.6754
" />
<path d="M-252.0406 2.6754
L-252.1120 2.5326
" />
<path d="M-252.1120 2.5326
L-252.2549 2.4611
" />
<path d="M-252.2549 2.4611
L-252.5406 2.4611
" />
<path d="M-252.5406 2.4611
L-252.6835 2.5326
" />
<path d="M-252.0406 3.3897
L-252.1835 3.4611
" />
<path d="M-252.1835 3.4611
L-252.5406 3.4611
" />
<path d="M-252.5406 3.4611
L-252.6835 3.3897
" />
<path d="M-252.6835 3.3897
L-252.7549 3.2468
" />
<path d="M-252.7549 3.2468
L-252.7549 3.1040
" />
<path d="M-252.7549 3.1040
L-252.6835 2.9611
" />
<path d="M-252.6835 2.9611
L-252.5406 2.8897
" />
<path d="M-252.5406 2.8897
L-252.1835 2.8897
" />
<path d="M-252.1835 2.8897
L-252.0406 2.8183
" />
<path d="M-250.6835 3.4611
L-250.6835 1.9611
" />
<path d="M-250.6835 3.3897
L-250.8263 3.4611
" />
<path d="M-250.8263 3.4611
L-251.1120 3.4611
" />
<path d="M-251.1120 3.4611
L-251.2549 3.3897
" />
<path d="M-251.2549 3.3897
L-251.3263 3.3183
" />
<path d="M-251.3263 3.3183
L-251.3977 3.1754
" />
<path d="M-251.3977 3.1754
L-251.3977 2.7468
" />
<path d="M-251.3977 2.7468
L-251.3263 2.6040
" />
<path d="M-251.3263 2.6040
L-251.2549 2.5326
" />
<path d="M-251.2549 2.5326
L-251.1120 2.4611
" />
<path d="M-251.1120 2.4611
L-250.8263 2.4611
" />
<path d="M-250.8263 2.4611
L-250.6835 2.5326
" />
<path d="M-250.3263 3.6040
L-249.1835 3.6040
" />
<path d="M-248.8263 2.4611
L-248.8263 3.9611
" />
<path d="M-248.8263 2.5326
L-248.6835 2.4611
" />
<path d="M-248.6835 2.4611
L-248.3977 2.4611
" />
<path d="M-248.3977 2.4611
L-248.2549 2.5326
" />
<path d="M-248.2549 2.5326
L-248.1835 2.6040
" />
<path d="M-248.1835 2.6040
L-248.1120 2.7468
" />
<path d="M-248.1120 2.7468
L-248.1120 3.1754
" />
<path d="M-248.1120 3.1754
L-248.1835 3.3183
" />
<path d="M-248.1835 3.3183
L-248.2549 3.3897
" />
<path d="M-248.2549 3.3897
L-248.3977 3.4611
" />
<path d="M-248.3977 3.4611
L-248.6835 3.4611
" />
<path d="M-248.6835 3.4611
L-248.8263 3.3897
" />
<path d="M-246.8263 3.3897
L-246.9692 3.4611
" />
<path d="M-246.9692 3.4611
L-247.2549 3.4611
" />
<path d="M-247.2549 3.4611
L-247.3977 3.3897
" />
<path d="M-247.3977 3.3897
L-247.4692 3.3183
" />
<path d="M-247.4692 3.3183
L-247.5406 3.1754
" />
<path d="M-247.5406 3.1754
L-247.5406 2.7468
" />
<path d="M-247.5406 2.7468
L-247.4692 2.6040
" />
<path d="M-247.4692 2.6040
L-247.3977 2.5326
" />
<path d="M-247.3977 2.5326
L-247.2549 2.4611
" />
<path d="M-247.2549 2.4611
L-246.9692 2.4611
" />
<path d="M-246.9692 2.4611
L-246.8263 2.5326
" />
<path d="M-246.1835 3.4611
L-246.1835 1.9611
" />
<path d="M-246.1835 2.5326
L-246.0406 2.4611
" />
<path d="M-246.0406 2.4611
L-245.7549 2.4611
" />
<path d="M-245.7549 2.4611
L-245.6120 2.5326
" />
<path d="M-245.6120 2.5326
L-245.5406 2.6040
" />
<path d="M-245.5406 2.6040
L-245.4692 2.7468
" />
<path d="M-245.4692 2.7468
L-245.4692 3.1754
" />
<path d="M-245.4692 3.1754
L-245.5406 3.3183
" />
<path d="M-245.5406 3.3183
L-245.6120 3.3897
" />
<path d="M-245.6120 3.3897
L-245.7549 3.4611
" />
<path d="M-245.7549 3.4611
L-246.0406 3.4611
" />
<path d="M-246.0406 3.4611
L-246.1835 3.3897
" />
</g></g>
<g style="fill:none; 
stroke:#C872AB; stroke-width:0.1500; stroke-opacity:1; 
stroke-linecap:round; stroke-linejoin:round;">
<path d="M-273.9250 -1.4250
L-165.9250 -1.4250
" />
</g>
<g style="fill:none; 
stroke:#C872AB; stroke-width:0.1500; stroke-opacity:1; 
stroke-linecap:round; stroke-linejoin:round;">
<text x="-272.9250" y="0.8250"
textLength="8.2214" font-size="2.0000" lengthAdjust="spacingAndGlyphs"
text-anchor="start" opacity="0" stroke-opacity="0">Sheet: </text>
<g class="stroked-text"><desc>Sheet: </desc>
<path d="M-272.5406 0.6897
L-272.3263 0.7611
" />
<path d="M-272.3263 0.7611
L-271.9692 0.7611
" />
<path d="M-271.9692 0.7611
L-271.8263 0.6897
" />
<path d="M-271.8263 0.6897
L-271.7549 0.6183
" />
<path d="M-271.7549 0.6183
L-271.6835 0.4754
" />
<path d="M-271.6835 0.4754
L-271.6835 0.3326
" />
<path d="M-271.6835 0.3326
L-271.7549 0.1897
" />
<path d="M-271.7549 0.1897
L-271.8263 0.1183
" />
<path d="M-271.8263 0.1183
L-271.9692 0.0468
" />
<path d="M-271.9692 0.0468
L-272.2549 -0.0246
" />
<path d="M-272.2549 -0.0246
L-272.3977 -0.0960
" />
<path d="M-272.3977 -0.0960
L-272.4692 -0.1674
" />
<path d="M-272.4692 -0.1674
L-272.5406 -0.3103
" />
<path d="M-272.5406 -0.3103
L-272.5406 -0.4532
" />
<path d="M-272.5406 -0.4532
L-272.4692 -0.5960
" />
<path d="M-272.4692 -0.5960
L-272.3977 -0.6674
" />
<path d="M-272.3977 -0.6674
L-272.2549 -0.7389
" />
<path d="M-272.2549 -0.7389
L-271.8977 -0.7389
" />
<path d="M-271.8977 -0.7389
L-271.6835 -0.6674
" />
<path d="M-271.0406 0.7611
L-271.0406 -0.7389
" />
<path d="M-270.3977 0.7611
L-270.3977 -0.0246
" />
<path d="M-270.3977 -0.0246
L-270.4692 -0.1674
" />
<path d="M-270.4692 -0.1674
L-270.6120 -0.2389
" />
<path d="M-270.6120 -0.2389
L-270.8263 -0.2389
" />
<path d="M-270.8263 -0.2389
L-270.9692 -0.1674
" />
<path d="M-270.9692 -0.1674
L-271.0406 -0.0960
" />
<path d="M-269.1120 0.6897
L-269.2549 0.7611
" />
<path d="M-269.2549 0.7611
L-269.5406 0.7611
" />
<path d="M-269.5406 0.7611
L-269.6835 0.6897
" />
<path d="M-269.6835 0.6897
L-269.7549 0.5468
" />
<path d="M-269.7549 0.5468
L-269.7549 -0.0246
" />
<path d="M-269.7549 -0.0246
L-269.6835 -0.1674
" />
<path d="M-269.6835 -0.1674
L-269.5406 -0.2389
" />
<path d="M-269.5406 -0.2389
L-269.2549 -0.2389
" />
<path d="M-269.2549 -0.2389
L-269.1120 -0.1674
" />
<path d="M-269.1120 -0.1674
L-269.0406 -0.0246
" />
<path d="M-269.0406 -0.0246
L-269.0406 0.1183
" />
<path d="M-269.0406 0.1183
L-269.7549 0.2611
" />
<path d="M-267.8263 0.6897
L-267.9692 0.7611
" />
<path d="M-267.9692 0.7611
L-268.2549 0.7611
" />
<path d="M-268.2549 0.7611
L-268.3977 0.6897
" />
<path d="M-268.3977 0.6897
L-268.4692 0.5468
" />
<path d="M-268.4692 0.5468
L-268.4692 -0.0246
" />
<path d="M-268.4692 -0.0246
L-268.3977 -0.1674
" />
<path d="M-268.3977 -0.1674
L-268.2549 -0.2389
" />
<path d="M-268.2549 -0.2389
L-267.9692 -0.2389
" />
<path d="M-267.9692 -0.2389
L-267.8263 -0.1674
" />
<path d="M-267.8263 -0.1674
L-267.7549 -0.0246
" />
<path d="M-267.7549 -0.0246
L-267.7549 0.1183
" />
<path d="M-267.7549 0.1183
L-268.4692 0.2611
" />
<path d="M-267.3263 -0.2389
L-266.7549 -0.2389
" />
<path d="M-267.1120 -0.7389
L-267.1120 0.5468
" />
<path d="M-267.1120 0.5468
L-267.0406 0.6897
" />
<path d="M-267.0406 0.6897
L-266.8977 0.7611
" />
<path d="M-266.8977 0.7611
L-266.7549 0.7611
" />
<path d="M-266.2549 0.6183
L-266.1835 0.6897
" />
<path d="M-266.1835 0.6897
L-266.2549 0.7611
" />
<path d="M-266.2549 0.7611
L-266.3263 0.6897
" />
<path d="M-266.3263 0.6897
L-266.2549 0.6183
" />
<path d="M-266.2549 0.6183
L-266.2549 0.7611
" />
<path d="M-266.2549 -0.1674
L-266.1835 -0.0960
" />
<path d="M-266.1835 -0.0960
L-266.2549 -0.0246
" />
<path d="M-266.2549 -0.0246
L-266.3263 -0.0960
" />
<path d="M-266.3263 -0.0960
L-266.2549 -0.1674
" />
<path d="M-266.2549 -0.1674
L-266.2549 -0.0246
" />
</g></g>
<g style="fill:none; 
stroke:#C872AB; stroke-width:0.3000; stroke-opacity:1; 
stroke-linecap:round; stroke-linejoin:round;">
<text x="-272.9250" y="-2.1750"
textLength="0.9000" font-size="2.0000" lengthAdjust="spacingAndGlyphs"
text-anchor="start" opacity="0" stroke-opacity="0"></text>
<g class="stroked-text"><desc></desc>
</g></g>
<g style="fill:none; 
stroke:#C872AB; stroke-width:0.1500; stroke-opacity:1; 
stroke-linecap:round; stroke-linejoin:round;">
<text x="-272.9250" y="-5.1750"
textLength="27.1500" font-size="2.0000" lengthAdjust="spacingAndGlyphs"
text-anchor="start" opacity="0" stroke-opacity="0">Badreddine BOUCHAREB</text>
<g class="stroked-text"><desc>Badreddine BOUCHAREB</desc>
<path d="M-271.9692 -6.0246
L-271.7549 -5.9532
" />
<path d="M-271.7549 -5.9532
L-271.6835 -5.8817
" />
<path d="M-271.6835 -5.8817
L-271.6120 -5.7389
" />
<path d="M-271.6120 -5.7389
L-271.6120 -5.5246
" />
<path d="M-271.6120 -5.5246
L-271.6835 -5.3817
" />
<path d="M-271.6835 -5.3817
L-271.7549 -5.3103
" />
<path d="M-271.7549 -5.3103
L-271.8977 -5.2389
" />
<path d="M-271.8977 -5.2389
L-272.4692 -5.2389
" />
<path d="M-272.4692 -5.2389
L-272.4692 -6.7389
" />
<path d="M-272.4692 -6.7389
L-271.9692 -6.7389
" />
<path d="M-271.9692 -6.7389
L-271.8263 -6.6674
" />
<path d="M-271.8263 -6.6674
L-271.7549 -6.5960
" />
<path d="M-271.7549 -6.5960
L-271.6835 -6.4532
" />
<path d="M-271.6835 -6.4532
L-271.6835 -6.3103
" />
<path d="M-271.6835 -6.3103
L-271.7549 -6.1674
" />
<path d="M-271.7549 -6.1674
L-271.8263 -6.0960
" />
<path d="M-271.8263 -6.0960
L-271.9692 -6.0246
" />
<path d="M-271.9692 -6.0246
L-272.4692 -6.0246
" />
<path d="M-270.3263 -5.2389
L-270.3263 -6.0246
" />
<path d="M-270.3263 -6.0246
L-270.3977 -6.1674
" />
<path d="M-270.3977 -6.1674
L-270.5406 -6.2389
" />
<path d="M-270.5406 -6.2389
L-270.8263 -6.2389
" />
<path d="M-270.8263 -6.2389
L-270.9692 -6.1674
" />
<path d="M-270.3263 -5.3103
L-270.4692 -5.2389
" />
<path d="M-270.4692 -5.2389
L-270.8263 -5.2389
" />
<path d="M-270.8263 -5.2389
L-270.9692 -5.3103
" />
<path d="M-270.9692 -5.3103
L-271.0406 -5.4532
" />
<path d="M-271.0406 -5.4532
L-271.0406 -5.5960
" />
<path d="M-271.0406 -5.5960
L-270.9692 -5.7389
" />
<path d="M-270.9692 -5.7389
L-270.8263 -5.8103
" />
<path d="M-270.8263 -5.8103
L-270.4692 -5.8103
" />
<path d="M-270.4692 -5.8103
L-270.3263 -5.8817
" />
<path d="M-268.9692 -5.2389
L-268.9692 -6.7389
" />
<path d="M-268.9692 -5.3103
L-269.1120 -5.2389
" />
<path d="M-269.1120 -5.2389
L-269.3977 -5.2389
" />
<path d="M-269.3977 -5.2389
L-269.5406 -5.3103
" />
<path d="M-269.5406 -5.3103
L-269.6120 -5.3817
" />
<path d="M-269.6120 -5.3817
L-269.6835 -5.5246
" />
<path d="M-269.6835 -5.5246
L-269.6835 -5.9532
" />
<path d="M-269.6835 -5.9532
L-269.6120 -6.0960
" />
<path d="M-269.6120 -6.0960
L-269.5406 -6.1674
" />
<path d="M-269.5406 -6.1674
L-269.3977 -6.2389
" />
<path d="M-269.3977 -6.2389
L-269.1120 -6.2389
" />
<path d="M-269.1120 -6.2389
L-268.9692 -6.1674
" />
<path d="M-268.2549 -5.2389
L-268.2549 -6.2389
" />
<path d="M-268.2549 -5.9532
L-268.1835 -6.0960
" />
<path d="M-268.1835 -6.0960
L-268.1120 -6.1674
" />
<path d="M-268.1120 -6.1674
L-267.9692 -6.2389
" />
<path d="M-267.9692 -6.2389
L-267.8263 -6.2389
" />
<path d="M-266.7549 -5.3103
L-266.8977 -5.2389
" />
<path d="M-266.8977 -5.2389
L-267.1835 -5.2389
" />
<path d="M-267.1835 -5.2389
L-267.3263 -5.3103
" />
<path d="M-267.3263 -5.3103
L-267.3977 -5.4532
" />
<path d="M-267.3977 -5.4532
L-267.3977 -6.0246
" />
<path d="M-267.3977 -6.0246
L-267.3263 -6.1674
" />
<path d="M-267.3263 -6.1674
L-267.1835 -6.2389
" />
<path d="M-267.1835 -6.2389
L-266.8977 -6.2389
" />
<path d="M-266.8977 -6.2389
L-266.7549 -6.1674
" />
<path d="M-266.7549 -6.1674
L-266.6835 -6.0246
" />
<path d="M-266.6835 -6.0246
L-266.6835 -5.8817
" />
<path d="M-266.6835 -5.8817
L-267.3977 -5.7389
" />
<path d="M-265.3977 -5.2389
L-265.3977 -6.7389
" />
<path d="M-265.3977 -5.3103
L-265.5406 -5.2389
" />
<path d="M-265.5406 -5.2389
L-265.8263 -5.2389
" />
<path d="M-265.8263 -5.2389
L-265.9692 -5.3103
" />
<path d="M-265.9692 -5.3103
L-266.0406 -5.3817
" />
<path d="M-266.0406 -5.3817
L-266.1120 -5.5246
" />
<path d="M-266.1120 -5.5246
L-266.1120 -5.9532
" />
<path d="M-266.1120 -5.9532
L-266.0406 -6.0960
" />
<path d="M-266.0406 -6.0960
L-265.9692 -6.1674
" />
<path d="M-265.9692 -6.1674
L-265.8263 -6.2389
" />
<path d="M-265.8263 -6.2389
L-265.5406 -6.2389
" />
<path d="M-265.5406 -6.2389
L-265.3977 -6.1674
" />
<path d="M-264.0406 -5.2389
L-264.0406 -6.7389
" />
<path d="M-264.0406 -5.3103
L-264.1835 -5.2389
" />
<path d="M-264.1835 -5.2389
L-264.4692 -5.2389
" />
<path d="M-264.4692 -5.2389
L-264.6120 -5.3103
" />
<path d="M-264.6120 -5.3103
L-264.6835 -5.3817
" />
<path d="M-264.6835 -5.3817
L-264.7549 -5.5246
" />
<path d="M-264.7549 -5.5246
L-264.7549 -5.9532
" />
<path d="M-264.7549 -5.9532
L-264.6835 -6.0960
" />
<path d="M-264.6835 -6.0960
L-264.6120 -6.1674
" />
<path d="M-264.6120 -6.1674
L-264.4692 -6.2389
" />
<path d="M-264.4692 -6.2389
L-264.1835 -6.2389
" />
<path d="M-264.1835 -6.2389
L-264.0406 -6.1674
" />
<path d="M-263.3263 -5.2389
L-263.3263 -6.2389
" />
<path d="M-263.3263 -6.7389
L-263.3977 -6.6674
" />
<path d="M-263.3977 -6.6674
L-263.3263 -6.5960
" />
<path d="M-263.3263 -6.5960
L-263.2549 -6.6674
" />
<path d="M-263.2549 -6.6674
L-263.3263 -6.7389
" />
<path d="M-263.3263 -6.7389
L-263.3263 -6.5960
" />
<path d="M-262.6120 -6.2389
L-262.6120 -5.2389
" />
<path d="M-262.6120 -6.0960
L-262.5406 -6.1674
" />
<path d="M-262.5406 -6.1674
L-262.3977 -6.2389
" />
<path d="M-262.3977 -6.2389
L-262.1835 -6.2389
" />
<path d="M-262.1835 -6.2389
L-262.0406 -6.1674
" />
<path d="M-262.0406 -6.1674
L-261.9692 -6.0246
" />
<path d="M-261.9692 -6.0246
L-261.9692 -5.2389
" />
<path d="M-260.6835 -5.3103
L-260.8263 -5.2389
" />
<path d="M-260.8263 -5.2389
L-261.1120 -5.2389
" />
<path d="M-261.1120 -5.2389
L-261.2549 -5.3103
" />
<path d="M-261.2549 -5.3103
L-261.3263 -5.4532
" />
<path d="M-261.3263 -5.4532
L-261.3263 -6.0246
" />
<path d="M-261.3263 -6.0246
L-261.2549 -6.1674
" />
<path d="M-261.2549 -6.1674
L-261.1120 -6.2389
" />
<path d="M-261.1120 -6.2389
L-260.8263 -6.2389
" />
<path d="M-260.8263 -6.2389
L-260.6835 -6.1674
" />
<path d="M-260.6835 -6.1674
L-260.6120 -6.0246
" />
<path d="M-260.6120 -6.0246
L-260.6120 -5.8817
" />
<path d="M-260.6120 -5.8817
L-261.3263 -5.7389
" />
<path d="M-258.3263 -6.0246
L-258.1120 -5.9532
" />
<path d="M-258.1120 -5.9532
L-258.0406 -5.8817
" />
<path d="M-258.0406 -5.8817
L-257.9692 -5.7389
" />
<path d="M-257.9692 -5.7389
L-257.9692 -5.5246
" />
<path d="M-257.9692 -5.5246
L-258.0406 -5.3817
" />
<path d="M-258.0406 -5.3817
L-258.1120 -5.3103
" />
<path d="M-258.1120 -5.3103
L-258.2549 -5.2389
" />
<path d="M-258.2549 -5.2389
L-258.8263 -5.2389
" />
<path d="M-258.8263 -5.2389
L-258.8263 -6.7389
" />
<path d="M-258.8263 -6.7389
L-258.3263 -6.7389
" />
<path d="M-258.3263 -6.7389
L-258.1835 -6.6674
" />
<path d="M-258.1835 -6.6674
L-258.1120 -6.5960
" />
<path d="M-258.1120 -6.5960
L-258.0406 -6.4532
" />
<path d="M-258.0406 -6.4532
L-258.0406 -6.3103
" />
<path d="M-258.0406 -6.3103
L-258.1120 -6.1674
" />
<path d="M-258.1120 -6.1674
L-258.1835 -6.0960
" />
<path d="M-258.1835 -6.0960
L-258.3263 -6.0246
" />
<path d="M-258.3263 -6.0246
L-258.8263 -6.0246
" />
<path d="M-257.0406 -6.7389
L-256.7549 -6.7389
" />
<path d="M-256.7549 -6.7389
L-256.6120 -6.6674
" />
<path d="M-256.6120 -6.6674
L-256.4692 -6.5246
" />
<path d="M-256.4692 -6.5246
L-256.3977 -6.2389
" />
<path d="M-256.3977 -6.2389
L-256.3977 -5.7389
" />
<path d="M-256.3977 -5.7389
L-256.4692 -5.4532
" />
<path d="M-256.4692 -5.4532
L-256.6120 -5.3103
" />
<path d="M-256.6120 -5.3103
L-256.7549 -5.2389
" />
<path d="M-256.7549 -5.2389
L-257.0406 -5.2389
" />
<path d="M-257.0406 -5.2389
L-257.1835 -5.3103
" />
<path d="M-257.1835 -5.3103
L-257.3263 -5.4532
" />
<path d="M-257.3263 -5.4532
L-257.3977 -5.7389
" />
<path d="M-257.3977 -5.7389
L-257.3977 -6.2389
" />
<path d="M-257.3977 -6.2389
L-257.3263 -6.5246
" />
<path d="M-257.3263 -6.5246
L-257.1835 -6.6674
" />
<path d="M-257.1835 -6.6674
L-257.0406 -6.7389
" />
<path d="M-255.7549 -6.7389
L-255.7549 -5.5246
" />
<path d="M-255.7549 -5.5246
L-255.6835 -5.3817
" />
<path d="M-255.6835 -5.3817
L-255.6120 -5.3103
" />
<path d="M-255.6120 -5.3103
L-255.4692 -5.2389
" />
<path d="M-255.4692 -5.2389
L-255.1835 -5.2389
" />
<path d="M-255.1835 -5.2389
L-255.0406 -5.3103
" />
<path d="M-255.0406 -5.3103
L-254.9692 -5.3817
" />
<path d="M-254.9692 -5.3817
L-254.8977 -5.5246
" />
<path d="M-254.8977 -5.5246
L-254.8977 -6.7389
" />
<path d="M-253.3263 -5.3817
L-253.3977 -5.3103
" />
<path d="M-253.3977 -5.3103
L-253.6120 -5.2389
" />
<path d="M-253.6120 -5.2389
L-253.7549 -5.2389
" />
<path d="M-253.7549 -5.2389
L-253.9692 -5.3103
" />
<path d="M-253.9692 -5.3103
L-254.1120 -5.4532
" />
<path d="M-254.1120 -5.4532
L-254.1835 -5.5960
" />
<path d="M-254.1835 -5.5960
L-254.2549 -5.8817
" />
<path d="M-254.2549 -5.8817
L-254.2549 -6.0960
" />
<path d="M-254.2549 -6.0960
L-254.1835 -6.3817
" />
<path d="M-254.1835 -6.3817
L-254.1120 -6.5246
" />
<path d="M-254.1120 -6.5246
L-253.9692 -6.6674
" />
<path d="M-253.9692 -6.6674
L-253.7549 -6.7389
" />
<path d="M-253.7549 -6.7389
L-253.6120 -6.7389
" />
<path d="M-253.6120 -6.7389
L-253.3977 -6.6674
" />
<path d="M-253.3977 -6.6674
L-253.3263 -6.5960
" />
<path d="M-252.6835 -5.2389
L-252.6835 -6.7389
" />
<path d="M-252.6835 -6.0246
L-251.8263 -6.0246
" />
<path d="M-251.8263 -5.2389
L-251.8263 -6.7389
" />
<path d="M-251.1835 -5.6674
L-250.4692 -5.6674
" />
<path d="M-251.3263 -5.2389
L-250.8263 -6.7389
" />
<path d="M-250.8263 -6.7389
L-250.3263 -5.2389
" />
<path d="M-248.9692 -5.2389
L-249.4692 -5.9532
" />
<path d="M-249.8263 -5.2389
L-249.8263 -6.7389
" />
<path d="M-249.8263 -6.7389
L-249.2549 -6.7389
" />
<path d="M-249.2549 -6.7389
L-249.1120 -6.6674
" />
<path d="M-249.1120 -6.6674
L-249.0406 -6.5960
" />
<path d="M-249.0406 -6.5960
L-248.9692 -6.4532
" />
<path d="M-248.9692 -6.4532
L-248.9692 -6.2389
" />
<path d="M-248.9692 -6.2389
L-249.0406 -6.0960
" />
<path d="M-249.0406 -6.0960
L-249.1120 -6.0246
" />
<path d="M-249.1120 -6.0246
L-249.2549 -5.9532
" />
<path d="M-249.2549 -5.9532
L-249.8263 -5.9532
" />
<path d="M-248.3263 -6.0246
L-247.8263 -6.0246
" />
<path d="M-247.6120 -5.2389
L-248.3263 -5.2389
" />
<path d="M-248.3263 -5.2389
L-248.3263 -6.7389
" />
<path d="M-248.3263 -6.7389
L-247.6120 -6.7389
" />
<path d="M-246.4692 -6.0246
L-246.2549 -5.9532
" />
<path d="M-246.2549 -5.9532
L-246.1835 -5.8817
" />
<path d="M-246.1835 -5.8817
L-246.1120 -5.7389
" />
<path d="M-246.1120 -5.7389
L-246.1120 -5.5246
" />
<path d="M-246.1120 -5.5246
L-246.1835 -5.3817
" />
<path d="M-246.1835 -5.3817
L-246.2549 -5.3103
" />
<path d="M-246.2549 -5.3103
L-246.3977 -5.2389
" />
<path d="M-246.3977 -5.2389
L-246.9692 -5.2389
" />
<path d="M-246.9692 -5.2389
L-246.9692 -6.7389
" />
<path d="M-246.9692 -6.7389
L-246.4692 -6.7389
" />
<path d="M-246.4692 -6.7389
L-246.3263 -6.6674
" />
<path d="M-246.3263 -6.6674
L-246.2549 -6.5960
" />
<path d="M-246.2549 -6.5960
L-246.1835 -6.4532
" />
<path d="M-246.1835 -6.4532
L-246.1835 -6.3103
" />
<path d="M-246.1835 -6.3103
L-246.2549 -6.1674
" />
<path d="M-246.2549 -6.1674
L-246.3263 -6.0960
" />
<path d="M-246.3263 -6.0960
L-246.4692 -6.0246
" />
<path d="M-246.4692 -6.0246
L-246.9692 -6.0246
" />
</g></g>
<g style="fill:none; 
stroke:#C872AB; stroke-width:0.1500; stroke-opacity:1; 
stroke-linecap:round; stroke-linejoin:round;">
<text x="-272.9250" y="-8.1750"
textLength="0.4500" font-size="2.0000" lengthAdjust="spacingAndGlyphs"
text-anchor="start" opacity="0" stroke-opacity="0"></text>
<g class="stroked-text"><desc></desc>
</g></g>
<g style="fill:none; 
stroke:#C872AB; stroke-width:0.1500; stroke-opacity:1; 
stroke-linecap:round; stroke-linejoin:round;">
<text x="-272.9250" y="-11.1750"
textLength="0.4500" font-size="2.0000" lengthAdjust="spacingAndGlyphs"
text-anchor="start" opacity="0" stroke-opacity="0"></text>
<g class="stroked-text"><desc></desc>
</g></g>
<g style="fill:none; 
stroke:#C872AB; stroke-width:0.1500; stroke-opacity:1; 
stroke-linecap:round; stroke-linejoin:round;">
<text x="-272.9250" y="-14.1750"
textLength="0.4500" font-size="2.0000" lengthAdjust="spacingAndGlyphs"
text-anchor="start" opacity="0" stroke-opacity="0"></text>
<g class="stroked-text"><desc></desc>
</g></g>
<g style="fill:none; 
stroke:#C872AB; stroke-width:0.1500; stroke-opacity:1; 
stroke-linecap:round; stroke-linejoin:round;">
<path d="M-253.9250 8.5750
L-253.9250 11.5750
" />
</g>
<g style="fill:none; 
stroke:#C872AB; stroke-width:0.1500; stroke-opacity:1; 
stroke-linecap:round; stroke-linejoin:round;">
<path d="M-189.9250 8.5750
L-189.9250 15.0750
" />
<path style="fill:#4D7FC4; fill-opacity:1.0000; stroke:none;fill-rule:evenodd;"
d="M 4.1112,19.1250
4.1112,20.9250
5.9112,20.9250
5.9112,19.1250
Z" /> 
</g>
<g style="fill:#4D7FC4; fill-opacity:1.0000; stroke:none;">
<circle cx="7.5512" cy="20.0250" r="0.9000" /> 
</g>
<g style="fill:#4D7FC4; fill-opacity:1.0000; stroke:none;">
<circle cx="24.0112" cy="37.0250" r="1.0000" /> 
</g>
<g style="fill:#4D7FC4; fill-opacity:1.0000; stroke:none;">
<circle cx="24.0112" cy="30.5250" r="1.0000" /> 
</g>
<g style="fill:#4D7FC4; fill-opacity:1.0000; stroke:none;">
<circle cx="19.5112" cy="37.0250" r="1.0000" /> 
</g>
<g style="fill:#4D7FC4; fill-opacity:1.0000; stroke:none;">
<circle cx="19.5112" cy="30.5250" r="1.0000" /> 
</g>
<g style="fill:#4D7FC4; fill-opacity:1.0000; stroke:none;">
<circle cx="54.0112" cy="37.0250" r="1.0000" /> 
</g>
<g style="fill:#4D7FC4; fill-opacity:1.0000; stroke:none;">
<circle cx="54.0112" cy="30.5250" r="1.0000" /> 
</g>
<g style="fill:#4D7FC4; fill-opacity:1.0000; stroke:none;">
<circle cx="49.5112" cy="37.0250" r="1.0000" /> 
</g>
<g style="fill:#4D7FC4; fill-opacity:1.0000; stroke:none;">
<circle cx="49.5112" cy="30.5250" r="1.0000" /> 
</g>
<g style="fill:#4D7FC4; fill-opacity:1.0000; stroke:none;">
<circle cx="34.0112" cy="37.0250" r="1.0000" /> 
</g>
<g style="fill:#4D7FC4; fill-opacity:1.0000; stroke:none;">
<circle cx="34.0112" cy="30.5250" r="1.0000" /> 
</g>
<g style="fill:#4D7FC4; fill-opacity:1.0000; stroke:none;">
<circle cx="29.5112" cy="37.0250" r="1.0000" /> 
</g>
<g style="fill:#4D7FC4; fill-opacity:1.0000; stroke:none;">
<circle cx="29.5112" cy="30.5250" r="1.0000" /> 
</g>
<g style="fill:#4D7FC4; fill-opacity:1.0000; stroke:none;">
<circle cx="44.0112" cy="37.0250" r="1.0000" /> 
</g>
<g style="fill:#4D7FC4; fill-opacity:1.0000; stroke:none;">
<circle cx="44.0112" cy="30.5250" r="1.0000" /> 
</g>
<g style="fill:#4D7FC4; fill-opacity:1.0000; stroke:none;">
<circle cx="39.5112" cy="37.0250" r="1.0000" /> 
</g>
<g style="fill:#4D7FC4; fill-opacity:1.0000; stroke:none;">
<circle cx="39.5112" cy="30.5250" r="1.0000" /> 
<path style="fill:#4D7FC4; fill-opacity:1.0000; stroke:none;fill-rule:evenodd;"
d="M 47.7212,5.6750
46.0212,5.6750
46.0212,7.3750
47.7212,7.3750
Z" /> 
</g>
<g style="fill:#4D7FC4; fill-opacity:1.0000; stroke:none;">
<circle cx="44.3312" cy="6.5250" r="0.8500" /> 
</g>
<g style="fill:#4D7FC4; fill-opacity:1.0000; stroke:none;">
<circle cx="41.7912" cy="6.5250" r="0.8500" /> 
</g>
<g style="fill:#4D7FC4; fill-opacity:1.0000; stroke:none;">
<circle cx="39.2512" cy="6.5250" r="0.8500" /> 
</g>
<g style="fill:#4D7FC4; fill-opacity:1.0000; stroke:none;">
<circle cx="36.7112" cy="6.5250" r="0.8500" /> 
</g>
<g style="fill:#4D7FC4; fill-opacity:1.0000; stroke:none;">
<circle cx="34.1712" cy="6.5250" r="0.8500" /> 
<path style="fill:#4D7FC4; fill-opacity:1.0000; stroke:none;fill-rule:evenodd;"
d="M 29.9412,5.6750
28.2412,5.6750
28.2412,7.3750
29.9412,7.3750
Z" /> 
</g>
<g style="fill:#4D7FC4; fill-opacity:1.0000; stroke:none;">
<circle cx="26.5512" cy="6.5250" r="0.8500" /> 
</g>
<g style="fill:#4D7FC4; fill-opacity:1.0000; stroke:none;">
<circle cx="24.0112" cy="6.5250" r="0.8500" /> 
</g>
<g style="fill:#4D7FC4; fill-opacity:1.0000; stroke:none;">
<circle cx="21.4712" cy="6.5250" r="0.8500" /> 
</g>
<g style="fill:#4D7FC4; fill-opacity:1.0000; stroke:none;">
<circle cx="18.9312" cy="6.5250" r="0.8500" /> 
</g>
<g style="fill:#4D7FC4; fill-opacity:1.0000; stroke:none;">
<circle cx="16.3912" cy="6.5250" r="0.8500" /> 
</g>
<g style="fill:#4D7FC4; fill-opacity:1.0000; stroke:none;">
<circle cx="13.8512" cy="6.5250" r="0.8500" /> 
</g>
<g style="fill:#4D7FC4; fill-opacity:1.0000; stroke:none;">
<circle cx="11.3112" cy="6.5250" r="0.8500" /> 
<path style="fill:#4D7FC4; fill-opacity:1.0000; stroke:none;fill-rule:evenodd;"
d="M 10.4612,55.6350
12.1612,55.6350
12.1612,53.9350
10.4612,53.9350
Z" /> 
</g>
<g style="fill:#4D7FC4; fill-opacity:1.0000; stroke:none;">
<circle cx="13.8512" cy="54.7850" r="0.8500" /> 
</g>
<g style="fill:#4D7FC4; fill-opacity:1.0000; stroke:none;">
<circle cx="16.3912" cy="54.7850" r="0.8500" /> 
</g>
<g style="fill:#4D7FC4; fill-opacity:1.0000; stroke:none;">
<circle cx="18.9312" cy="54.7850" r="0.8500" /> 
</g>
<g style="fill:#4D7FC4; fill-opacity:1.0000; stroke:none;">
<circle cx="21.4712" cy="54.7850" r="0.8500" /> 
</g>
<g style="fill:#4D7FC4; fill-opacity:1.0000; stroke:none;">
<circle cx="24.0112" cy="54.7850" r="0.8500" /> 
</g>
<g style="fill:#4D7FC4; fill-opacity:1.0000; stroke:none;">
<circle cx="26.5512" cy="54.7850" r="0.8500" /> 
</g>
<g style="fill:#4D7FC4; fill-opacity:1.0000; stroke:none;">
<circle cx="29.0912" cy="54.7850" r="0.8500" /> 
</g>
<g style="fill:#4D7FC4; fill-opacity:1.0000; stroke:none;">
<circle cx="31.6312" cy="54.7850" r="0.8500" /> 
</g>
<g style="fill:#4D7FC4; fill-opacity:1.0000; stroke:none;">
<circle cx="34.1712" cy="54.7850" r="0.8500" /> 
<path style="fill:#4D7FC4; fill-opacity:1.0000; stroke:none;fill-rule:evenodd;"
d="M 37.3812,55.6350
39.0812,55.6350
39.0812,53.9350
37.3812,53.9350
Z" /> 
</g>
<g style="fill:#4D7FC4; fill-opacity:1.0000; stroke:none;">
<circle cx="40.7712" cy="54.7850" r="0.8500" /> 
</g>
<g style="fill:#4D7FC4; fill-opacity:1.0000; stroke:none;">
<circle cx="43.3112" cy="54.7850" r="0.8500" /> 
</g>
<g style="fill:#4D7FC4; fill-opacity:1.0000; stroke:none;">
<circle cx="45.8512" cy="54.7850" r="0.8500" /> 
</g>
<g style="fill:#4D7FC4; fill-opacity:1.0000; stroke:none;">
<circle cx="48.3912" cy="54.7850" r="0.8500" /> 
</g>
<g style="fill:#4D7FC4; fill-opacity:1.0000; stroke:none;">
<circle cx="50.9312" cy="54.7850" r="0.8500" /> 
</g>
<g style="fill:#4D7FC4; fill-opacity:1.0000; stroke:none;">
<circle cx="53.4712" cy="54.7850" r="0.8500" /> 
</g>
<g style="fill:#4D7FC4; fill-opacity:1.0000; stroke:none;">
<circle cx="56.0112" cy="54.7850" r="0.8500" /> 
</g>
<g style="fill:none; 
stroke:#E8B2A7; stroke-width:0.1500; stroke-opacity:1; 
stroke-linecap:round; stroke-linejoin:round;">
<text x="40.5112" y="3.7250"
textLength="1.9643" font-size="1.3333" lengthAdjust="spacingAndGlyphs"
text-anchor="middle" opacity="0" stroke-opacity="0">J2</text>
<g class="stroked-text"><desc>J2</desc>
<path d="M40.1779 2.6798
L40.1779 3.3941
" />
<path d="M40.1779 3.3941
L40.1302 3.5370
" />
<path d="M40.1302 3.5370
L40.0350 3.6322
" />
<path d="M40.0350 3.6322
L39.8922 3.6798
" />
<path d="M39.8922 3.6798
L39.7969 3.6798
" />
<path d="M40.6064 2.7751
L40.6541 2.7274
" />
<path d="M40.6541 2.7274
L40.7493 2.6798
" />
<path d="M40.7493 2.6798
L40.9874 2.6798
" />
<path d="M40.9874 2.6798
L41.0826 2.7274
" />
<path d="M41.0826 2.7274
L41.1302 2.7751
" />
<path d="M41.1302 2.7751
L41.1779 2.8703
" />
<path d="M41.1779 2.8703
L41.1779 2.9655
" />
<path d="M41.1779 2.9655
L41.1302 3.1084
" />
<path d="M41.1302 3.1084
L40.5588 3.6798
" />
<path d="M40.5588 3.6798
L41.1779 3.6798
" />
</g><text x="20.2112" y="3.7250"
textLength="1.9643" font-size="1.3333" lengthAdjust="spacingAndGlyphs"
text-anchor="middle" opacity="0" stroke-opacity="0">J5</text>
<g class="stroked-text"><desc>J5</desc>
<path d="M19.8779 2.6798
L19.8779 3.3941
" />
<path d="M19.8779 3.3941
L19.8302 3.5370
" />
<path d="M19.8302 3.5370
L19.7350 3.6322
" />
<path d="M19.7350 3.6322
L19.5922 3.6798
" />
<path d="M19.5922 3.6798
L19.4969 3.6798
" />
<path d="M20.8302 2.6798
L20.3541 2.6798
" />
<path d="M20.3541 2.6798
L20.3064 3.1560
" />
<path d="M20.3064 3.1560
L20.3541 3.1084
" />
<path d="M20.3541 3.1084
L20.4493 3.0608
" />
<path d="M20.4493 3.0608
L20.6874 3.0608
" />
<path d="M20.6874 3.0608
L20.7826 3.1084
" />
<path d="M20.7826 3.1084
L20.8302 3.1560
" />
<path d="M20.8302 3.1560
L20.8779 3.2512
" />
<path d="M20.8779 3.2512
L20.8779 3.4893
" />
<path d="M20.8779 3.4893
L20.8302 3.5846
" />
<path d="M20.8302 3.5846
L20.7826 3.6322
" />
<path d="M20.7826 3.6322
L20.6874 3.6798
" />
<path d="M20.6874 3.6798
L20.4493 3.6798
" />
<path d="M20.4493 3.6798
L20.3541 3.6322
" />
<path d="M20.3541 3.6322
L20.3064 3.5846
" />
</g><text x="22.8112" y="60.3250"
textLength="1.9643" font-size="1.3333" lengthAdjust="spacingAndGlyphs"
text-anchor="middle" opacity="0" stroke-opacity="0">J3</text>
<g class="stroked-text"><desc>J3</desc>
<path d="M22.4779 59.2798
L22.4779 59.9941
" />
<path d="M22.4779 59.9941
L22.4302 60.1370
" />
<path d="M22.4302 60.1370
L22.3350 60.2322
" />
<path d="M22.3350 60.2322
L22.1922 60.2798
" />
<path d="M22.1922 60.2798
L22.0969 60.2798
" />
<path d="M22.8588 59.2798
L23.4779 59.2798
" />
<path d="M23.4779 59.2798
L23.1445 59.6608
" />
<path d="M23.1445 59.6608
L23.2874 59.6608
" />
<path d="M23.2874 59.6608
L23.3826 59.7084
" />
<path d="M23.3826 59.7084
L23.4302 59.7560
" />
<path d="M23.4302 59.7560
L23.4779 59.8512
" />
<path d="M23.4779 59.8512
L23.4779 60.0893
" />
<path d="M23.4779 60.0893
L23.4302 60.1846
" />
<path d="M23.4302 60.1846
L23.3826 60.2322
" />
<path d="M23.3826 60.2322
L23.2874 60.2798
" />
<path d="M23.2874 60.2798
L23.0017 60.2798
" />
<path d="M23.0017 60.2798
L22.9064 60.2322
" />
<path d="M22.9064 60.2322
L22.8588 60.1846
" />
</g><text x="47.0112" y="60.3250"
textLength="1.9643" font-size="1.3333" lengthAdjust="spacingAndGlyphs"
text-anchor="middle" opacity="0" stroke-opacity="0">J4</text>
<g class="stroked-text"><desc>J4</desc>
<path d="M46.6779 59.2798
L46.6779 59.9941
" />
<path d="M46.6779 59.9941
L46.6302 60.1370
" />
<path d="M46.6302 60.1370
L46.5350 60.2322
" />
<path d="M46.5350 60.2322
L46.3922 60.2798
" />
<path d="M46.3922 60.2798
L46.2969 60.2798
" />
<path d="M47.5826 59.6132
L47.5826 60.2798
" />
<path d="M47.3445 59.2322
L47.1064 59.9465
" />
<path d="M47.1064 59.9465
L47.7255 59.9465
" />
</g></g>
<g style="fill:none; 
stroke:#E8B2A7; stroke-width:0.1200; stroke-opacity:1; 
stroke-linecap:round; stroke-linejoin:round;">
<path d="M48.2512 5.1450
L48.2512 6.5250
" />
<path d="M46.8712 5.1450
L48.2512 5.1450
" />
<path d="M45.6012 5.1450
L45.6012 7.9050
" />
<path d="M45.6012 5.1450
L32.7912 5.1450
" />
<path d="M45.6012 7.9050
L32.7912 7.9050
" />
<path d="M32.7912 5.1450
L32.7912 7.9050
" />
<path d="M30.4712 5.1450
L30.4712 6.5250
" />
<path d="M29.0912 5.1450
L30.4712 5.1450
" />
<path d="M27.8212 5.1450
L27.8212 7.9050
" />
<path d="M27.8212 5.1450
L9.9312 5.1450
" />
<path d="M27.8212 7.9050
L9.9312 7.9050
" />
<path d="M9.9312 5.1450
L9.9312 7.9050
" />
<path d="M35.5512 56.1650
L35.5512 53.4050
" />
<path d="M12.5812 53.4050
L35.5512 53.4050
" />
<path d="M12.5812 56.1650
L35.5512 56.1650
" />
<path d="M12.5812 56.1650
L12.5812 53.4050
" />
<path d="M11.3112 56.1650
L9.9312 56.1650
" />
<path d="M9.9312 56.1650
L9.9312 54.7850
" />
<path d="M57.3912 56.1650
L57.3912 53.4050
" />
<path d="M39.5012 53.4050
L57.3912 53.4050
" />
<path d="M39.5012 56.1650
L57.3912 56.1650
" />
<path d="M39.5012 56.1650
L39.5012 53.4050
" />
<path d="M38.2312 56.1650
L36.8512 56.1650
" />
<path d="M36.8512 56.1650
L36.8512 54.7850
" />
<path style="fill:none; 
stroke:#D0D2CD; stroke-width:0.0500; stroke-opacity:1; 
stroke-linecap:round; stroke-linejoin:round;fill:none"
d="M 61.0112,0.0250
0.0112,0.0250
0.0112,65.0250
61.0112,65.0250
Z" /> 
</g>
<g style="fill:#FFFFFF; fill-opacity:1.0000; stroke:none;">
<circle cx="5.0112" cy="20.0250" r="0.4500" /> 
</g>
<g style="fill:#FFFFFF; fill-opacity:1.0000; stroke:none;">
<circle cx="7.5512" cy="20.0250" r="0.4500" /> 
</g>
<g style="fill:#FFFFFF; fill-opacity:1.0000; stroke:none;">
<circle cx="24.0112" cy="37.0250" r="0.5500" /> 
</g>
<g style="fill:#FFFFFF; fill-opacity:1.0000; stroke:none;">
<circle cx="24.0112" cy="30.5250" r="0.5500" /> 
</g>
<g style="fill:#FFFFFF; fill-opacity:1.0000; stroke:none;">
<circle cx="19.5112" cy="37.0250" r="0.5500" /> 
</g>
<g style="fill:#FFFFFF; fill-opacity:1.0000; stroke:none;">
<circle cx="19.5112" cy="30.5250" r="0.5500" /> 
</g>
<g style="fill:#FFFFFF; fill-opacity:1.0000; stroke:none;">
<circle cx="54.0112" cy="37.0250" r="0.5500" /> 
</g>
<g style="fill:#FFFFFF; fill-opacity:1.0000; stroke:none;">
<circle cx="54.0112" cy="30.5250" r="0.5500" /> 
</g>
<g style="fill:#FFFFFF; fill-opacity:1.0000; stroke:none;">
<circle cx="49.5112" cy="37.0250" r="0.5500" /> 
</g>
<g style="fill:#FFFFFF; fill-opacity:1.0000; stroke:none;">
<circle cx="49.5112" cy="30.5250" r="0.5500" /> 
</g>
<g style="fill:#FFFFFF; fill-opacity:1.0000; stroke:none;">
<circle cx="34.0112" cy="37.0250" r="0.5500" /> 
</g>
<g style="fill:#FFFFFF; fill-opacity:1.0000; stroke:none;">
<circle cx="34.0112" cy="30.5250" r="0.5500" /> 
</g>
<g style="fill:#FFFFFF; fill-opacity:1.0000; stroke:none;">
<circle cx="29.5112" cy="37.0250" r="0.5500" /> 
</g>
<g style="fill:#FFFFFF; fill-opacity:1.0000; stroke:none;">
<circle cx="29.5112" cy="30.5250" r="0.5500" /> 
</g>
<g style="fill:#FFFFFF; fill-opacity:1.0000; stroke:none;">
<circle cx="44.0112" cy="37.0250" r="0.5500" /> 
</g>
<g style="fill:#FFFFFF; fill-opacity:1.0000; stroke:none;">
<circle cx="44.0112" cy="30.5250" r="0.5500" /> 
</g>
<g style="fill:#FFFFFF; fill-opacity:1.0000; stroke:none;">
<circle cx="39.5112" cy="37.0250" r="0.5500" /> 
</g>
<g style="fill:#FFFFFF; fill-opacity:1.0000; stroke:none;">
<circle cx="39.5112" cy="30.5250" r="0.5500" /> 
</g>
<g style="fill:#FFFFFF; fill-opacity:1.0000; stroke:none;">
<circle cx="46.8712" cy="6.5250" r="0.5000" /> 
</g>
<g style="fill:#FFFFFF; fill-opacity:1.0000; stroke:none;">
<circle cx="44.3312" cy="6.5250" r="0.5000" /> 
</g>
<g style="fill:#FFFFFF; fill-opacity:1.0000; stroke:none;">
<circle cx="41.7912" cy="6.5250" r="0.5000" /> 
</g>
<g style="fill:#FFFFFF; fill-opacity:1.0000; stroke:none;">
<circle cx="39.2512" cy="6.5250" r="0.5000" /> 
</g>
<g style="fill:#FFFFFF; fill-opacity:1.0000; stroke:none;">
<circle cx="36.7112" cy="6.5250" r="0.5000" /> 
</g>
<g style="fill:#FFFFFF; fill-opacity:1.0000; stroke:none;">
<circle cx="34.1712" cy="6.5250" r="0.5000" /> 
</g>
<g style="fill:#FFFFFF; fill-opacity:1.0000; stroke:none;">
<circle cx="29.0912" cy="6.5250" r="0.5000" /> 
</g>
<g style="fill:#FFFFFF; fill-opacity:1.0000; stroke:none;">
<circle cx="26.5512" cy="6.5250" r="0.5000" /> 
</g>
<g style="fill:#FFFFFF; fill-opacity:1.0000; stroke:none;">
<circle cx="24.0112" cy="6.5250" r="0.5000" /> 
</g>
<g style="fill:#FFFFFF; fill-opacity:1.0000; stroke:none;">
<circle cx="21.4712" cy="6.5250" r="0.5000" /> 
</g>
<g style="fill:#FFFFFF; fill-opacity:1.0000; stroke:none;">
<circle cx="18.9312" cy="6.5250" r="0.5000" /> 
</g>
<g style="fill:#FFFFFF; fill-opacity:1.0000; stroke:none;">
<circle cx="16.3912" cy="6.5250" r="0.5000" /> 
</g>
<g style="fill:#FFFFFF; fill-opacity:1.0000; stroke:none;">
<circle cx="13.8512" cy="6.5250" r="0.5000" /> 
</g>
<g style="fill:#FFFFFF; fill-opacity:1.0000; stroke:none;">
<circle cx="11.3112" cy="6.5250" r="0.5000" /> 
</g>
<g style="fill:#FFFFFF; fill-opacity:1.0000; stroke:none;">
<circle cx="11.3112" cy="54.7850" r="0.5000" /> 
</g>
<g style="fill:#FFFFFF; fill-opacity:1.0000; stroke:none;">
<circle cx="13.8512" cy="54.7850" r="0.5000" /> 
</g>
<g style="fill:#FFFFFF; fill-opacity:1.0000; stroke:none;">
<circle cx="16.3912" cy="54.7850" r="0.5000" /> 
</g>
<g style="fill:#FFFFFF; fill-opacity:1.0000; stroke:none;">
<circle cx="18.9312" cy="54.7850" r="0.5000" /> 
</g>
<g style="fill:#FFFFFF; fill-opacity:1.0000; stroke:none;">
<circle cx="21.4712" cy="54.7850" r="0.5000" /> 
</g>
<g style="fill:#FFFFFF; fill-opacity:1.0000; stroke:none;">
<circle cx="24.0112" cy="54.7850" r="0.5000" /> 
</g>
<g style="fill:#FFFFFF; fill-opacity:1.0000; stroke:none;">
<circle cx="26.5512" cy="54.7850" r="0.5000" /> 
</g>
<g style="fill:#FFFFFF; fill-opacity:1.0000; stroke:none;">
<circle cx="29.0912" cy="54.7850" r="0.5000" /> 
</g>
<g style="fill:#FFFFFF; fill-opacity:1.0000; stroke:none;">
<circle cx="31.6312" cy="54.7850" r="0.5000" /> 
</g>
<g style="fill:#FFFFFF; fill-opacity:1.0000; stroke:none;">
<circle cx="34.1712" cy="54.7850" r="0.5000" /> 
</g>
<g style="fill:#FFFFFF; fill-opacity:1.0000; stroke:none;">
<circle cx="38.2312" cy="54.7850" r="0.5000" /> 
</g>
<g style="fill:#FFFFFF; fill-opacity:1.0000; stroke:none;">
<circle cx="40.7712" cy="54.7850" r="0.5000" /> 
</g>
<g style="fill:#FFFFFF; fill-opacity:1.0000; stroke:none;">
<circle cx="43.3112" cy="54.7850" r="0.5000" /> 
</g>
<g style="fill:#FFFFFF; fill-opacity:1.0000; stroke:none;">
<circle cx="45.8512" cy="54.7850" r="0.5000" /> 
</g>
<g style="fill:#FFFFFF; fill-opacity:1.0000; stroke:none;">
<circle cx="48.3912" cy="54.7850" r="0.5000" /> 
</g>
<g style="fill:#FFFFFF; fill-opacity:1.0000; stroke:none;">
<circle cx="50.9312" cy="54.7850" r="0.5000" /> 
</g>
<g style="fill:#FFFFFF; fill-opacity:1.0000; stroke:none;">
<circle cx="53.4712" cy="54.7850" r="0.5000" /> 
</g>
<g style="fill:#FFFFFF; fill-opacity:1.0000; stroke:none;">
<circle cx="56.0112" cy="54.7850" r="0.5000" /> 
</g> 
</svg>
