%TF.GenerationSoftware,KiCad,Pcbnew,9.0.7*%
%TF.CreationDate,2026-05-10T19:47:38+02:00*%
%TF.ProjectId,projetled,70726f6a-6574-46c6-9564-2e6b69636164,rev?*%
%TF.SameCoordinates,Original*%
%TF.FileFunction,Soldermask,Bot*%
%TF.FilePolarity,Negative*%
%FSLAX46Y46*%
G04 Gerber Fmt 4.6, Leading zero omitted, Abs format (unit mm)*
G04 Created by KiCad (PCBNEW 9.0.7) date 2026-05-10 19:47:38*
%MOMM*%
%LPD*%
G01*
G04 APERTURE LIST*
%ADD10R,1.800000X1.800000*%
%ADD11C,1.800000*%
%ADD12C,2.000000*%
%ADD13R,1.700000X1.700000*%
%ADD14C,1.700000*%
G04 APERTURE END LIST*
D10*
%TO.C,IR_LED1*%
X265590000Y-69670000D03*
D11*
X265590000Y-67130000D03*
%TD*%
D12*
%TO.C,SW1*%
X252000000Y-75000000D03*
X252000000Y-68500000D03*
X256500000Y-75000000D03*
X256500000Y-68500000D03*
%TD*%
%TO.C,SW4*%
X222000000Y-75000000D03*
X222000000Y-68500000D03*
X226500000Y-75000000D03*
X226500000Y-68500000D03*
%TD*%
%TO.C,SW2*%
X242000000Y-75000000D03*
X242000000Y-68500000D03*
X246500000Y-75000000D03*
X246500000Y-68500000D03*
%TD*%
%TO.C,SW3*%
X232000000Y-75000000D03*
X232000000Y-68500000D03*
X236500000Y-75000000D03*
X236500000Y-68500000D03*
%TD*%
D13*
%TO.C,J2*%
X252060000Y-92725000D03*
D14*
X254600000Y-92725000D03*
X257140000Y-92725000D03*
X259680000Y-92725000D03*
X262220000Y-92725000D03*
X264760000Y-92725000D03*
%TD*%
D13*
%TO.C,J5*%
X230220000Y-92725000D03*
D14*
X232760000Y-92725000D03*
X235300000Y-92725000D03*
X237840000Y-92725000D03*
X240380000Y-92725000D03*
X242920000Y-92725000D03*
X245460000Y-92725000D03*
X248000000Y-92725000D03*
%TD*%
D13*
%TO.C,J3*%
X242924000Y-44476000D03*
D14*
X240384000Y-44476000D03*
X237844000Y-44476000D03*
X235304000Y-44476000D03*
X232764000Y-44476000D03*
X230224000Y-44476000D03*
X227684000Y-44476000D03*
X225144000Y-44476000D03*
X222604000Y-44476000D03*
X220064000Y-44476000D03*
%TD*%
D13*
%TO.C,J4*%
X264749000Y-44476000D03*
D14*
X262209000Y-44476000D03*
X259669000Y-44476000D03*
X257129000Y-44476000D03*
X254589000Y-44476000D03*
X252049000Y-44476000D03*
X249509000Y-44476000D03*
X246969000Y-44476000D03*
%TD*%
M02*
