M48
; DRILL file {KiCad 9.0.7} date 2026-05-10T19:47:46+0200
; FORMAT={-:-/ absolute / metric / decimal}
; #@! TF.CreationDate,2026-05-10T19:47:46+02:00
; #@! TF.GenerationSoftware,Kicad,Pcbnew,9.0.7
; #@! TF.FileFunction,Plated,1,2,PTH
FMAT,2
METRIC
; #@! TA.AperFunction,Plated,PTH,ViaDrill
T1C0.300
; #@! TA.AperFunction,Plated,PTH,ComponentDrill
T2C0.900
; #@! TA.AperFunction,Plated,PTH,ComponentDrill
T3C1.000
; #@! TA.AperFunction,Plated,PTH,ComponentDrill
T4C1.100
%
G90
G05
T1
X224.575Y-52.775
X231.95Y-65.45
X232.85Y-59.325
X235.75Y-54.95
X254.85Y-62.7
X256.5Y-60.25
X259.125Y-57.125
X263.475Y-51.225
X265.0Y-58.475
T2
X265.59Y-67.13
X265.59Y-69.67
T3
X220.064Y-44.476
X222.604Y-44.476
X225.144Y-44.476
X227.684Y-44.476
X230.22Y-92.725
X230.224Y-44.476
X232.76Y-92.725
X232.764Y-44.476
X235.3Y-92.725
X235.304Y-44.476
X237.84Y-92.725
X237.844Y-44.476
X240.38Y-92.725
X240.384Y-44.476
X242.92Y-92.725
X242.924Y-44.476
X245.46Y-92.725
X246.969Y-44.476
X248.0Y-92.725
X249.509Y-44.476
X252.049Y-44.476
X252.06Y-92.725
X254.589Y-44.476
X254.6Y-92.725
X257.129Y-44.476
X257.14Y-92.725
X259.669Y-44.476
X259.68Y-92.725
X262.209Y-44.476
X262.22Y-92.725
X264.749Y-44.476
X264.76Y-92.725
T4
X222.0Y-68.5
X222.0Y-75.0
X226.5Y-68.5
X226.5Y-75.0
X232.0Y-68.5
X232.0Y-75.0
X236.5Y-68.5
X236.5Y-75.0
X242.0Y-68.5
X242.0Y-75.0
X246.5Y-68.5
X246.5Y-75.0
X252.0Y-68.5
X252.0Y-75.0
X256.5Y-68.5
X256.5Y-75.0
M30
