%TF.GenerationSoftware,KiCad,Pcbnew,9.0.7*%
%TF.CreationDate,2026-05-10T19:47:38+02:00*%
%TF.ProjectId,projetled,70726f6a-6574-46c6-9564-2e6b69636164,rev?*%
%TF.SameCoordinates,Original*%
%TF.FileFunction,Soldermask,Top*%
%TF.FilePolarity,Negative*%
%FSLAX46Y46*%
G04 Gerber Fmt 4.6, Leading zero omitted, Abs format (unit mm)*
G04 Created by KiCad (PCBNEW 9.0.7) date 2026-05-10 19:47:38*
%MOMM*%
%LPD*%
G01*
G04 APERTURE LIST*
G04 Aperture macros list*
%AMRoundRect*
0 Rectangle with rounded corners*
0 $1 Rounding radius*
0 $2 $3 $4 $5 $6 $7 $8 $9 X,Y pos of 4 corners*
0 Add a 4 corners polygon primitive as box body*
4,1,4,$2,$3,$4,$5,$6,$7,$8,$9,$2,$3,0*
0 Add four circle primitives for the rounded corners*
1,1,$1+$1,$2,$3*
1,1,$1+$1,$4,$5*
1,1,$1+$1,$6,$7*
1,1,$1+$1,$8,$9*
0 Add four rect primitives between the rounded corners*
20,1,$1+$1,$2,$3,$4,$5,0*
20,1,$1+$1,$4,$5,$6,$7,0*
20,1,$1+$1,$6,$7,$8,$9,0*
20,1,$1+$1,$8,$9,$2,$3,0*%
G04 Aperture macros list end*
%ADD10RoundRect,0.250000X-0.262500X-0.450000X0.262500X-0.450000X0.262500X0.450000X-0.262500X0.450000X0*%
%ADD11RoundRect,0.250000X-0.250000X-0.475000X0.250000X-0.475000X0.250000X0.475000X-0.250000X0.475000X0*%
%ADD12R,1.800000X1.800000*%
%ADD13C,1.800000*%
%ADD14C,2.000000*%
%ADD15RoundRect,0.250000X0.475000X-0.250000X0.475000X0.250000X-0.475000X0.250000X-0.475000X-0.250000X0*%
%ADD16RoundRect,0.150000X-0.587500X-0.150000X0.587500X-0.150000X0.587500X0.150000X-0.587500X0.150000X0*%
%ADD17R,1.700000X1.700000*%
%ADD18C,1.700000*%
G04 APERTURE END LIST*
D10*
%TO.C,R1*%
X258087500Y-63000000D03*
X259912500Y-63000000D03*
%TD*%
D11*
%TO.C,C4*%
X231050000Y-63000000D03*
X232950000Y-63000000D03*
%TD*%
D12*
%TO.C,IR_LED1*%
X265590000Y-69670000D03*
D13*
X265590000Y-67130000D03*
%TD*%
D10*
%TO.C,R6*%
X231087500Y-57000000D03*
X232912500Y-57000000D03*
%TD*%
D11*
%TO.C,C5*%
X221050000Y-63000000D03*
X222950000Y-63000000D03*
%TD*%
D14*
%TO.C,SW1*%
X252000000Y-75000000D03*
X252000000Y-68500000D03*
X256500000Y-75000000D03*
X256500000Y-68500000D03*
%TD*%
D10*
%TO.C,R5*%
X241087500Y-57000000D03*
X242912500Y-57000000D03*
%TD*%
%TO.C,R2*%
X263087500Y-55000000D03*
X264912500Y-55000000D03*
%TD*%
%TO.C,R7*%
X221087500Y-57000000D03*
X222912500Y-57000000D03*
%TD*%
D14*
%TO.C,SW4*%
X222000000Y-75000000D03*
X222000000Y-68500000D03*
X226500000Y-75000000D03*
X226500000Y-68500000D03*
%TD*%
D11*
%TO.C,C3*%
X241050000Y-63000000D03*
X242950000Y-63000000D03*
%TD*%
D15*
%TO.C,C1*%
X247000000Y-52950000D03*
X247000000Y-51050000D03*
%TD*%
D14*
%TO.C,SW2*%
X242000000Y-75000000D03*
X242000000Y-68500000D03*
X246500000Y-75000000D03*
X246500000Y-68500000D03*
%TD*%
D10*
%TO.C,R4*%
X251087500Y-57000000D03*
X252912500Y-57000000D03*
%TD*%
D16*
%TO.C,Q2*%
X265012500Y-61600000D03*
X265012500Y-63500000D03*
X266887500Y-62550000D03*
%TD*%
D14*
%TO.C,SW3*%
X232000000Y-75000000D03*
X232000000Y-68500000D03*
X236500000Y-75000000D03*
X236500000Y-68500000D03*
%TD*%
D11*
%TO.C,C2*%
X251050000Y-63000000D03*
X252950000Y-63000000D03*
%TD*%
D17*
%TO.C,J2*%
X252060000Y-92725000D03*
D18*
X254600000Y-92725000D03*
X257140000Y-92725000D03*
X259680000Y-92725000D03*
X262220000Y-92725000D03*
X264760000Y-92725000D03*
%TD*%
D17*
%TO.C,J5*%
X230220000Y-92725000D03*
D18*
X232760000Y-92725000D03*
X235300000Y-92725000D03*
X237840000Y-92725000D03*
X240380000Y-92725000D03*
X242920000Y-92725000D03*
X245460000Y-92725000D03*
X248000000Y-92725000D03*
%TD*%
D17*
%TO.C,J3*%
X242924000Y-44476000D03*
D18*
X240384000Y-44476000D03*
X237844000Y-44476000D03*
X235304000Y-44476000D03*
X232764000Y-44476000D03*
X230224000Y-44476000D03*
X227684000Y-44476000D03*
X225144000Y-44476000D03*
X222604000Y-44476000D03*
X220064000Y-44476000D03*
%TD*%
D17*
%TO.C,J4*%
X264749000Y-44476000D03*
D18*
X262209000Y-44476000D03*
X259669000Y-44476000D03*
X257129000Y-44476000D03*
X254589000Y-44476000D03*
X252049000Y-44476000D03*
X249509000Y-44476000D03*
X246969000Y-44476000D03*
%TD*%
M02*
